<?xml version="1.0" encoding="UTF-8" standalone="no"?>
<svg
   xmlns:dc="http://purl.org/dc/elements/1.1/"
   xmlns:cc="http://creativecommons.org/ns#"
   xmlns:rdf="http://www.w3.org/1999/02/22-rdf-syntax-ns#"
   xmlns:svg="http://www.w3.org/2000/svg"
   xmlns="http://www.w3.org/2000/svg"
   xmlns:sodipodi="http://sodipodi.sourceforge.net/DTD/sodipodi-0.dtd"
   xmlns:inkscape="http://www.inkscape.org/namespaces/inkscape"
   width="200"
   height="200"
   viewBox="0 0 52.916665 52.916668"
   version="1.1"
   id="svg8"
   inkscape:version="1.0.2-2 (e86c870879, 2021-01-15)"
   sodipodi:docname="Creative commmons 0 icon.svg">
  <defs
     id="defs2" />
  <sodipodi:namedview
     id="base"
     pagecolor="#ffffff"
     bordercolor="#666666"
     borderopacity="1.0"
     inkscape:pageopacity="0.0"
     inkscape:pageshadow="2"
     inkscape:zoom="1.2428876"
     inkscape:cx="400"
     inkscape:cy="560"
     inkscape:document-units="px"
     inkscape:current-layer="layer1"
     inkscape:document-rotation="0"
     showgrid="false"
     units="px"
     inkscape:window-width="3840"
     inkscape:window-height="2066"
     inkscape:window-x="-11"
     inkscape:window-y="-11"
     inkscape:window-maximized="1" />
  <metadata
     id="metadata5">
    <rdf:RDF>
      <cc:Work
         rdf:about="">
        <dc:format>image/svg+xml</dc:format>
        <dc:type
           rdf:resource="http://purl.org/dc/dcmitype/StillImage" />
        <dc:title></dc:title>
      </cc:Work>
    </rdf:RDF>
  </metadata>
  <g
     inkscape:label="Capa 1"
     inkscape:groupmode="layer"
     id="layer1">
    <path
       style="fill:#ececec;stroke-width:0.999999"
       d="m 0.04388226,25.881731 v -9.130393 l 0.32695053,-0.32695 0.3269505,-0.32695 H 26.921416 53.14505 l 0.289624,0.308289 0.289622,0.30829 v 9.149053 9.149053 H 26.884089 0.04388226 Z M 53.296575,33.313796 53.258085,32.14828 34.172687,32.11455 15.087292,32.08082 15.699943,31.448564 c 0.776815,-0.801673 1.543032,-2.099703 1.945778,-3.296298 0.263171,-0.781905 0.313829,-1.20118 0.313829,-2.597439 0,-1.396259 -0.05066,-1.815535 -0.313829,-2.59744 -0.442338,-1.314221 -1.191267,-2.532938 -2.128424,-3.463534 l -0.804561,-0.79893 19.272675,-0.0666 19.272674,-0.0666 0.03976,-0.759457 C 53.330365,17.181 53.287945,16.993161 53.06474,16.769951 L 52.791881,16.497044 H 26.884089 c -25.7301899,0 -25.90961871,0.0018 -26.17419645,0.266404 -0.26098114,0.260981 -0.26640421,0.444007 -0.26640421,8.991136 v 8.724732 H 26.889274 53.335063 Z M 7.264206,32.540345 C 4.7733967,31.869908 2.7625428,29.84251 2.1122957,27.346041 c -1.102207,-4.231658 1.9383228,-8.57316 6.2603513,-8.93901 4.045031,-0.342404 7.490415,2.608393 7.751909,6.639117 0.148704,2.292157 -0.465109,3.963808 -2.032734,5.535911 -1.843781,1.849049 -4.4530424,2.597434 -6.827616,1.958286 z m 3.021343,-1.265942 c 1.995681,-0.460078 3.62945,-1.935056 4.282021,-3.86584 0.375085,-1.109773 0.319522,-2.86282 -0.127368,-4.018593 -0.81274,-2.101954 -2.777984,-3.515358 -5.0940291,-3.663627 -4.3471049,-0.278294 -7.4783555,4.412715 -5.5610832,8.331205 0.466169,0.952748 1.5015568,2.077934 2.3893151,2.596539 1.1544092,0.674375 2.7997688,0.922637 4.1111442,0.620316 z M 7.8362007,29.474996 c -1.0619875,-0.5512 -1.6001269,-1.58676 -1.7407671,-3.349817 -0.105568,-1.323388 0.1921291,-2.82056 0.7093485,-3.567444 0.8734082,-1.261233 2.9442429,-1.51272 4.0712869,-0.494427 1.33786,1.208767 1.468346,5.142447 0.22309,6.725338 -0.652409,0.829301 -2.3141029,1.178831 -3.2629583,0.68635 z m 1.9000886,-1.689082 c 0.1548257,-0.164837 0.3436317,-0.569438 0.4195687,-0.899113 0.153902,-0.668152 0.191963,-2.172651 0.05834,-2.306269 -0.04743,-0.04743 -0.502329,0.634306 -1.0108882,1.514969 -0.7533925,1.304635 -0.8947617,1.63722 -0.763268,1.795661 0.2490421,0.300077 0.9705617,0.241494 1.2962435,-0.105248 z M 8.9691256,24.371315 C 9.249606,23.8303 9.4476872,23.305817 9.4093059,23.205797 9.2993701,22.919309 8.6454283,22.991273 8.3383939,23.323647 7.962011,23.731093 7.7709165,24.506249 7.7719466,25.621382 l 8.558e-4,0.932414 0.3431764,-0.599409 c 0.188747,-0.329676 0.5726603,-1.042058 0.8531407,-1.583072 z m 18.5979764,5.298563 c 0.48606,-0.454054 0.715608,-0.95734 0.715608,-1.568973 0,-1.05888 -0.498562,-1.788889 -1.384683,-2.027497 -1.804983,-0.486032 -3.128557,1.716112 -1.998181,3.324546 0.518797,0.738207 2.005819,0.889807 2.667256,0.271924 z m -1.866881,-0.635324 c -0.496115,-0.548201 -0.378945,-1.846018 0.194365,-2.152844 0.77618,-0.415399 1.45571,0.154975 1.45571,1.221873 0,0.470443 -0.07301,0.721056 -0.266404,0.91445 -0.343494,0.343493 -1.079807,0.352285 -1.383671,0.01652 z m -2.512856,0.590778 c 0.386427,-0.325158 0.702261,-1.090485 0.696753,-1.688369 -0.0016,-0.174653 -0.11957,-0.574556 -0.262136,-0.888673 -0.332961,-0.733616 -0.851779,-0.960702 -2.194897,-0.960702 h -1.003294 v 1.93143 1.931429 h 1.188597 c 1.065813,0 1.228514,-0.03358 1.574977,-0.325115 z m -1.83116,-1.522174 v -1.216357 h 0.52314 c 0.660766,0 1.075284,0.463375 1.075284,1.202025 0,0.683265 -0.338725,1.061727 -1.033677,1.154939 l -0.564747,0.07575 z m 8.553231,0.61517 0.0383,-1.232118 0.443902,1.232118 c 0.41116,1.141243 0.470493,1.232119 0.804461,1.232119 0.335984,0 0.388914,-0.08399 0.776498,-1.232119 l 0.415936,-1.232118 0.01172,1.232118 0.01172,1.232119 h 0.466207 0.466207 v -1.931429 -1.93143 h -0.659839 -0.65984 l -0.359778,1.198819 c -0.197878,0.65935 -0.400319,1.198818 -0.449872,1.198818 -0.04955,0 -0.271508,-0.524483 -0.493238,-1.165518 l -0.403146,-1.165517 -0.618378,-0.0406 -0.618376,-0.0406 v 1.938727 1.938728 h 0.394607 0.394608 z m 5.013416,0.832513 c 0.131895,-0.378357 0.178066,-0.399606 0.86826,-0.399606 0.701646,0 0.732245,0.01497 0.816724,0.399606 0.07729,0.351898 0.143865,0.399606 0.557642,0.399606 0.319216,0 0.450567,-0.05339 0.409655,-0.166503 -0.03312,-0.09158 -0.350304,-0.963678 -0.704852,-1.938004 l -0.644629,-1.771501 -0.46231,0.03988 c -0.508455,0.04385 -0.388939,-0.180094 -1.496331,2.803817 l -0.383115,1.032316 h 0.449826 c 0.380049,0 0.471434,-0.06199 0.58913,-0.399606 z m 0.419565,-1.203096 c 0,-0.07562 0.09642,-0.360334 0.214261,-0.63271 l 0.21426,-0.495229 0.175211,0.466207 c 0.263578,0.701332 0.238579,0.799212 -0.204126,0.799212 -0.219783,0 -0.399606,-0.06187 -0.399606,-0.13748 z m 3.862859,-0.328727 v -1.93143 h -0.466208 -0.466207 v 1.93143 1.931429 h 0.466207 0.466208 z m 1.759927,0.70547 0.0383,-1.225959 0.732611,1.223732 c 0.714501,1.193482 0.744959,1.223786 1.232119,1.225959 l 0.499507,0.0022 v -1.931415 -1.931429 h -0.461206 -0.461209 l -0.0383,1.197762 -0.0383,1.197762 -0.72654,-1.197762 c -0.67873,-1.118944 -0.755425,-1.197762 -1.165516,-1.197762 h -0.438977 v 1.931429 1.93143 h 0.394606 0.394609 z m -19.635337,-4.868033 0.04026,-0.699311 h 0.731704 c 0.918392,0 1.385606,-0.382685 1.385606,-1.134919 0,-1.009308 -0.589077,-1.395919 -2.126954,-1.395919 h -0.936691 v 2.00647 2.006469 l 0.432907,-0.04174 c 0.42216,-0.0407 0.433905,-0.0591 0.473168,-0.74105 z m 0.02634,-1.898129 c 0,-0.53202 8.05e-4,-0.532808 0.528121,-0.532808 0.391796,0 0.564925,0.06877 0.670697,0.266404 0.242521,0.453154 -0.04789,0.799212 -0.670697,0.799212 -0.527341,0 -0.528121,-8.05e-4 -0.528121,-0.532808 z m 5.763777,2.287919 c 0.269846,-0.269506 0.300958,-0.44887 0.341276,-1.967504 l 0.04436,-1.670964 -0.443966,0.04257 -0.443968,0.04257 -0.0666,1.529008 c -0.06589,1.512681 -0.0704,1.530341 -0.422583,1.653808 -0.268265,0.09405 -0.439472,0.0701 -0.694806,-0.09721 -0.323617,-0.212042 -0.340519,-0.28626 -0.376629,-1.653808 l -0.0378,-1.431803 h -0.399612 -0.399606 l -0.038,1.368595 c -0.05911,2.128985 0.27078,2.589245 1.805713,2.51933 0.6535,-0.02977 0.899926,-0.102589 1.132218,-0.334587 z m 3.886926,0.187595 c 0.248163,-0.10369 0.521459,-0.319794 0.607324,-0.480233 0.210642,-0.393588 0.05205,-1.158053 -0.276752,-1.334022 -0.236323,-0.126475 -0.242665,-0.162342 -0.06087,-0.344138 0.298068,-0.298067 0.256478,-1.026599 -0.07577,-1.32728 -0.230474,-0.208575 -0.489861,-0.252498 -1.498523,-0.253748 l -1.219805,-0.0015 -0.03735,1.791507 c -0.02054,0.985329 -0.0074,1.869457 0.02912,1.96473 0.09267,0.241486 1.944828,0.230294 2.532627,-0.01531 z m -1.658582,-1.069932 c 0,-0.468187 0.006,-0.473146 0.566108,-0.471128 0.71083,0.0026 0.9346,0.141758 0.877467,0.545832 -0.03998,0.282777 -0.122298,0.322394 -0.744265,0.358203 l -0.69931,0.04026 z m 0,-1.538784 c 0,-0.411033 0.0048,-0.413892 0.632709,-0.373604 0.575263,0.03691 0.63271,0.07083 0.63271,0.373604 0,0.30277 -0.05745,0.336692 -0.63271,0.373604 -0.627868,0.04029 -0.632709,0.03743 -0.632709,-0.373604 z m 5.969637,2.364336 0.04215,-0.366306 H 34.42308 33.486045 l -0.03753,-1.565123 -0.03753,-1.565124 -0.432906,-0.04174 -0.432907,-0.04174 v 2.011129 2.01113 l 1.365321,-0.03796 1.36532,-0.03796 z m 1.489676,-1.573563 v -2.00647 l -0.432907,0.04174 -0.432907,0.04174 -0.03735,1.791506 c -0.02054,0.98533 -0.0074,1.869458 0.02912,1.96473 0.03656,0.09527 0.248175,0.173223 0.470259,0.173223 h 0.403786 z m 3.861088,1.640164 c 0.221121,-0.201468 0.439352,-0.561113 0.484958,-0.799212 0.07894,-0.412099 0.06334,-0.432907 -0.324359,-0.432907 -0.292079,0 -0.431516,0.07636 -0.492961,0.269953 -0.125614,0.395774 -0.66849,0.707152 -1.061097,0.608614 -0.606612,-0.15225 -0.943652,-1.300793 -0.582861,-1.98624 0.207885,-0.394946 0.371683,-0.486318 0.876103,-0.488711 0.312858,-0.0015 0.489215,0.08859 0.648029,0.330965 0.152305,0.232447 0.338597,0.333005 0.61692,0.333005 0.367799,0 0.391807,-0.02841 0.30952,-0.366305 -0.04906,-0.201469 -0.236746,-0.516158 -0.417074,-0.699311 -0.282069,-0.286489 -0.447163,-0.333005 -1.181905,-0.333005 -0.763778,0 -0.897288,0.04143 -1.263236,0.392034 -0.68629,0.657509 -0.84525,1.634227 -0.411697,2.529656 0.345419,0.713402 0.830368,0.999802 1.700412,1.004225 0.577152,0.0029 0.766438,-0.05953 1.099248,-0.362761 z"
       id="path847" />
  </g>
</svg>
