<?xml version="1.0" encoding="UTF-8" standalone="no"?>
<svg
   xmlns:dc="http://purl.org/dc/elements/1.1/"
   xmlns:cc="http://creativecommons.org/ns#"
   xmlns:rdf="http://www.w3.org/1999/02/22-rdf-syntax-ns#"
   xmlns:svg="http://www.w3.org/2000/svg"
   xmlns="http://www.w3.org/2000/svg"
   xmlns:sodipodi="http://sodipodi.sourceforge.net/DTD/sodipodi-0.dtd"
   xmlns:inkscape="http://www.inkscape.org/namespaces/inkscape"
   width="100"
   height="100"
   viewBox="0 0 26.458333 26.458334"
   version="1.1"
   id="svg8"
   inkscape:version="1.0.2-2 (e86c870879, 2021-01-15)"
   sodipodi:docname="Pierna.svg">
  <defs
     id="defs2" />
  <sodipodi:namedview
     id="base"
     pagecolor="#ffffff"
     bordercolor="#666666"
     borderopacity="1.0"
     inkscape:pageopacity="0.0"
     inkscape:pageshadow="2"
     inkscape:zoom="3.5362812"
     inkscape:cx="-77.227133"
     inkscape:cy="30.089381"
     inkscape:document-units="px"
     inkscape:current-layer="g863"
     inkscape:document-rotation="0"
     showgrid="false"
     units="px"
     inkscape:window-width="3840"
     inkscape:window-height="2066"
     inkscape:window-x="-11"
     inkscape:window-y="-11"
     inkscape:window-maximized="1" />
     <metadata id="metadata">
      <rdf:RDF xmlns:rdf="http://www.w3.org/1999/02/22-rdf-syntax-ns#">
        <cc:Work rdf:about="">
          <dc:title>Pierna svg</dc:title>
          <dc:description>Pierna svg image icons design</dc:description>
          <dc:creator>
            <cc:Agent>
              <dc:title>Cosmicskull</dc:title>
            </cc:Agent>
          </dc:creator>
          <dc:rights>
          <dc:type
          rdf:resource="http://purl.org/dc/dcmitype/StillImage" />
            <cc:Agent rdf:about="http://creativecommons.org/publicdomain/zero/1.0/">
              <dc:title>CC0 1.0 Universal (CC0 1.0) Public Domain Dedication</dc:title>
            </cc:Agent>
          </dc:rights>
          <cc:license rdf:resource="http://creativecommons.org/publicdomain/zero/1.0/"/>
        </cc:Work>
      </rdf:RDF>
    </metadata>
  <g
     inkscape:label="Capa 1"
     inkscape:groupmode="layer"
     id="layer1">
    <g
       id="g863"
       transform="translate(42.016231,27.746566)">
      <path
         style="fill:#e6e6e6;fill-opacity:1;stroke-width:1"
         d="m 71.412586,83.623192 -0.366568,-0.432955 0.432955,0.366568 c 0.238125,0.201603 0.432954,0.396433 0.432954,0.432955 0,0.153978 -0.154863,0.04029 -0.499341,-0.366568 z M 44.370708,62.552737 c -0.239337,-0.305204 -0.232545,-0.311996 0.07266,-0.07266 0.320521,0.251383 0.422468,0.409402 0.264083,0.409402 -0.03995,0 -0.191481,-0.151534 -0.336742,-0.336743 z m -1.821757,-1.82803 -0.366569,-0.432954 0.432955,0.366568 c 0.406862,0.344478 0.520546,0.499341 0.366568,0.499341 -0.03652,0 -0.231352,-0.19483 -0.432954,-0.432955 z M -147.41419,-55.16279 c 0.004,-0.3175 0.047,-0.424092 0.0958,-0.236869 0.0488,0.187223 0.0456,0.446996 -0.007,0.577273 -0.0527,0.130277 -0.0926,-0.0229 -0.0887,-0.340404 z m 165.615201,-4.473864 c -0.239337,-0.305196 -0.232544,-0.312002 0.07266,-0.07265 0.185208,0.145252 0.336742,0.296786 0.336742,0.336743 0,0.158373 -0.158019,0.05644 -0.409402,-0.264091 z"
         id="path871" />
      <path
         style="fill:#aaaaaa;fill-opacity:1;stroke-width:1"
         d="m 75.838344,31.283799 -0.366568,-0.432955 0.432954,0.366568 c 0.406862,0.344478 0.520546,0.499341 0.366568,0.499341 -0.03652,0 -0.231351,-0.194829 -0.432954,-0.432954 z M 24.166163,-54.826048 c -0.239337,-0.305196 -0.232545,-0.312002 0.07266,-0.07265 0.185209,0.145252 0.336743,0.296786 0.336743,0.336743 0,0.158373 -0.158019,0.05644 -0.409402,-0.264091 z"
         id="path869" />
      <path
         style="fill:#000000;fill-opacity:1;stroke-width:1"
         d="m -21.209028,-6.0117721 c -0.354251,-0.07569 -0.560219,-0.240905 -0.847941,-0.680203 -0.106029,-0.1618848 -0.165573,-0.2863063 -0.209051,-0.4368198 -0.04379,-0.1515935 -0.04395,-0.2505341 -6.05e-4,-0.4061148 0.07804,-0.2804408 0.08754,-0.3265623 0.09537,-0.4631268 0.0094,-0.1640631 -0.0069,-0.2861856 -0.05022,-0.3771035 -0.06572,-0.1378018 -0.297503,-0.3206663 -0.746012,-0.5885679 -0.469301,-0.2803258 -0.592077,-0.3777721 -1.003897,-0.7968103 -0.51077,-0.5197188 -0.830593,-0.7648158 -1.115677,-0.8550078 l -0.0983,-0.0311 0.07135,-0.06482 c 0.03924,-0.03565 0.116384,-0.09592 0.171423,-0.133918 0.112515,-0.07769 0.258318,-0.200153 0.398507,-0.334721 0.139435,-0.133845 0.25676,-0.216075 0.452091,-0.316861 0.19344,-0.09981 0.261379,-0.161277 0.416648,-0.376958 0.09719,-0.134997 0.103963,-0.148792 0.182054,-0.370566 0.07184,-0.204026 0.08937,-0.242442 0.141365,-0.309927 0.02,-0.02593 0.04049,-0.05856 0.04557,-0.0725 0.0076,-0.0209 0.0206,-0.0091 0.07439,0.06738 0.03584,0.05099 0.143362,0.16851 0.238933,0.261152 0.09557,0.09264 0.235387,0.241205 0.310698,0.330141 0.197083,0.232728 0.467012,0.503162 0.583017,0.584103 0.130336,0.09094 0.236891,0.124615 0.422163,0.133406 0.17925,0.0085 0.277604,-0.0091 0.427742,-0.07654 0.063,-0.02832 0.132732,-0.05688 0.154963,-0.0635 0.02468,-0.0073 0.04193,-0.02245 0.0443,-0.03873 0.0075,-0.05198 0.155675,-0.129056 0.405731,-0.211101 0.269593,-0.08846 0.366748,-0.105475 0.598642,-0.104855 0.205205,6.05e-4 0.255438,0.01676 0.433994,0.140128 0.147005,0.101558 0.471334,0.414673 0.540544,0.521851 0.06091,0.09432 0.147452,0.323695 0.182229,0.482969 0.02771,0.126917 0.0308,0.175489 0.02998,0.471631 -6.05e-4,0.1815754 -0.0081,0.3867595 -0.017,0.4559599 -0.04193,0.3280688 -0.137657,0.6792983 -0.246577,0.9047569 -0.04967,0.1028189 -0.07663,0.1362741 -0.258131,0.3203063 -0.111465,0.1130227 -0.207223,0.2054956 -0.212795,0.2054956 -0.0056,0 -0.01204,-0.016215 -0.0144,-0.036017 -0.0072,-0.060697 -0.03376,-0.050968 -0.0412,0.015095 -0.0059,0.052151 -0.01652,0.069642 -0.07372,0.1210636 -0.08148,0.07326 -0.179059,0.1974397 -0.179059,0.2278848 0,0.015822 0.01177,0.022326 0.04042,0.022326 0.02677,0 0.04042,0.00675 0.04042,0.019996 0,0.011012 0.01485,0.071294 0.03303,0.133972 0.01815,0.062678 0.0497,0.1988191 0.07009,0.3025365 l 0.03706,0.188576 -0.06604,0.2112132 c -0.0719,0.2299241 -0.178318,0.4439261 -0.289785,0.5827361 -0.121784,0.151657 -0.395609,0.362141 -0.548337,0.421494 -0.06817,0.0265 -0.107601,0.0309 -0.307283,0.0344 -0.158397,0.0027 -0.256103,-0.0018 -0.316667,-0.0147 z m 0.414367,-0.429947 c 0.03725,-0.01888 0.08811,-0.05814 0.113023,-0.08725 0.05823,-0.06805 0.200268,-0.304987 0.200268,-0.3340832 0,-0.019633 -0.01334,-0.021267 -0.112502,-0.013643 -0.06188,0.00475 -0.171278,0.023566 -0.243107,0.041777 -0.07183,0.018211 -0.139448,0.030384 -0.150263,0.027014 -0.06451,-0.02003 -0.06481,-0.02024 -0.04886,-0.036187 0.0087,-0.00865 0.01573,-0.026652 0.01573,-0.039983 0,-0.030714 -0.04559,-0.031812 -0.155499,-0.00375 -0.137563,0.035125 -0.159843,0.1015242 -0.08369,0.2493872 0.05165,0.100269 0.09655,0.148191 0.190434,0.203227 0.05888,0.03451 0.07904,0.0395 0.137859,0.03411 0.03789,-0.0035 0.09936,-0.02175 0.136607,-0.04063 z m 0.367566,-0.5077175 c 0.03532,-0.066003 -0.01491,-0.1186525 -0.0728,-0.076319 -0.02366,0.017304 -0.02384,0.020722 -0.003,0.061147 0.02544,0.049219 0.0544,0.055019 0.07572,0.015186 z m -0.747603,-0.1350912 c 0.01119,-0.018121 -0.0318,-0.1337179 -0.04975,-0.1337179 -0.01225,0 -0.0031,0.1133616 0.01119,0.1381225 0.0084,0.014642 0.02816,0.012403 0.03856,-0.00442 z m 1.386745,-1.6105131 c 0.01101,-0.022931 0.02408,-0.075992 0.02898,-0.1179084 0.0084,-0.07166 0.0072,-0.076213 -0.01985,-0.076213 -0.01969,0 -0.0288,0.00841 -0.0288,0.026591 0,0.014642 -0.01745,0.070719 -0.03877,0.1246454 -0.02133,0.053923 -0.04282,0.1192667 -0.04776,0.1452073 l -0.009,0.047162 0.04757,-0.053899 c 0.02617,-0.029647 0.05659,-0.072664 0.06761,-0.095595 z m 0.243307,-0.4164608 c 0.177683,-0.4099356 0.1943,-0.4607188 0.261755,-0.7998597 0.05321,-0.2675626 0.02535,-0.6288656 -0.06178,-0.8007916 -0.04534,-0.08947 -0.145704,-0.194076 -0.265233,-0.276429 -0.190165,-0.131023 -0.262859,-0.154764 -0.376916,-0.123088 -0.06707,0.01863 -0.08484,0.05637 -0.06016,0.127704 0.03349,0.0968 0.127643,0.240055 0.245845,0.374088 0.108433,0.122951 0.117839,0.13837 0.135633,0.222339 0.02671,0.126028 0.02372,0.289523 -0.009,0.4944767 -0.03533,0.2211085 -0.05399,1.0164849 -0.02468,1.0518036 0.0094,0.011344 0.02175,0.015821 0.02741,0.00992 0.0057,-0.00587 0.06288,-0.1319542 0.127129,-0.2801807 z m -6.629972,-1.4107233 c -0.05929,-0.0065 -0.189665,-0.02344 -0.289716,-0.0376 -0.100054,-0.01416 -0.238352,-0.02959 -0.307328,-0.03428 -0.187641,-0.0128 -0.285653,-0.04634 -0.566412,-0.193925 -0.217018,-0.114078 -0.291398,-0.145389 -0.508831,-0.214184 -0.140064,-0.04431 -0.33349,-0.09641 -0.429838,-0.115778 -0.103203,-0.02075 -0.291437,-0.0753 -0.458153,-0.132792 l -0.282979,-0.09759 -0.215603,6.05e-4 c -0.185968,3.02e-4 -0.246161,0.0064 -0.437941,0.04357 -0.165776,0.03214 -0.501078,0.08397 -0.543195,0.08397 -0.0015,0 -0.0028,-0.01972 -0.0027,-0.0438 7.1e-5,-0.03837 -0.0047,-0.04435 -0.03903,-0.04826 -0.06213,-0.0071 -0.142999,0.036 -0.151997,0.08099 -0.0065,0.0323 -0.01415,0.03801 -0.0512,0.03801 -0.02398,0 -0.07152,0.0038 -0.105652,0.0085 l -0.06205,0.0085 0.03529,-0.09131 c 0.04014,-0.103866 0.03348,-0.132027 -0.03279,-0.13868 -0.03183,-0.0032 -0.05717,0.009 -0.11318,0.05459 -0.07736,0.06293 -0.09678,0.111638 -0.05942,0.148995 0.03176,0.03176 0.0264,0.03634 -0.04252,0.03634 -0.03491,0 -0.142538,0.0098 -0.239184,0.02172 -0.106377,0.01316 -0.218978,0.01876 -0.285339,0.01425 -0.111681,-0.0076 -0.819845,-0.158055 -1.027575,-0.218277 -0.246409,-0.07144 -0.346341,-0.144327 -0.581621,-0.424223 -0.19096,-0.227174 -0.251386,-0.25987 -0.488745,-0.264474 -0.180041,-0.0035 -0.208169,-0.01428 -0.250301,-0.09603 -0.03299,-0.064 -0.09952,-0.127138 -0.174899,-0.165963 -0.04298,-0.02214 -0.07455,-0.05448 -0.116222,-0.119085 -0.161004,-0.249581 -0.32583,-0.659838 -0.387517,-0.964537 -0.02598,-0.128339 -0.03002,-0.190818 -0.03001,-0.46493 10e-6,-0.375022 -0.0041,-0.356109 0.191042,-0.888261 0.262213,-0.715211 0.325013,-1.039271 0.309662,-1.597903 -0.01217,-0.442719 -0.05703,-0.748944 -0.17571,-1.199288 -0.07621,-0.289187 -0.118971,-0.641544 -0.143091,-1.179076 -0.02582,-0.575348 -0.08262,-0.797336 -0.331545,-1.295636 -0.06164,-0.1234 -0.140182,-0.267805 -0.17453,-0.320901 -0.102719,-0.158788 -0.20369,-0.385384 -0.295097,-0.662244 -0.103298,-0.31288 -0.152262,-0.535793 -0.169725,-0.772691 -0.01243,-0.168657 -0.03456,-0.353704 -0.0478,-0.399815 -0.0045,-0.01557 0.04324,-0.05868 0.165891,-0.149864 0.203429,-0.151241 0.228134,-0.165594 0.251563,-0.146149 0.01236,0.01026 0.04264,0.0016 0.110309,-0.03151 0.05484,-0.02684 0.270967,-0.09577 0.524481,-0.167275 0.531963,-0.15005 0.532873,-0.15028 0.860135,-0.217076 0.37255,-0.07604 0.564194,-0.09804 0.864684,-0.0993 0.304499,-0.0013 0.404324,0.01277 0.896097,0.125958 0.416962,0.09597 0.587074,0.144852 0.931968,0.267781 0.437866,0.156067 0.585905,0.215162 0.840014,0.335316 0.133404,0.06308 0.331936,0.155578 0.441184,0.205553 0.291368,0.133286 0.445358,0.241521 0.833667,0.585971 0.200102,0.177498 0.283771,0.282234 0.580384,0.726505 0.314692,0.471348 0.370128,0.587935 0.496976,1.045162 0.100141,0.360956 0.205008,0.5983 0.35351,0.80009 0.101403,0.13779 0.386421,0.421611 0.588955,0.586478 0.08523,0.06938 0.157251,0.132938 0.160049,0.14124 0.0086,0.0255 0.05931,0.07573 0.07648,0.07573 0.01715,0 0.154613,0.14098 0.236679,0.242745 0.0268,0.03325 0.07787,0.111989 0.113473,0.174985 0.0356,0.063 0.126482,0.217623 0.20196,0.343616 0.300059,0.50089 0.385686,0.671853 0.451716,0.901929 0.07379,0.257096 0.153514,0.408358 0.391113,0.742039 0.07916,0.11117 0.193997,0.290053 0.255199,0.397517 0.0612,0.107465 0.132054,0.2315 0.157453,0.275635 0.02541,0.04414 0.07811,0.14722 0.11714,0.229077 0.03903,0.08186 0.138516,0.268372 0.221093,0.414478 0.08258,0.146102 0.172277,0.309827 0.199337,0.363829 0.02705,0.054 0.0844,0.158823 0.127425,0.232934 0.04303,0.07411 0.08837,0.162039 0.100765,0.195391 0.0124,0.03335 0.06894,0.157538 0.12565,0.27597 0.09256,0.193307 0.10284,0.222706 0.100474,0.287401 -0.0036,0.09743 -0.03339,0.181171 -0.106921,0.300256 -0.03392,0.05491 -0.07707,0.130163 -0.0959,0.167221 -0.03936,0.07746 -0.219012,0.552115 -0.219012,0.578655 0,0.0097 -0.047,0.059 -0.104431,0.109483 -0.05744,0.05049 -0.117715,0.103494 -0.133948,0.117784 -0.01625,0.01428 -0.08406,0.04015 -0.150731,0.05747 -0.149718,0.03889 -0.381926,0.161504 -0.564751,0.29822 -0.0714,0.05339 -0.284912,0.248169 -0.474474,0.432839 -0.189563,0.184674 -0.369054,0.34821 -0.398864,0.363418 -0.126748,0.06466 -0.231469,0.07744 -0.443363,0.0541 z m -5.219146,-0.668773 c 0.0051,-0.005 0.03084,-0.04518 0.05727,-0.08921 0.06044,-0.10068 0.06485,-0.164502 0.01229,-0.177695 -0.04186,-0.0105 -0.20877,0.03902 -0.234019,0.06944 -0.02583,0.03112 -0.03333,0.137091 -0.01157,0.163316 0.04057,0.04888 0.141493,0.06846 0.176028,0.03415 z m -0.464447,-0.08062 c 0.02514,-0.01597 0.08472,-0.135101 0.08424,-0.168429 -0.0012,-0.0836 -0.0973,-0.123205 -0.217768,-0.08975 -0.06513,0.01809 -0.07472,0.05131 -0.0372,0.128817 0.05716,0.118075 0.117062,0.163464 0.170731,0.129362 z m 0.914271,-0.02251 c 0.01834,-0.01833 0.03704,-0.05182 0.04155,-0.07439 0.0045,-0.02257 0.01349,-0.04432 0.01994,-0.04831 0.0065,-0.004 0.01174,-0.03648 0.01174,-0.0722 0,-0.05958 -0.0034,-0.06634 -0.04078,-0.08184 -0.02457,-0.01017 -0.06451,-0.01364 -0.100478,-0.0087 -0.03372,0.0046 -0.06323,0.0024 -0.06781,-0.005 -0.02515,-0.0407 -0.135496,0.01017 -0.162554,0.07492 -0.01928,0.04614 -0.02641,0.169699 -0.01071,0.185408 0.0095,0.0095 0.08084,-0.02384 0.114978,-0.05373 0.01984,-0.01736 0.02335,-0.01646 0.03113,0.008 0.0087,0.02741 0.09752,0.109099 0.118635,0.109099 0.0061,0 0.02602,-0.01501 0.04436,-0.03334 z m 1.111696,-0.123929 c 0.02028,-0.05335 0.01055,-0.07798 -0.03276,-0.08295 -0.05633,-0.0065 -0.115304,0.02251 -0.125077,0.06146 -0.01065,0.04244 0.01136,0.05701 0.08655,0.05728 0.05012,1.39e-4 0.05938,-0.0045 0.07129,-0.03579 z m 1.400686,-0.0617 c 0.03384,-0.05551 0.03412,-0.09957 6.05e-4,-0.117433 -0.03702,-0.01982 -0.139402,-0.01727 -0.168737,0.0042 -0.05349,0.03911 0.02166,0.15706 0.10006,0.15706 0.03206,0 0.04718,-0.0097 0.06794,-0.04379 z m -1.475893,-0.125955 c 0.02854,-0.07475 0.01323,-0.09975 -0.06111,-0.09975 -0.04456,0 -0.09364,0.02617 -0.09364,0.0499 0,0.01727 0.05764,0.09907 0.07771,0.110312 0.0339,0.01897 0.05217,0.0046 0.07703,-0.06046 z m -0.429422,0.02777 c 0.01232,-0.01882 0.02307,-0.0567 0.02389,-0.08422 0.0014,-0.04612 -0.0017,-0.05035 -0.03893,-0.054 -0.05837,-0.0057 -0.09298,0.02478 -0.09298,0.08198 0,0.08732 0.06536,0.121345 0.10802,0.05624 z m -0.417861,-0.15988 c 0.05715,-0.122746 0.03156,-0.182747 -0.06984,-0.163721 -0.08105,0.01522 -0.109176,0.09718 -0.06517,0.189916 0.03862,0.08139 0.08952,0.07152 0.135012,-0.0262 z m -1.27255,0.05809 c 0.03763,-0.02015 0.105515,-0.174576 0.105515,-0.240046 0,-0.04623 -0.0056,-0.05599 -0.0425,-0.07441 -0.0531,-0.0265 -0.07661,-0.0265 -0.167546,0 -0.07342,0.02136 -0.113363,0.05784 -0.113363,0.103587 0,0.04092 0.06354,0.152634 0.108173,0.190189 0.04615,0.03883 0.06815,0.04299 0.109716,0.02075 z m 2.525996,-0.0652 c 0.02492,-0.05194 0.0298,-0.05603 0.03758,-0.03153 0.0049,0.01549 0.02429,0.03822 0.04305,0.05052 0.03129,0.02051 0.03681,0.02057 0.06685,9.07e-4 0.05395,-0.03535 0.03778,-0.154104 -0.02712,-0.199173 -0.02387,-0.01658 -0.0718,-0.0115 -0.09318,0.0099 -0.01112,0.0111 -0.03732,0.0203 -0.05823,0.02042 -0.02091,1.39e-4 -0.04469,0.0047 -0.05285,0.0101 -0.02519,0.01682 -0.04581,0.06677 -0.04581,0.110963 0,0.112251 0.08088,0.129646 0.129706,0.02789 z m -1.610423,-0.115848 c 0.0377,-0.08524 0.03042,-0.15674 -0.01767,-0.17355 -0.04528,-0.01582 -0.139154,0.0097 -0.151215,0.04116 -0.01009,0.02629 0.03832,0.131228 0.07728,0.167527 0.04217,0.03929 0.06206,0.03166 0.09161,-0.03513 z m -1.531785,-0.110388 c 0.0444,-0.04788 0.07792,-0.143625 0.05746,-0.164091 -0.0082,-0.0082 -0.04937,-0.01488 -0.09154,-0.01488 -0.141384,0 -0.172288,0.07176 -0.07347,0.17058 0.02476,0.02478 0.05145,0.04502 0.0593,0.04502 0.0079,0 0.02957,-0.01649 0.04825,-0.03664 z m 0.972384,-0.01071 c 0.01221,-0.01863 0.02523,-0.06077 0.02894,-0.09365 0.0063,-0.05631 0.0046,-0.0603 -0.03048,-0.06911 -0.04793,-0.01204 -0.127953,0.0084 -0.145934,0.03715 -0.0103,0.01652 -0.0074,0.03712 0.01112,0.07812 0.03921,0.08695 0.09725,0.107169 0.136354,0.04749 z m -0.555216,-0.03198 c 0.02915,-0.03221 0.07548,-0.153 0.07548,-0.196789 0,-0.04009 -0.04228,-0.05473 -0.121474,-0.04207 -0.112523,0.018 -0.148029,0.05573 -0.148029,0.157329 0,0.04585 0.0062,0.05726 0.04379,0.08016 0.05555,0.03387 0.120279,0.03446 0.150227,0.0015 z m 1.453633,-0.02511 c 0.03216,-0.03554 0.07717,-0.148574 0.07717,-0.193798 0,-0.03396 -0.0086,-0.04387 -0.05727,-0.06596 -0.06544,-0.02971 -0.0917,-0.03185 -0.159557,-0.01301 -0.0317,0.0088 -0.05399,0.02574 -0.06462,0.04907 -0.01407,0.03088 -0.01135,0.04561 0.02046,0.110618 0.06093,0.124537 0.133216,0.169 0.183824,0.113068 z m -1.962959,-0.388191 c 0.03951,-0.04822 0.05057,-0.07356 0.05143,-0.117908 10e-4,-0.05277 -0.0024,-0.05819 -0.05186,-0.08234 -0.04658,-0.02275 -0.06178,-0.02399 -0.126159,-0.0105 -0.08338,0.01749 -0.110594,0.03526 -0.110594,0.07223 0,0.03937 0.05266,0.135663 0.0925,0.169136 0.05462,0.04589 0.08773,0.03888 0.144673,-0.03062 z m 0.657387,-0.216471 c 0.0443,-0.109011 0.04112,-0.15153 -0.0132,-0.176399 -0.02657,-0.01216 -0.05259,-0.01274 -0.101642,-0.0021 -0.07167,0.01537 -0.105965,0.04066 -0.105965,0.07816 0,0.0348 0.06443,0.152047 0.09868,0.179588 0.05308,0.04268 0.0796,0.0255 0.122123,-0.07913 z m -0.527798,-0.207214 c 0.0488,-0.09875 0.04858,-0.141804 -8.77e-4,-0.167372 -0.0211,-0.01092 -0.05293,-0.01655 -0.07075,-0.01255 -0.134319,0.03027 -0.149616,0.05165 -0.106755,0.149228 0.05795,0.131933 0.122822,0.143092 0.178371,0.03068 z m 3.644911,-3.779912 c 0.0278,-0.01948 0.111719,-0.178155 0.111719,-0.211263 0,-0.0088 0.01346,-0.04361 0.02995,-0.07745 0.04096,-0.08417 0.05018,-0.233965 0.0167,-0.270979 -0.01313,-0.0145 -0.03617,-0.02636 -0.05122,-0.02636 -0.01503,0 -0.04104,-0.01285 -0.05775,-0.02855 -0.02816,-0.02647 -0.03658,-0.0275 -0.115406,-0.01413 -0.285545,0.04844 -0.32947,0.07638 -0.316565,0.201417 0.0052,0.05017 0.02357,0.100409 0.05948,0.162443 0.02859,0.0494 0.06081,0.10743 0.0716,0.128962 0.0108,0.02153 0.04014,0.05488 0.06521,0.07411 0.02508,0.01923 0.05523,0.04557 0.067,0.05855 0.02629,0.02897 0.08047,0.03044 0.1193,0.0032 z m 1.347746,-0.289595 c 0.02768,-0.05574 0.04359,-0.108052 0.04379,-0.143871 2.78e-4,-0.04982 -0.0046,-0.05872 -0.04218,-0.07748 -0.02338,-0.01166 -0.05576,-0.0212 -0.07197,-0.0212 -0.04612,0 -0.158158,0.0372 -0.170465,0.0566 -0.03287,0.05182 0.01159,0.16396 0.09377,0.236592 0.07047,0.06227 0.09524,0.05374 0.147056,-0.05064 z m 1.227084,-0.235264 c 0.01434,-0.01822 0.03358,-0.05309 0.04276,-0.07748 0.0092,-0.02439 0.02345,-0.05847 0.03167,-0.07574 0.0082,-0.01727 0.01522,-0.06247 0.01549,-0.100451 3.02e-4,-0.05736 -0.0044,-0.07153 -0.02838,-0.08367 -0.01588,-0.008 -0.0384,-0.02251 -0.05003,-0.03217 -0.01749,-0.01451 -0.04017,-0.01345 -0.130578,0.0061 -0.121986,0.02636 -0.157021,0.0566 -0.143468,0.123847 0.01216,0.06034 0.108022,0.221249 0.140727,0.236215 0.01667,0.0076 0.03032,0.01897 0.03032,0.02519 0,0.02535 0.06694,0.0094 0.09148,-0.02182 z m -2.667381,-0.427963 c 0.01733,-0.03497 0.03475,-0.0875 0.03867,-0.116726 0.0065,-0.04877 0.0037,-0.0549 -0.03424,-0.07454 -0.04808,-0.02486 -0.08404,-0.02661 -0.153106,-0.0074 -0.02986,0.0083 -0.05314,0.02448 -0.05821,0.04045 -0.01056,0.03327 0.04573,0.159567 0.08915,0.200009 0.04709,0.04387 0.08127,0.03175 0.117742,-0.04177 z m 1.04075,-0.328476 c 0.01797,-0.01923 0.04933,-0.04364 0.0697,-0.05423 0.03603,-0.01874 0.128121,-0.174608 0.112436,-0.190294 -0.004,-0.004 0.0015,-0.02309 0.01195,-0.04243 0.0262,-0.0479 0.04794,-0.164692 0.03811,-0.204622 -0.01177,-0.0479 -0.02723,-0.06299 -0.103654,-0.101384 -0.0592,-0.02973 -0.07937,-0.03333 -0.143036,-0.02552 -0.101115,0.01241 -0.213243,0.04242 -0.251075,0.06721 -0.06896,0.04519 -0.09402,0.162297 -0.05623,0.262839 0.03771,0.100354 0.125338,0.237157 0.178402,0.278523 0.0676,0.0527 0.101249,0.05502 0.143395,0.0099 z m 1.074779,-0.08115 c 0.04607,-0.05589 0.09654,-0.18384 0.09654,-0.244741 0,-0.0325 -0.0086,-0.04574 -0.04017,-0.06147 -0.03384,-0.01688 -0.05138,-0.01741 -0.111168,-0.0033 -0.102302,0.02408 -0.156537,0.05661 -0.181434,0.10882 -0.02027,0.0425 -0.02015,0.05017 0.0015,0.107101 0.02756,0.07219 0.105493,0.142355 0.158101,0.142355 0.02541,0 0.04849,-0.0147 0.07655,-0.04874 z m -2.565501,-0.347617 c 0.03617,-0.01511 0.05569,-0.03916 0.0944,-0.116282 0.02684,-0.05348 0.04562,-0.100406 0.04173,-0.10429 -0.0039,-0.0039 0.0061,-0.0284 0.02225,-0.05448 0.04139,-0.06697 0.05244,-0.260179 0.01712,-0.299212 -0.01322,-0.01459 -0.03584,-0.02653 -0.0503,-0.02653 -0.01446,0 -0.04468,-0.01548 -0.06717,-0.03441 -0.02503,-0.02106 -0.0493,-0.03105 -0.06258,-0.02575 -0.01193,0.0048 -0.05808,0.01413 -0.102546,0.02082 -0.116869,0.01759 -0.223847,0.04854 -0.246699,0.0714 -0.01091,0.01091 -0.02266,0.04928 -0.02612,0.08527 -0.0057,0.05918 0.001,0.07958 0.07021,0.213239 0.04207,0.08129 0.09578,0.164521 0.119339,0.184958 0.136568,0.118453 0.124216,0.112919 0.19037,0.08528 z m 2.068556,-0.02106 c 0.02952,-0.01579 0.08471,-0.108053 0.108346,-0.181097 0.0236,-0.07291 -0.0039,-0.09416 -0.107771,-0.08336 -0.184292,0.01915 -0.226154,0.05642 -0.175305,0.156098 0.05269,0.103293 0.113613,0.141072 0.17473,0.108363 z m -0.135276,-0.615228 c 0.04623,-0.0092 0.08195,-0.06003 0.08195,-0.116503 0,-0.02523 -0.01422,-0.03871 -0.06674,-0.06331 -0.05671,-0.02656 -0.07999,-0.03002 -0.15489,-0.02303 -0.11391,0.01064 -0.147734,0.02763 -0.128082,0.06435 0.01927,0.03603 0.171244,0.147039 0.201287,0.147039 0.01307,0 0.043,-0.0038 0.06648,-0.0085 z m -1.570378,-0.259644 c 0.02692,-0.0229 0.07909,-0.127172 0.0831,-0.166148 0.0012,-0.01284 0.0097,-0.03213 0.01861,-0.04286 0.01994,-0.02403 0.0346,-0.154629 0.02269,-0.202102 -0.0055,-0.02177 -0.01812,-0.03489 -0.03363,-0.03489 -0.01367,0 -0.04068,-0.01243 -0.06,-0.02763 -0.0387,-0.03044 -0.06661,-0.0291 -0.22286,0.01068 -0.06937,0.01766 -0.09069,0.02973 -0.110717,0.06266 -0.03095,0.05089 -0.02527,0.07804 0.0463,0.221614 0.04187,0.084 0.07237,0.125473 0.120846,0.164329 0.06691,0.05364 0.08696,0.05576 0.135666,0.01435 z m 1.191442,-0.117334 c 0.01703,-0.01936 0.03448,-0.05284 0.0388,-0.07441 0.0043,-0.02157 0.01313,-0.04248 0.01957,-0.04647 0.0064,-0.004 0.01174,-0.03709 0.01174,-0.07356 0,-0.06415 -0.0018,-0.06723 -0.05573,-0.09474 -0.111151,-0.05671 -0.321568,0.0048 -0.321568,0.09401 0,0.03813 0.08833,0.165411 0.143416,0.20667 0.06221,0.04659 0.116003,0.04281 0.163779,-0.0115 z m -0.69322,-0.387489 c 0.03266,-0.07978 0.02051,-0.107803 -0.04934,-0.113765 -0.07337,-0.0063 -0.108358,0.0176 -0.09845,0.06716 0.0044,0.02217 0.0209,0.05833 0.03657,0.08036 0.04162,0.05845 0.07799,0.04741 0.111217,-0.03375 z m 0.595501,-0.02815 c 0.01818,-0.01819 0.03307,-0.04427 0.03307,-0.05794 0,-0.01368 0.0065,-0.03137 0.01446,-0.03933 0.008,-0.0079 0.01249,-0.03474 0.0101,-0.05953 -0.0118,-0.122368 -0.253641,-0.146469 -0.253641,-0.02528 0,0.06558 0.10474,0.215154 0.150659,0.215154 0.0068,0 0.02717,-0.01488 0.04534,-0.03308 z m -1.749055,-0.208677 c 0.04161,-0.06196 0.05235,-0.108207 0.02882,-0.124107 -0.02435,-0.01645 -0.127469,-0.006 -0.153411,0.0155 -0.02476,0.02055 -0.02716,0.122428 -0.0034,0.146145 0.03111,0.03111 0.0944,0.01255 0.128038,-0.03754 z m 0.940456,-0.05586 c 0.03068,-0.06803 0.01628,-0.09841 -0.04905,-0.103421 -0.06128,-0.0047 -0.08523,0.0125 -0.07486,0.05378 0.01056,0.0421 0.05953,0.104699 0.0819,0.104699 0.0094,0 0.02835,-0.02478 0.04202,-0.05506 z m 0.809479,-0.08282 c 0.04102,-0.01869 0.09957,-0.134657 0.09957,-0.197216 0,-0.04447 -0.03273,-0.06363 -0.130998,-0.07667 -0.08426,-0.01118 -0.21442,0.02463 -0.226366,0.06227 -0.01059,0.03334 0.06181,0.162667 0.112034,0.200155 0.0419,0.03127 0.09339,0.03532 0.145757,0.01146 z m -1.557872,-0.314331 c 0,-0.01068 0.01119,-0.01942 0.02486,-0.01942 0.03156,0 0.06469,-0.03646 0.07664,-0.08435 0.0051,-0.02045 0.01467,-0.04052 0.02126,-0.04459 0.0066,-0.0041 0.01198,-0.03102 0.01198,-0.05988 0,-0.04661 -0.0052,-0.05495 -0.04662,-0.07459 -0.09442,-0.04481 -0.222944,0.01 -0.201732,0.08603 0.0055,0.01974 0.01088,0.05711 0.01193,0.08305 0.002,0.04997 0.02036,0.09194 0.05551,0.127087 0.02352,0.02352 0.04617,0.01697 0.04617,-0.01334 z m 1.240047,-0.134833 c 0.02157,-0.05677 0.01564,-0.07181 -0.03739,-0.09454 -0.08037,-0.03446 -0.254661,-0.02558 -0.242282,0.01234 0.0027,0.0086 0.03499,0.03841 0.07149,0.06616 0.05516,0.04195 0.07722,0.05047 0.130701,0.05053 0.0567,5.4e-5 0.0659,-0.004 0.07748,-0.0345 z m -1.951133,-0.08159 c 0.03486,-0.01322 0.08567,-0.05165 0.128905,-0.09748 0.05837,-0.06188 0.07064,-0.08305 0.06738,-0.116291 -0.0061,-0.06221 -0.05453,-0.06008 -0.147802,0.0065 -0.08662,0.06183 -0.158289,0.177717 -0.130571,0.211115 0.01836,0.02212 0.01295,0.02238 0.08209,-0.0038 z m -1.240502,-0.0948 c 0.01355,-0.01226 0.02464,-0.03652 0.02464,-0.0539 0,-0.02781 -0.0064,-0.0316 -0.05315,-0.0316 -0.07032,0 -0.13754,0.05266 -0.109833,0.08604 0.02364,0.02848 0.106629,0.02815 0.13834,-5.45e-4 z m 2.701986,-0.04844 c 0.03677,-0.06871 0.05769,-0.134307 0.05791,-0.181568 1.39e-4,-0.03526 -0.0078,-0.04761 -0.04249,-0.06553 -0.07967,-0.0412 -0.22696,0.0014 -0.226678,0.06549 2.12e-4,0.04748 0.06028,0.164059 0.101061,0.196141 0.05199,0.04089 0.08271,0.03684 0.1102,-0.01454 z m 0.396347,0.03017 c 0.03821,-0.01062 0.05379,-0.02516 0.07331,-0.06846 0.0453,-0.100447 -0.01997,-0.133586 -0.147813,-0.07506 -0.120016,0.05495 -0.146692,0.132873 -0.05052,0.147587 0.06488,0.0099 0.07592,0.0096 0.125018,-0.0041 z m -2.405897,-0.0372 c 0.01525,-0.01281 0.03452,-0.03929 0.04283,-0.05886 0.01041,-0.02453 0.03529,-0.04303 0.08008,-0.05959 0.07736,-0.0286 0.09866,-0.04332 0.09866,-0.06819 0,-0.03128 -0.05855,-0.02082 -0.127206,0.02273 -0.04602,0.02919 -0.06931,0.03709 -0.07945,0.02695 -0.0092,-0.0092 -0.0094,-0.01434 -7.57e-4,-0.01434 0.0075,0 0.02537,-0.0093 0.03975,-0.02065 0.02393,-0.01889 0.01814,-0.01991 -0.06817,-0.01203 -0.101815,0.0093 -0.216146,0.05042 -0.202325,0.07279 0.0047,0.0076 0.01924,0.0138 0.03235,0.0138 0.01858,0 0.02257,0.0085 0.01813,0.03876 -0.01047,0.07137 0.103163,0.111482 0.166095,0.05863 z m -1.649618,-0.377005 c 0.04458,-0.05388 0.09486,-0.194905 0.09005,-0.252611 -0.0034,-0.04116 -0.01272,-0.05684 -0.04475,-0.07554 -0.05085,-0.02969 -0.09283,-0.03085 -0.191363,-0.0053 -0.07781,0.02016 -0.111828,0.04661 -0.111828,0.08696 0,0.04211 0.0815,0.187023 0.128279,0.228095 0.05355,0.04702 0.10043,0.05368 0.12961,0.01842 z m 1.135144,-0.06065 c 0.04423,-0.05799 0.08923,-0.164752 0.08923,-0.2117 0,-0.04839 -0.05724,-0.07527 -0.131158,-0.06158 -0.171318,0.03171 -0.213204,0.143628 -0.09878,0.263916 0.0617,0.06485 0.09661,0.06718 0.140701,0.0094 z m 1.411954,-0.161686 c 0.02573,-0.02085 0.09217,-0.14141 0.09217,-0.167242 0,-0.01044 0.01035,-0.03478 0.02299,-0.05408 0.01639,-0.02501 0.02316,-0.06444 0.02358,-0.137333 l 5.74e-4,-0.102246 -0.0539,-0.03036 c -0.02965,-0.0167 -0.06143,-0.03415 -0.07064,-0.03877 -0.0092,-0.0046 -0.05691,-0.0014 -0.10601,0.0071 -0.0491,0.0085 -0.09008,0.01373 -0.09106,0.01151 -0.03948,-0.08896 -0.117479,-0.13821 -0.241025,-0.152184 -0.06365,-0.0072 -0.07899,-0.005 -0.0857,0.01251 -0.01175,0.03063 0.09503,0.203756 0.143246,0.232236 0.02905,0.01716 0.0402,0.03398 0.0402,0.06066 0,0.0203 0.0291,0.09215 0.06468,0.159671 0.09056,0.171885 0.195344,0.25161 0.260883,0.198493 z m 1.203524,-0.02291 c 0.02453,-0.04746 0.02553,-0.08066 0.0033,-0.109637 -0.05921,-0.07712 -0.227991,-0.06761 -0.339818,0.01913 l -0.02695,0.02091 0.02695,0.02689 c 0.04294,0.04285 0.154201,0.08092 0.238839,0.08173 0.07211,6.95e-4 0.07847,-0.0019 0.09769,-0.03902 z m -0.675663,-0.03243 c 0.03959,-0.0339 0.05217,-0.05502 0.0539,-0.09045 0.0027,-0.05588 -0.02039,-0.06276 -0.132545,-0.03948 -0.07199,0.01494 -0.114494,0.04097 -0.114494,0.07011 0,0.02258 0.09383,0.105115 0.118867,0.104555 0.01244,-2.8e-4 0.04586,-0.02041 0.07427,-0.04473 z m -2.606266,-0.0957 c 0.03676,-0.01901 0.09868,-0.122385 0.103102,-0.172122 0.0011,-0.01284 0.01002,-0.03292 0.01974,-0.04463 0.0104,-0.01253 0.01809,-0.05829 0.01869,-0.11122 10e-4,-0.08896 5.75e-4,-0.09008 -0.04072,-0.103618 -0.02296,-0.0075 -0.05139,-0.02169 -0.06317,-0.03146 -0.02348,-0.01949 -0.09481,-0.01339 -0.225228,0.01926 -0.09289,0.02326 -0.126522,0.06001 -0.117368,0.12826 0.01068,0.07964 0.09915,0.223008 0.174243,0.282364 0.07535,0.05956 0.07824,0.06029 0.130701,0.03316 z m 1.252054,-0.09285 c 0.01924,-0.01496 0.05298,-0.08474 0.08953,-0.185178 0.02919,-0.08021 0.02302,-0.14853 -0.01513,-0.167429 -0.01588,-0.0079 -0.03854,-0.02233 -0.05036,-0.03213 -0.01351,-0.01121 -0.03529,-0.01444 -0.05871,-0.0087 -0.03308,0.0081 -0.03457,0.0072 -0.01333,-0.0086 0.02781,-0.02069 0.06548,-0.134463 0.05183,-0.156546 -0.01453,-0.02351 -0.103907,-0.05653 -0.152783,-0.05645 -0.07298,1.4e-4 -0.142955,0.02524 -0.152292,0.05466 -0.01071,0.03374 0.04616,0.134158 0.0978,0.172679 0.0277,0.02066 0.03138,0.02787 0.0144,0.02819 -0.03051,5.75e-4 -0.06477,0.05169 -0.06477,0.09665 0,0.05407 0.09417,0.22119 0.146203,0.259473 0.04399,0.03236 0.06936,0.03317 0.107614,0.0034 z m -3.161425,-0.51746 c 0.02841,-0.0324 0.06435,-0.105407 0.06435,-0.130713 0,-0.03344 -0.07173,-0.02569 -0.112571,0.01216 -0.0344,0.03188 -0.05001,0.109813 -0.02667,0.133149 0.01653,0.01653 0.05401,0.0092 0.07489,-0.0146 z m 0.410225,-0.154964 c 0.04795,-0.03278 0.07967,-0.0916 0.06708,-0.124403 -0.01911,-0.04979 -0.169779,0.0049 -0.209768,0.07616 -0.01664,0.02965 -0.01699,0.03915 -0.0021,0.05707 0.02546,0.03067 0.09306,0.02655 0.144814,-0.0088 z m 0.738876,-0.101995 c 0.04857,-0.0085 0.05432,-0.0138 0.05812,-0.05312 l 0.0042,-0.04364 h -0.106644 c -0.09946,0 -0.140873,0.0076 -0.235818,0.04343 -0.0438,0.01651 -0.04166,0.03955 0.0049,0.05255 0.04354,0.01217 0.207886,0.01264 0.275242,7.87e-4 z m 10.19223,10.02644 c -0.01676,-0.02139 -0.01628,-0.02184 0.0051,-0.0051 0.01298,0.01017 0.0236,0.02078 0.0236,0.0236 0,0.0111 -0.01107,0.004 -0.02868,-0.01848 z m -12.058538,-0.241371 c -0.174166,-0.09994 -0.428267,-0.245497 -0.564668,-0.323468 -0.28059,-0.16039 -0.347942,-0.203462 -0.762633,-0.4877 -0.438648,-0.300655 -0.485024,-0.335762 -0.594027,-0.449653 -0.1638,-0.171145 -0.438334,-0.553191 -0.588456,-0.818903 -0.109778,-0.194303 -0.250588,-0.476067 -0.299669,-0.599643 -0.08273,-0.208304 -0.173948,-0.658669 -0.216972,-1.071275 -0.02682,-0.257197 -0.01948,-0.543278 0.02127,-0.828721 0.02066,-0.144722 0.03215,-0.318852 0.04047,-0.61312 0.01288,-0.45589 0.01647,-0.479941 0.125914,-0.843339 0.03329,-0.110541 0.07987,-0.270135 0.103504,-0.354653 0.02364,-0.08452 0.05432,-0.180141 0.06819,-0.212495 0.02812,-0.0656 0.137281,-0.253702 0.213435,-0.36778 0.04408,-0.06604 0.137632,-0.22434 0.250103,-0.423229 0.04597,-0.08129 0.127276,-0.172853 0.147196,-0.165766 0.01397,0.005 0.0284,-0.01833 0.102421,-0.165347 0.03696,-0.0734 0.107828,-0.348526 0.107828,-0.418582 0,-0.07019 0.04536,-0.28821 0.07733,-0.3717 0.01446,-0.03775 0.04553,-0.09661 0.06905,-0.130802 0.06414,-0.09323 0.22679,-0.253794 0.321611,-0.317492 0.124402,-0.08357 0.125121,-0.08356 0.100368,7.56e-4 -0.03252,0.110762 -0.0308,0.737139 0.0025,0.920439 0.03649,0.200734 0.131677,0.562919 0.216802,0.824941 0.153081,0.471194 0.327449,1.281882 0.457299,2.126116 0.07404,0.481368 0.07707,0.528982 0.08776,1.378167 0.0065,0.517375 0.01495,0.803631 0.02395,0.812634 0.0095,0.0095 0.01657,-0.0127 0.02244,-0.07108 0.04468,-0.444589 0.05796,-0.629867 0.104616,-1.459442 0.05112,-0.908853 -0.109294,-2.166546 -0.378966,-2.971269 -0.130807,-0.390341 -0.194815,-0.601724 -0.230292,-0.760533 -0.0506,-0.226527 -0.09609,-0.585568 -0.09775,-0.771638 -0.0015,-0.161163 -0.004,-0.178997 -0.02728,-0.189382 -0.0218,-0.0097 0.0013,-0.03249 0.152355,-0.15018 0.09793,-0.07629 0.180421,-0.136342 0.183321,-0.133442 0.0029,0.0029 -0.0073,0.04443 -0.02257,0.09228 -0.02159,0.06747 -0.02777,0.121805 -0.02754,0.241974 9.07e-4,0.478074 0.216043,1.140968 0.525099,1.618049 0.107704,0.166261 0.259822,0.482354 0.318853,0.66256 0.05723,0.174695 0.08354,0.322605 0.101286,0.569385 0.0075,0.103758 0.02013,0.279609 0.02815,0.390779 0.02394,0.331847 0.09889,0.7438 0.195729,1.075762 0.09507,0.325886 0.152859,0.827652 0.136063,1.181325 -0.0101,0.212585 -0.06053,0.510072 -0.123354,0.727606 -0.02675,0.09261 -0.123602,0.356389 -0.215236,0.586168 -0.09163,0.22978 -0.179299,0.459449 -0.194812,0.510375 -0.04434,0.145567 -0.0591,0.321368 -0.05147,0.613086 0.0095,0.362653 0.04947,0.553849 0.18033,0.862248 0.05561,0.131056 0.168937,0.355195 0.217291,0.429762 0.01081,0.01667 0.01745,0.02977 0.01474,0.02913 -0.0027,-6.05e-4 -0.147418,-0.08296 -0.321585,-0.182901 z m -0.176907,-0.265233 c 0.03278,-0.0395 0.032,-0.0975 -0.0022,-0.165092 -0.09257,-0.182798 -0.109749,-0.327125 -0.08851,-0.743495 l 0.01669,-0.327071 -0.03629,-0.21867 c -0.01996,-0.120271 -0.04891,-0.271731 -0.06433,-0.336582 -0.02348,-0.09871 -0.03236,-0.117906 -0.05453,-0.117906 -0.03392,0 -0.04935,0.03744 -0.116703,0.28308 -0.08125,0.296332 -0.09972,0.427024 -0.101896,0.720818 -0.0022,0.299421 0.0174,0.399699 0.118651,0.60665 0.113131,0.23123 0.268175,0.371733 0.329144,0.298268 z m -0.651501,-1.431727 c 0.0071,-0.131891 0.0037,-0.249814 -0.01208,-0.421098 -0.01204,-0.130848 -0.03122,-0.340991 -0.04261,-0.466984 -0.0114,-0.125992 -0.02634,-0.423119 -0.0332,-0.660282 -0.01481,-0.512076 -0.03324,-0.720191 -0.114541,-1.293614 -0.109265,-0.770642 -0.22116,-1.333232 -0.302738,-1.522116 -0.05622,-0.130164 -0.272651,-0.505894 -0.291413,-0.505894 -0.01044,0 -0.01898,0.0094 -0.01898,0.02093 0,0.05606 0.07493,0.474272 0.129043,0.720199 0.06472,0.294153 0.147072,0.771199 0.194236,1.125175 0.0158,0.118581 0.04334,0.306658 0.0612,0.417948 0.03661,0.228163 0.102444,0.764287 0.134827,1.098006 0.02137,0.220247 0.05807,0.455014 0.148521,0.949998 0.02573,0.140816 0.053,0.346986 0.0606,0.458154 0.01438,0.210333 0.02599,0.262765 0.0582,0.262765 0.01509,0 0.02119,-0.0386 0.02893,-0.183191 z m -0.597846,-0.605262 c 0.04892,-0.372122 0.043,-0.670145 -0.0266,-1.340619 -0.08143,-0.78441 -0.107265,-0.958554 -0.217911,-1.468791 -0.03616,-0.166755 -0.07263,-0.342605 -0.08103,-0.390779 -0.03732,-0.213898 -0.176921,-0.666688 -0.263072,-0.853276 -0.03903,-0.08454 -0.05549,-0.0975 -0.107295,-0.0845 -0.05021,0.0126 -0.05291,0.05523 -0.0134,0.211052 0.05468,0.215639 0.111752,0.50756 0.148674,0.760407 0.0184,0.125992 0.05737,0.350353 0.0866,0.49858 0.09719,0.492848 0.128049,0.721608 0.1754,1.300352 0.06831,0.834974 0.07823,0.918803 0.14751,1.246716 0.06661,0.315278 0.08726,0.383549 0.109322,0.361484 0.0064,-0.0064 0.02525,-0.114725 0.0418,-0.240631 z m -0.567733,-0.08157 c 0.02302,-0.06056 0.01499,-0.373785 -0.01479,-0.576804 -0.04099,-0.279406 -0.08595,-0.480276 -0.167294,-0.747531 -0.139354,-0.457825 -0.159034,-0.514145 -0.179662,-0.514145 -0.0165,0 -0.01828,0.01837 -0.01078,0.11117 0.0244,0.301726 0.08297,0.721068 0.138811,0.993793 0.06538,0.319315 0.103216,0.518787 0.11766,0.620295 0.01018,0.07155 0.05257,0.147788 0.08217,0.147788 0.01141,0 0.02666,-0.01556 0.03389,-0.03457 z m -0.229412,-2.610148 c 0,-0.02657 -0.171,-0.575372 -0.183277,-0.588199 -0.01914,-0.02 -0.01504,0.02949 0.01512,0.182107 0.05616,0.284237 0.11968,0.465 0.155609,0.442795 0.0069,-0.0043 0.01255,-0.02078 0.01255,-0.0367 z m 0.818472,4.362509 c -0.04995,-0.0335 -0.09081,-0.06387 -0.09081,-0.06748 0,-0.0036 0.04245,0.02166 0.09433,0.05616 0.08253,0.05488 0.104359,0.07224 0.09081,0.07224 -0.0019,0 -0.04438,-0.02741 -0.09433,-0.06092 z m 9.919501,-5.002362 c -0.01676,-0.02137 -0.01628,-0.02185 0.0051,-0.0051 0.01298,0.01017 0.0236,0.02078 0.0236,0.02358 0,0.01109 -0.01107,0.0039 -0.02868,-0.01849 z m -10.479317,-2.812937 c 2.8e-4,-0.02223 0.0033,-0.0297 0.0067,-0.01659 0.0034,0.01311 0.0032,0.0313 -4.84e-4,0.04042 -0.0037,0.0091 -0.0065,-0.0016 -0.0062,-0.02384 z"
         id="path867" />
    </g>
  </g>
</svg>
