<?xml version="1.0" encoding="UTF-8" standalone="no"?>
<!-- Created with Inkscape (http://www.inkscape.org/) -->

<svg
   width="290mm"
   height="210mm"
   viewBox="0 0 290 210"
   version="1.1"
   id="svg5"
   xml:space="preserve"
   inkscape:version="1.2 (dc2aedaf03, 2022-05-15)"
   sodipodi:docname="skul services.svg"
   xmlns:inkscape="http://www.inkscape.org/namespaces/inkscape"
   xmlns:sodipodi="http://sodipodi.sourceforge.net/DTD/sodipodi-0.dtd"
   xmlns="http://www.w3.org/2000/svg"
   xmlns:svg="http://www.w3.org/2000/svg"><sodipodi:namedview
     id="namedview7"
     pagecolor="#505050"
     bordercolor="#eeeeee"
     borderopacity="1"
     inkscape:showpageshadow="0"
     inkscape:pageopacity="0"
     inkscape:pagecheckerboard="0"
     inkscape:deskcolor="#505050"
     inkscape:document-units="mm"
     showgrid="false"
     inkscape:zoom="0.46769781"
     inkscape:cx="239.47087"
     inkscape:cy="391.27829"
     inkscape:window-width="1366"
     inkscape:window-height="705"
     inkscape:window-x="-8"
     inkscape:window-y="-8"
     inkscape:window-maximized="1"
     inkscape:current-layer="layer1" /><defs
     id="defs2" /><g
     inkscape:label="Capa 1"
     inkscape:groupmode="layer"
     id="layer1"><path
       style="fill:#000000;stroke-width:0.301577"
       d="m 57.786532,165.74116 c -0.88082,-0.1301 -0.857846,-0.24792 0.226183,-1.16007 0.631307,-0.53122 0.904732,-1.03199 0.904732,-1.65701 0,-0.5804 -0.118034,-0.82277 -0.335293,-0.6885 -0.184415,0.11398 -0.453754,0.0202 -0.598538,-0.20838 -0.195386,-0.30848 -0.264432,-0.2407 -0.267861,0.26294 -0.0024,0.3732 0.131093,0.67855 0.29696,0.67855 0.165868,0 0.301578,0.13571 0.301578,0.30158 0,0.16586 -0.27142,0.30157 -0.603155,0.30157 -0.331735,0 -0.603155,-0.12119 -0.603155,-0.26931 0,-0.14812 -0.198969,-0.34566 -0.442149,-0.43898 -0.347272,-0.13326 -0.404729,0.0174 -0.267758,0.70229 0.154721,0.77361 0.102548,0.85317 -0.462584,0.70538 -0.350336,-0.0916 -0.636974,-0.28645 -0.636974,-0.43297 0,-0.14652 -0.194577,-0.26641 -0.432395,-0.26641 -0.296629,0 -0.389469,-0.23673 -0.295679,-0.75394 0.174523,-0.96244 -0.704038,-1.0381 -1.483492,-0.12777 -0.429226,0.5013 -0.623017,0.55408 -0.971755,0.26465 -0.239585,-0.19884 -0.435607,-0.54592 -0.435607,-0.77131 0,-0.22538 -0.899889,-1.36371 -1.999751,-2.52963 l -1.999751,-2.11983 -0.71282,-3.99276 c -0.83435,-4.67349 -0.840729,-4.78286 -0.232827,-3.99275 0.255231,0.33173 0.59019,0.56922 0.74435,0.52776 0.40007,-0.10762 0.346893,0.6421 -0.07551,1.0645 -0.264073,0.26407 -0.27012,0.53231 -0.02346,1.04044 0.182786,0.37656 0.404855,1.02392 0.493489,1.43859 0.08864,0.41467 0.379508,1.02536 0.646383,1.3571 0.455189,0.56581 0.476025,0.48187 0.336542,-1.35593 -0.162788,-2.14488 0.248289,-1.91802 0.773341,0.42677 0.151576,0.6769 0.590048,1.57001 0.974388,1.98468 0.384339,0.41467 0.849842,1.16107 1.034449,1.65867 l 0.335653,0.90474 -0.178317,-1.01253 c -0.09808,-0.5569 -0.50361,-1.49188 -0.901185,-2.07774 -0.397576,-0.58586 -0.711198,-1.41946 -0.696943,-1.85245 0.02578,-0.78285 0.02741,-0.7823 0.290847,0.0995 0.145711,0.4877 0.458175,0.99488 0.694364,1.12706 0.23619,0.13218 0.51352,0.57535 0.616292,0.98482 0.435589,1.73552 0.811131,2.4234 1.082937,1.98361 0.195649,-0.31657 0.392711,-0.10181 0.768591,0.8376 0.278012,0.69483 0.617103,1.19433 0.753534,1.11002 0.13643,-0.0843 0.291682,0.15405 0.34501,0.52971 0.144923,1.02096 0.926907,0.82365 1.220107,-0.30785 0.284167,-1.09664 0.837101,-1.03974 0.837101,0.0861 0,0.94475 0.596915,1.29532 0.811077,0.47636 0.131108,-0.50136 0.256494,-0.56586 0.579288,-0.29796 0.312509,0.25936 0.443457,0.24269 0.542426,-0.069 0.07175,-0.22601 0.198357,-0.6145 0.281336,-0.8633 0.08298,-0.2488 0.161588,0.0565 0.174682,0.67855 0.01309,0.622 0.125824,1.13091 0.250512,1.13091 0.124684,0 0.549214,-0.60795 0.943403,-1.35099 0.411442,-0.77558 0.854462,-1.26586 1.040147,-1.1511 0.221593,0.13695 0.209415,0.23792 -0.03867,0.32061 -0.415993,0.13866 -0.474592,1.23554 -0.09776,1.83001 0.190546,0.3006 0.302832,0.22427 0.443629,-0.30158 0.10368,-0.38722 0.190365,-1.00939 0.19263,-1.38259 0.0059,-0.97708 0.524838,-0.83566 0.753482,0.20534 0.106776,0.48614 0.385217,1.04248 0.618758,1.2363 0.350494,0.29088 0.461459,0.12341 0.635632,-0.95929 l 0.211011,-1.31169 0.406994,0.99391 c 0.536623,1.31048 0.997168,0.96637 0.997168,-0.74505 0,-1.42814 0.864095,-4.32015 1.290803,-4.32015 0.537574,0 1.724971,-1.52531 1.724971,-2.21586 0,-0.40446 0.203565,-0.8135 0.452366,-0.90898 0.498776,-0.1914 0.642698,0.55899 0.163959,0.85487 -0.158624,0.098 -0.215531,0.36815 -0.12646,0.60026 0.08907,0.23211 -0.144712,0.83678 -0.51951,1.34373 -1.019766,1.3793 -0.512609,1.41942 0.718415,0.0568 0.841784,-0.93176 1.114142,-1.08765 1.255702,-0.71875 0.09942,0.25909 0.143644,0.48557 0.09828,0.5033 -0.772831,0.30194 -1.308526,0.83013 -1.388336,1.36887 -0.05474,0.36954 -0.360089,0.93245 -0.678549,1.2509 -0.31846,0.31846 -0.579016,0.89291 -0.579016,1.27654 0,0.38364 -0.40713,1.08758 -0.904733,1.56431 -0.497602,0.47674 -0.904732,0.99049 -0.904732,1.14167 0,0.4197 3.054382,-3.28457 4.014671,-4.86889 1.225191,-2.02137 0.651944,-0.28916 -0.684557,2.06855 -1.719419,3.03321 -1.931114,3.31647 -2.420653,3.23895 -0.274517,-0.0435 -0.495935,0.20129 -0.554332,0.61278 -0.08506,0.59938 -0.918626,1.36064 -3.950755,3.60806 -0.553901,0.41055 -3.701857,0.89929 -4.773147,0.74107 z m 5.83045,-2.36977 c 0.798451,-0.73998 0.814018,-1.40067 0.01743,-0.73956 -0.333171,0.27651 -0.466215,0.24338 -0.618741,-0.1541 -0.17895,-0.46634 -0.225767,-0.46333 -0.59234,0.038 -0.291254,0.39831 -0.458603,0.44634 -0.62381,0.17903 -0.16537,-0.26757 -0.336488,-0.21928 -0.639597,0.1805 -0.38684,0.51022 -0.414449,0.49763 -0.423415,-0.19306 -0.0062,-0.47589 -0.113408,-0.63505 -0.301291,-0.44716 -0.443445,0.44344 -0.03851,1.53344 0.690519,1.85874 0.845358,0.37721 1.51397,0.18334 2.491252,-0.72238 z M 50.50766,157.6663 c -0.350644,-0.44578 -0.637535,-0.71957 -0.637535,-0.60843 0,0.3565 0.981119,1.71288 1.130753,1.56324 0.07937,-0.0794 -0.142571,-0.50904 -0.493218,-0.95481 z m 9.232967,1.23109 c 0.179526,-1.62563 0.271791,-1.87054 0.58623,-1.5561 0.111705,0.11171 -0.01197,0.8468 -0.274827,1.63355 l -0.477928,1.43044 z m 84.824803,-6.6347 v -7.9918 h 69.37778 c 74.13965,0 70.72035,-0.0658 71.27154,1.37061 0.10303,0.2685 0.18733,3.66627 0.18733,7.55059 v 7.0624 h -70.41832 -70.41833 z m 7.87055,1.00033 c 0.29998,-0.56051 0.25178,-0.73976 -0.32438,-1.20631 -0.37219,-0.30138 -0.86524,-0.54796 -1.09566,-0.54796 -0.23043,0 -0.41896,-0.14542 -0.41896,-0.32316 0,-0.17774 0.3732,-0.27952 0.82934,-0.22619 0.57624,0.0674 0.82933,-0.0398 0.82933,-0.35125 0,-0.52988 -0.80548,-0.73543 -1.85233,-0.47269 -1.05713,0.26533 -0.88723,1.66522 0.26905,2.21685 0.86431,0.41234 1.11492,0.9659 0.43729,0.9659 -0.21563,0 -0.5549,-0.16285 -0.75394,-0.36189 -0.28147,-0.28147 -0.44511,-0.27868 -0.73635,0.0126 -0.5045,0.5045 0.18483,0.94163 1.49476,0.94787 0.6909,0.003 1.07077,-0.18458 1.32185,-0.65373 z m 3.51553,-1.08762 c 0.79909,-2.06078 0.81147,-2.17454 0.23676,-2.17454 -0.25235,0 -0.59452,0.51488 -0.80168,1.20631 -0.19878,0.66347 -0.45417,1.20631 -0.56753,1.20631 -0.11335,0 -0.36874,-0.54284 -0.56752,-1.20631 -0.20716,-0.69143 -0.54933,-1.20631 -0.80168,-1.20631 -0.58076,0 -0.5588,0.23972 0.20475,2.235 0.85116,2.22423 1.41677,2.20934 2.2969,-0.0605 z m 4.34759,1.24686 c 0.8896,-0.80507 0.71279,-1.61193 -0.35322,-1.61193 -0.90635,0 -1.23585,0.43148 -0.52776,0.69111 0.27202,0.0997 0.28606,0.23543 0.0504,0.48738 -0.43265,0.46261 -1.26217,0.1202 -1.49636,-0.61767 -0.27564,-0.86847 0.42425,-1.54926 1.39343,-1.35542 0.96596,0.19319 1.30511,-0.0525 0.84229,-0.61015 -0.92696,-1.11692 -3.27781,0.0357 -3.27781,1.60718 0,1.6795 2.09989,2.55803 3.369,1.4095 z m 6.093,0.25852 c 0.27468,-0.44443 -0.25662,-0.81493 -1.16862,-0.81493 -0.8042,0 -0.90473,-0.10053 -0.90473,-0.90474 0,-0.81458 0.0951,-0.90473 0.95397,-0.90473 1.13209,0 1.61825,-0.37318 0.99755,-0.76572 -2.0458,-1.2938 -4.39676,1.78998 -2.48053,3.25374 0.54717,0.41797 2.36931,0.51346 2.60236,0.13638 z m 4.24268,-0.42967 c 1.55121,-2.21466 -1.47479,-4.55681 -3.14462,-2.43396 -0.65448,0.83203 -0.6325,1.89557 0.0563,2.72556 0.54668,0.65871 2.55551,0.46904 3.08829,-0.2916 z m -2.43049,-0.66923 c -0.28279,-0.73693 0.0132,-1.51304 0.62165,-1.63022 0.79702,-0.15349 1.44204,0.77038 1.0497,1.50348 -0.35574,0.6647 -1.43356,0.74643 -1.67135,0.12674 z m 4.41455,0.20857 0.007,-1.13091 0.60022,0.75394 c 0.58726,0.73767 0.60991,0.74131 1.04882,0.16854 0.42565,-0.55546 0.44859,-0.53619 0.44859,0.37698 0,0.65438 0.14477,0.96237 0.45237,0.96237 0.35571,0 0.45236,-0.41886 0.45236,-1.96026 0,-1.07813 -0.12646,-1.96025 -0.28104,-1.96025 -0.15457,0 -0.57773,0.41667 -0.94036,0.92593 l -0.65932,0.92593 -0.56309,-0.92593 c -0.96144,-1.58097 -1.47668,-1.22008 -1.47668,1.03432 0,1.5414 0.0967,1.96026 0.45236,1.96026 0.32049,0 0.45432,-0.32969 0.45908,-1.13092 z m 6.32642,0.82934 c 0,-0.16587 -0.13571,-0.30158 -0.30158,-0.30158 -0.16587,0 -0.30158,-0.54284 -0.30158,-1.20631 0,-0.66347 0.13571,-1.20631 0.30158,-1.20631 0.16587,0 0.30158,-0.21175 0.30158,-0.47057 0,-0.35795 -0.26509,-0.44817 -1.10761,-0.37697 -1.06735,0.0902 -1.85172,0.84754 -0.87778,0.84754 0.6471,0 0.66953,2.05629 0.0251,2.30356 -0.85624,0.32858 -0.45013,0.71222 0.75396,0.71222 0.66347,0 1.20631,-0.13571 1.20631,-0.30158 z m 3.84693,-0.22618 c 0.0833,-0.25358 -0.22324,-0.37697 -0.9365,-0.37697 -0.80374,0 -1.10776,-0.14946 -1.25635,-0.61763 -0.26669,-0.84025 0.38837,-1.54306 1.33575,-1.43312 0.5324,0.0618 0.77988,-0.0531 0.77988,-0.36187 0,-0.28813 -0.34939,-0.4862 -0.96234,-0.54554 -1.81232,-0.17547 -2.90921,1.98088 -1.69187,3.32601 0.58039,0.64132 2.52162,0.6478 2.73143,0.009 z m 3.24013,0.22618 c 0.25332,-0.40988 1.58117,-0.38331 1.72042,0.0344 0.0616,0.1848 0.33158,0.28659 0.59995,0.22619 0.42912,-0.0966 0.39662,-0.33709 -0.26958,-1.99468 -0.7168,-1.78352 -1.34801,-2.34836 -1.68506,-1.50789 -1.38029,3.44191 -1.40846,3.54354 -0.98228,3.54354 0.23659,0 0.51404,-0.13571 0.61655,-0.30158 z m 0.64489,-1.65868 c 0.0955,-0.2488 0.21241,-0.45236 0.25985,-0.45236 0.0474,0 0.16437,0.20356 0.25984,0.45236 0.10468,0.2728 0.002,0.45237 -0.25984,0.45237 -0.26138,0 -0.36453,-0.17957 -0.25985,-0.45237 z m 3.72799,1.3571 c 0,-0.33173 0.12656,-0.60315 0.28125,-0.60315 0.15469,0 0.3674,0.27142 0.47269,0.60315 0.10529,0.33174 0.45371,0.60316 0.77427,0.60316 0.63709,0 0.75115,-0.31421 0.28374,-0.78161 -0.19773,-0.19773 -0.17221,-0.63523 0.0753,-1.291 0.3335,-0.88354 0.31046,-1.03866 -0.21091,-1.4199 -0.32193,-0.2354 -1.03437,-0.428 -1.58321,-0.428 h -0.99788 v 1.96025 c 0,1.5414 0.0967,1.96026 0.45237,1.96026 0.25131,0 0.45237,-0.26807 0.45237,-0.60316 z m 0,-1.98236 c 0,-0.28084 0.20518,-0.43469 0.50277,-0.37697 0.75658,0.14673 0.86047,0.85145 0.12551,0.85145 -0.37043,0 -0.62828,-0.19473 -0.62828,-0.47448 z m 4.52366,1.07763 c 0,-1.30683 0.0804,-1.50789 0.60315,-1.50789 0.33509,0 0.60316,-0.20105 0.60316,-0.45236 0,-0.34727 -0.38535,-0.45237 -1.65868,-0.45237 -1.27332,0 -1.65867,0.1051 -1.65867,0.45237 0,0.25131 0.26806,0.45236 0.60315,0.45236 0.52273,0 0.60316,0.20106 0.60316,1.50789 0,1.13929 0.11057,1.50789 0.45236,1.50789 0.34179,0 0.45237,-0.3686 0.45237,-1.50789 z m -140.009566,6.15463 c -0.186906,-1.65823 -0.09208,-1.97875 0.516355,-1.74527 0.714989,0.27437 0.786116,1.01103 0.206671,2.14049 l -0.556266,1.08427 z m 2.169934,1.15862 c -0.01031,-0.1244 -0.08496,-0.80295 -0.165868,-1.50788 -0.117063,-1.01989 -0.05163,-1.28171 0.320333,-1.28171 0.257094,0 0.467445,0.20357 0.467445,0.45237 0,0.2488 -0.10846,0.45236 -0.241021,0.45236 -0.132561,0 -0.18557,0.47499 -0.117793,1.05552 0.06777,0.58054 0.04052,1.05553 -0.06056,1.05553 -0.101083,0 -0.192225,-0.10179 -0.202539,-0.22619 z m 5.811273,-1.13524 c -0.436111,-1.63058 -0.464619,-2.35521 -0.08339,-2.11959 0.154407,0.0954 0.365982,0.0356 0.470165,-0.13299 0.104183,-0.16858 -0.05607,-0.31082 -0.356133,-0.31609 -0.508363,-0.009 -0.505543,-0.0399 0.04139,-0.4535 0.354588,-0.26817 0.696094,-0.33475 0.862656,-0.16819 0.307714,0.30771 -0.02995,4.55179 -0.36214,4.55179 -0.11463,0 -0.372277,-0.61265 -0.572548,-1.36143 z m -4.556147,-0.22186 c -0.01653,-0.622 0.105648,-1.13091 0.271516,-1.13091 0.345237,0 0.345237,0.42988 0,1.50789 -0.215489,0.67286 -0.244688,0.63232 -0.271516,-0.37698 z m -4.683347,-0.88088 c -0.311046,-1.11171 -0.119973,-1.83727 0.508032,-1.92914 0.327682,-0.0479 0.449121,0.0522 0.318909,0.26285 -0.115658,0.18714 -0.298327,0.81984 -0.405929,1.40601 -0.193486,1.05403 -0.198125,1.05689 -0.421012,0.26028 z m 10.812781,-0.41651 c -0.22153,-1.18087 0.372502,-2.77105 0.854942,-2.28861 0.311209,0.31121 -0.02048,2.987 -0.399295,3.22112 -0.138348,0.0855 -0.343388,-0.33412 -0.455647,-0.93251 z m -3.390879,0.11471 c 0.053,-0.36021 0.299934,-0.70982 0.548735,-0.77691 0.366166,-0.0987 0.374399,-0.0673 0.0432,0.16487 -0.285944,0.20045 -0.308649,0.34896 -0.07539,0.49312 0.490974,0.30344 0.406134,0.77384 -0.139567,0.77384 -0.314347,0 -0.44097,-0.21999 -0.376972,-0.65492 z m -8.649376,-0.24981 c -0.102512,-0.16587 -0.04267,-0.30158 0.13299,-0.30158 0.175656,0 0.319376,0.13571 0.319376,0.30158 0,0.16587 -0.05985,0.30158 -0.132989,0.30158 -0.07314,0 -0.216865,-0.13571 -0.319377,-0.30158 z m -0.150789,-1.22411 c 0,-0.34152 0.13571,-0.53708 0.301578,-0.43456 0.165867,0.10251 0.301577,0.38194 0.301577,0.62095 0,0.23901 -0.13571,0.43457 -0.301577,0.43457 -0.165868,0 -0.301578,-0.27943 -0.301578,-0.62096 z m 9.714222,-2.43897 c 0.501601,-2.11795 0.539103,-2.81462 0.271917,-5.05142 -0.419615,-3.5129 -1.104919,-6.42442 -1.860989,-7.90644 -0.697039,-1.36631 -0.580588,-1.83547 0.265521,-1.06975 0.304346,0.27543 0.825399,0.50078 1.157894,0.50078 0.876858,0 0.954001,0.18487 0.611925,1.46645 -0.453069,1.69743 0.545852,10.5631 1.435819,12.74327 0.142891,0.35004 -0.108812,0.66967 -0.890561,1.13092 -0.599361,0.35363 -1.198562,0.64296 -1.331561,0.64296 -0.132998,0 0.02002,-1.10555 0.340035,-2.45677 z m -6.152888,1.92901 c -0.05126,-0.1244 -0.01993,-3.07609 0.06962,-6.55931 0.161718,-6.2905 0.238041,-6.01167 0.412742,1.50789 0.05009,2.15628 0.194409,4.22585 0.320697,4.59906 0.1731,0.51153 0.113997,0.67854 -0.240125,0.67854 -0.258358,0 -0.511677,-0.10178 -0.562933,-0.22618 z m -2.958179,-0.67855 c 0,-0.16587 0.13571,-0.30157 0.301578,-0.30157 0.165867,0 0.301577,0.1357 0.301577,0.30157 0,0.16587 -0.13571,0.30158 -0.301577,0.30158 -0.165868,0 -0.301578,-0.13571 -0.301578,-0.30158 z m 12.666251,-0.28378 c 0,-0.17565 -0.203564,-0.31937 -0.452366,-0.31937 -0.248801,0 -0.452366,-0.13571 -0.452366,-0.30158 0,-0.16587 0.339275,-0.30158 0.753944,-0.30158 0.75758,0 1.051304,0.68536 0.452366,1.05552 -0.165868,0.10252 -0.301578,0.0427 -0.301578,-0.13299 z m -14.639255,-0.71517 c -0.297476,-1.18524 0.03598,-1.70468 0.440376,-0.68601 0.228179,0.57478 0.246376,0.9808 0.05264,1.17454 -0.193736,0.19373 -0.364167,0.0248 -0.493019,-0.48853 z m 2.136194,-0.18729 c -0.109334,-0.17691 -0.108722,-0.46737 0.0015,-0.64548 0.110078,-0.17812 -0.07931,-0.14933 -0.420855,0.064 -0.723427,0.45179 -0.831768,0.38359 -1.102172,-0.69378 -0.157242,-0.6265 -0.08024,-0.83284 0.352457,-0.94452 0.36803,-0.095 0.272427,-0.15464 -0.285147,-0.17789 -0.511575,-0.0213 -0.910309,0.15135 -1.022098,0.44267 -0.147576,0.38457 -0.232977,0.39926 -0.438282,0.0754 -0.403357,-0.63631 -0.305546,-2.55594 0.149474,-2.93358 0.331255,-0.27492 0.449712,-0.16329 0.594394,0.56013 0.130112,0.65055 0.309783,0.85393 0.64182,0.72651 0.273383,-0.1049 0.463006,-0.0103 0.465744,0.23229 0.0036,0.32047 0.06551,0.31295 0.285355,-0.0347 0.237613,-0.37573 0.313762,-0.35786 0.495742,0.11638 0.240888,0.62774 -0.250873,1.57435 -0.757649,1.45844 -0.363989,-0.0832 -0.444471,0.31241 -0.127933,0.62895 0.110942,0.11094 0.437366,-0.0115 0.725391,-0.27222 0.484879,-0.43881 0.539096,-0.40374 0.73172,0.47327 0.215564,0.98146 0.05772,1.48566 -0.289321,0.92414 z m 13.629625,0.10124 c -0.288706,-0.28871 0.106101,-1.02604 0.549392,-1.02604 0.222815,0 0.543443,-0.23749 0.712507,-0.52776 0.279267,-0.47947 0.308233,-0.46995 0.316563,0.10405 0.005,0.34749 -0.239006,0.85641 -0.542336,1.13091 -0.600063,0.54306 -0.762062,0.5929 -1.036126,0.31884 z m -0.953494,-1.10143 c 0.198778,-0.48614 1.631398,-1.53802 1.827556,-1.34186 0.168636,0.16863 -1.420403,1.71883 -1.761897,1.71883 -0.12089,0 -0.150436,-0.16964 -0.06566,-0.37697 z m -17.339172,-1.30684 c 0.01447,-0.35132 0.08593,-0.42278 0.182201,-0.1822 0.08712,0.2177 0.0764,0.47781 -0.02379,0.57802 -0.100214,0.10021 -0.171489,-0.0779 -0.158394,-0.39582 z m 19.277144,-0.84083 c 0,-0.25055 0.158772,-0.55366 0.352828,-0.6736 0.237235,-0.14662 0.289737,-0.0537 0.160252,0.28378 -0.105914,0.27601 -0.05089,0.50184 0.122268,0.50184 0.173163,0 0.285139,-0.3732 0.248835,-0.82934 -0.0363,-0.45613 0.03809,-1.07268 0.165316,-1.3701 0.337763,-0.78959 -0.07472,-1.01824 -0.616886,-0.34195 -0.443189,0.55282 -0.44939,0.54719 -0.127254,-0.11574 0.560943,-1.15437 1.051739,-0.60635 1.051739,1.17437 0,1.46444 -0.07024,1.64352 -0.678549,1.72992 -0.446738,0.0634 -0.678549,-0.0593 -0.678549,-0.35918 z m 2.098617,-0.0388 c -0.01737,-0.33173 -0.13786,-1.34956 -0.267722,-2.26183 -0.238886,-1.67812 0.351974,-4.22208 0.980618,-4.22208 0.147836,0 0.168965,0.23749 0.04695,0.52776 -0.433306,1.03086 -0.514602,1.88486 -0.179429,1.88486 0.185205,0 0.341545,-0.2375 0.347423,-0.52776 0.0059,-0.29027 0.212039,-0.86704 0.458138,-1.28171 0.425065,-0.71621 0.437716,-0.67849 0.252849,0.75395 -0.107033,0.82933 -0.323849,1.67033 -0.481815,1.86889 -0.157966,0.19855 -0.261534,0.67353 -0.230152,1.05552 0.09652,1.17486 0.0074,1.61214 -0.452484,2.22015 -0.436949,0.57771 -0.443189,0.57747 -0.474381,-0.0178 z m -3.059895,-0.3568 c 0.2177,-0.0871 0.47781,-0.0764 0.578025,0.0238 0.100211,0.10021 -0.07791,0.17148 -0.395821,0.15839 -0.351322,-0.0145 -0.422781,-0.0859 -0.182204,-0.1822 z m 4.814059,0.0378 c -0.273555,-0.27356 0.09394,-1.28516 0.527278,-1.45145 0.294475,-0.113 0.375199,-0.73559 0.305742,-2.35809 -0.0519,-1.2125 0.03709,-2.45366 0.197757,-2.75813 0.364733,-0.69119 0.09545,-1.00498 -0.463986,-0.54069 -1.164647,0.96657 -0.640379,-5.67915 0.541235,-6.86076 0.422398,-0.4224 0.467861,-0.39577 0.470415,0.27558 0.0024,0.60903 0.163531,0.46299 0.893113,-0.80908 0.849794,-1.48165 2.34901,-2.99354 2.660039,-2.68251 0.0806,0.0806 -0.343542,1.0792 -0.942544,2.2191 -0.670814,1.27656 -1.259251,2.98824 -1.532134,4.45673 -0.243668,1.3113 -0.597702,3.13058 -0.786743,4.04285 -0.189044,0.91227 -0.325737,2.20151 -0.30377,2.86498 0.07577,2.28841 -0.819971,4.3479 -1.566402,3.60147 z m -19.666206,-0.94966 c -0.16366,-0.4298 -0.129021,-0.46444 0.168823,-0.16882 0.206104,0.20457 0.298763,0.44792 0.205911,0.54077 -0.09285,0.0928 -0.261483,-0.0745 -0.374734,-0.37195 z m -4.215048,-0.54285 c -0.200483,-0.79879 -1.211376,-1.05392 -1.485371,-0.37489 -0.09366,0.23211 -0.16126,0.18101 -0.17592,-0.13298 -0.01309,-0.28048 0.130511,-0.60534 0.319124,-0.72191 0.234717,-0.14507 0.285883,-0.95177 0.162137,-2.55645 -0.167816,-2.17621 -0.453018,-3.2289 -1.891696,-6.98229 -0.587132,-1.53177 -0.579089,-1.57589 0.338584,-1.85694 0.476556,-0.14596 0.719733,0.0279 1.107513,0.79187 0.273283,0.53839 0.585727,1.52173 0.694313,2.1852 0.108589,0.66347 0.742559,2.42226 1.408824,3.90843 0.765727,1.70802 1.263441,3.31678 1.352871,4.37287 0.10111,1.19404 0.0545,1.53585 -0.163344,1.19795 -0.16765,-0.26004 -0.345846,-1.10812 -0.395986,-1.88461 -0.07159,-1.10869 -0.204478,-1.41187 -0.618924,-1.41206 -0.290268,-1.3e-4 -0.527761,0.14516 -0.527761,0.32288 0,0.17771 -0.203564,0.52668 -0.452366,0.77548 -0.505986,0.50599 -0.618852,1.15093 -0.150788,0.86165 0.165867,-0.10251 0.301577,-0.0281 0.301577,0.16525 0,0.19341 0.203565,0.27353 0.452366,0.17806 0.338228,-0.12979 0.452366,0.0478 0.452366,0.70388 0,1.13029 -0.482587,1.4345 -0.727519,0.45861 z m 0.419892,-4.52886 c -0.209813,-0.25281 -0.45999,-0.38114 -0.555952,-0.28518 -0.09596,0.096 0.02515,0.30073 0.269158,0.45503 0.63843,0.40376 0.72185,0.35435 0.286794,-0.16985 z m 16.839139,2.69635 c -0.03038,-1.31312 -0.04108,-2.67592 -0.02376,-3.02846 0.01984,-0.40422 -0.23821,-0.76384 -0.6987,-0.97366 -0.401599,-0.18298 -0.73018,-0.44592 -0.73018,-0.58431 0,-0.33989 1.496991,-1.71549 2.337225,-2.14769 0.655244,-0.33705 0.678549,-0.30206 0.678549,1.01867 0,0.75224 -0.135709,1.36771 -0.301577,1.36771 -0.165867,0 -0.301577,0.26341 -0.301577,0.58536 0,0.32194 -0.146896,0.67614 -0.326431,0.7871 -0.202361,0.12506 -0.292373,1.10063 -0.236819,2.56671 0.04929,1.30073 -0.0074,2.46196 -0.125936,2.58051 -0.11855,0.11855 -0.240406,-0.85882 -0.270793,-2.17194 z m -14.71743,0.59963 c 0.0024,-0.48184 0.104722,-1.0334 0.227069,-1.22568 0.342309,-0.53798 1.57959,0.60848 1.568607,1.45347 -0.0084,0.64266 -0.03769,0.65656 -0.328888,0.15581 -0.303345,-0.52162 -0.349209,-0.52309 -0.895561,-0.0287 -0.554224,0.50157 -0.575673,0.48824 -0.571227,-0.35494 z m 0.329998,-3.6862 c -0.359891,-1.33378 -0.617196,-3.1347 -0.592455,-4.14669 l 0.04374,-1.78893 0.266558,2.26183 c 0.146606,1.24401 0.521759,3.11002 0.833674,4.14669 0.311916,1.03667 0.45857,1.88486 0.3259,1.88486 -0.132673,0 -0.52751,-1.06099 -0.877415,-2.35776 z m 20.196458,-0.83393 c 0.01448,-0.35133 0.08593,-0.42279 0.182201,-0.18221 0.08712,0.2177 0.0764,0.47782 -0.0238,0.57803 -0.100214,0.10021 -0.171489,-0.0779 -0.158394,-0.39582 z m -15.149898,-1.84968 c -0.473383,-1.20512 -0.469393,-1.24404 0.143973,-1.40444 0.854465,-0.22345 0.892823,-0.13686 0.598556,1.35114 l -0.255656,1.29276 z m -3.031676,-0.23624 c -0.196161,-0.95829 -0.133385,-1.18493 0.28018,-1.01154 0.140116,0.0588 0.176064,0.51394 0.07989,1.01154 l -0.17487,0.90474 z m 11.372273,-0.75394 c 0.102512,-0.16587 0.246231,-0.30158 0.319376,-0.30158 0.07314,0 0.13299,0.13571 0.13299,0.30158 0,0.16587 -0.14372,0.30158 -0.319377,0.30158 -0.175657,0 -0.235502,-0.13571 -0.132989,-0.30158 z m 80.671955,-8.29338 v -7.9918 h 69.37778 c 74.13965,0 70.72035,-0.0658 71.27154,1.37061 0.10303,0.26851 0.18733,3.66627 0.18733,7.55059 v 7.0624 h -70.41832 -70.41833 z m 7.28951,1.46115 c 0.68189,-0.61711 0.69853,-1.12025 0.0582,-1.76057 -0.36816,-0.36816 -0.40641,-0.58018 -0.15079,-0.8358 0.69697,-0.69697 0.36755,-1.12661 -0.8638,-1.12661 -0.87123,0 -1.20631,0.12566 -1.20631,0.45237 0,0.2488 0.20356,0.45237 0.45236,0.45237 0.51467,0 0.60577,0.47275 0.14587,0.75698 -0.45542,0.28146 -0.0484,0.7509 0.65101,0.7509 0.35845,0 0.55544,0.15563 0.47714,0.37697 -0.077,0.21766 -0.53368,0.34463 -1.08065,0.30043 -1.0379,-0.0839 -1.24955,0.3229 -0.41955,0.80633 0.76136,0.44345 1.30911,0.39441 1.93651,-0.17337 z m 4.37828,-0.28186 c 1.09295,-1.4947 0.0906,-3.13954 -1.91327,-3.13954 h -1.31035 v 1.99947 1.99948 l 1.41415,-0.1594 c 0.86846,-0.0979 1.5667,-0.36801 1.80947,-0.70001 z m -2.31889,-1.16149 c 0,-1.2134 0.35293,-1.53003 1.20008,-1.07665 1.06398,0.56942 0.58374,2.11437 -0.65724,2.11437 -0.41756,0 -0.54284,-0.23948 -0.54284,-1.03772 z m 8.07549,1.47299 c 0.48964,-0.34296 0.67026,-0.77367 0.67026,-1.59836 0,-1.48714 -0.42843,-1.85268 -2.17136,-1.85268 h -1.44757 v 1.7592 c 0,0.96756 0.0905,1.84968 0.20105,1.96025 0.37148,0.37149 2.07108,0.20545 2.74762,-0.26841 z m -1.74236,-1.64158 c 0,-0.78873 0.13571,-1.2063 0.39205,-1.2063 1.02772,0 1.56472,1.87425 0.6388,2.22956 -0.88067,0.33795 -1.03085,0.18887 -1.03085,-1.02326 z m 5.42839,1.65868 c 0,-0.2488 -0.13571,-0.45237 -0.30158,-0.45237 -0.16587,0 -0.30158,-0.54283 -0.30158,-1.20631 0,-0.66347 0.13571,-1.2063 0.30158,-1.2063 0.16587,0 0.30158,-0.13571 0.30158,-0.30158 0,-0.16587 -0.54284,-0.30158 -1.20631,-0.30158 -1.20408,0 -1.6102,0.38364 -0.75394,0.71221 0.28393,0.10896 0.45236,0.57013 0.45236,1.23858 0,0.7456 -0.13566,1.06498 -0.45236,1.06498 -0.47094,0 -0.59832,0.35668 -0.25132,0.70368 0.11058,0.11058 0.65342,0.20106 1.20631,0.20106 0.69251,0 1.00526,-0.14074 1.00526,-0.45237 z m 3.8534,-0.0171 c 0.49713,-0.3482 0.67026,-0.77222 0.67026,-1.64158 0,-0.86935 -0.17313,-1.29337 -0.67026,-1.64157 -0.89915,-0.62979 -1.50608,-0.59134 -2.45563,0.15558 -2.10486,1.65568 0.25889,4.66623 2.45563,3.12757 z m -1.98362,-0.79716 c -0.91414,-0.91414 0.3295,-2.55192 1.31606,-1.73315 0.76439,0.63439 0.33043,2.09504 -0.62243,2.09504 -0.18246,0 -0.49459,-0.16285 -0.69363,-0.36189 z m 4.46334,0.51268 c 0,-0.41467 0.11393,-0.75394 0.25317,-0.75394 0.13925,0 0.40776,0.33927 0.59669,0.75394 0.18894,0.41467 0.55,0.75395 0.80235,0.75395 0.54253,0 0.60436,-0.63858 0.10972,-1.13322 -0.26442,-0.26443 -0.25881,-0.45791 0.0232,-0.79766 0.20474,-0.2467 0.32791,-0.76136 0.27371,-1.14369 -0.0848,-0.59853 -0.29764,-0.70793 -1.53104,-0.78707 l -1.43249,-0.0919 v 1.97678 c 0,1.55608 0.0963,1.97678 0.45237,1.97678 0.28147,0 0.45236,-0.28483 0.45236,-0.75395 z m 0,-1.96025 c 0,-0.45422 0.15747,-0.61705 0.52777,-0.54574 0.29026,0.0559 0.52776,0.30148 0.52776,0.54574 0,0.24426 -0.2375,0.48984 -0.52776,0.54574 -0.3703,0.0713 -0.52777,-0.0915 -0.52777,-0.54574 z m 3.50987,2.26183 c 0.0955,-0.2488 0.50261,-0.45237 0.90474,-0.45237 0.40213,0 0.80926,0.20357 0.90473,0.45237 0.2082,0.54257 1.13726,0.61683 0.94324,0.0754 -0.0743,-0.20733 -0.38704,-1.08944 -0.69499,-1.96025 -0.75777,-2.14276 -1.40382,-2.11762 -2.22857,0.0867 -0.34365,0.91849 -0.62482,1.80061 -0.62482,1.96025 0,0.4601 0.60415,0.33702 0.79567,-0.1621 z m 0.71684,-1.73407 c 0.004,-0.5487 0.0606,-0.59198 0.29696,-0.22618 0.37785,0.58468 0.37785,0.90473 0,0.90473 -0.16587,0 -0.2995,-0.30535 -0.29696,-0.67855 z m 3.62101,1.05552 0.007,-1.13091 0.5422,0.70485 0.54219,0.70486 0.4908,-0.70486 0.4908,-0.70485 0.0158,1.13091 c 0.0112,0.79718 0.14931,1.13092 0.46818,1.13092 0.35571,0 0.45237,-0.41886 0.45237,-1.96026 0,-2.1996 -0.42521,-2.54948 -1.42702,-1.17421 l -0.57259,0.78604 -0.51504,-0.78604 c -0.92903,-1.41788 -1.40586,-1.01962 -1.40586,1.17421 0,1.5414 0.0967,1.96026 0.45236,1.96026 0.32049,0 0.45432,-0.32969 0.45907,-1.13092 z m 4.62602,0.67855 c 0.23694,-0.61747 1.39638,-0.57099 1.86868,0.0749 0.73886,1.01045 0.81257,0.0828 0.13697,-1.72378 -0.88673,-2.37111 -1.44467,-2.38857 -2.34243,-0.0733 -0.37236,0.96028 -0.67701,1.84239 -0.67701,1.96025 0,0.40925 0.84119,0.21171 1.01379,-0.23808 z m 0.49409,-1.50789 c 0,-0.2488 0.13571,-0.45236 0.30158,-0.45236 0.16587,0 0.30158,0.20356 0.30158,0.45236 0,0.2488 -0.13571,0.45237 -0.30158,0.45237 -0.16587,0 -0.30158,-0.20357 -0.30158,-0.45237 z m 5.26744,1.36834 c 0.68814,-0.76039 0.40894,-1.46405 -0.7398,-1.86451 -1.18775,-0.41405 -1.19087,-0.97082 -0.004,-0.71014 0.70362,0.15454 0.90473,0.0941 0.90473,-0.27186 0,-0.25882 -0.32663,-0.55257 -0.72585,-0.65277 -1.84743,-0.46367 -2.85879,1.70809 -1.08361,2.32692 0.4976,0.17347 0.90473,0.43783 0.90473,0.58747 0,0.35593 -0.50504,0.34581 -1.19599,-0.024 -0.73882,-0.3954 -1.10156,0.45835 -0.37477,0.88207 0.81715,0.47639 1.73412,0.36816 2.31454,-0.2732 z m 3.77989,-0.16203 c 0,-0.60315 0.15078,-0.75394 0.75394,-0.75394 0.46912,0 0.75394,-0.1709 0.75394,-0.45237 0,-0.28536 -0.28761,-0.45236 -0.77907,-0.45236 -1.03208,0 -0.79857,-0.72233 0.27457,-0.84937 1.32892,-0.15732 0.90954,-0.65852 -0.55102,-0.65852 h -1.3571 v 1.96025 c 0,1.5414 0.0967,1.96026 0.45237,1.96026 0.28147,0 0.45237,-0.28483 0.45237,-0.75395 z m 5.6731,0.13904 c 0.92543,-0.86217 0.86524,-2.19566 -0.13459,-2.98213 -0.94956,-0.74692 -1.55648,-0.78537 -2.45564,-0.15558 -0.49713,0.3482 -0.67026,0.77222 -0.67026,1.64157 0,1.9188 1.88057,2.78173 3.26049,1.49614 z m -1.99386,-0.65172 c -0.79748,-0.79748 -0.0594,-2.2629 0.9455,-1.87728 0.6556,0.25158 0.93226,1.26846 0.49006,1.80128 -0.44195,0.53252 -0.95204,0.55952 -1.43556,0.076 z m 4.47094,0.33954 0.17501,-0.73159 0.54654,0.82934 c 0.30059,0.45613 0.73449,0.82934 0.96422,0.82934 0.49881,0 0.51728,-0.15513 0.10921,-0.91762 -0.2199,-0.41087 -0.19888,-0.75187 0.0732,-1.18752 0.58764,-0.94096 -0.0259,-1.64585 -1.52951,-1.75732 l -1.25099,-0.0927 v 2.00273 c 0,1.44404 0.10284,1.96844 0.36866,1.87983 0.20276,-0.0676 0.44741,-0.45209 0.54367,-0.85446 z m -0.008,-1.78711 c 0,-0.45422 0.15746,-0.61705 0.52776,-0.54574 0.29026,0.0559 0.52776,0.30148 0.52776,0.54574 0,0.24426 -0.2375,0.48984 -0.52776,0.54574 -0.3703,0.0713 -0.52776,-0.0915 -0.52776,-0.54574 z m 6.72134,2.33722 c 1.41343,-3.52456 1.41853,-3.54353 0.95211,-3.54353 -0.25322,0 -0.69894,0.56182 -0.99067,1.24874 l -0.53034,1.24874 -0.37413,-1.24874 c -0.26533,-0.88558 -0.5382,-1.24874 -0.93828,-1.24874 -0.52925,0 -0.51603,0.1213 0.21359,1.96025 0.73699,1.85755 1.33143,2.42188 1.66772,1.58328 z m 4.13544,-0.0754 c 0,-0.2488 -0.13571,-0.45237 -0.30158,-0.45237 -0.16586,0 -0.30157,-0.54283 -0.30157,-1.20631 0,-0.66347 0.13571,-1.2063 0.30157,-1.2063 0.16587,0 0.30158,-0.13571 0.30158,-0.30158 0,-0.16587 -0.47498,-0.30158 -1.05552,-0.30158 -0.58054,0 -1.05552,0.13571 -1.05552,0.30158 0,0.16587 0.13571,0.30158 0.30158,0.30158 0.16587,0 0.30157,0.54283 0.30157,1.2063 0,0.66348 -0.1357,1.20631 -0.30157,1.20631 -0.16587,0 -0.30158,0.20357 -0.30158,0.45237 0,0.31594 0.31833,0.45237 1.05552,0.45237 0.73719,0 1.05552,-0.13643 1.05552,-0.45237 z m 4.12835,-0.3286 c 0.53787,-0.73558 0.49796,-2.08908 -0.0786,-2.66563 -0.28815,-0.28814 -0.99743,-0.47391 -1.80947,-0.47391 h -1.33556 v 1.99947 1.99948 l 1.41416,-0.1594 c 0.86846,-0.0979 1.56669,-0.36801 1.80946,-0.70001 z m -2.11783,-0.32482 c -0.30902,-0.30901 -0.23831,-1.85136 0.0943,-2.05692 0.46176,-0.28538 1.51412,0.41101 1.51412,1.00196 0,0.91442 -1.05619,1.60718 -1.60841,1.05496 z m 6.13207,0.65342 c 0,-0.30158 -0.30158,-0.45237 -0.90473,-0.45237 -0.60316,0 -0.90473,-0.15078 -0.90473,-0.45236 0,-0.28147 0.28482,-0.45237 0.75394,-0.45237 0.41467,0 0.75394,-0.13571 0.75394,-0.30158 0,-0.16586 -0.33927,-0.30157 -0.75394,-0.30157 -0.46912,0 -0.75394,-0.1709 -0.75394,-0.45237 0,-0.30158 0.30157,-0.45236 0.90473,-0.45236 0.4976,0 0.90473,-0.13571 0.90473,-0.30158 0,-0.16587 -0.61069,-0.30158 -1.3571,-0.30158 h -1.35709 v 1.96025 1.96026 h 1.35709 c 1.00526,0 1.3571,-0.11728 1.3571,-0.45237 z m 3.8534,-0.0171 c 1.28723,-0.90161 0.52123,-3.75262 -1.00824,-3.75262 -0.58048,0 -1.71165,0.57665 -2.0112,1.02528 -0.42289,0.63333 -0.22759,1.99371 0.37235,2.59365 0.72303,0.72303 1.73287,0.77404 2.64709,0.13369 z m -1.98362,-0.79716 c -0.91414,-0.91414 0.3295,-2.55192 1.31606,-1.73315 0.76439,0.63439 0.33044,2.09504 -0.62243,2.09504 -0.18245,0 -0.49459,-0.16285 -0.69363,-0.36189 z m 6.50729,0.79716 c 0.38164,-0.26731 0.67025,-0.78675 0.67025,-1.20631 0,-0.61766 -0.14633,-0.73684 -0.90473,-0.73684 -0.60315,0 -0.90473,0.15079 -0.90473,0.45236 0,0.2488 0.21157,0.45237 0.47016,0.45237 0.2586,0 0.3863,0.13571 0.28378,0.30158 -0.57705,0.93368 -2.18338,-0.27393 -1.77612,-1.33525 0.18652,-0.48605 0.37609,-0.55986 1.54425,-0.60119 0.95299,-0.0337 0.94376,-0.57421 -0.0156,-0.91158 -0.64272,-0.22604 -0.97987,-0.15783 -1.63803,0.33139 -1.17809,0.87569 -1.26757,2.24627 -0.20141,3.08491 0.96578,0.75968 1.56943,0.80084 2.47214,0.16856 z m 1.98562,0.0171 c 0.0955,-0.2488 0.45353,-0.45237 0.79568,-0.45237 0.34214,0 0.7002,0.20357 0.79567,0.45237 0.18683,0.48688 1.01379,0.63177 1.01379,0.17762 0,-0.1511 -0.29025,-1.03322 -0.64501,-1.96025 -0.85116,-2.22424 -1.41677,-2.20935 -2.2969,0.0605 -0.37236,0.96028 -0.67702,1.84239 -0.67702,1.96025 0,0.40925 0.84119,0.21171 1.01379,-0.23808 z m 0.4941,-1.50789 c 0,-0.2488 0.13571,-0.45236 0.30158,-0.45236 0.16586,0 0.30157,0.20356 0.30157,0.45236 0,0.2488 -0.13571,0.45237 -0.30157,0.45237 -0.16587,0 -0.30158,-0.20357 -0.30158,-0.45237 z m 3.62563,0.82934 0.007,-1.13091 0.5519,0.71773 0.55191,0.71772 0.49691,-0.70943 0.49691,-0.70944 v 1.12262 c 0,0.79684 0.13128,1.12263 0.45237,1.12263 0.3557,0 0.45236,-0.41886 0.45236,-1.96026 0,-2.20122 -0.32712,-2.46681 -1.39298,-1.13091 l -0.66169,0.82934 -0.37817,-0.82934 c -0.213,-0.46711 -0.62047,-0.82934 -0.93292,-0.82934 -0.48171,0 -0.55474,0.25807 -0.55474,1.96025 0,1.5414 0.0967,1.96026 0.45236,1.96026 0.32049,0 0.45432,-0.32969 0.45908,-1.13092 z m 6.92958,0.67855 c 0,-0.30158 -0.30158,-0.45237 -0.90473,-0.45237 -0.60316,0 -0.90474,-0.15078 -0.90474,-0.45236 0,-0.28147 0.28483,-0.45237 0.75395,-0.45237 0.41467,0 0.75394,-0.13571 0.75394,-0.30158 0,-0.16586 -0.33927,-0.30157 -0.75394,-0.30157 -0.46912,0 -0.75395,-0.1709 -0.75395,-0.45237 0,-0.30158 0.30158,-0.45236 0.90474,-0.45236 0.4976,0 0.90473,-0.13571 0.90473,-0.30158 0,-0.16587 -0.6107,-0.30158 -1.3571,-0.30158 h -1.3571 v 1.96025 1.96026 h 1.3571 c 1.00526,0 1.3571,-0.11728 1.3571,-0.45237 z m 3.14171,0.0555 c 0.78716,-0.57558 0.47295,-1.48849 -0.7035,-2.04399 -1.05407,-0.49771 -0.85158,-1.08354 0.2533,-0.73286 0.8929,0.28339 1.05668,-0.39921 0.19048,-0.79387 -0.58723,-0.26756 -0.95552,-0.26717 -1.54549,0.001 -1.08624,0.49493 -0.88598,1.57062 0.39757,2.13557 0.53907,0.23726 0.98012,0.54261 0.98012,0.67855 0,0.36657 -1.13824,0.29968 -1.37333,-0.0807 -0.14087,-0.22793 -0.29866,-0.23182 -0.5177,-0.0128 -0.44225,0.44224 0.27769,1.24536 1.11638,1.24536 0.36265,0 0.90363,-0.1786 1.20217,-0.3969 z m -180.243044,5.88438 c -1.363833,-0.0877 -1.432493,-0.1347 -1.432493,-0.98034 0,-1.00834 -0.452538,-1.19515 -0.690537,-0.28505 -0.08675,0.33173 -0.373998,0.60315 -0.638327,0.60315 -0.387793,0 -0.4806,-0.35913 -0.4806,-1.85972 0,-2.11893 -0.17398,-2.10198 -0.946697,0.0922 -0.300549,0.85344 -0.607398,1.61266 -0.681885,1.68715 -0.277378,0.27738 -1.387192,-0.27778 -1.387192,-0.69391 0,-0.23762 -0.13571,-0.43205 -0.301578,-0.43205 -0.165867,0 -0.301577,0.27142 -0.301577,0.60316 0,0.33173 -0.13571,0.60315 -0.301577,0.60315 -0.372657,0 -0.378501,-0.31618 -0.01644,-0.88848 0.325341,-0.51424 -0.167946,-1.63217 -0.601861,-1.36399 -0.157548,0.0974 -0.290763,0.74579 -0.296038,1.44094 -0.0091,1.20481 -0.03178,1.2357 -0.484182,0.66075 -0.261028,-0.33174 -0.653558,-1.01029 -0.872292,-1.50789 l -0.397702,-0.90473 -0.213788,1.59306 c -0.206849,1.54137 -0.228892,1.5715 -0.679313,0.92843 -0.256039,-0.36555 -0.639145,-1.15028 -0.851344,-1.74385 l -0.38582,-1.07922 -0.01324,1.43249 c -0.0073,0.78787 -0.146805,1.43249 -0.310055,1.43249 -0.163252,0 -0.709599,-0.3732 -1.214105,-0.82933 -0.866996,-0.78388 -0.897621,-0.8872 -0.558633,-1.88486 1.078375,-3.17369 1.303867,-3.69122 1.669433,-3.8315 0.220067,-0.0844 0.400124,-0.35059 0.400124,-0.59144 0,-0.24084 -0.125438,-0.36037 -0.278754,-0.26562 -0.153313,0.0948 -0.341135,-0.0669 -0.417383,-0.35917 -0.09709,-0.37221 -0.1529,-0.30554 -0.186251,0.22249 -0.02621,0.41467 -0.296713,1.22168 -0.601153,1.79337 l -0.55353,1.03942 -0.20716,-0.94319 c -0.113935,-0.51876 -0.368072,-1.07593 -0.564745,-1.23818 -0.318858,-0.26305 -3.865888,-1.55615 -4.268566,-1.55615 -0.534175,0 0.02042,0.59129 1.1214,1.19558 1.962808,1.07733 2.33509,1.50294 2.358423,2.69627 0.02229,1.1397 0.520245,2.73782 0.560759,1.79965 0.02033,-0.4704 0.92593,-1.47209 0.92593,-1.02416 0,0.453 -0.984653,2.26894 -1.230285,2.26894 -0.141256,0 -0.346657,-0.67717 -0.456446,-1.50481 -0.184379,-1.38989 -0.35214,-1.63633 -2.196826,-3.227 -1.098459,-0.9472 -2.029715,-1.73882 -2.069454,-1.75914 -0.03974,-0.0203 -0.154248,-0.44691 -0.254459,-0.94797 -0.174282,-0.87141 -0.121614,-0.92799 1.210936,-1.30108 1.57436,-0.4408 1.530653,-0.39822 1.827266,-1.77988 l 0.219015,-1.02019 -1.764611,0.14634 c -3.107239,0.25768 -4.358032,-0.48743 -4.320654,-2.57386 0.01001,-0.55923 0.07147,-0.52202 0.406155,0.24593 0.216895,0.49767 0.602271,1.07741 0.856393,1.28831 0.562155,0.46655 3.993756,0.34219 4.963553,-0.17987 0.362297,-0.19504 0.953401,-0.35461 1.313563,-0.35461 0.360162,0 1.064674,-0.34485 1.565582,-0.76634 0.500908,-0.42148 0.987021,-0.69006 1.080247,-0.59683 0.232221,0.23222 -2.390613,2.87106 -2.853643,2.87106 -0.204478,0 -0.45565,0.13571 -0.558162,0.30157 -0.102513,0.16587 0.0074,0.30158 0.244383,0.30158 0.758663,0 3.456644,-2.38483 3.794537,-3.35411 0.21954,-0.62977 0.469966,-0.88031 0.766272,-0.7666 0.701132,0.26904 1.028497,-2.48677 0.353992,-2.97998 -0.388607,-0.28416 -0.459628,-0.64032 -0.311901,-1.56416 0.202694,-1.26758 -0.404448,-2.89319 -1.350095,-3.61484 -0.668444,-0.5101 -3.558119,-0.47622 -5.334117,0.0625 -0.814232,0.247 -1.510092,0.45056 -1.546354,0.45236 -0.03626,0.002 0.01218,-0.2003 0.10766,-0.4491 0.206714,-0.53868 -0.0139,-0.56918 -0.856241,-0.11837 -0.454302,0.24313 -0.521823,0.39718 -0.248207,0.56629 0.261832,0.16182 0.08913,0.40167 -0.569261,0.79059 -1.733298,1.02388 -2.348416,2.35089 -2.55506,5.51206 -0.165437,2.53078 -0.118662,2.9374 0.442335,3.84511 0.345035,0.55828 0.480558,1.01505 0.301162,1.01505 -0.474005,0 -0.391873,0.35199 0.281468,1.20631 0.503523,0.63886 0.639896,0.68489 0.893408,0.30157 0.221575,-0.33502 0.300377,-0.34899 0.303797,-0.0538 0.0035,0.29905 0.122902,0.28023 0.478525,-0.0754 0.771269,-0.77127 1.356537,-0.53643 0.803179,0.32228 -0.415661,0.64503 -3.190433,2.79413 -3.422445,2.65074 -0.127218,-0.0786 -0.48915,0.13381 -0.804295,0.47208 -0.572168,0.61415 -0.573766,0.61331 -1.113686,-0.58402 -0.345319,-0.76577 -0.474412,-1.53047 -0.357261,-2.11623 0.145831,-0.72915 0.08011,-0.91718 -0.32055,-0.91718 -0.371833,0 -0.235097,-0.27742 0.521473,-1.05801 0.999247,-1.03096 1.028608,-1.13309 1.148874,-3.9959 0.06788,-1.61584 0.277672,-3.1296 0.466197,-3.36391 0.257308,-0.31979 0.253481,-0.45608 -0.01535,-0.54661 -0.24872,-0.0838 -0.202657,-0.28979 0.150789,-0.67445 1.603988,-1.74566 2.168082,-2.47445 2.172205,-2.8064 0.003,-0.24092 0.107512,-0.21254 0.29696,0.0806 0.252466,0.39067 0.29297,0.3834 0.29696,-0.0533 0.0066,-0.72795 1.594808,-1.41484 3.008678,-1.30127 1.128533,0.0907 2.072154,-0.42149 1.269539,-0.68903 -0.709847,-0.23662 0.01,-0.67059 1.112277,-0.67059 0.620508,0 1.289865,-0.16167 1.487459,-0.35926 0.273651,-0.27366 0.70126,-0.2782 1.794385,-0.0191 0.789319,0.18711 2.079744,0.42495 2.867615,0.52853 0.787871,0.10358 1.442168,0.34965 1.453989,0.54682 0.01182,0.19717 0.0847,0.87932 0.161956,1.51589 0.121307,0.99957 -0.004,1.31725 -0.918574,2.32962 -1.102507,1.22034 -1.371553,1.92595 -1.315188,3.44926 0.0184,0.4976 -0.07254,1.34579 -0.202114,1.88486 -0.159743,0.66458 -0.126361,0.98013 0.103685,0.98013 0.186601,0 0.339274,-0.45837 0.339274,-1.0186 0,-0.56022 0.203565,-1.18754 0.452367,-1.39402 0.248801,-0.20649 0.452405,-0.52845 0.452453,-0.71548 7.6e-5,-0.29 1.173076,-0.37903 2.90673,-0.22063 0.188875,0.0173 0.448651,0.54029 0.577276,1.16229 0.140098,0.67747 0.283341,0.91931 0.357255,0.60316 0.06786,-0.29027 0.264245,-0.52776 0.436413,-0.52776 0.79449,0 -0.443443,-3.44371 -1.735518,-4.8279 -0.388438,-0.41613 -0.708146,-1.02683 -0.710459,-1.3571 -0.0076,-1.08679 -0.387334,-2.56075 -0.659701,-2.56075 -0.14704,0 -0.267348,-0.13571 -0.267348,-0.30158 0,-0.36364 2.018255,-0.40872 2.161306,-0.0483 0.05529,0.13932 0.779074,0.16933 1.608411,0.0667 1.06706,-0.13204 1.480872,-0.30918 1.415478,-0.60592 -0.07393,-0.33549 -0.0039,-0.3459 0.350122,-0.0521 0.289518,0.24028 0.507999,0.26135 0.631865,0.0609 0.104132,-0.16849 0.57329,-0.22955 1.042578,-0.13569 1.172222,0.23444 3.02717,-1.56657 3.079603,-2.99005 0.05212,-1.41499 -0.0043,-1.64361 -0.864472,-3.50239 -0.430077,-0.92937 -0.820131,-2.01571 -0.866791,-2.41408 -0.09988,-0.85279 -0.229377,-0.99339 -1.62182,-1.760903 -1.325918,-0.73084 -2.714196,-1.090154 -2.714196,-0.702485 0,0.160566 -0.470627,0.09529 -1.045835,-0.145044 -1.172922,-0.490075 -2.090616,-0.574637 -1.84027,-0.169571 0.244012,0.394822 -0.421666,0.837064 -1.824369,1.212019 -0.683284,0.182644 -1.599325,0.612894 -2.035647,0.956104 -0.599542,0.4716 -0.793315,0.51845 -0.793315,0.19179 0,-0.23773 0.848187,-0.88765 1.884859,-1.444273 1.262669,-0.677958 1.707872,-1.048087 1.348694,-1.121267 -0.671143,-0.136741 -2.826339,1.114476 -3.873063,2.24854 -1.033741,1.12 -1.911979,2.51543 -1.58161,2.51301 0.143478,-9e-4 0.492047,-0.40818 0.774601,-0.90473 0.282554,-0.49655 0.655756,-0.90282 0.829338,-0.90282 0.389539,0 0.415692,0.5057 0.03822,0.73899 -0.152562,0.0943 -0.627546,0.79794 -1.055521,1.56367 -0.94445,1.6898 -1.087201,4.3954 -0.279028,5.28842 0.470804,0.52023 0.456609,0.5515 -0.250309,0.5515 -0.412181,0 -1.987601,0.6107 -3.500934,1.3571 -1.513334,0.74641 -2.958812,1.3571 -3.212177,1.3571 -0.253364,0 -1.424681,0.90941 -2.602923,2.0209 -1.875094,1.76887 -2.121501,2.12472 -1.975785,2.85329 0.09156,0.45782 0.02714,0.91851 -0.143173,1.02377 -0.180627,0.11163 -0.284086,1.25452 -0.248292,2.7428 0.03829,1.59215 -0.06834,2.68112 -0.283625,2.8964 -0.258931,0.25893 -0.344986,0.20789 -0.344986,-0.20462 0,-0.47814 -0.06617,-0.49578 -0.508831,-0.13571 -0.447944,0.36437 -0.484016,0.34776 -0.301459,-0.13883 0.114053,-0.304 0.06377,-1.79681 -0.111744,-3.31735 -0.175512,-1.52054 -0.437233,-4.12172 -0.581604,-5.7804 -0.212962,-2.44675 -0.472122,-3.49943 -1.373543,-5.57918 -0.61108,-1.40987 -1.483752,-3.64908 -1.93927,-4.97602 -0.455517,-1.32694 -1.476526,-4.14039 -2.268908,-6.252101 -1.280055,-3.411377 -1.557874,-3.908618 -2.49163,-4.459549 -0.739633,-0.436394 -1.459615,-0.594394 -2.430591,-0.533393 -1.860934,0.116912 -2.21955,-0.543181 -2.102167,-3.869398 l 0.0864,-2.44819 -1.532272,0.864909 c -1.836147,1.036431 -3.567667,1.157225 -4.0363,0.281577 -0.910956,-1.702136 0.318089,-6.094246 2.186801,-7.814745 l 0.76924,-0.70773 -0.155842,1.161884 c -0.123008,0.917097 -0.02505,1.28025 0.464982,1.72372 0.862958,0.780968 1.622606,0.518716 4.541695,-1.567916 3.161895,-2.260193 4.079065,-3.490272 3.806279,-5.104869 -0.468293,-2.771804 -1.952581,-3.93127 -5.388246,-4.209083 -2.01181,-0.16268 -2.241211,-0.255387 -3.265596,-1.319729 -1.066705,-1.108315 -5.337654,-9.166629 -5.024392,-9.479889 0.08433,-0.08434 0.513328,0.129832 0.953319,0.475931 0.439991,0.346097 0.799983,0.524018 0.799983,0.395383 0,-0.128634 0.51671,0.270672 1.148245,0.88735 l 1.148244,1.121231 0.670901,-1.193707 c 1.268196,-2.25645 5.885381,-5.5947 11.089245,-8.017588 1.308634,-0.609292 3.235072,-1.536157 4.280972,-2.059701 1.858945,-0.930527 1.911419,-0.938755 2.337225,-0.366498 0.239573,0.321971 0.437079,1.13623 0.438907,1.809464 0.0052,1.914064 0.34172,3.485894 0.746338,3.485894 0.44869,0 3.472425,-3.146839 3.472425,-3.613795 0,-0.182903 0.642252,-1.019168 1.427224,-1.858368 0.784973,-0.839199 1.565305,-1.90819 1.73407,-2.375534 0.316798,-0.877282 11.524609,-11.946748 11.808556,-11.6628 0.291894,0.291894 -1.047879,2.905189 -2.38899,4.659855 -1.309193,1.712899 -2.930383,4.312496 -2.930383,4.698902 0,0.109828 0.481725,0.199687 1.070498,0.199687 0.588772,0 1.462439,0.202681 1.941479,0.450403 1.210695,0.626073 1.378055,1.928563 1.279029,9.954016 -0.09406,7.622676 0.21305,10.278016 1.344182,11.622291 0.413354,0.491243 0.843494,0.89317 0.955865,0.89317 0.297835,0 2.157213,-3.157397 3.196757,-5.428393 0.841422,-1.838174 0.89471,-2.176239 0.855662,-5.428392 -0.02289,-1.907477 -0.255695,-5.698854 -0.517317,-8.425283 -0.508158,-5.29563 -0.634751,-11.182049 -0.230323,-10.709801 0.362372,0.42314 1.192569,3.381737 1.434383,5.111736 0.11592,0.829338 0.803224,3.297518 1.527345,5.484845 0.724117,2.187327 1.316578,4.256903 1.316578,4.599055 0,1.0668 0.423379,0.678724 1.189711,-1.090507 l 0.737342,-1.702313 -0.980627,-1.770212 c -1.836993,-3.316104 -3.07258,-7.435895 -2.136559,-7.123888 0.174764,0.05825 1.303955,1.324879 2.509311,2.814722 1.205357,1.489842 2.962305,3.295164 3.90433,4.011827 1.005167,0.7647 1.712773,1.535507 1.712773,1.865755 0,0.309502 -0.271396,1.690933 -0.603104,3.069847 -0.912857,3.794779 -1.103794,7.128255 -0.477647,8.339088 0.278633,0.538819 0.839353,1.13128 1.246045,1.316581 0.899627,0.409898 0.931917,1.007335 0.118921,2.200348 -1.108351,1.626431 -2.09368,3.734846 -2.09368,4.480074 0,0.592032 0.194448,0.766884 1.026404,0.922959 0.564523,0.105905 1.103101,0.392428 1.196843,0.636717 0.222133,0.578866 0.918077,0.567276 1.408336,-0.02346 0.622013,-0.74948 1.847482,-0.406382 2.611534,0.731162 0.444941,0.662445 0.729742,0.872913 0.816171,0.603155 0.07302,-0.227884 0.292301,-0.932342 0.487298,-1.565458 0.194997,-0.633117 0.416409,-1.089253 0.492026,-1.013635 0.07562,0.07562 -0.02039,1.882865 -0.213317,4.016106 -0.192944,2.13324 -0.272693,4.557169 -0.177222,5.386506 0.133077,1.156022 3.01e-4,2.000499 -0.568694,3.618929 -1.803683,5.129677 -2.025146,9.515882 -0.7918,15.682026 0.331768,1.65867 0.760186,4.30501 0.952046,5.88075 0.618777,5.08205 0.639824,5.0926 1.763927,0.88375 1.211303,-4.53536 1.877657,-6.68982 2.02387,-6.54361 0.06005,0.0601 -0.218716,1.39202 -0.619482,2.95992 -0.913849,3.57522 -1.116584,4.47965 -0.875636,3.90625 0.431859,-1.02769 4.091959,-8.938299 4.367559,-9.439641 0.535221,-0.973615 5.393416,-6.792683 5.779357,-6.922416 0.295347,-0.09928 0.285811,-0.378627 -0.04459,-1.306406 -0.85655,-2.405167 -2.25845,-4.142385 -4.642625,-5.75308 l -2.299491,-1.553482 0.213052,0.952179 c 0.32004,1.430324 0.201068,7.83916 -0.200386,10.794353 -0.194581,1.432372 -0.612302,3.332309 -0.928264,4.222083 -0.665784,1.87489 -0.816597,1.085513 -0.188188,-0.985 0.820176,-2.702341 1.370914,-10.938612 0.927966,-13.877689 -0.202657,-1.344685 -0.265044,-1.416653 -1.536679,-1.77269 -1.04878,-0.293639 -1.418731,-0.293685 -1.77234,-2.17e-4 -0.368648,0.305951 -0.506451,0.24017 -0.787069,-0.375717 -0.270671,-0.594056 -0.210317,-1.26012 0.295386,-3.259903 0.556546,-2.200846 0.612308,-3.039768 0.448524,-6.748123 l -0.187038,-4.234813 -2.095327,-4.315243 c -1.152429,-2.373384 -2.046085,-4.462974 -1.985899,-4.643532 0.121714,-0.365134 1.705619,1.540174 2.403264,2.890927 l 0.448534,0.868431 0.476634,-1.923952 c 0.286233,-1.155388 0.409605,-2.496192 0.308839,-3.356444 -0.137911,-1.177382 -0.08261,-1.432493 0.310558,-1.432493 0.691128,0 3.770261,3.156297 4.009662,4.110144 0.127519,0.508082 -0.0376,1.554692 -0.444691,2.818672 -0.412392,1.280434 -0.647529,2.786964 -0.647529,4.148739 0,2.017438 0.05242,2.182341 0.927872,2.918986 0.510327,0.429413 1.053166,0.78075 1.20631,0.78075 0.618267,0 0.202235,1.236827 -1.201861,3.573026 -0.814166,1.354643 -1.687935,3.072367 -1.941716,3.817164 -0.434931,1.276456 -0.428909,1.371571 0.104901,1.657258 0.378429,0.20253 0.628316,0.202757 0.753202,6.03e-4 0.102789,-0.166314 0.783187,-0.302391 1.511997,-0.302391 0.728813,0 1.662226,-0.1536 2.074256,-0.341332 0.666516,-0.303688 0.892599,-0.218227 2.049836,0.774855 0.715381,0.613903 1.673508,1.191517 2.12917,1.283589 0.913674,0.184617 1.018475,0.450939 1.877307,4.77064 0.377421,1.898333 0.420387,2.953154 0.20039,4.919532 -0.307486,2.748377 -0.473284,3.187875 -0.764659,2.026953 -0.250246,-0.997063 -0.522787,-0.96844 -1.343075,0.14106 -0.369646,0.499973 -1.678568,2.108641 -2.908711,3.574811 -1.316307,1.568868 -2.499742,3.335403 -2.876077,4.293165 -0.351697,0.895064 -1.034716,2.320054 -1.517818,3.166644 -0.4831,0.84659 -1.22233,2.45309 -1.642729,3.56999 -0.420402,1.1169 -1.054064,2.59559 -1.40814,3.28598 -0.67446,1.31509 -2.039257,6.20698 -2.04965,7.34663 -0.0033,0.36464 -0.362098,1.78959 -0.797277,3.16656 -0.650533,2.05838 -0.732927,2.65823 -0.46334,3.37325 0.222021,0.58886 0.230489,1.05167 0.02624,1.43334 -0.290733,0.54324 -0.334061,0.53972 -1.195335,-0.097 -0.615432,-0.45492 -0.89368,-0.92005 -0.89368,-1.49381 0,-0.45824 -0.145339,-1.51087 -0.322977,-2.33917 -0.292057,-1.3618 -0.259836,-1.5914 0.336521,-2.39802 0.541524,-0.73245 0.606623,-1.04565 0.36391,-1.7508 l -0.295591,-0.85878 -0.342429,1.2063 c -0.558609,1.96787 -0.867017,2.23423 -1.106825,0.95594 -0.11488,-0.61236 -0.344317,-1.1971 -0.509865,-1.29941 -0.430185,-0.26587 6.03e-4,2.66947 0.701744,4.78223 0.691176,2.08257 0.726457,2.94989 0.119991,2.94989 -0.248801,0 -0.452366,0.12119 -0.452366,0.26931 0,0.32386 0.742728,0.63542 1.514754,0.63542 0.782283,0 1.021937,0.52217 0.485742,1.05836 -0.540888,0.54089 -1.809389,0.17622 -2.109751,-0.60651 -0.16053,-0.41833 -0.31631,-0.35077 -0.962771,0.4175 -0.63391,0.75336 -0.712649,1.02609 -0.442158,1.5315 0.41906,0.78303 1.059339,0.78492 1.605791,0.005 0.41757,-0.59617 0.44322,-0.59735 1.117079,-0.0517 l 0.689696,0.55848 -1.349861,1.40879 c -1.323934,1.38173 -2.29324,1.8578 -1.947348,0.95643 0.09547,-0.2488 0.04214,-0.45237 -0.118523,-0.45237 -0.160663,0 -0.292117,-0.23749 -0.292123,-0.52776 -9e-6,-0.47279 -1.962114,-2.33408 -2.462874,-2.33632 -0.110577,-6.1e-4 -0.293484,-0.0933 -0.406454,-0.20631 -0.112974,-0.11297 -0.39675,-0.13198 -0.630617,-0.0422 -0.233864,0.0897 -0.75866,-0.0553 -1.166215,-0.32236 -0.920993,-0.60346 -1.092377,-0.60932 -0.869969,-0.0297 0.125151,0.32615 0.03668,0.40275 -0.311044,0.26932 -0.610281,-0.23419 -0.626958,-0.68992 -0.03358,-0.91762 0.76395,-0.29316 0.505658,-0.63509 -0.642435,-0.85047 -1.382389,-0.25934 -1.852807,0.14004 -1.382015,1.17332 0.334688,0.73455 2.336513,1.98071 3.18182,1.98071 0.235098,0 0.609298,0.21911 0.831551,0.48691 0.436639,0.52612 0.610143,0.32664 -2.402103,2.76164 -0.839314,0.67847 -1.281137,1.30921 -1.414298,2.01903 -0.190157,1.01362 -0.204485,1.02223 -0.791252,0.47557 -1.025855,-0.95572 -0.604153,-1.80603 1.412423,-2.84797 0.995205,-0.51421 1.775537,-1.07064 1.73407,-1.2365 -0.09693,-0.38773 -0.196581,-0.37636 -2.243772,0.2561 -1.485332,0.45887 -1.760196,0.66402 -2.044701,1.52607 -0.228873,0.6935 -0.234359,1.24403 -0.01806,1.81295 0.170844,0.44936 0.310628,1.19869 0.310628,1.66518 0,0.4665 0.226451,1.03443 0.503227,1.26208 0.456474,0.37544 0.485196,0.32283 0.309117,-0.56623 -0.160303,-0.80943 -0.101243,-0.98013 0.339139,-0.98013 0.339808,0 0.637927,-0.35228 0.821798,-0.9711 0.181013,-0.60919 0.794313,-1.34338 1.645648,-1.97003 2.983556,-2.19613 3.303871,-2.80232 2.111042,-3.99515 -0.566601,-0.5666 -0.569647,-0.60315 -0.05026,-0.60315 0.304092,0 0.654676,0.10178 0.779077,0.22618 0.1244,0.1244 0.3246,0.22618 0.444887,0.22618 0.120287,0 0.651817,0.36445 1.181179,0.80987 0.696689,0.58623 0.962472,1.06509 0.962472,1.73407 0,0.85265 -0.08057,0.9242 -1.040535,0.9242 -0.672832,0 -1.149161,-0.18649 -1.347928,-0.52776 -0.274523,-0.47132 -0.308372,-0.4552 -0.316562,0.15079 -0.0057,0.42274 -0.194711,0.67855 -0.501337,0.67855 -0.812389,0 -2.508035,1.20614 -2.980743,2.12026 -0.318791,0.61648 -0.390268,1.35553 -0.255659,2.64342 0.102769,0.98324 0.0677,1.84047 -0.07794,1.90497 -0.145635,0.0645 -0.909413,0.0758 -1.697284,0.0251 z m -4.749844,-2.32091 c 0,-0.2488 -0.13571,-0.45237 -0.301578,-0.45237 -0.165867,0 -0.301577,0.20357 -0.301577,0.45237 0,0.2488 0.13571,0.45236 0.301577,0.45236 0.165868,0 0.301578,-0.20356 0.301578,-0.45236 z m -0.607772,-1.2817 c 0.0066,-0.53865 -0.499735,-0.46629 -0.718041,0.1026 -0.251175,0.65456 0.119259,1.21208 0.454161,0.68353 0.142594,-0.22504 0.261341,-0.5788 0.26388,-0.78613 z m 3.571729,-0.5004 c -0.05443,-0.44003 -0.234682,-0.82977 -0.400549,-0.86608 -0.362318,-0.0793 -0.574412,1.1412 -0.315541,1.81581 0.282328,0.73573 0.834067,0.004 0.71609,-0.94973 z m -5.522196,-1.05935 c -0.171106,-0.77904 -0.12298,-0.82252 0.886188,-0.80063 0.586918,0.0127 1.067521,0.14596 1.068009,0.29608 0.0018,0.55841 1.214003,-0.8505 1.834444,-2.13216 0.464767,-0.96008 0.588447,-1.61511 0.447164,-2.36822 -0.161461,-0.86067 -0.114702,-1.01013 0.269876,-0.86255 0.545469,0.20931 0.563733,0.11089 0.171064,-0.92191 -0.326075,-0.85765 -1.088176,-1.09386 -0.79308,-0.24582 0.127902,0.36756 0.0024,0.31432 -0.41298,-0.1754 -0.328143,-0.38674 -0.685168,-1.37064 -0.793389,-2.18644 -0.220846,-1.66481 -0.71973,-2.01017 -0.726829,-0.50314 -0.0035,0.74375 -0.07512,0.87103 -0.29696,0.52776 -0.160789,-0.24881 -0.294421,-0.95327 -0.296961,-1.56549 -0.0054,-1.30729 -0.304723,-1.58759 -1.085549,-1.01663 -0.481984,0.35243 -0.692174,0.34941 -1.406946,-0.0202 -0.762219,-0.39416 -0.857996,-0.38451 -1.030619,0.10377 -0.104669,0.29607 -0.419826,0.80973 -0.700351,1.14146 -1.154387,1.36514 -1.702905,7.35115 -0.83615,9.12498 0.352113,0.7206 0.554124,0.81495 1.569243,0.73289 1.259695,-0.10183 1.663989,0.23523 1.671674,1.39369 0.0027,0.41232 0.134826,0.61587 0.323851,0.49905 0.176505,-0.10909 0.23834,-0.56561 0.138301,-1.02107 z m -4.684236,-0.41831 c -0.0035,-0.73225 -0.07451,-0.85417 -0.29696,-0.50996 -0.386526,0.59811 -0.386526,1.89756 0,1.65868 0.165867,-0.10251 0.299499,-0.61944 0.29696,-1.14872 z M 40.61166,128.9927 c -0.0845,-0.2202 -0.275126,-0.32528 -0.423611,-0.23351 -0.148488,0.0918 -0.269978,6e-4 -0.269978,-0.20279 0,-0.2033 -0.07105,-0.29858 -0.157888,-0.21175 -0.273721,0.27372 0.165551,1.04843 0.594478,1.04843 0.225852,0 0.341501,-0.18017 0.256999,-0.40038 z m 9.318775,-0.19846 c 0.759806,0.68761 0.968612,0.33077 0.549513,-0.93911 -0.563962,-1.70882 -2.11771,-1.30008 -2.11771,0.5571 0,0.85427 0.03078,0.87826 0.510827,0.39822 0.473787,-0.47379 0.550451,-0.47497 1.05737,-0.0162 z m 3.107707,-1.05839 c -0.330481,-0.33048 -0.828599,0.52798 -0.614446,1.05893 0.198809,0.49292 0.248979,0.47539 0.498887,-0.1743 0.152818,-0.39728 0.204819,-0.79537 0.115559,-0.88463 z m 12.514008,0.72276 c 0,-0.25472 -1.846932,-1.44069 -2.002051,-1.28557 -0.369894,0.36989 0.559977,1.41583 1.258717,1.41583 0.408834,0 0.743334,-0.0586 0.743334,-0.13026 z m -24.591439,-0.45206 c 0.09543,-0.1544 0.03558,-0.36598 -0.132989,-0.47016 -0.168573,-0.10419 -0.306496,0.0221 -0.306496,0.28074 0,0.52973 0.180964,0.60772 0.439485,0.18942 z m 10.972556,-2.68177 c 0.990565,-0.89974 1.026308,-0.98126 0.349477,-0.79697 -1.026008,0.27936 -1.436823,0.72989 -1.640635,1.79923 -0.09484,0.4976 -0.0914,0.70117 0.0077,0.45236 0.09905,-0.2488 0.676628,-0.90338 1.283511,-1.45462 z m 20.962661,-0.004 c 0.275539,-0.30446 0.917812,-1.41408 1.427275,-2.46581 0.833497,-1.72065 0.905568,-2.09086 0.719356,-3.69527 -0.157254,-1.35492 -0.417027,-2.02232 -1.081876,-2.77954 -0.58613,-0.66757 -0.807826,-1.17135 -0.671637,-1.52625 0.175193,-0.45655 0.08258,-0.49948 -0.670011,-0.31059 -1.027571,0.25791 -0.994343,0.2542 -1.864674,0.20839 -0.382147,-0.0201 -0.67855,-0.2308 -0.67855,-0.48234 0,-0.63629 -1.250786,-0.86668 -3.390782,-0.62457 -2.329387,0.26354 -3.35168,0.79125 -4.295373,2.21727 -0.662804,1.00156 -0.712302,1.26489 -0.437752,2.32881 0.681815,2.64214 2.315726,4.89809 4.278795,5.90776 0.622004,0.31992 1.130916,0.72914 1.130916,0.90938 0,0.18024 0.188751,0.25528 0.419449,0.16676 0.230694,-0.0885 1.011026,0.0236 1.73407,0.24914 1.832414,0.57162 2.796774,0.5422 3.380794,-0.10314 z m -7.946933,-0.12658 c 0,-0.20821 -0.474984,-0.52724 -1.05552,-0.70894 -1.257533,-0.3936 -1.395037,-0.0207 -0.226183,0.61344 1.02969,0.55862 1.281703,0.5774 1.281703,0.0955 z m -15.380447,-0.35757 c 0,-0.0731 -0.13571,-0.21686 -0.301578,-0.31938 -0.165867,-0.10251 -0.301577,-0.0427 -0.301577,0.13299 0,0.17566 0.13571,0.31938 0.301577,0.31938 0.165868,0 0.301578,-0.0598 0.301578,-0.13299 z m 4.729973,-1.87226 c -0.1169,-0.1169 -0.41039,0.049 -0.652203,0.36859 -0.678562,0.89692 -0.538141,1.24684 0.202952,0.50575 0.363989,-0.36399 0.566151,-0.75744 0.449251,-0.87434 z m 7.106852,-0.69659 c -0.623849,-1.1251 -0.853102,-1.34932 -0.92555,-0.90525 -0.101194,0.62026 0.991876,2.40078 1.473845,2.40078 0.154526,0 -0.09221,-0.67299 -0.548295,-1.49553 z m 14.105448,-8.14258 c -0.18142,-0.33899 -1.037453,-0.97146 -1.902305,-1.4055 -0.864848,-0.43404 -2.166384,-1.27127 -2.892299,-1.8605 -0.96645,-0.78448 -1.228886,-0.90138 -0.980127,-0.43657 0.443108,0.82796 0.428723,0.97601 -0.09485,0.97601 -0.239012,0 -0.522115,0.14165 -0.629117,0.31478 -0.34125,0.55216 0.438626,1.12134 1.820315,1.32853 0.737194,0.11055 1.41938,0.32887 1.515969,0.48516 0.09659,0.15628 0.50979,0.28415 0.918228,0.28415 0.499461,0 0.855087,0.24686 1.086128,0.75394 0.188938,0.41467 0.442734,0.75394 0.563998,0.75394 0.121261,0 0.331943,0.37321 0.468184,0.82934 0.242456,0.81175 0.249914,0.80563 0.351715,-0.28881 0.0572,-0.61498 -0.04443,-1.39549 -0.225843,-1.73447 z m -8.230882,-1.70246 c -0.100215,-0.10021 -0.360325,-0.11092 -0.578025,-0.0238 -0.240577,0.0963 -0.169118,0.16773 0.182204,0.1822 0.317911,0.0131 0.496032,-0.0582 0.395821,-0.15839 z m 13.963428,-1.7387 c -0.213308,-0.2133 -0.304774,0.0155 -0.291652,0.72968 0.01797,0.97762 0.03672,0.99639 0.310769,0.31077 0.193125,-0.48317 0.186668,-0.83466 -0.01912,-1.04045 z m -12.157315,-3.86665 c 0.125809,-1.11617 -6.03e-4,-1.57906 -0.770916,-2.82509 -0.506758,-0.81961 -1.233958,-1.6768 -1.615999,-1.90489 -0.5971,-0.35647 -0.574744,-0.28705 0.159232,0.49446 0.577666,0.61508 0.728973,0.95078 0.467777,1.03784 -0.284583,0.0949 -0.222148,0.36128 0.237495,1.01343 1.022586,1.45087 1.094573,2.10084 0.406032,3.66615 l -0.633704,1.44067 0.79981,-0.79384 c 0.544263,-0.5402 0.847885,-1.22035 0.950273,-2.12873 z m -29.414551,-0.0426 c 0.04524,-3.11621 5.358735,-9.425739 9.630721,-11.436035 3.647036,-1.716211 6.121747,-2.377458 8.861282,-2.367748 2.790182,0.0099 4.853161,0.500827 8.878979,2.11296 1.585398,0.634869 3.379612,1.31498 3.987145,1.511358 1.243953,0.402093 4.45736,3.388581 5.896146,5.479785 0.917212,1.33312 1.984494,4.11249 2.371626,6.1761 0.106939,0.57003 0.332574,1.03643 0.501406,1.03643 0.363268,0 0.09609,-2.87535 -0.518412,-5.57918 -0.226183,-0.99521 -0.503001,-2.82729 -0.615151,-4.071299 C 78.553092,98.393434 78.276781,96.629207 78.051216,95.716935 77.550501,93.691828 77.46583,90.884351 77.734487,85.21492 78.065161,78.236784 77.42066,76.31399 74.633882,75.964625 72.028127,75.63795 70.999223,75.238312 70.808605,74.478834 70.608714,73.682396 70.471722,71.513409 70.243383,65.52961 c -0.144986,-3.7995 -0.834049,-7.952079 -1.146067,-6.906691 -0.751654,2.518352 -4.142292,12.20157 -5.438354,15.531234 -1.529058,3.928248 -4.49002,9.270697 -4.818869,8.694663 -0.274547,-0.480911 -2.602227,-7.809244 -3.235238,-10.18564 -0.751121,-2.819788 -1.814224,-8.844197 -1.814224,-10.280875 0,-0.553256 -0.158105,-1.387959 -0.351346,-1.854891 -0.21295,-0.514551 -0.371863,-2.902655 -0.403429,-6.062559 -0.02865,-2.867471 -0.182162,-5.343666 -0.341148,-5.502653 -0.184372,-0.184372 -0.993155,0.775479 -2.233072,2.650179 -2.754572,4.164785 -5.411212,8.603226 -5.414204,9.045492 -0.0015,0.206949 0.457095,1.021208 1.018876,1.809465 0.561782,0.788253 1.643175,2.677262 2.403099,4.197794 0.75992,1.520535 2.116431,3.895456 3.014462,5.277604 1.831926,2.819489 6.232136,10.783535 6.21827,11.254596 -0.01466,0.498034 -2.282691,-2.224752 -4.01588,-4.821092 -0.8858,-1.32694 -1.829791,-2.594231 -2.097761,-2.816204 -0.425504,-0.352469 -0.511273,-0.295175 -0.677192,0.452366 -0.618424,2.78633 -1.941353,5.485816 -6.602027,13.471657 -2.087838,3.577416 -2.414775,4.49628 -3.666264,10.304175 -1.175884,5.45702 -1.314432,4.83855 -0.263024,-1.174101 0.945813,-5.408802 1.43727,-6.850378 3.961448,-11.620036 4.612817,-8.716319 5.179016,-9.937402 5.389695,-11.623618 0.190136,-1.521798 0.134281,-1.771942 -0.625402,-2.800779 -0.458802,-0.621358 -1.344423,-1.672578 -1.968049,-2.336049 -0.623626,-0.66347 -1.424416,-1.833892 -1.779533,-2.600932 -0.643675,-1.390329 -3.055498,-4.184558 -3.611875,-4.184558 -0.371073,0 -0.540737,1.039606 -0.935125,5.72997 -0.174339,2.073344 -0.395603,4.041136 -0.491704,4.372872 -0.0961,0.331735 -0.109135,0.535299 -0.02895,0.452366 0.08017,-0.08293 0.775575,-0.867795 1.545352,-1.744137 1.410127,-1.605342 1.681972,-1.759622 1.063166,-0.603369 -0.185033,0.345738 -0.376025,1.524275 -0.424425,2.618973 -0.06001,1.357325 -0.432595,2.936996 -1.171463,4.966717 -0.986438,2.709821 -1.083959,3.263451 -1.08902,6.182336 -0.003,1.76329 -0.223282,4.359515 -0.489394,5.76939 -0.356398,1.888227 -0.493944,4.603593 -0.522202,10.309235 -0.02114,4.26885 0.07174,7.45013 0.20693,7.08707 0.134914,-0.36232 0.252849,-1.17885 0.262077,-1.81451 z m -2.287094,-2.08621 c -0.08564,-2.73107 -0.263901,-3.83386 -0.914032,-5.654574 -0.793879,-2.223276 -0.804262,-2.349221 -0.60928,-7.388645 0.181745,-4.697342 0.05844,-6.807977 -0.660696,-11.309152 l -0.168636,-1.05552 0.526298,0.716092 c 0.289463,0.393851 0.761775,1.336434 1.049583,2.094633 l 0.523285,1.37854 0.220444,-1.304799 c 0.126526,-0.748916 0.314708,-1.152275 0.441705,-0.946787 0.121692,0.196903 0.313996,-1.697039 0.427335,-4.208762 0.198541,-4.399755 0.180962,-4.609324 -0.480627,-5.730338 -0.746226,-1.264423 -3.229517,-5.249877 -4.078153,-6.545058 l -0.52789,-0.805664 1.00498,0.589004 c 0.552737,0.323952 1.609666,1.233624 2.348727,2.021495 0.739061,0.787871 1.384898,1.432492 1.435186,1.432492 0.05029,0 -0.09457,-0.916041 -0.321925,-2.035647 -0.22735,-1.119606 -0.529887,-3.346906 -0.672301,-4.949557 -0.182062,-2.048787 -0.467966,-3.332445 -0.962988,-4.323631 -0.686354,-1.374291 -0.716406,-1.39446 -1.195778,-0.802461 -0.270452,0.333991 -0.793857,1.601078 -1.163127,2.815744 -0.369269,1.214666 -1.064173,3.348492 -1.544227,4.741836 l -0.872828,2.533356 0.939697,1.070253 c 1.365735,1.555488 2.036576,3.302673 2.395866,6.239982 0.31039,2.537524 0.300281,2.62037 -0.452296,3.706341 -0.423382,0.610938 -1.723606,2.127683 -2.889383,3.370543 -1.577392,1.681689 -2.351348,2.813684 -3.025562,4.425214 -0.49828,1.19101 -0.898281,2.276689 -0.888891,2.412619 0.0094,0.135933 0.831017,0.839935 1.825837,1.564451 0.99482,0.724515 2.020462,1.640394 2.279203,2.035285 0.626169,0.95565 3.592743,9.403265 4.170913,11.877065 0.454799,1.94595 1.63473,5.4284 1.83926,5.4284 0.05868,0 0.05882,-1.52674 3.01e-4,-3.39275 z m 13.288602,1.20631 c -0.08366,-0.20733 -0.152113,-0.0377 -0.152113,0.37697 0,0.41467 0.06845,0.58431 0.152113,0.37697 0.08366,-0.20733 0.08366,-0.5466 0,-0.75394 z M 38.691842,89.729469 c 0.197666,-1.053895 0.294867,-1.980699 0.216002,-2.059565 -0.07887,-0.07887 -0.298894,0.647704 -0.488951,1.614594 -0.190057,0.966893 -0.473331,2.151441 -0.6295,2.632327 -0.340888,1.049697 -0.363567,2.454933 -0.06193,3.837807 0.181555,0.832363 0.256898,0.550738 0.413499,-1.545584 0.105319,-1.409874 0.353219,-3.425686 0.550885,-4.479579 z m 2.731112,-13.505988 c 1.107658,-2.442883 1.175036,-3.240549 0.09892,-1.171019 -0.775418,1.491246 -1.376133,3.172986 -1.133385,3.172986 0.0697,0 0.535216,-0.900884 1.034468,-2.001967 z m 44.503591,-4.365809 c 0.344591,-0.666369 0.392126,-1.033032 0.163557,-1.261601 -0.419418,-0.419419 -0.512835,-0.287593 -0.758289,1.070069 -0.248961,1.377041 -0.05125,1.440713 0.594732,0.191532 z M 74.459357,66.731879 c 0.129042,-0.406575 0.02735,-0.811527 -0.281255,-1.120143 -0.44343,-0.44343 -0.483362,-0.390826 -0.483362,0.636781 0,1.22064 0.441944,1.500018 0.764617,0.483362 z M 30.987025,62.845002 c 0.100986,-1.409874 0.2661,-3.140174 0.36692,-3.845112 0.11573,-0.809186 0.06679,-1.281703 -0.132751,-1.281703 -0.173836,0 -1.123945,0.747954 -2.111353,1.662119 -1.987456,1.840032 -2.911496,3.632795 -2.634229,5.110756 l 0.172664,0.920381 2.07757,-0.0015 2.077569,-0.0015 0.18361,-2.563408 z M 50.47328,137.5032 c 0,-0.69731 0.519796,-0.8215 0.691423,-0.16519 0.101641,0.38867 0.0076,0.59976 -0.267291,0.59976 -0.233273,0 -0.424132,-0.19556 -0.424132,-0.43457 z m 94.09215,-28.06449 v -7.9918 h 69.37778 c 74.13965,0 70.72035,-0.0658 71.27154,1.3706 0.10303,0.26851 0.18733,3.66627 0.18733,7.55059 v 7.06241 h -70.41832 -70.41833 z m 7.54635,1.35018 c 0.7478,-0.7478 0.38059,-1.6938 -0.76956,-1.98247 -1.00074,-0.25117 -0.95406,-0.7932 0.0578,-0.671 1.07588,0.12993 1.26768,-0.57991 0.22725,-0.84104 -1.0423,-0.2616 -1.75832,0.18082 -1.87623,1.15932 -0.0744,0.61731 0.0845,0.82516 0.82933,1.08481 0.95885,0.33426 1.31996,1.13875 0.3936,0.87687 -0.29027,-0.0821 -0.71436,-0.19968 -0.94243,-0.26136 -0.72979,-0.19739 -0.71864,0.6316 0.0124,0.92462 1.06086,0.4252 1.40045,0.37761 2.06781,-0.28975 z m 7.62774,0.26335 c 1.43416,-0.75489 1.56512,-2.0659 0.20636,-2.0659 -0.60316,0 -0.90473,0.15079 -0.90473,0.45237 0,0.2488 0.16285,0.45236 0.36189,0.45236 0.24892,0 0.26466,0.0972 0.0504,0.31146 -0.42686,0.42686 -1.25394,0.0609 -1.48128,-0.65537 -0.27912,-0.87942 0.42388,-1.54933 1.41734,-1.35064 1.01415,0.20283 1.40313,-0.26488 0.58462,-0.70294 -2.23159,-1.19431 -4.23109,1.72156 -2.24943,3.28034 0.91801,0.7221 1.11894,0.74986 2.0148,0.27832 z m 19.44021,-0.12275 c 0.94955,-0.66509 0.83316,-1.26422 -0.38526,-1.98311 -1.27214,-0.75058 -1.32342,-0.93394 -0.22619,-0.80867 0.95225,0.10872 1.28793,-0.34369 0.58433,-0.78752 -0.3151,-0.19875 -0.76412,-0.2 -1.32236,-0.004 -1.27283,0.44763 -1.16403,1.63244 0.21027,2.28991 0.87104,0.41671 0.96261,0.5417 0.52392,0.71513 -0.29238,0.11558 -0.72135,0.0527 -0.95328,-0.13981 -0.32088,-0.26631 -0.47514,-0.26344 -0.64538,0.012 -0.22813,0.3691 0.606,1.1752 1.21607,1.1752 0.18019,0 0.62924,-0.21126 0.99788,-0.46947 z m 5.96562,0.0386 c 0.55384,-0.4076 0.55625,-0.44212 0.0446,-0.64041 -0.29742,-0.11527 -0.62061,-0.12974 -0.7182,-0.0322 -0.32286,0.32286 -1.30444,-0.41559 -1.30444,-0.98134 0,-0.74335 0.66895,-1.25765 1.50984,-1.1608 0.97863,0.11273 1.10455,-0.61284 0.14802,-0.85292 -1.05263,-0.26419 -2.20323,0.28827 -2.56119,1.22976 -0.70024,1.84178 1.34266,3.57026 2.88134,2.43786 z m 21.64025,0.0841 c 0.89263,-0.46985 1.10104,-0.84155 1.10647,-1.97341 0.008,-1.70443 -2.08604,-2.5255 -3.31274,-1.2988 -0.86779,0.86779 -0.78073,2.22916 0.19146,2.99389 0.91801,0.7221 1.11895,0.74986 2.01481,0.27832 z m -1.44346,-0.9666 c -0.6182,-0.45205 -0.52219,-1.35368 0.19204,-1.80343 0.36426,-0.22938 0.63387,-0.20737 0.98013,0.08 1.09564,0.90931 -0.0274,2.56051 -1.17217,1.72344 z m -49.39063,-0.73423 c 0.79909,-2.06077 0.81147,-2.17453 0.23676,-2.17453 -0.25235,0 -0.59452,0.51487 -0.80168,1.2063 -0.19878,0.66348 -0.45417,1.20631 -0.56753,1.20631 -0.11335,0 -0.36874,-0.54283 -0.56752,-1.20631 -0.20716,-0.69143 -0.54933,-1.2063 -0.80168,-1.2063 -0.58076,0 -0.5588,0.23971 0.20475,2.23499 0.85116,2.22424 1.41677,2.20935 2.2969,-0.0605 z m 8.27087,1.06742 c 0.069,-0.48584 0.3319,-0.70565 0.92571,-0.77397 1.04046,-0.11972 1.08364,-0.58667 0.066,-0.71388 -0.41983,-0.0525 -0.76332,-0.23114 -0.76332,-0.39701 0,-0.16586 0.34349,-0.34452 0.76332,-0.397 0.41982,-0.0525 0.76332,-0.28997 0.76332,-0.52776 0,-0.31134 -0.37979,-0.43233 -1.3571,-0.43233 h -1.3571 v 1.96025 c 0,1.49903 0.1015,1.96025 0.43139,1.96025 0.23727,0 0.47476,-0.30535 0.52776,-0.67855 z m 4.77082,0.37697 c 0,-0.16586 -0.13571,-0.30157 -0.30158,-0.30157 -0.16586,0 -0.30157,-0.54284 -0.30157,-1.20631 0,-0.66347 0.13571,-1.20631 0.30157,-1.20631 0.16587,0 0.30158,-0.21176 0.30158,-0.47057 0,-0.35795 -0.26508,-0.44817 -1.1076,-0.37698 -1.06736,0.0902 -1.85172,0.84755 -0.87778,0.84755 0.64709,0 0.66953,2.05628 0.0251,2.30356 -0.85625,0.32857 -0.45013,0.71221 0.75395,0.71221 0.66347,0 1.20631,-0.13571 1.20631,-0.30158 z m 3.61893,0.02 c 0,-0.15485 -0.3732,-0.32449 -0.82934,-0.37697 -0.77352,-0.089 -0.83547,-0.20198 -0.92049,-1.67871 -0.0656,-1.13893 -0.21369,-1.58328 -0.52776,-1.58328 -0.33631,1e-5 -0.43661,0.45031 -0.43661,1.96026 v 1.96025 h 1.3571 c 0.74641,0 1.3571,-0.12669 1.3571,-0.28155 z m 3.61893,-0.02 c 0,-0.16586 -0.40713,-0.30157 -0.90473,-0.30157 -0.60316,0 -0.90474,-0.15079 -0.90474,-0.45237 0,-0.28536 0.28762,-0.45237 0.77908,-0.45237 0.94476,0 0.84135,-0.70824 -0.12415,-0.85031 -0.99553,-0.14649 -0.78184,-0.65757 0.27494,-0.65757 0.60986,0 0.88662,-0.12974 0.8042,-0.37697 -0.0752,-0.22571 -0.66012,-0.37698 -1.45762,-0.37698 h -1.33197 l -0.0898,1.88486 -0.0898,1.88486 h 1.52228 c 0.83725,0 1.52228,-0.13571 1.52228,-0.30158 z m 10.85679,-0.30157 c 0,-0.33174 0.13093,-0.60316 0.29096,-0.60316 0.16003,0 0.43623,0.27142 0.61377,0.60316 0.17754,0.33173 0.59714,0.60315 0.93244,0.60315 0.56199,0 0.57445,-0.0503 0.1593,-0.64295 -0.39965,-0.57058 -0.39922,-0.72098 0.004,-1.33614 0.41595,-0.63482 0.40164,-0.74576 -0.16991,-1.31731 -0.39335,-0.39333 -1.0144,-0.6241 -1.67964,-0.6241 h -1.05552 v 1.96025 c 0,1.54139 0.0967,1.96025 0.45237,1.96025 0.25131,0 0.45237,-0.26807 0.45237,-0.60315 z m 0,-1.96026 c 0,-0.25131 0.26806,-0.45236 0.60315,-0.45236 0.33509,0 0.60315,0.20105 0.60315,0.45236 0,0.25132 -0.26806,0.45237 -0.60315,0.45237 -0.33509,0 -0.60315,-0.20105 -0.60315,-0.45237 z m 6.03154,2.28094 c 0,-0.15536 -0.4306,-0.32499 -0.9569,-0.37697 -1.29902,-0.12829 -1.51072,-0.84845 -0.24941,-0.84845 1.17418,0 1.09189,-0.70843 -0.0987,-0.84936 -1.19365,-0.14131 -0.978,-0.65852 0.27457,-0.65852 0.73049,0 1.03994,-0.12215 0.955,-0.37697 -0.0752,-0.22571 -0.66012,-0.37698 -1.45762,-0.37698 h -1.33197 l -0.0898,1.88486 -0.0898,1.88486 h 1.52227 c 0.83726,0 1.52228,-0.12711 1.52228,-0.28247 z m 1.3571,-0.0191 c 0.10251,-0.16586 0.51765,-0.30157 0.92253,-0.30157 0.40488,0 0.73615,0.13571 0.73615,0.30157 0,0.16587 0.20356,0.30158 0.45236,0.30158 0.61482,0 0.57448,-0.30984 -0.2968,-2.27995 -0.41204,-0.9317 -0.90139,-1.64326 -1.08746,-1.58124 -0.26243,0.0875 -1.7823,3.29523 -1.7823,3.76163 0,0.2402 0.88715,0.0704 1.05552,-0.20202 z m 0.45237,-1.49008 c 0,-0.15608 0.13571,-0.36766 0.30157,-0.47017 0.16587,-0.10251 0.30158,0.0252 0.30158,0.28378 0,0.25859 -0.13571,0.47016 -0.30158,0.47016 -0.16586,0 -0.30157,-0.1277 -0.30157,-0.28377 z m 4.22208,0.40633 c 0,-1.13171 0.11043,-1.41421 0.60316,-1.54306 0.33173,-0.0867 0.60315,-0.35256 0.60315,-0.59068 0,-0.56118 -3.05604,-0.44214 -3.24338,0.12633 -0.0727,0.2207 0.13622,0.37697 0.50405,0.37697 0.55289,0 0.62829,0.18094 0.62829,1.50788 0,1.1393 0.11058,1.50789 0.45237,1.50789 0.33645,0 0.45236,-0.35498 0.45236,-1.38533 z m 4.22208,1.08375 c 0,-0.16586 -0.1357,-0.30157 -0.30157,-0.30157 -0.16587,0 -0.30158,-0.54284 -0.30158,-1.20631 0,-0.66347 0.13571,-1.20631 0.30158,-1.20631 0.16587,0 0.30157,-0.21176 0.30157,-0.47057 0,-0.35795 -0.26508,-0.44817 -1.1076,-0.37698 -1.06735,0.0902 -1.85172,0.84755 -0.87778,0.84755 0.6471,0 0.66953,2.05628 0.0251,2.30356 -0.85624,0.32857 -0.45013,0.71221 0.75396,0.71221 0.66347,0 1.2063,-0.13571 1.2063,-0.30158 z m 6.33313,-0.82575 v -1.12733 l 0.80211,1.12733 c 0.44168,0.62076 1.05796,1.12733 1.37149,1.12733 0.50696,0 0.55954,-0.20662 0.47959,-1.88486 -0.0683,-1.43447 -0.19787,-1.88486 -0.54215,-1.88486 -0.33348,0 -0.43492,0.29721 -0.38599,1.13092 0.0365,0.622 0.021,1.13091 -0.0344,1.13091 -0.0554,0 -0.47694,-0.54283 -0.93673,-1.20631 -1.24021,-1.78962 -1.65867,-1.59942 -1.65867,0.75395 0,1.54139 0.0967,1.96025 0.45236,1.96025 0.32143,0 0.45237,-0.32631 0.45237,-1.12733 z m -155.256011,0.90558 c -0.778254,-0.0696 -1.255892,-0.25092 -1.189087,-0.45134 0.157412,-0.47224 1.432713,-0.54088 2.414438,-0.12996 0.842451,0.35262 1.140189,0.8465 0.452366,0.75036 -0.207334,-0.029 -0.962306,-0.10505 -1.677717,-0.16906 z m 9.562193,-9.85537 c -2.25743,-1.305479 -2.785399,-2.21083 -0.655668,-1.124322 1.12299,0.572902 2.115719,1.457842 1.861489,1.659372 -0.0651,0.0516 -0.607723,-0.18916 -1.205821,-0.53505 z M 144.56543,87.423558 v -7.991801 h 69.37778 c 74.13965,0 70.72035,-0.06576 71.27154,1.370609 0.10303,0.268503 0.18733,3.666267 0.18733,7.55059 v 7.062402 h -70.41832 -70.41833 z m 7.59375,0.905956 c 0.28391,-0.623119 0.24768,-0.858003 -0.21044,-1.364224 -0.42425,-0.46879 -0.47061,-0.694301 -0.19864,-0.966272 0.61616,-0.616162 0.39127,-0.837291 -0.85154,-0.837291 -0.87123,0 -1.20631,0.125659 -1.20631,0.452366 0,0.248802 0.2307,0.452366 0.51268,0.452366 0.39875,0 0.43226,0.08042 0.15079,0.361893 -0.52758,0.527574 -0.44373,0.844417 0.22346,0.844417 0.72639,0 1.09953,0.54679 0.66777,0.978543 -0.22939,0.229395 -0.45364,0.214274 -0.77477,-0.05224 -0.60789,-0.504506 -1.23953,-0.12298 -0.75765,0.457643 0.60246,0.725927 2.05329,0.531742 2.44465,-0.327201 z m 3.91784,0.253612 c 0.30333,-0.274508 0.55151,-0.885202 0.55151,-1.357099 0,-1.244386 -0.95826,-2.0643 -2.41262,-2.0643 h -1.20631 v 1.960253 1.960253 h 1.25796 c 0.74733,0 1.48182,-0.202597 1.80946,-0.499107 z m -2.16269,-1.461146 c 0,-0.831524 0.12016,-1.055521 0.56623,-1.055521 0.78105,0 1.33269,0.750955 1.09704,1.493415 -0.12679,0.399466 -0.45516,0.617627 -0.92965,0.617627 -0.63737,0 -0.73362,-0.138481 -0.73362,-1.055521 z m 8.29338,1.372602 c 0,-0.29481 -0.34141,-0.441904 -1.04998,-0.452366 -0.76278,-0.01128 -1.07892,-0.163822 -1.15581,-0.557752 -0.15481,-0.793112 0.53432,-1.461622 1.3996,-1.35771 1.04495,0.125486 1.18885,-0.593761 0.16996,-0.849486 -1.91203,-0.479891 -3.34559,1.801101 -2.0392,3.244649 0.64217,0.709588 2.67543,0.688815 2.67543,-0.02732 z m 4.12294,0.08854 c 1.22426,-1.107941 0.23679,-3.421399 -1.46039,-3.421399 -1.6795,0 -2.55803,2.099887 -1.4095,3.369 0.62189,0.687183 2.13788,0.714865 2.86989,0.0524 z M 163.9822,87.74275 c -0.29273,-0.762858 0.0213,-1.522649 0.6676,-1.61545 0.80784,-0.11599 1.43252,0.641482 1.18143,1.432574 -0.23002,0.724732 -1.5895,0.85919 -1.84903,0.182876 z m 4.70942,0.377111 c 0,-0.913162 0.023,-0.932439 0.4486,-0.376972 0.43891,0.572762 0.46155,0.569122 1.04881,-0.168543 l 0.60022,-0.753943 0.007,1.130915 c 0.005,0.801225 0.13858,1.130915 0.45907,1.130915 0.35571,0 0.45237,-0.418858 0.45237,-1.960253 0,-2.256649 -0.51536,-2.61511 -1.47976,-1.029268 l -0.56617,0.930981 -0.54994,-0.930981 c -0.90118,-1.525581 -1.32463,-1.196548 -1.32463,1.029268 0,1.541395 0.0967,1.960253 0.45237,1.960253 0.30759,0 0.45236,-0.307983 0.45236,-0.962372 z m 4.82524,0.359217 c 0,-0.394656 0.20105,-0.603154 0.58161,-0.603154 0.67263,0 1.52943,-0.760259 1.52943,-1.357099 0,-0.726508 -0.92086,-1.357098 -1.98179,-1.357098 h -1.03398 v 1.960253 c 0,1.541395 0.0967,1.960253 0.45237,1.960253 0.25131,0 0.45236,-0.268069 0.45236,-0.603155 z m 0,-1.960253 c 0,-0.310612 0.19766,-0.458527 0.52776,-0.394954 0.63568,0.122419 0.5956,0.657643 -0.0595,0.794038 -0.27323,0.05689 -0.4683,-0.109349 -0.4683,-0.399084 z m 6.16524,1.893149 c 1.00406,-1.433493 0.11261,-3.250247 -1.59484,-3.250247 -1.25739,0 -1.99789,0.965374 -1.89193,2.466472 0.10307,1.460292 2.6171,2.025409 3.48677,0.783775 z m -2.43049,-0.669224 c -0.29274,-0.762858 0.0213,-1.522649 0.66759,-1.61545 0.80784,-0.11599 1.43252,0.641482 1.18144,1.432574 -0.23003,0.724732 -1.58951,0.85919 -1.84903,0.182876 z m 6.15699,0.97759 c 0.68334,-0.683338 0.40211,-1.461546 -0.69363,-1.919374 -1.26671,-0.529265 -1.36112,-0.813408 -0.22618,-0.680696 0.57924,0.06773 0.82934,-0.03944 0.82934,-0.355388 0,-0.572153 -1.53604,-0.77879 -2.12928,-0.286441 -0.78813,0.654091 -0.50836,1.492512 0.66108,1.981134 0.74741,0.312289 0.99712,0.555695 0.78632,0.766492 -0.2108,0.2108 -0.51269,0.199819 -0.95065,-0.03457 -0.81022,-0.433617 -1.40277,-0.130218 -0.9086,0.465222 0.43116,0.51951 2.13453,0.56069 2.6316,0.06362 z m 3.37767,0.05085 c 0,-0.171076 -0.20357,-0.389158 -0.45237,-0.484632 -0.27911,-0.107108 -0.45236,-0.565487 -0.45236,-1.196846 0,-0.708507 0.13914,-1.023255 0.45236,-1.023255 0.2488,0 0.45237,-0.203564 0.45237,-0.452366 0,-0.326707 -0.33509,-0.452366 -1.20631,-0.452366 -0.87123,0 -1.20631,0.125659 -1.20631,0.452366 0,0.248802 0.13571,0.452366 0.30158,0.452366 0.16586,0 0.30157,0.474985 0.30157,1.055521 0,0.580537 -0.13571,1.055521 -0.30157,1.055521 -0.16587,0 -0.30158,0.203565 -0.30158,0.452366 0,0.326708 0.33508,0.452366 1.20631,0.452366 0.66347,0 1.20631,-0.139968 1.20631,-0.311041 z m 2.71419,-1.196846 c 0,-1.306834 0.0804,-1.507887 0.60316,-1.507887 0.33508,0 0.60315,-0.201052 0.60315,-0.452366 0,-0.347272 -0.38535,-0.452366 -1.65867,-0.452366 -1.27333,0 -1.65868,0.105094 -1.65868,0.452366 0,0.248802 0.20357,0.452366 0.45237,0.452366 0.34179,0 0.45236,0.368594 0.45236,1.507887 0,1.306835 0.0804,1.507887 0.60316,1.507887 0.52273,0 0.60315,-0.201052 0.60315,-1.507887 z m 3.92051,1.055521 c 0,-0.248801 -0.13571,-0.452366 -0.30158,-0.452366 -0.16586,0 -0.30157,-0.474984 -0.30157,-1.055521 0,-0.580536 0.13571,-1.055521 0.30157,-1.055521 0.16587,0 0.30158,-0.203564 0.30158,-0.452366 0,-0.315938 -0.31833,-0.452366 -1.05552,-0.452366 -0.73719,0 -1.05552,0.136428 -1.05552,0.452366 0,0.248802 0.13571,0.452366 0.30158,0.452366 0.16586,0 0.30157,0.474985 0.30157,1.055521 0,0.580537 -0.13571,1.055521 -0.30157,1.055521 -0.16587,0 -0.30158,0.203565 -0.30158,0.452366 0,0.315939 0.31833,0.452366 1.05552,0.452366 0.73719,0 1.05552,-0.136427 1.05552,-0.452366 z m 1.81958,-0.678549 0.0101,-1.130915 0.92387,1.130915 c 1.38309,1.69304 1.7701,1.511711 1.7701,-0.829338 0,-1.541395 -0.0967,-1.960253 -0.45236,-1.960253 -0.31989,0 -0.45533,0.331205 -0.46248,1.130915 l -0.0101,1.130916 -0.92388,-1.130916 c -1.38308,-1.69304 -1.7701,-1.51171 -1.7701,0.829338 0,1.541395 0.0967,1.960253 0.45237,1.960253 0.31989,0 0.45533,-0.331204 0.46248,-1.130915 z m 6.86058,0.753943 c 0.17042,-0.207334 0.35667,-0.648391 0.4139,-0.980126 0.084,-0.486671 -0.0852,-0.621406 -0.87608,-0.697657 -0.55054,-0.05308 -0.98012,0.04605 -0.98012,0.226183 0,0.176377 0.20356,0.320685 0.45236,0.320685 0.57107,0 0.59136,0.48529 0.0293,0.700966 -0.6808,0.261247 -1.45521,-0.502386 -1.33966,-1.321018 0.0872,-0.61776 0.27486,-0.739555 1.15956,-0.75255 1.41272,-0.02075 1.45962,-0.850439 0.0557,-0.985199 -1.11385,-0.106915 -1.79386,0.321539 -2.1982,1.385027 -0.2758,0.725408 0.0859,1.802972 0.75516,2.249861 0.53677,0.358413 2.192,0.262707 2.52807,-0.146172 z m -57.5357,-33.590887 c 0,-11.184511 0.0989,-15.60024 0.36973,-16.504123 0.47324,-1.579528 2.16427,-3.27055 3.74379,-3.743789 0.95823,-0.287091 16.14028,-0.369733 67.92308,-0.369733 h 66.68901 l -0.007,15.606629 c -0.006,14.528167 -0.0451,15.689988 -0.56337,16.812938 -0.6738,1.45993 -1.62852,2.378722 -3.11876,3.00138 -0.9969,0.416538 -8.3216,0.46676 -68.07697,0.46676 h -66.95987 z m 34.37983,6.566138 c 0,-0.748446 0.0961,-0.84454 0.72442,-0.724428 1.57144,0.300398 2.67044,-2.226844 1.44904,-3.332192 -0.35028,-0.317 -1.04069,-0.479318 -1.96025,-0.460858 l -1.41952,0.0285 v 2.675947 c 0,2.474898 0.0453,2.675951 0.60315,2.675951 0.46263,0 0.60316,-0.201053 0.60316,-0.862913 z m 0.32323,-1.837897 c -0.2068,-0.127811 -0.3302,-0.556314 -0.27423,-0.952224 0.14777,-1.045117 1.27701,-0.987859 1.3998,0.07097 0.0972,0.838041 -0.47307,1.284517 -1.12557,0.881251 z m 85.97955,2.201702 c 0.43721,-0.395663 0.55151,-0.950023 0.55151,-2.674795 v -2.175691 l -1.49213,-0.03362 c -1.78741,-0.04027 -2.42838,0.469062 -2.42838,1.929661 0,1.224268 1.07305,2.12432 2.13196,1.788236 0.47639,-0.151202 0.61627,-0.09666 0.51589,0.201173 -0.0757,0.224742 -0.56354,0.41669 -1.084,0.426558 -1.06626,0.0202 -1.41613,0.24308 -1.12388,0.715941 0.30904,0.50004 2.31467,0.378522 2.92903,-0.177466 z m -1.83945,-2.201702 c -0.20681,-0.127811 -0.33021,-0.556314 -0.27423,-0.952224 0.14777,-1.045117 1.27701,-0.987859 1.3998,0.07097 0.0972,0.838041 -0.47307,1.284517 -1.12557,0.881251 z m -95.01854,0.589768 c 0.77757,-0.777575 0.76317,-1.449465 -0.0496,-2.314628 -0.61182,-0.65125 -0.62128,-0.729612 -0.15079,-1.249492 0.76807,-0.848711 0.63447,-0.959541 -1.15671,-0.959541 -1.27333,0 -1.65868,0.105094 -1.65868,0.452366 0,0.281472 0.28482,0.452366 0.75395,0.452366 0.88149,0 0.93704,0.202555 0.26052,0.950093 -0.53547,0.591689 -0.60756,0.515417 0.94578,1.000697 0.24881,0.07773 0.45237,0.366492 0.45237,0.641696 0,0.413592 -0.20606,0.467427 -1.18811,0.31039 -1.40121,-0.224063 -1.81216,0.179897 -0.86087,0.846208 0.91897,0.643674 1.92782,0.594164 2.65214,-0.130155 z m 5.47849,-0.288558 c 0.32045,-0.395739 0.55305,-1.16709 0.55305,-1.834004 0,-1.578317 -1.04735,-2.401099 -3.05644,-2.401099 h -1.46722 v 2.600752 2.600752 l 1.70878,-0.141705 c 1.30439,-0.10817 1.83966,-0.303338 2.26183,-0.824696 z m -2.7643,-1.651664 c 0,-1.327137 0.0326,-1.377129 0.89899,-1.377129 0.72138,0 0.93868,0.158171 1.09993,0.800621 0.25954,1.034091 -0.19515,1.73819 -1.2,1.858212 -0.76147,0.09095 -0.79892,0.03087 -0.79892,-1.281704 z m 12.36468,1.663311 c 0,-1.272443 0.28694,-1.834131 0.93699,-1.834131 0.35348,0 0.57089,-0.211514 0.57089,-0.555391 0,-0.454148 -0.24738,-0.559127 -1.3571,-0.575904 l -1.35709,-0.02051 v 1.731953 c 0,1.798064 0.12661,2.134046 0.8042,2.134046 0.24323,0 0.40211,-0.347731 0.40211,-0.880066 z m 5.4065,0.08545 c 0.34378,-0.437037 0.62504,-1.047732 0.62504,-1.357099 0,-1.607724 -2.81813,-2.432701 -3.75261,-1.098534 -1.53866,2.196743 1.47189,4.560495 3.12757,2.455633 z m -2.04295,-0.486125 c -0.49291,-0.49291 -0.43112,-1.420408 0.10843,-1.62745 0.53169,-0.204032 1.35325,0.387436 1.35325,0.974251 0,0.611629 -1.03896,1.07592 -1.46168,0.653199 z m 7.19166,-1.468254 c 0,-2.478347 -0.0453,-2.6794 -0.60316,-2.6794 -0.45698,0 -0.60311,0.200986 -0.60296,0.829338 1.8e-4,0.756374 -0.0986,0.829338 -1.12344,0.829338 -0.92914,0 -1.19344,0.144398 -1.52687,0.83419 -0.80862,1.67287 0.16354,2.865932 2.33528,2.865932 h 1.52115 z m -2.69385,1.41641 c -0.50758,-0.611596 -0.11758,-1.683191 0.61259,-1.683191 0.71185,0 1.0854,0.805254 0.67521,1.455533 -0.42109,0.667578 -0.85853,0.744905 -1.2878,0.227658 z m 7.21751,-0.675434 c 0,-1.693481 -0.0672,-1.912489 -0.58663,-1.912489 -0.48589,0 -0.60242,0.246003 -0.67855,1.432492 -0.0662,1.031422 -0.21858,1.432493 -0.54429,1.432493 -0.32571,0 -0.4781,-0.401071 -0.54428,-1.432493 -0.0761,-1.186489 -0.19266,-1.432492 -0.67855,-1.432492 -0.50177,0 -0.58663,0.215006 -0.58663,1.486345 0,1.887208 0.47713,2.386125 2.2562,2.359231 l 1.36273,-0.0206 z m 3.9598,1.685407 c 0.88067,-0.471317 0.22153,-1.119096 -0.96198,-0.945393 -0.87641,0.128628 -0.928,0.08353 -0.83506,-0.729941 0.0892,-0.78073 0.19892,-0.859113 1.10213,-0.787389 0.81767,0.06493 0.98443,-0.01867 0.90226,-0.452366 -0.14216,-0.750348 -1.93383,-0.886957 -2.68748,-0.204913 -0.74841,0.677307 -0.73451,2.076735 0.0282,2.839457 0.66958,0.669583 1.5391,0.769073 2.45192,0.280545 z m 2.6749,-1.185277 c 0,-0.829338 0.13571,-1.507887 0.30158,-1.507887 0.16586,0 0.30157,-0.203565 0.30157,-0.452366 0,-0.248801 -0.13571,-0.452366 -0.30157,-0.452366 -0.16587,0 -0.30158,-0.203565 -0.30158,-0.452366 0,-0.251314 -0.26807,-0.452366 -0.60316,-0.452366 -0.33508,0 -0.60315,0.201052 -0.60315,0.452366 0,0.248801 -0.13571,0.452366 -0.30158,0.452366 -0.16587,0 -0.30158,0.203565 -0.30158,0.452366 0,0.248801 0.13571,0.452366 0.30158,0.452366 0.16587,0 0.30158,0.678549 0.30158,1.507887 0,1.306834 0.0804,1.507887 0.60315,1.507887 0.52274,0 0.60316,-0.201053 0.60316,-1.507887 z m 8.28739,0.898109 c -0.31669,-0.349932 -0.40945,-0.789448 -0.27754,-1.315013 0.21087,-0.840173 -0.33795,-1.102814 -0.97445,-0.46632 -0.22973,0.22973 -0.50739,0.08878 -0.96094,-0.487813 -0.74857,-0.951655 -0.59145,-1.416633 0.39504,-1.169041 0.85438,0.214437 1.2325,-0.266929 0.61332,-0.780799 -1.10063,-0.913438 -3.09489,-0.003 -2.70238,1.233696 0.0935,0.294481 -0.0326,0.582249 -0.30016,0.684903 -0.6014,0.230782 -0.59431,1.660232 0.0115,2.329713 0.36496,0.403275 0.95209,0.519563 2.57206,0.509421 1.97644,-0.01236 2.07135,-0.04387 1.62349,-0.538747 z m -3.45119,-0.734111 c -0.58148,-0.70064 -0.0535,-1.200719 0.62213,-0.589271 0.31527,0.285317 0.57322,0.633431 0.57322,0.773592 0,0.414334 -0.80102,0.29082 -1.19535,-0.184321 z m 9.89121,0.862363 c 0.47192,-0.330547 0.65844,-0.722884 0.59486,-1.251287 -0.0968,-0.804472 -0.41678,-1.076724 -1.87579,-1.595926 -0.65561,-0.233306 -0.79156,-0.399487 -0.53594,-0.655107 0.25349,-0.253497 0.53461,-0.254975 1.08173,-0.0057 0.88604,0.403706 1.69599,-0.207793 1.01492,-0.76626 -1.02567,-0.841048 -3.1483,-0.411626 -3.42554,0.693016 -0.23571,0.939142 0.22636,1.519202 1.56109,1.959704 0.56727,0.187216 1.0314,0.465578 1.0314,0.61858 0,0.38152 -1.61466,0.352366 -2.00319,-0.03617 -0.2181,-0.218095 -0.42567,-0.180238 -0.67785,0.123616 -0.29375,0.353941 -0.23212,0.52999 0.32114,0.917513 0.87455,0.612558 2.03691,0.611765 2.91317,-0.0021 z m 5.03179,-2.157276 c 0.99915,-2.479277 1.0003,-2.488014 0.32728,-2.488014 -0.55697,0 -0.77241,0.304005 -1.22888,1.73407 l -0.5535,1.73407 -0.63061,-1.73407 c -0.51195,-1.407784 -0.75781,-1.73407 -1.30663,-1.73407 h -0.67604 l 0.58847,1.49295 c 1.33084,3.376373 1.49996,3.680776 1.98981,3.581681 0.29123,-0.05891 0.89103,-1.100088 1.4901,-2.586617 z m 5.43622,1.898565 c 0.40713,-0.40713 0.74024,-1.085679 0.74024,-1.507887 0,-0.694542 -0.11489,-0.76765 -1.20631,-0.76765 -1.00526,0 -1.20631,0.100525 -1.20631,0.603155 0,0.407865 0.20105,0.603154 0.62095,0.603154 0.34153,0 0.53708,0.13571 0.43457,0.301578 -0.25764,0.416861 -1.46097,0.378657 -1.89994,-0.06032 -0.19904,-0.199041 -0.36189,-0.74479 -0.36189,-1.212775 0,-1.059107 1.08857,-1.686737 2.04122,-1.176891 0.45769,0.244942 0.69091,0.228337 0.93571,-0.06662 0.49627,-0.597965 -0.1922,-1.102323 -1.50469,-1.102323 -1.55073,0 -2.0253,0.234661 -2.55804,1.264867 -1.32638,2.564919 1.94519,5.141008 3.96449,3.121712 z m 5.2639,-0.145388 c 0,-0.776781 0.1193,-0.897237 0.97071,-0.980126 0.6779,-0.06599 1.10461,-0.334199 1.41456,-0.889089 0.39749,-0.711617 0.38987,-0.876942 -0.0729,-1.583281 -0.44272,-0.675672 -0.73186,-0.788695 -2.01771,-0.788695 h -1.50093 v 2.563408 c 0,2.362355 0.0473,2.563408 0.60315,2.563408 0.46623,0 0.60316,-0.201053 0.60316,-0.885625 z m 0,-2.582515 c 0,-0.251314 0.26807,-0.452366 0.60315,-0.452366 0.33509,0 0.60316,0.201052 0.60316,0.452366 0,0.251313 -0.26807,0.452366 -0.60316,0.452366 -0.33508,0 -0.60315,-0.201053 -0.60315,-0.452366 z m 4.52366,0.753943 c 0,-2.513143 -0.0447,-2.714196 -0.60316,-2.714196 -0.55847,0 -0.60315,0.201053 -0.60315,2.714196 0,2.513144 0.0447,2.714197 0.60315,2.714197 0.55848,0 0.60316,-0.201053 0.60316,-2.714197 z m 4.82524,0.735279 v -1.909325 l -1.73063,0.05926 c -1.54884,0.05304 -1.77092,0.143457 -2.11416,0.860771 -0.28593,0.597536 -0.30119,1.018077 -0.06,1.652535 0.42349,1.113864 0.68172,1.246079 2.43376,1.246079 h 1.471 z m -2.73518,0.596541 c -0.49836,-0.600489 -0.0202,-1.482608 0.80366,-1.482608 0.6762,0 0.92165,0.907808 0.41161,1.522374 -0.4651,0.560403 -0.72421,0.551926 -1.21527,-0.03977 z m 4.90509,-0.0474 c 0.0693,-1.077325 0.22202,-1.454483 0.61968,-1.529998 0.44644,-0.08478 0.52776,0.135511 0.52776,1.429781 0,1.328946 0.0793,1.529999 0.60315,1.529999 0.52715,0 0.60258,-0.199512 0.59854,-1.583282 -0.002,-0.870804 -0.10767,-1.745385 -0.23363,-1.943512 -0.13159,-0.206978 -0.89942,-0.355035 -1.80485,-0.34802 l -1.57583,0.01221 v 1.931304 c 0,1.712121 0.0666,1.931305 0.58663,1.931305 0.48571,0 0.60244,-0.245979 0.67855,-1.429782 z m 4.46479,0.06322 c 0,-0.97481 0.13841,-1.419675 0.4828,-1.551833 0.64245,-0.24653 1.01483,0.405736 1.02047,1.78748 0.003,0.817715 0.13388,1.130915 0.47137,1.130915 0.38108,0 0.45028,-0.345979 0.37698,-1.884859 l -0.0898,-1.884858 -1.73407,-0.05926 -1.73407,-0.05926 v 1.743069 c 0,1.808951 0.12605,2.145174 0.80421,2.145174 0.27593,0 0.4021,-0.428813 0.4021,-1.366562 z m 4.82524,-0.593691 c 0,-1.759201 -0.0619,-1.960253 -0.60316,-1.960253 -0.54129,0 -0.60315,0.201052 -0.60315,1.960253 0,1.7592 0.0619,1.960253 0.60315,1.960253 0.5413,0 0.60316,-0.201053 0.60316,-1.960253 z m 2.16991,0.530471 c 0.068,-1.057472 0.22484,-1.455008 0.60239,-1.526669 0.41256,-0.07831 0.52825,0.180941 0.60315,1.351673 0.0711,1.111331 0.21906,1.472569 0.63549,1.551679 0.48376,0.0919 0.53296,-0.104626 0.45236,-1.80675 l -0.0904,-1.909868 -1.73407,-0.05926 -1.73407,-0.05926 v 1.944121 c 0,1.724818 0.0662,1.944122 0.58663,1.944122 0.48571,0 0.60245,-0.245979 0.67855,-1.429782 z M 256.45065,55.7902 c 0,-0.586076 -0.79418,-0.830426 -1.18165,-0.363563 -0.3848,0.46366 -0.12805,0.783664 0.62876,0.783664 0.30409,0 0.55289,-0.189047 0.55289,-0.420101 z M 151.9195,49.536477 c 0.41127,-0.187384 0.91268,-0.738866 1.11426,-1.225516 0.31636,-0.763776 0.2857,-0.993043 -0.22415,-1.675935 -0.32486,-0.435114 -1.15916,-0.980619 -1.85401,-1.212234 -1.45204,-0.484012 -1.71201,-1.275587 -0.41894,-1.275587 0.46443,0 0.97334,0.126574 1.13092,0.281275 0.17776,0.174519 0.50619,0.119109 0.86534,-0.145993 0.56086,-0.413996 0.56175,-0.44615 0.0286,-1.035218 -0.76868,-0.849378 -3.10394,-0.845339 -4.01877,0.007 -0.801,0.746245 -0.86236,2.124272 -0.12434,2.792177 0.29463,0.266633 1.07496,0.661459 1.73407,0.877393 0.68763,0.225276 1.19839,0.584848 1.19839,0.843658 0,0.65014 -1.26198,0.733531 -2.16332,0.142952 -0.69639,-0.456296 -0.81673,-0.460027 -1.23836,-0.0384 -0.39927,0.399263 -0.40667,0.539725 -0.051,0.968248 0.82968,0.999702 2.65981,1.316559 4.02129,0.696224 z m 4.34858,-1.242583 c 0.0506,-0.787871 0.19231,-1.432493 0.315,-1.432493 0.1227,0 0.74055,0.678549 1.37301,1.507887 0.91275,1.196874 1.32985,1.507887 2.02223,1.507887 0.47976,0 0.87229,-0.08362 0.87229,-0.185818 0,-0.1022 -0.70161,-1.078601 -1.55914,-2.169781 l -1.55913,-1.983963 1.40834,-1.239282 c 0.7746,-0.681605 1.40835,-1.333721 1.40835,-1.449147 0,-0.115426 -0.36806,-0.209866 -0.81792,-0.209866 -0.55508,0 -1.23347,0.407831 -2.11104,1.2691 l -1.29312,1.269101 v -1.269101 c 0,-1.209059 -0.0428,-1.2691 -0.90473,-1.2691 h -0.90473 v 3.63896 3.63896 l 0.82933,-0.09543 c 0.75949,-0.08739 0.83708,-0.216084 0.92126,-1.527918 z m 9.67351,1.249007 c 1.37904,-0.480738 1.8453,-1.611693 1.8453,-4.475988 v -2.427595 h -0.90473 -0.90473 v 2.552797 c 0,2.244146 -0.0729,2.591826 -0.60316,2.875596 -0.42854,0.229346 -0.77777,0.229346 -1.20631,0 -0.53023,-0.28377 -0.60315,-0.63145 -0.60315,-2.875596 v -2.552797 h -0.90473 -0.90474 v 2.583234 c 0,2.860698 0.2295,3.527568 1.44008,4.184524 1.002,0.543767 1.50463,0.568628 2.74617,0.135825 z m 8.32922,-0.570458 c 0,-0.696892 -0.11981,-0.760841 -1.58329,-0.845098 l -1.58328,-0.09116 V 45.317718 42.59925 l -0.82934,0.09543 -0.82933,0.09543 -0.0866,3.146174 c -0.0476,1.730396 -0.0157,3.330732 0.0708,3.556302 0.11823,0.308081 0.74006,0.388191 2.49917,0.321966 2.27335,-0.08559 2.3418,-0.110198 2.3418,-0.842106 z m 6.03154,0 c 0,-0.684594 -0.1307,-0.762355 -1.42098,-0.845392 l -1.42099,-0.09145 -0.0869,-2.622748 c -0.0866,-2.612556 -0.0901,-2.623119 -0.91624,-2.718174 l -0.82934,-0.09543 v 3.651646 3.651645 l 2.33723,-0.08808 c 2.2685,-0.08549 2.33722,-0.110249 2.33722,-0.842023 z"
       id="path3761" /></g></svg>
