<?xml version="1.0" encoding="UTF-8" standalone="no"?>
<svg
   xmlns:dc="http://purl.org/dc/elements/1.1/"
   xmlns:cc="http://creativecommons.org/ns#"
   xmlns:rdf="http://www.w3.org/1999/02/22-rdf-syntax-ns#"
   xmlns:svg="http://www.w3.org/2000/svg"
   xmlns="http://www.w3.org/2000/svg"
   xmlns:sodipodi="http://sodipodi.sourceforge.net/DTD/sodipodi-0.dtd"
   xmlns:inkscape="http://www.inkscape.org/namespaces/inkscape"
   width="100"
   height="100"
   viewBox="0 0 26.458333 26.458334"
   version="1.1"
   id="svg8"
   inkscape:version="1.0.2-2 (e86c870879, 2021-01-15)"
   sodipodi:docname="sushi.svg">
  <defs
     id="defs2" />
  <sodipodi:namedview
     id="base"
     pagecolor="#ffffff"
     bordercolor="#666666"
     borderopacity="1.0"
     inkscape:pageopacity="0.0"
     inkscape:pageshadow="2"
     inkscape:zoom="3.7726426"
     inkscape:cx="-77.227133"
     inkscape:cy="30.089381"
     inkscape:document-units="px"
     inkscape:current-layer="layer1"
     inkscape:document-rotation="0"
     showgrid="false"
     units="px"
     inkscape:window-width="3840"
     inkscape:window-height="2066"
     inkscape:window-x="-11"
     inkscape:window-y="-11"
     inkscape:window-maximized="1" />
     metadata:

       <metadata id="metadata">
         <rdf:RDF xmlns:rdf="http://www.w3.org/1999/02/22-rdf-syntax-ns#">
           <cc:Work rdf:about="">
             <dc:title>Sushi</dc:title>
             <dc:description>Sushy minimalist icons design for Cosmicskull</dc:description>
             <dc:creator>
               <cc:Agent>
                 <dc:title>Cosmicskull</dc:title>
               </cc:Agent>
             </dc:creator>
             <dc:rights>
               <cc:Agent rdf:about="http://creativecommons.org/publicdomain/zero/1.0/">
                 <dc:title>CC0 1.0 Universal (CC0 1.0) Public Domain Dedication</dc:title>
               </cc:Agent>
             </dc:rights>
             <cc:license rdf:resource="http://creativecommons.org/publicdomain/zero/1.0/"/>
           </cc:Work>
         </rdf:RDF>
       </metadata>
         
   
      
  <g
     inkscape:label="Capa 1"
     inkscape:groupmode="layer"
     id="layer1">
    <path
       style="fill:#000000;stroke-width:1"
       d="m 18.999079,21.298044 c -0.103875,-0.0051 -0.28683,-0.01005 -0.406575,-0.01098 -0.305951,-0.0023 -0.45738,-0.03782 -0.571919,-0.134196 -0.04448,-0.03743 -0.06633,-0.03825 -0.187255,-0.007 -0.118605,0.03065 -0.13393,0.03693 -0.142107,0.05822 -0.0055,0.01435 -0.01959,0.01293 -0.07966,-0.008 -0.04014,-0.01398 -0.123966,-0.03113 -0.186288,-0.03811 -0.06232,-0.007 -0.214095,-0.03767 -0.337269,-0.06819 -0.165731,-0.04108 -0.296663,-0.06381 -0.503617,-0.08747 -0.153814,-0.01757 -0.438302,-0.05426 -0.632195,-0.0815 -0.193892,-0.02725 -0.493172,-0.06124 -0.665063,-0.07554 -0.602605,-0.05017 -1.298932,-0.163377 -1.739708,-0.282829 -0.153862,-0.0417 -1.060105,-0.290648 -1.378655,-0.378727 -0.141956,-0.03925 -0.450737,-0.115795 -0.686177,-0.170098 -0.235444,-0.0543 -0.552722,-0.129935 -0.705067,-0.168072 -0.34593,-0.0866 -0.558436,-0.130536 -0.9505769,-0.19654 C 9.1035838,19.527299 8.1744439,19.336779 7.636211,19.199845 7.4319305,19.14788 7.1231501,19.069422 6.950031,19.02551 6.4758695,18.905232 5.9300832,18.721447 5.7527091,18.622326 5.6766731,18.579841 5.5681475,18.485751 5.5308798,18.430015 c -0.016928,-0.02532 -0.045609,-0.03333 -0.2317745,-0.06475 -0.1168521,-0.01974 -0.2374395,-0.04259 -0.2679719,-0.05083 -0.030537,-0.0082 -0.074288,-0.01142 -0.097224,-0.0071 -0.043872,0.0082 -0.099922,-0.01295 -0.1299143,-0.04908 -0.00906,-0.01092 -0.085112,-0.0536 -0.169053,-0.09494 C 4.4589934,18.07668 4.3450955,17.995533 4.2112308,17.861437 4.1361777,17.786242 4.0998612,17.735667 4.03693,17.618661 3.993211,17.537371 3.946783,17.435327 3.9337538,17.391893 c -0.035528,-0.118412 -0.087132,-0.57887 -0.087143,-0.777462 -3.3e-6,-0.09348 0.00896,-0.305945 0.019757,-0.472139 0.016273,-0.2489 0.017442,-0.360993 0.00655,-0.635818 -0.00721,-0.183504 -0.016393,-0.653759 -0.020325,-1.045006 -0.00393,-0.391247 -0.012418,-0.864334 -0.018883,-1.051299 -0.00644,-0.18697 -0.012025,-0.631726 -0.012385,-0.988352 -0.00109,-1.018771 -0.019222,-1.361754 -0.093227,-1.759707 -0.036041,-0.19377 -0.065475,-0.297844 -0.090005,-0.318201 -0.010048,-0.0084 -0.018283,-0.02558 -0.018283,-0.03829 0,-0.0127 -0.033027,-0.08732 -0.073393,-0.165795 C 3.4328902,9.9190802 3.4248868,9.842911 3.4884155,9.587856 3.5458084,9.3574566 3.5890688,9.2737929 3.7937851,8.9972246 3.9827764,8.7419054 4.0484064,8.6829037 4.6842979,8.196687 4.8646722,8.0587682 5.0601412,7.9128788 5.1186688,7.8724908 6.2114668,7.1183885 6.4457074,6.9767727 6.9459365,6.7677741 7.0304149,6.7324756 7.1552814,6.6756287 7.2234156,6.6414344 7.2915445,6.6072498 7.4250313,6.5431401 7.5200501,6.4989875 7.6150679,6.4548315 7.7777961,6.3779589 7.8816658,6.3281598 7.985541,6.2783574 8.1186827,6.2177153 8.1775434,6.1933918 8.5008517,6.0597827 8.6362465,5.9998472 8.8700138,5.8868537 9.2077451,5.7236099 9.3624831,5.6809764 9.8724794,5.6106589 c 0.1030342,-0.014209 0.2616246,-0.037079 0.3524276,-0.050818 0.309514,-0.046843 0.600416,-0.031127 0.806179,0.043566 l 0.07979,0.028964 0.115928,-0.023787 c 0.415454,-0.08521 0.779431,-0.1132688 1.048921,-0.080852 0.234363,0.028178 0.981609,0.1381088 1.168998,0.1719537 0.366727,0.066239 1.163974,0.2886137 1.603909,0.4473796 0.273398,0.098666 0.805731,0.3297279 1.186785,0.5151316 0.307768,0.1497469 0.41966,0.1970591 0.652932,0.2760899 0.327115,0.1108223 0.423396,0.1494924 0.684858,0.275072 0.540694,0.2596933 1.080115,0.6329875 1.59578,1.1043312 0.100413,0.091774 0.25905,0.2352923 0.352534,0.3189243 0.714688,0.6393701 0.841101,0.7789642 1.48948,1.6448278 0.452653,0.604482 0.543126,0.738291 0.783483,1.158787 0.23184,0.405602 0.313657,0.527984 0.687932,1.029001 0.480359,0.643035 0.606445,0.858182 0.831806,1.419372 0.103963,0.258894 0.171915,0.470084 0.249138,0.774311 l 0.06552,0.258103 0.0014,0.220331 c 0.0014,0.203312 -0.0011,0.230252 -0.03296,0.348699 -0.04293,0.15969 -0.168169,0.489667 -0.231829,0.610812 -0.06009,0.114353 -0.175358,0.239428 -0.248565,0.269702 l -0.05477,0.02265 -0.0076,0.107457 c -0.02919,0.412005 -0.05703,1.408786 -0.05781,2.068917 -5.68e-4,0.579468 -0.02911,0.745339 -0.203836,1.189237 -0.08706,0.221153 -0.311106,0.681032 -0.396218,0.813257 -0.09728,0.151131 -0.241607,0.321443 -0.323637,0.38191 -0.10156,0.07487 -0.303479,0.19349 -0.366037,0.215044 -0.07066,0.02435 -0.505178,0.07687 -0.756625,0.09145 -0.6928,0.0402 -1.561384,0.05693 -1.951517,0.0376 z m -1.774782,-0.667637 c 0.04072,-0.02801 0.05941,-0.05159 0.07066,-0.08912 0.01273,-0.04252 0.01228,-0.05298 -0.0028,-0.06276 -0.02053,-0.01336 -0.07221,-0.004 -0.09864,0.01786 -0.02407,0.0199 -0.06356,0.108768 -0.0639,0.143777 -2.84e-4,0.039 0.02798,0.03607 0.09462,-0.0097 z m 0.621508,-0.08992 c 0.06529,-0.0772 0.07948,-0.118724 0.04508,-0.131919 -0.03053,-0.01171 -0.0938,0.02121 -0.11332,0.05893 -0.02141,0.04141 -0.04468,0.13907 -0.03635,0.152554 0.01131,0.01828 0.04077,-0.0041 0.104585,-0.07957 z m -1.474305,-0.006 c 0.0028,-0.01984 -0.01803,-0.04483 -0.08142,-0.09744 -0.07948,-0.06597 -0.13152,-0.09205 -0.109805,-0.05502 0.03866,0.06592 0.109586,0.161645 0.127676,0.17232 0.0322,0.01899 0.05919,0.01059 0.06355,-0.01985 z m 1.689272,-0.03976 c 0.03043,-0.01491 0.05822,-0.04634 0.09128,-0.103209 0.02615,-0.04499 0.04753,-0.09112 0.04753,-0.102521 0,-0.02453 -0.03222,-0.03949 -0.06358,-0.02953 -0.02966,0.0094 -0.126118,0.138403 -0.145364,0.194389 -0.0237,0.06897 -0.007,0.07868 0.07013,0.04088 z m -1.095459,-0.04611 c 0.02178,-0.02626 0.03171,-0.11484 0.01407,-0.125739 -0.03166,-0.01956 -0.159166,-0.01316 -0.212197,0.0107 -0.05787,0.02603 -0.06531,0.04347 -0.03123,0.07325 0.066,0.05769 0.196446,0.08146 0.229367,0.04179 z m 1.917176,-0.009 c 0.0496,-0.03532 0.149986,-0.243785 0.158112,-0.328323 0.0063,-0.06551 -0.01837,-0.110193 -0.06082,-0.110193 -0.01194,0 -0.02875,-0.0085 -0.03736,-0.01888 -0.01997,-0.02405 -0.07666,-0.0239 -0.198832,5.67e-4 -0.13121,0.02622 -0.164269,0.0409 -0.185772,0.08248 -0.0283,0.05472 -0.0224,0.09043 0.03245,0.196552 0.09245,0.178886 0.199385,0.243967 0.292223,0.177863 z m -3.637203,-0.04505 c 0.04949,-0.02597 0.11547,-0.0736 0.146632,-0.105874 0.03116,-0.03226 0.07648,-0.067 0.100719,-0.0772 0.07056,-0.02967 0.128903,-0.09932 0.130689,-0.156022 0.0014,-0.0448 -0.0011,-0.04826 -0.03626,-0.0508 -0.06514,-0.0047 -0.236544,0.09982 -0.346237,0.211111 -0.03116,0.03162 -0.07559,0.08944 -0.09872,0.128491 -0.06575,0.110998 -0.03817,0.12444 0.103176,0.05029 z M 15.0192,20.310951 c 0.07123,-0.02976 0.08796,-0.132637 0.0218,-0.133964 -0.01126,-1.96e-4 -0.05165,-0.01137 -0.08974,-0.02478 -0.08129,-0.02859 -0.138495,-0.03221 -0.138495,-0.0087 0,0.02152 0.06507,0.122699 0.09567,0.148758 0.01974,0.01681 0.04169,0.02868 0.06527,0.03528 0.002,5.68e-4 0.02242,-0.0069 0.04551,-0.01654 z m 0.765474,-0.01906 c 0.05477,-0.01273 0.153784,-0.09358 0.174638,-0.142599 0.03108,-0.07306 -0.01656,-0.09502 -0.09025,-0.0416 -0.02354,0.01707 -0.07961,0.05084 -0.124619,0.07506 -0.104355,0.05617 -0.144449,0.08813 -0.133266,0.106224 0.01038,0.01679 0.106846,0.0184 0.17349,0.0029 z m 2.032662,-0.107697 c 0.01443,-0.01016 0.03369,-0.03637 0.0428,-0.05834 0.01457,-0.03518 0.01395,-0.04186 -0.0051,-0.05583 -0.03981,-0.02911 -0.112345,0.0073 -0.135557,0.06799 -0.02166,0.05663 0.04088,0.08612 0.0979,0.04619 z m 2.422597,-0.03235 c 0.0441,-0.02359 0.112617,-0.195892 0.112617,-0.283201 0,-0.04765 -0.0036,-0.05312 -0.04829,-0.07284 -0.05987,-0.02642 -0.116878,-0.02699 -0.20101,-0.002 -0.06486,0.01925 -0.09064,0.04521 -0.09064,0.09128 0,0.04143 0.08862,0.195959 0.136681,0.238324 0.05126,0.04518 0.05635,0.04678 0.09065,0.02843 z m -3.191312,-0.114146 c 0.08375,-0.05797 0.09976,-0.07497 0.169782,-0.180161 0.05539,-0.08321 0.06438,-0.13956 0.0243,-0.152282 -0.01387,-0.0044 -0.03596,-0.0046 -0.04916,-2.84e-4 -0.04028,0.01279 -0.230516,0.283864 -0.247947,0.353314 -0.0114,0.04537 0.01565,0.03998 0.103013,-0.0205 z m -3.356412,0.02782 c -0.01037,-0.0057 -0.06705,-0.0194 -0.125906,-0.03043 -0.215902,-0.04041 -0.352531,-0.04173 -0.352531,-0.0034 0,0.01131 0.04473,0.01954 0.154232,0.02832 0.202374,0.01625 0.348211,0.01874 0.324205,0.0056 z m 3.071778,-0.01996 c 0.0085,-0.01016 0.01624,-0.0371 0.01727,-0.05981 0.0017,-0.03805 -0.0014,-0.04158 -0.0402,-0.0453 -0.02684,-0.0025 -0.0508,0.0038 -0.0661,0.01769 -0.03008,0.02722 -0.02994,0.03207 0.002,0.07278 0.02904,0.03693 0.06361,0.04275 0.08693,0.01464 z m 0.697197,-0.03035 c 0.03333,-0.02902 0.09808,-0.177803 0.0937,-0.215321 -0.0031,-0.02578 -0.01151,-0.03242 -0.04566,-0.03569 -0.03629,-0.0035 -0.051,0.005 -0.108921,0.06295 -0.05586,0.05588 -0.06846,0.07691 -0.07595,0.126895 -0.0116,0.07738 0.0041,0.09814 0.06708,0.08854 0.02555,-0.0039 0.05693,-0.01622 0.06976,-0.02739 z m -3.66779,-0.130527 c 0.05663,-0.0917 0.0014,-0.167593 -0.09977,-0.137262 -0.03093,0.0093 -0.05178,0.02316 -0.05178,0.03452 0,0.05005 0.0713,0.142694 0.110352,0.14338 0.0087,1.3e-4 0.0273,-0.01815 0.0412,-0.04064 z m 3.117062,0.03128 c 0.02243,-0.01483 0.05526,-0.08706 0.05526,-0.121497 0,-0.07386 -0.110978,-0.0735 -0.176017,5.67e-4 -0.04591,0.05229 -0.046,0.09126 -2.61e-4,0.114321 0.03473,0.0175 0.0992,0.02103 0.121002,0.0066 z m -2.100888,-0.06782 c 0.06767,-0.04182 0.102662,-0.151404 0.05973,-0.187038 -0.04524,-0.03754 -0.197613,0.01704 -0.236555,0.08474 -0.03173,0.05515 -0.01892,0.08593 0.04525,0.108659 0.07159,0.02535 0.08099,0.02489 0.131581,-0.0063 z m 3.106858,-0.215832 c 0.04707,-0.05657 0.05261,-0.05961 0.08801,-0.0483 0.08927,0.02855 0.11841,0.02775 0.139022,-0.0037 0.0107,-0.01642 0.0207,-0.04573 0.02212,-0.06513 0.0025,-0.03663 -0.009,-0.04411 -0.09503,-0.06152 -0.01905,-0.0038 -0.03462,-0.0154 -0.03462,-0.02566 0,-0.02461 -0.05505,-0.02444 -0.07554,2.61e-4 -0.0086,0.01037 -0.03387,0.01888 -0.0561,0.01888 -0.05243,0 -0.06234,0.01123 -0.03577,0.0406 0.0188,0.02075 0.01928,0.02725 0.0039,0.05139 -0.06008,0.09459 -0.138256,0.245503 -0.138233,0.266843 0,0.01959 0.01469,0.0098 0.066,-0.04407 0.03628,-0.03808 0.08857,-0.09642 0.116207,-0.129621 z m -6.620562,0.08006 c 0.05705,-0.02592 0.08352,-0.06194 0.07735,-0.105317 -0.0033,-0.02334 -0.01081,-0.02711 -0.04801,-0.02407 -0.02425,0.002 -0.102138,0.0068 -0.173116,0.01059 -0.0928,0.005 -0.129052,0.01151 -0.129052,0.02311 0,0.02356 0.151981,0.119889 0.188857,0.119699 0.0173,-1.3e-4 0.0551,-0.01092 0.08396,-0.02398 z m 4.871004,-0.08263 c 0.0425,-0.104497 0.04067,-0.138038 -0.0088,-0.162752 -0.04653,-0.02322 -0.07506,-0.0245 -0.140326,-0.0063 -0.07616,0.02116 -0.08445,0.05719 -0.03539,0.153842 0.04593,0.09046 0.09481,0.129957 0.131124,0.105895 0.01251,-0.0083 0.03655,-0.04906 0.05345,-0.09061 z m -0.340947,-0.02163 c 0.04368,-0.109173 0.01219,-0.148405 -0.09825,-0.122496 -0.08266,0.0194 -0.109118,0.0332 -0.109118,0.05694 0,0.03672 0.05091,0.118149 0.08506,0.136037 0.03048,0.01596 0.0386,0.01571 0.06881,-0.0023 0.01885,-0.01112 0.04292,-0.04188 0.05352,-0.06836 z m -0.547552,0.03789 c 0.05372,-0.08835 0.04333,-0.148447 -0.02566,-0.148447 -0.06482,0 -0.1,0.02107 -0.1,0.05984 0,0.0485 0.05662,0.129015 0.09073,0.129015 0.0057,0 0.02144,-0.01817 0.03495,-0.04041 z m -2.281152,-0.05024 c 0.02665,-0.02665 0.01851,-0.08299 -0.01322,-0.0916 -0.01556,-0.0043 -0.05773,-0.02288 -0.09366,-0.04148 -0.03593,-0.0186 -0.06928,-0.02986 -0.07409,-0.02503 -0.01318,0.01318 0.02018,0.08464 0.06143,0.131635 0.03838,0.04371 0.09073,0.05531 0.119534,0.02649 z m -0.441452,-0.07968 c 0.01512,-0.01059 0.03108,-0.03847 0.0355,-0.06196 0.0069,-0.03645 0.002,-0.04931 -0.03299,-0.08778 -0.05743,-0.06309 -0.114715,-0.05555 -0.140717,0.01854 -0.01421,0.04046 0.055,0.150428 0.09466,0.150428 0.0088,0 0.02845,-0.0086 0.04357,-0.01925 z m 0.64516,-0.131335 c 0.03317,-0.06502 0.03209,-0.09276 -0.0052,-0.13297 -0.04182,-0.04513 -0.0922,-0.03891 -0.123708,0.01526 -0.02212,0.03799 -0.02223,0.04241 -0.0023,0.08184 0.05082,0.100282 0.09247,0.111684 0.131143,0.03589 z m -0.928725,-8.5e-4 c 0.06021,-0.03989 0.09033,-0.09057 0.08331,-0.140206 -0.004,-0.02826 -0.0082,-0.02939 -0.0974,-0.0264 -0.112127,0.0037 -0.169128,0.03083 -0.175243,0.08324 -0.0046,0.03956 0.01276,0.06502 0.067,0.0982 0.04966,0.03036 0.05509,0.02971 0.12232,-0.01483 z m 5.113174,-0.01551 c 0.04637,-0.06196 0.07335,-0.121349 0.06899,-0.151939 -0.0052,-0.03686 -0.06237,-0.04385 -0.09404,-0.01151 -0.01276,0.01304 -0.04434,0.03642 -0.07018,0.05197 -0.04717,0.02838 -0.0978,0.08731 -0.0978,0.113831 0,0.02027 0.04803,0.03685 0.109527,0.03777 0.04541,5.67e-4 0.05719,-0.0049 0.0835,-0.04012 z m -6.678532,-0.144508 c 0.05399,-0.06212 0.07805,-0.133302 0.05339,-0.157964 -0.01959,-0.01959 -0.199166,0.0068 -0.225484,0.03309 -0.01778,0.01778 -0.01735,0.02473 0.0046,0.07369 0.02555,0.05714 0.07403,0.110709 0.100195,0.110709 0.0086,0 0.03892,-0.02679 0.06737,-0.05952 z m 3.686066,0.01005 c 0.06149,-0.02793 0.07267,-0.05436 0.0606,-0.143257 -0.01505,-0.110853 -0.03992,-0.155971 -0.112549,-0.204183 -0.07248,-0.04811 -0.126597,-0.05512 -0.228108,-0.02955 -0.09896,0.02492 -0.104432,0.08923 -0.0199,0.233911 0.08812,0.150832 0.183103,0.196144 0.299957,0.143085 z m 3.880197,-0.03295 c 0.02274,-0.04991 0.01789,-0.09119 -0.01261,-0.107522 -0.02801,-0.015 -0.192495,-0.0099 -0.208835,0.0063 -0.01554,0.01554 0.0175,0.05083 0.08635,0.09228 0.08262,0.04973 0.11553,0.0519 0.135119,0.009 z m -2.486994,-0.02144 c 0.04762,-0.100718 0.03804,-0.147938 -0.03002,-0.147938 -0.04244,0 -0.09607,0.02254 -0.104235,0.04382 -0.0071,0.01857 0.03764,0.121721 0.05861,0.135049 0.03074,0.01954 0.05682,0.0088 0.07565,-0.03093 z m -5.9465744,-0.03883 c 0.031159,-0.02103 0.1005659,-0.08248 0.1542335,-0.136544 0.078275,-0.07886 0.097573,-0.105786 0.097573,-0.136158 0,-0.03169 -0.005,-0.03785 -0.03058,-0.03785 -0.04475,0 -0.1771926,0.08333 -0.2311507,0.145438 -0.061488,0.07077 -0.1220181,0.185812 -0.1117889,0.212464 0.00917,0.02398 0.025316,0.01771 0.1217068,-0.04734 z m 3.9649804,-0.0017 c 0.03377,-0.01746 0.08914,-0.110709 0.08914,-0.150122 0,-0.01979 -0.02651,-0.03296 -0.06639,-0.03296 -0.03895,0 -0.194991,0.09658 -0.204511,0.126581 -0.01469,0.04629 0.0138,0.06308 0.123595,0.07285 0.01247,0.0011 0.03864,-0.0062 0.05818,-0.01636 z m 3.186387,-0.09013 c 0.02425,-0.01304 0.0486,-0.03079 0.05414,-0.03945 0.0056,-0.0086 0.01784,-0.01574 0.02733,-0.01574 0.02546,0 0.131348,-0.110354 0.140369,-0.146305 0.005,-0.01999 5.67e-4,-0.03896 -0.01259,-0.05349 -0.01119,-0.0124 -0.02039,-0.03111 -0.02039,-0.04161 0,-0.01049 -0.0099,-0.02759 -0.02203,-0.03799 -0.01961,-0.01684 -0.04823,-0.03111 -0.184599,-0.09215 -0.03971,-0.01778 -0.0636,-0.01352 -0.100129,0.01778 -0.03306,0.02833 -0.04648,0.06746 -0.06522,0.190091 -0.01823,0.119249 -0.0037,0.216311 0.03669,0.245866 0.02526,0.01846 0.08105,0.0082 0.146439,-0.02699 z m -7.4528073,-0.01179 c 0.013182,-0.01194 0.027642,-0.04136 0.032153,-0.0654 0.00961,-0.05139 -0.00906,-0.06977 -0.0602,-0.05905 -0.021122,0.0044 -0.052511,-0.0025 -0.084478,-0.01891 -0.064,-0.03264 -0.114942,-0.03439 -0.1145597,-0.0039 5.679e-4,0.03503 0.044473,0.122813 0.076986,0.153463 0.023503,0.02214 0.039907,0.02674 0.077947,0.02178 0.026507,-0.0035 0.058977,-0.01604 0.072148,-0.02796 z m 2.7878373,-0.01103 c 0.03445,-0.01441 0.05196,-0.03604 0.08773,-0.108397 0.02458,-0.04973 0.04468,-0.103482 0.04468,-0.119459 0,-0.01599 0.0066,-0.03122 0.01455,-0.03389 0.01828,-0.0061 0.04933,-0.181616 0.0396,-0.223883 -0.0097,-0.04224 -0.02748,-0.06295 -0.05399,-0.06295 -0.01208,0 -0.03702,-0.01188 -0.05547,-0.02636 -0.04382,-0.03446 -0.123183,-0.02812 -0.334573,0.02677 -0.03919,0.01016 -0.05459,0.02274 -0.07144,0.05824 -0.02826,0.05959 -0.01239,0.12076 0.07181,0.276496 0.04755,0.08795 0.07893,0.128869 0.1329,0.173298 0.03886,0.03199 0.07301,0.05816 0.07591,0.05816 0.0028,0 0.02461,-0.0081 0.04829,-0.01798 z m 5.992066,-0.0882 c 0.03853,-0.06575 0.04464,-0.137255 0.01117,-0.13081 -0.02038,0.0039 -0.03793,0.0468 -0.05971,0.145913 -0.01273,0.05802 0.0098,0.05099 0.04854,-0.01511 z m -7.475955,0.03353 c 0.02592,-0.01693 0.06768,-0.109041 0.06768,-0.14926 0,-0.04203 -0.04041,-0.08039 -0.08454,-0.08025 -0.04986,1.3e-4 -0.115781,0.02691 -0.123099,0.04997 -0.0099,0.03114 0.03625,0.124318 0.07961,0.160788 0.0371,0.03121 0.03994,0.03209 0.06035,0.01877 z m 5.635202,-0.09558 c 0.0118,-0.01483 0.03101,-0.05196 0.04273,-0.08249 0.0203,-0.05295 0.02022,-0.05629 -0.0017,-0.07239 -0.0127,-0.0093 -0.03079,-0.0169 -0.0402,-0.0169 -0.02986,0 -0.09012,0.03706 -0.10477,0.06441 -0.01531,0.0286 -0.0057,0.107556 0.01627,0.134179 0.01723,0.02087 0.06037,0.0076 0.08778,-0.02679 z m 1.512185,0.01393 c 0.01675,-0.0156 0.03972,-0.05397 0.05102,-0.08533 0.02016,-0.05591 0.02152,-0.0569 0.06994,-0.05228 0.04654,0.0044 0.05194,0.0011 0.09383,-0.05632 0.06099,-0.08374 0.09081,-0.162935 0.07054,-0.187349 -0.02574,-0.03104 -0.08547,-0.02246 -0.123125,0.01769 -0.06176,0.06585 -0.138951,0.107828 -0.191258,0.104061 -0.06513,-0.0047 -0.148081,0.01945 -0.163079,0.04746 -0.02149,0.04017 0.01526,0.128274 0.08585,0.205775 0.03829,0.04204 0.06604,0.04368 0.106256,0.0063 z m 1.32321,-0.116464 c 0.02551,-0.0173 0.05135,-0.03148 0.05744,-0.03148 0.0061,0 0.03093,-0.02322 0.05524,-0.05163 l 0.04419,-0.05163 -0.02446,-0.04692 c -0.02908,-0.0558 -0.13163,-0.109648 -0.196407,-0.103144 -0.06055,0.0061 -0.105295,0.189382 -0.06875,0.28163 0.01786,0.04512 0.06912,0.04633 0.132753,0.0032 z m -6.028066,-0.0023 c 0.05418,-0.01707 0.06918,-0.02807 0.07979,-0.05854 0.03153,-0.09044 0.01293,-0.102466 -0.133118,-0.08613 -0.07004,0.0079 -0.122399,0.02271 -0.177148,0.05036 -0.08925,0.04506 -0.09933,0.05593 -0.07247,0.07823 0.0459,0.03811 0.206096,0.0466 0.302929,0.01608 z m 7.584968,-0.01716 c 0.05948,-0.03184 0.107763,-0.224221 0.07643,-0.304541 -0.01911,-0.04898 -0.09106,-0.07682 -0.17432,-0.06744 -0.09681,0.01092 -0.127698,0.02881 -0.13721,0.07952 -0.01165,0.06207 0.0678,0.216413 0.137941,0.267995 0.05663,0.04164 0.06237,0.04308 0.09716,0.02446 z m -3.343871,-0.08709 c 0.01059,-0.02045 0.01922,-0.06859 0.01922,-0.107021 0,-0.06827 -8.51e-4,-0.06988 -0.03554,-0.06988 -0.04849,0 -0.108615,0.08817 -0.09762,0.14315 0.0159,0.07958 0.08037,0.09867 0.113946,0.03375 z m -6.849432,-0.02137 c 0.04899,-0.01545 0.167834,-0.106059 0.175217,-0.133597 0.02659,-0.09919 -0.0087,-0.113961 -0.15601,-0.06514 -0.08844,0.02933 -0.113556,0.04446 -0.171307,0.103143 -0.0692,0.07031 -0.08482,0.111026 -0.04564,0.118982 0.0241,0.0049 0.158393,-0.01098 0.19774,-0.02339 z m -2.8210229,-0.12526 c 0.037188,-0.01426 0.1121832,-0.133876 0.1134447,-0.180929 0.00109,-0.03886 -0.00295,-0.04494 -0.031476,-0.04826 -0.051725,-0.006 -0.169515,0.09614 -0.1809127,0.156901 -0.00699,0.03743 -0.00426,0.05051 0.013499,0.06348 0.024126,0.01764 0.054313,0.02075 0.08545,0.0088 z m 1.1020853,-0.01092 c 0.038258,-0.01979 0.051266,-0.04218 0.051266,-0.08828 0,-0.03578 -0.021122,-0.04458 -0.1049018,-0.0437 -0.1219339,0.0014 -0.2374336,0.06853 -0.1783839,0.103864 0.079487,0.04755 0.1726162,0.05885 0.2320209,0.02812 z m 8.9857686,-0.04043 c 0.01769,-0.0116 0.03719,-0.03426 0.04331,-0.05036 0.0063,-0.01673 0.02158,-0.02927 0.03551,-0.02927 0.02745,0 0.08359,-0.06071 0.09599,-0.103809 0.0045,-0.01563 0.01656,-0.04697 0.02682,-0.06969 0.02912,-0.06447 0.01828,-0.116251 -0.02996,-0.143087 -0.02242,-0.01247 -0.04973,-0.01925 -0.06068,-0.01505 -0.01755,0.0068 -0.01732,0.002 0.002,-0.04126 0.01208,-0.02691 0.02237,-0.06859 0.02291,-0.09267 0.0014,-0.06962 -0.03511,-0.06565 -0.102237,0.01109 -0.03101,0.03544 -0.06696,0.06416 -0.08033,0.06416 -0.02677,0 -0.03133,0.02611 -0.01121,0.06373 0.01016,0.01897 0.0069,0.03254 -0.01469,0.06176 -0.02787,0.03771 -0.02631,0.0617 0.0096,0.147771 0.0038,0.0091 -0.01016,0.01942 -0.0344,0.02572 -0.07394,0.01917 -0.08023,0.0776 -0.01652,0.153315 0.03677,0.04371 0.06691,0.04837 0.11379,0.01766 z m -4.128575,-0.05061 c 0.01309,-0.03411 -0.03046,-0.176833 -0.06852,-0.224551 -0.03923,-0.04918 -0.08889,-0.06422 -0.15528,-0.04702 -0.0665,0.01723 -0.07509,0.05925 -0.03022,0.14793 0.05263,0.104007 0.104301,0.144968 0.182929,0.144968 0.04751,0 0.06491,-0.0052 0.07109,-0.02132 z m -6.194024,-0.07388 c 0.027621,-0.02897 0.040923,-0.05524 0.040923,-0.08086 0,-0.04631 -0.022739,-0.0487 -0.1280686,-0.01344 -0.1434757,0.04802 -0.1551684,0.07128 -0.061084,0.121531 0.066895,0.03573 0.092713,0.03098 0.1482364,-0.02722 z m 10.75246,0.0071 c 0.01956,-0.0372 0.01329,-0.129714 -0.0107,-0.158682 -0.01968,-0.0237 -0.07989,-0.01903 -0.15361,0.01188 -0.0629,0.02636 -0.09781,0.09867 -0.06511,0.134799 0.02103,0.02325 0.123915,0.04894 0.181737,0.04539 0.01922,-0.0011 0.03753,-0.01398 0.04774,-0.03339 z m -9.6403865,-0.0494 c 0.020249,-0.02025 0.036806,-0.0486 0.036806,-0.06303 0,-0.03383 -0.1067694,-0.139391 -0.1409945,-0.139391 -0.08094,0 -0.076102,0.14987 0.00699,0.216904 0.037636,0.03036 0.054914,0.02778 0.09718,-0.01448 z m 1.1645097,-0.107774 c 0.086117,-0.02588 0.2591378,-0.142036 0.2813688,-0.18886 0.0275,-0.05791 0.0025,-0.481346 -0.03285,-0.560485 -0.03595,-0.0801 -0.1602432,-0.194913 -0.2239182,-0.206861 -0.027391,-0.0051 -0.069155,-0.02637 -0.092855,-0.04716 -0.038444,-0.03376 -0.049322,-0.03705 -0.1011556,-0.03058 -0.031946,0.004 -0.086412,0.01005 -0.1210319,0.01352 -0.034621,0.0035 -0.074278,0.01162 -0.088126,0.01817 -0.013859,0.0066 -0.07051,0.02137 -0.1259051,0.03296 -0.057316,0.01197 -0.1121242,0.03153 -0.1271796,0.04539 -0.078275,0.07202 -0.066097,0.21504 0.033715,0.396113 0.033988,0.06165 0.079236,0.14749 0.100555,0.190754 0.028385,0.05759 0.059992,0.09638 0.1180011,0.144788 0.1728013,0.144222 0.2688227,0.210919 0.3036461,0.210919 0.00754,0 0.041589,-0.0084 0.075741,-0.01869 z M 20.659168,18.008091 c 0.03827,-0.03827 0.108866,-0.210709 0.108866,-0.265927 0,-0.0384 -0.006,-0.04719 -0.04452,-0.06547 -0.05261,-0.02498 -0.130275,-0.01821 -0.213445,0.0186 -0.0797,0.03525 -0.08555,0.07745 -0.02696,0.194644 0.02816,0.0563 0.06037,0.100599 0.0861,0.118327 0.05084,0.03505 0.05477,0.03504 0.08997,-1.3e-4 z m -12.0927508,-0.049 c 0.05759,-0.03427 0.07703,-0.05822 0.07703,-0.0949 0,-0.02291 -0.00699,-0.02907 -0.032688,-0.02907 -0.051102,0 -0.1636369,0.03641 -0.199345,0.0645 -0.034283,0.02697 -0.042922,0.06764 -0.016644,0.07824 0.040748,0.01645 0.1286049,0.0069 0.1716326,-0.01878 z m 3.8607578,-0.01261 c 0.06557,-0.05757 0.0968,-0.126779 0.09876,-0.218866 0.002,-0.08948 -0.0084,-0.106486 -0.08747,-0.144783 -0.0602,-0.02914 -0.09983,-0.02761 -0.228672,0.0087 -0.06853,0.01933 -0.103985,0.05314 -0.103985,0.09916 0,0.01446 0.02002,0.0669 0.04446,0.116532 0.03222,0.0654 0.06045,0.102466 0.102532,0.134591 0.07326,0.05594 0.114663,0.05703 0.174365,0.0046 z m 6.019307,-0.01716 c 0.07334,-0.03226 0.114086,-0.08066 0.154886,-0.183969 0.0571,-0.14459 0.01469,-0.220983 -0.104181,-0.187701 -0.03227,0.0091 -0.07494,0.03306 -0.09482,0.0534 -0.06233,0.06375 -0.124168,0.301882 -0.08931,0.343889 0.01771,0.02135 0.03354,0.01832 0.133416,-0.0256 z m -11.9577261,-0.0011 c 0.03769,-0.0264 0.07727,-0.11952 0.07727,-0.181812 0,-0.04232 -0.00546,-0.05181 -0.040028,-0.06969 -0.075195,-0.03889 -0.2243773,0 -0.2243773,0.05853 0,0.04039 0.058179,0.144119 0.1010683,0.180212 0.046275,0.03894 0.048273,0.03923 0.086062,0.01276 z m 12.3665831,-0.07671 c 0.07155,-0.04262 0.137443,-0.10914 0.137443,-0.138754 0,-0.02854 -0.03744,-0.08279 -0.07128,-0.103297 -0.170536,-0.103329 -0.252856,-0.06984 -0.28262,0.114974 -0.01316,0.08167 8.5e-4,0.154882 0.03498,0.182004 0.02521,0.02007 0.08694,0.0014 0.181482,-0.05492 z m -3.498051,-0.04037 c 0.0738,-0.04661 0.135352,-0.109515 0.135352,-0.138325 0,-0.0068 -0.01142,-0.03174 -0.02537,-0.0554 -0.01869,-0.03165 -0.0489,-0.05385 -0.11444,-0.08406 -0.133975,-0.06175 -0.163743,-0.03944 -0.189475,0.142063 -0.01242,0.08759 0.0011,0.166678 0.0321,0.188512 0.02425,0.01704 0.08011,-0.0011 0.161845,-0.05279 z m 2.515937,-0.04039 c 0.03795,-0.02116 0.05814,-0.04285 0.06884,-0.07398 l 0.01514,-0.04407 0.009,0.04571 c 0.0085,0.04356 0.04383,0.07391 0.08585,0.07391 0.02313,0 0.152575,-0.06703 0.16389,-0.08485 0.0056,-0.0087 0.01568,-0.01588 0.02254,-0.01588 0.02294,0 0.08635,-0.05436 0.119903,-0.102783 0.03302,-0.04764 0.03307,-0.0481 0.0096,-0.08273 -0.01299,-0.01914 -0.02651,-0.04614 -0.03008,-0.06 -0.0076,-0.02967 -0.202122,-0.130868 -0.25309,-0.131675 -0.07557,-0.0011 -0.114519,0.06597 -0.131124,0.226104 -0.0098,0.09482 -0.01284,0.102106 -0.03799,0.09246 -0.03153,-0.0121 -0.224054,0.05654 -0.273935,0.09765 -0.05305,0.04373 -0.0608,0.08323 -0.01821,0.09268 0.09621,0.02135 0.170272,0.01168 0.249654,-0.03255 z m -12.6215565,0.01942 c -0.00415,-0.01094 -0.00797,-0.02937 -0.00841,-0.04092 -5.668e-4,-0.01432 -0.00459,-0.0116 -0.012614,0.0085 -0.012538,0.03128 -0.00633,0.05235 0.015509,0.05235 0.00721,0 0.00972,-0.009 0.00557,-0.0199 z m 2.2178005,0.0033 c 0.015618,-0.0086 0.059162,-0.04567 0.096754,-0.08221 0.06743,-0.06554 0.068992,-0.06625 0.1163814,-0.05309 0.062799,0.01744 0.1904003,0.01716 0.2444512,-5.67e-4 0.023536,-0.0078 0.052719,-0.02532 0.064831,-0.03916 0.027304,-0.03117 0.02868,-0.08356 0.00251,-0.09362 -0.019331,-0.0074 -0.2947822,0.05244 -0.3347257,0.07275 -0.015137,0.0078 -0.022367,0.0039 -0.027162,-0.01437 -0.014777,-0.0565 -0.1776351,-5.67e-4 -0.2153473,0.07415 -0.021013,0.04156 -0.036456,0.123983 -0.02631,0.140411 0.010376,0.01673 0.044123,0.01489 0.078635,-0.0043 z m 6.621802,-0.102925 c 0.06231,-0.04364 0.129735,-0.200925 0.129735,-0.302632 0,-0.06617 -0.01519,-0.09397 -0.05134,-0.09397 -0.01162,0 -0.02872,-0.0092 -0.03801,-0.02036 -0.01956,-0.02356 -0.118908,-0.01775 -0.237938,0.01389 -0.120051,0.03192 -0.130236,0.08696 -0.0457,0.246924 0.07901,0.149507 0.169646,0.207693 0.243241,0.156142 z M 8.3655355,17.588942 c 0.015793,-0.03164 0.031651,-0.07929 0.035222,-0.105917 0.0059,-0.04411 0.00306,-0.05016 -0.032164,-0.06839 -0.045139,-0.02334 -0.067168,-0.02453 -0.1304627,-0.007 -0.060101,0.0167 -0.068784,0.0465 -0.035473,0.121797 0.057633,0.130295 0.1167277,0.151857 0.1628801,0.05945 z m 8.3165655,0.02983 c 0.03135,-0.01523 0.057,-0.03223 0.057,-0.03777 0,-0.0056 0.0071,-0.01027 0.01574,-0.01059 0.02234,-5.67e-4 0.07866,-0.04903 0.116052,-0.09971 0.03605,-0.04886 0.04084,-0.09077 0.01302,-0.11387 -0.01038,-0.0086 -0.01888,-0.02572 -0.01888,-0.038 0,-0.01505 -0.02677,-0.03523 -0.08204,-0.06189 -0.125433,-0.06049 -0.1344,-0.06274 -0.172543,-0.04326 -0.04591,0.02345 -0.05821,0.04992 -0.07988,0.171877 -0.01485,0.08355 -0.01551,0.115585 -0.0034,0.166418 0.02388,0.100151 0.0569,0.114369 0.154938,0.06673 z m -0.59406,-0.04967 c 0.107272,-0.05463 0.209351,-0.146311 0.210051,-0.188644 1.96e-4,-0.01126 -0.0079,-0.02727 -0.0178,-0.03554 -0.0099,-0.0083 -0.01988,-0.02736 -0.02203,-0.04243 -0.0037,-0.02622 -0.05396,-0.0575 -0.172864,-0.107665 -0.08446,-0.03563 -0.126764,0.01716 -0.150487,0.187715 -0.01281,0.09204 -0.0052,0.146711 0.02755,0.197823 0.01511,0.02359 0.0661,0.01902 0.12556,-0.01126 z M 6.0055186,17.515364 c 0.053144,-0.06485 0.071602,-0.137553 0.038171,-0.150381 -0.020642,-0.008 -0.1761618,0.01154 -0.1974742,0.02469 -0.04089,0.02526 0.043348,0.179339 0.098884,0.180833 0.00819,1.95e-4 0.035375,-0.02461 0.060418,-0.05515 z M 12.642635,17.31812 c 0.08897,-0.05091 0.137766,-0.112944 0.117956,-0.149961 -0.03542,-0.06617 -0.143867,-0.09538 -0.198157,-0.05336 -0.06187,0.04788 -0.06205,0.242087 -1.96e-4,0.242087 0.007,0 0.04315,-0.01744 0.0804,-0.03876 z m 5.66935,-0.03219 c 0.01435,-0.01826 0.02608,-0.0434 0.02608,-0.05591 0,-0.0125 0.005,-0.02586 0.01117,-0.02964 0.01503,-0.0093 0.02893,-0.08721 0.01979,-0.111014 -0.004,-0.01048 -0.04331,-0.03735 -0.08731,-0.05969 -0.0748,-0.03796 -0.08692,-0.0403 -0.187039,-0.03612 -0.05888,0.0025 -0.111519,0.009 -0.116973,0.01441 -0.01301,0.01302 0.0098,0.07196 0.06099,0.157213 0.08335,0.138988 0.213655,0.196558 0.273289,0.120746 z M 5.5583454,17.28213 c 0.020751,-0.03877 0.015651,-0.07804 -0.011053,-0.08502 -0.017267,-0.0045 -0.033649,-0.0357 -0.057884,-0.11024 -0.018599,-0.05716 -0.038684,-0.11183 -0.044647,-0.121472 -0.021548,-0.03485 -0.041109,0.01171 -0.046897,0.111602 -0.00481,0.083 -0.00142,0.107119 0.020838,0.150873 0.039842,0.07809 0.1118828,0.106092 0.1396204,0.05426 z M 20.431657,17.147486 c 0.03613,-0.01821 0.06987,-0.04021 0.07497,-0.04895 0.0051,-0.0087 0.02297,-0.01931 0.03969,-0.0235 0.03475,-0.0087 0.146179,-0.12693 0.146179,-0.155081 0,-0.01027 -0.01135,-0.03309 -0.02517,-0.0507 -0.01387,-0.01761 -0.02518,-0.04257 -0.02518,-0.05547 0,-0.01723 -0.03084,-0.03797 -0.116461,-0.07826 -0.06405,-0.03014 -0.125636,-0.05802 -0.136853,-0.06195 -0.03093,-0.01081 -0.09862,0.0366 -0.117507,0.08236 -0.02846,0.06897 -0.05066,0.269277 -0.03391,0.306027 0.008,0.01741 0.01443,0.04088 0.01443,0.05213 0,0.03323 0.03898,0.0665 0.07791,0.0665 0.01993,0 0.06579,-0.01489 0.101921,-0.03307 z M 6.2160506,17.12075 c 0.024726,-0.0286 0.047804,-0.09799 0.047804,-0.14379 0,-0.04786 -0.041207,-0.06693 -0.1192997,-0.05521 -0.0826,0.01238 -0.095433,0.04457 -0.051987,0.130317 0.044582,0.08797 0.086597,0.111343 0.1234815,0.06869 z M 17.841915,16.972448 c 0.06133,-0.06503 0.0734,-0.158694 0.02294,-0.178057 -0.0262,-0.01005 -0.148664,0.02816 -0.169075,0.05274 -0.0085,0.01027 -0.01823,0.04298 -0.0216,0.07267 -0.0064,0.05678 0.0054,0.07619 0.05325,0.08796 0.05465,0.01344 0.07417,0.0074 0.114471,-0.03532 z m 1.563444,-0.02478 c 0.08149,-0.04887 0.141402,-0.108058 0.141402,-0.139676 0,-0.0099 -0.0052,-0.02793 -0.01168,-0.03995 -0.0064,-0.01202 -0.01489,-0.03212 -0.0188,-0.04467 -0.0075,-0.02421 -0.177539,-0.109391 -0.21833,-0.109391 -0.03175,0 -0.07204,0.04596 -0.09029,0.103002 -0.0203,0.06342 -0.02215,0.210156 -0.0032,0.254281 0.01437,0.03347 0.01959,0.03576 0.06876,0.02999 0.03001,-0.0035 0.08761,-0.02688 0.132136,-0.05358 z m 2.503444,-0.01613 c 0.01659,-0.02962 0.03014,-0.05996 0.03014,-0.06743 0,-0.0075 0.01432,-0.02487 0.03183,-0.03863 0.04225,-0.03323 0.08393,-0.117017 0.07908,-0.158959 -0.0031,-0.0264 -0.01154,-0.03455 -0.03933,-0.03772 -0.01947,-0.0023 -0.04894,0.0048 -0.06544,0.0156 -0.01846,0.01211 -0.03297,0.01485 -0.0377,0.0072 -0.01849,-0.0299 -0.211097,0.0033 -0.234661,0.04043 -0.0057,0.009 -0.01048,0.0277 -0.01059,0.04155 -2.84e-4,0.04261 0.07235,0.181234 0.115909,0.221177 0.05651,0.0518 0.0923,0.04545 0.130737,-0.02322 z M 5.5316378,16.885731 c 0.018567,-0.01857 0.018741,-0.02396 0.00175,-0.05446 -0.02489,-0.04436 -0.1107229,-0.103056 -0.1514801,-0.10358 -0.085177,-0.0011 -0.09469,0.06244 -0.021778,0.145497 0.037133,0.04229 0.044178,0.04519 0.095542,0.0394 0.030504,-0.0034 0.064732,-0.01554 0.07608,-0.02688 z m 4.1938218,0.01823 c 0.032732,-0.01752 0.091698,-0.163323 0.086707,-0.214423 -0.00317,-0.0325 -0.013641,-0.04741 -0.045794,-0.06531 -0.037548,-0.02089 -0.049977,-0.02166 -0.1254235,-0.0078 -0.086564,0.01597 -0.1287665,0.0434 -0.1287665,0.08377 0,0.03783 0.060801,0.14392 0.1039079,0.18129 0.04207,0.03648 0.071766,0.04257 0.1093698,0.02245 z M 11.657979,16.79764 c 0.03141,-0.0167 0.06611,-0.03936 0.07711,-0.05036 0.011,-0.011 0.0272,-0.01999 0.03602,-0.01999 0.0241,0 0.120601,-0.102357 0.129337,-0.137164 0.0052,-0.02084 8.51e-4,-0.03543 -0.01407,-0.0463 -0.0188,-0.01375 -0.02755,-0.0337 -0.03141,-0.07151 -5.67e-4,-0.0052 -0.03921,-0.02679 -0.08595,-0.04799 -0.04675,-0.02118 -0.09482,-0.04385 -0.106846,-0.05035 -0.05536,-0.02991 -0.122382,8.5e-4 -0.146697,0.06739 -0.02334,0.06385 -0.04246,0.256274 -0.02812,0.283064 0.0078,0.01451 0.01412,0.03781 0.01412,0.05178 0,0.0561 0.07261,0.06605 0.156503,0.02144 z m -6.5917054,-0.0549 c 0.123238,-0.117233 0.050611,-0.198169 -0.108211,-0.120584 -0.062209,0.0304 -0.072279,0.08797 -0.023842,0.136398 0.043446,0.04345 0.073568,0.03984 0.132067,-0.01582 z m 2.7251483,0.03033 c 0.045882,-0.01917 0.076801,-0.05995 0.1040936,-0.137327 0.010048,-0.0286 0.027413,-0.062 0.038477,-0.07424 0.011206,-0.01236 0.01718,-0.03355 0.013466,-0.04769 -0.00382,-0.01446 0.00328,-0.03805 0.016328,-0.05469 0.030362,-0.0386 0.062701,-0.166155 0.062701,-0.247291 0,-0.05207 -0.00612,-0.07095 -0.030908,-0.09576 -0.017016,-0.01702 -0.043086,-0.03091 -0.057983,-0.03091 -0.014886,0 -0.044505,-0.01466 -0.065792,-0.03257 -0.030471,-0.02563 -0.046941,-0.03088 -0.077358,-0.02461 -0.021264,0.0044 -0.066982,0.01259 -0.1016035,0.01823 -0.1579129,0.0258 -0.2576826,0.05577 -0.2859652,0.0859 -0.024126,0.02572 -0.028746,0.04428 -0.028505,0.114621 2.545e-4,0.07347 0.00633,0.09493 0.048809,0.172069 0.026681,0.04847 0.065682,0.121016 0.086663,0.1612 0.02098,0.04019 0.054597,0.08552 0.074725,0.100729 0.020128,0.01522 0.05748,0.04591 0.083015,0.06824 0.052642,0.046 0.062581,0.048 0.1198097,0.0241 z m 10.3251771,0.0028 c 0.03614,-0.01647 0.08298,-0.106704 0.08298,-0.159839 0,-0.01979 0.0086,-0.05327 0.0192,-0.07442 0.01059,-0.02116 0.01787,-0.05568 0.01627,-0.07673 -0.0017,-0.02203 0.0062,-0.04838 0.0186,-0.06206 0.02654,-0.02933 0.0281,-0.0858 0.0025,-0.09558 -0.01038,-0.0039 -0.01888,-0.0216 -0.01888,-0.03915 0,-0.02798 -0.01483,-0.03888 -0.120366,-0.08853 -0.06621,-0.03114 -0.127925,-0.05662 -0.137165,-0.05662 -0.0093,0 -0.03375,0.01585 -0.05447,0.03519 -0.04386,0.04097 -0.06746,0.132019 -0.06863,0.264772 -0.0011,0.114361 0.01236,0.164978 0.0478,0.181137 l 0.02915,0.01327 -0.03245,0.06207 c -0.04353,0.08326 -0.02827,0.09919 0.05994,0.06254 0.06525,-0.02711 0.08733,-0.02648 0.08733,0.0025 0,0.01332 0.02368,0.04584 0.0334,0.04584 0.0017,0 0.01735,-0.0064 0.0347,-0.01435 z m -2.256698,-0.03915 c 0.120469,-0.06404 0.127202,-0.06854 0.177698,-0.118584 0.05614,-0.05563 0.07022,-0.09706 0.04329,-0.127438 -0.01048,-0.01182 -0.02107,-0.03285 -0.02354,-0.0467 -0.0049,-0.02767 -0.19755,-0.13136 -0.245095,-0.131899 -0.03855,-5.67e-4 -0.08765,0.05463 -0.103656,0.116274 -0.04677,0.180079 -0.01891,0.349271 0.05749,0.349271 0.0093,0 0.05147,-0.0184 0.09381,-0.04092 z M 6.2604938,16.64544 c 0.021352,-0.03742 0.027927,-0.06655 0.025491,-0.113311 -0.00306,-0.05797 -0.00677,-0.06468 -0.046952,-0.08476 -0.024038,-0.01199 -0.047935,-0.03325 -0.053101,-0.04721 -0.00513,-0.01398 -0.019965,-0.0254 -0.032874,-0.0254 -0.020074,0 -0.076702,0.05776 -0.1078397,0.110023 -0.013379,0.02242 0.036795,0.128392 0.08379,0.176957 0.054018,0.05582 0.093096,0.05098 0.1314915,-0.01627 z m 6.5126122,-0.0081 c 0.07599,-0.04087 0.09314,-0.05355 0.141644,-0.10477 0.05177,-0.05466 0.05675,-0.07135 0.02833,-0.09493 -0.01038,-0.0086 -0.01888,-0.02651 -0.01888,-0.03976 0,-0.03509 -0.194378,-0.12858 -0.228914,-0.110097 -0.06487,0.03472 -0.102008,0.193677 -0.07325,0.313555 0.01965,0.0819 0.05158,0.08951 0.15108,0.03601 z m 4.940539,-0.268832 c 0.04374,-0.0472 0.0883,-0.138219 0.07924,-0.161845 -0.01464,-0.03815 -0.07364,-0.02271 -0.152225,0.03979 -0.08485,0.06749 -0.127853,0.119487 -0.115441,0.139572 0.0047,0.0076 0.04248,0.01384 0.08396,0.01384 0.06419,0 0.07973,-0.0047 0.104465,-0.03136 z M 5.5146766,16.33719 c 0.039449,-0.0436 0.081759,-0.165562 0.081825,-0.23588 5.02e-5,-0.05977 -0.00284,-0.06659 -0.031421,-0.07376 -0.035506,-0.009 -0.2027024,0.02535 -0.2285996,0.04683 -0.043599,0.03618 0.00754,0.181981 0.088683,0.252976 0.047127,0.04123 0.059839,0.04262 0.089513,0.0098 z M 16.553357,16.176901 c 0.0398,-0.0192 0.07238,-0.04199 0.0724,-0.05065 0,-0.0086 0.01148,-0.01574 0.02549,-0.01574 0.03076,0 0.132699,-0.09132 0.159232,-0.14262 0.01771,-0.03424 0.01718,-0.03947 -0.0072,-0.07253 -0.01449,-0.01959 -0.02634,-0.04349 -0.02634,-0.05308 0,-0.03007 -0.04648,-0.05905 -0.201449,-0.125624 -0.07498,-0.03221 -0.08371,-0.03285 -0.122915,-0.0091 -0.0444,0.02699 -0.06976,0.09415 -0.0911,0.241188 -0.01188,0.08195 -0.01081,0.107468 0.0072,0.169971 0.01169,0.04045 0.02755,0.07771 0.03531,0.0828 0.0275,0.01809 0.07801,0.0097 0.149388,-0.02469 z m -11.4363832,-0.0084 c 0.027817,-0.03352 0.076691,-0.176461 0.076691,-0.224306 0,-0.04235 -0.00513,-0.05063 -0.042605,-0.06849 -0.090147,-0.04299 -0.2469773,0.0086 -0.2469773,0.08133 0,0.0361 0.073775,0.16848 0.1115672,0.20019 0.038127,0.03199 0.080241,0.03667 0.1013195,0.01128 z m 14.1246052,-0.05253 c 0.141203,-0.02265 0.323224,-0.09623 0.556991,-0.225129 0.197426,-0.108856 0.236453,-0.127786 0.369486,-0.179181 0.372047,-0.143736 0.557792,-0.188718 0.85808,-0.207808 0.427397,-0.02716 0.528667,-0.01551 0.730439,0.08415 0.135455,0.06691 0.273249,0.186428 0.325415,0.282271 0.02904,0.05335 0.0347,0.07742 0.0312,0.132588 -0.0038,0.05997 -0.002,0.06615 0.01693,0.05603 0.01165,-0.0062 0.03858,-0.01137 0.05981,-0.01137 0.04136,0 0.04931,0.01942 0.02588,0.06319 -0.01203,0.02249 -0.01048,0.02283 0.02832,0.0066 0.08734,-0.03648 0.248806,-0.05964 0.475415,-0.06822 0.128109,-0.0048 0.240479,-0.01347 0.249713,-0.01919 0.03237,-0.02002 0.124242,-0.156649 0.150227,-0.223434 0.0734,-0.188681 0.118018,-0.326572 0.142205,-0.439535 0.0235,-0.109824 0.02521,-0.139219 0.014,-0.242261 -0.01194,-0.109768 -0.07537,-0.361342 -0.09113,-0.361387 -0.0039,-8e-6 -0.01656,0.01982 -0.02812,0.04405 -0.02297,0.04816 -0.06808,0.05998 -0.09682,0.02535 -0.01316,-0.01585 -0.01961,-0.01059 -0.04246,0.03462 -0.03264,0.06467 -0.06644,0.07335 -0.111187,0.02859 l -0.03219,-0.03219 -0.05732,0.113958 -0.0573,0.113958 0.03181,0.06949 c 0.0175,0.03823 0.02916,0.07964 0.02592,0.09204 -0.0033,0.01239 0.0046,0.03613 0.01732,0.05275 0.02778,0.03615 0.03035,0.06169 0.0062,0.06169 -0.02483,0 -0.149047,-0.06688 -0.202823,-0.109231 -0.05044,-0.03971 -0.09984,-0.110879 -0.08908,-0.128303 0.0038,-0.0062 -0.01982,-0.01803 -0.05262,-0.0262 -0.06657,-0.01656 -0.23522,-0.103918 -0.34702,-0.179761 -0.168795,-0.114508 -0.282007,-0.150564 -0.625434,-0.199198 -0.248537,-0.03519 -0.425673,-0.04242 -0.642111,-0.02617 -0.255458,0.01917 -0.391262,0.05588 -0.589397,0.159288 -0.08887,0.04638 -0.194845,0.09147 -0.239211,0.101757 -0.04381,0.01016 -0.123172,0.03656 -0.176357,0.05868 l -0.0967,0.04021 -0.308462,0.0034 c -0.169657,0.002 -0.333963,0.0034 -0.365124,0.0034 -0.06482,-3e-6 -0.151086,-0.03349 -0.151086,-0.05864 0,-0.0093 0.0071,-0.01743 0.01574,-0.018 0.03479,-0.0023 -0.294373,-0.08857 -0.406041,-0.106474 -0.07166,-0.01148 -0.149894,-0.03362 -0.195151,-0.05521 -0.04156,-0.01982 -0.114482,-0.04259 -0.16207,-0.05061 -0.113322,-0.01911 -0.196849,-0.05165 -0.259197,-0.101035 -0.09684,-0.0767 -0.214984,-0.344661 -0.196104,-0.444791 0.0041,-0.0222 0.02013,-0.0789 0.03544,-0.126013 l 0.02784,-0.08567 -0.09038,-0.0843 c -0.0497,-0.04637 -0.149782,-0.13981 -0.222388,-0.207652 -0.07261,-0.06785 -0.165055,-0.165393 -0.20544,-0.216779 l -0.07344,-0.09343 -0.0063,0.09992 c -0.0046,0.07303 -0.01233,0.10595 -0.02878,0.12235 -0.01965,0.01959 -0.02402,0.02004 -0.03444,0.0035 -0.0066,-0.01037 -0.01202,-0.02859 -0.01213,-0.04045 -1.3e-4,-0.01185 -0.01231,-0.0539 -0.02707,-0.09342 -0.04477,-0.119644 -0.149299,-0.210813 -0.529353,-0.461678 -0.182262,-0.120308 -0.395517,-0.257906 -0.473898,-0.305774 -0.135993,-0.08305 -0.285233,-0.179487 -0.719934,-0.465212 -0.107337,-0.07055 -0.239197,-0.152916 -0.293027,-0.183039 -0.128036,-0.07165 -0.289889,-0.201859 -0.358764,-0.288635 -0.03023,-0.03808 -0.105557,-0.131568 -0.167389,-0.207741 -0.06184,-0.07617 -0.119877,-0.148986 -0.128978,-0.161811 -0.01483,-0.02089 -0.01611,-0.01894 -0.01224,0.01888 0.0059,0.05756 -0.01316,0.08559 -0.04333,0.0638 -0.05307,-0.03831 -0.286867,-0.142707 -0.437876,-0.195506 -0.09003,-0.03148 -0.228832,-0.08072 -0.308466,-0.10945 -0.134383,-0.04847 -0.482647,-0.155753 -0.749131,-0.230767 -0.348883,-0.09822 -0.851156,-0.210066 -1.252979,-0.27903 -0.183311,-0.03147 -0.360144,-0.06916 -0.411768,-0.08778 -0.09027,-0.03256 -0.300454,-0.129589 -0.591593,-0.273093 -0.147616,-0.07276 -0.188699,-0.108091 -0.159127,-0.136837 0.01162,-0.01128 0.250468,-0.04885 0.520606,-0.08188 0.407383,-0.0498 0.86527,-0.004 1.334587,0.133247 0.35132,0.102805 0.652745,0.232566 1.115047,0.480028 0.09739,0.05213 0.198713,0.09884 0.225175,0.103799 0.03226,0.0061 0.06933,0.02873 0.112517,0.06885 0.09871,0.09169 0.141719,0.116793 0.232586,0.135749 0.143618,0.02996 0.352642,0.140831 0.3847,0.204046 0.0092,0.01814 0.0205,0.05905 0.02515,0.09093 0.0074,0.05119 0.01169,0.05735 0.03626,0.05266 0.05311,-0.01016 0.530688,0.03246 0.586424,0.05229 0.03023,0.0107 0.150473,0.06851 0.267201,0.128336 0.289399,0.148327 0.586078,0.370971 0.968267,0.726642 0.06582,0.06126 0.199007,0.1714 0.295954,0.244752 0.40671,0.307716 0.475975,0.376585 0.279778,0.278156 l -0.07833,-0.0393 0.08216,0.08651 c 0.04519,0.04757 0.103297,0.112004 0.129118,0.143166 l 0.04695,0.05666 -0.01894,-0.05509 c -0.02997,-0.08712 -0.02583,-0.11488 0.01713,-0.11488 0.03254,0 0.03997,0.0086 0.07554,0.08825 0.02169,0.04853 0.03946,0.0921 0.03946,0.09682 0,0.0047 0.02884,0.06066 0.0641,0.124298 0.0634,0.114434 0.06543,0.116532 0.183658,0.189605 0.182225,0.112629 0.386608,0.332223 0.523231,0.562171 0.0279,0.04696 0.05457,0.103624 0.05928,0.125903 0.0073,0.03467 0.01338,0.04001 0.04205,0.03695 0.02741,-0.0029 0.03669,0.0039 0.05105,0.03778 0.02011,0.04729 0.100511,0.156776 0.198848,0.270703 0.03717,0.04305 0.149723,0.144043 0.25013,0.224425 0.180993,0.144888 0.182995,0.146065 0.232924,0.136754 0.0277,-0.0051 0.234496,-0.01005 0.459551,-0.01092 0.399427,-0.0014 0.41024,-0.0023 0.453255,-0.02942 0.02425,-0.01533 0.07252,-0.03861 0.107293,-0.05171 0.03477,-0.01309 0.131095,-0.05237 0.214038,-0.08724 0.09054,-0.03807 0.249209,-0.08889 0.39706,-0.127157 0.24104,-0.06238 0.314022,-0.07469 0.314022,-0.05292 0,0.006 0.13456,0.01407 0.299022,0.01807 0.233042,0.0057 0.342084,0.01423 0.494176,0.03896 0.361882,0.05884 0.585355,0.117502 0.744728,0.195474 0.08931,0.04369 0.09538,0.04506 0.08345,0.01888 -0.0071,-0.01554 -0.0235,-0.03103 -0.03652,-0.03444 -0.01721,-0.0045 -0.02362,-0.01761 -0.0235,-0.04828 2.63e-4,-0.08944 0.01574,-0.135892 0.06125,-0.184244 0.0388,-0.04122 0.06164,-0.05249 0.152645,-0.07531 0.05887,-0.01478 0.117202,-0.02854 0.129646,-0.0306 0.01633,-0.0028 0.0023,-0.01854 -0.05077,-0.05708 -0.110964,-0.08062 -0.158491,-0.135583 -0.241309,-0.279083 -0.07369,-0.127692 -0.07595,-0.130145 -0.09048,-0.09827 -0.0082,0.01798 -0.02291,0.03578 -0.03273,0.03954 -0.02956,0.01134 -0.07918,-0.0309 -0.111729,-0.09514 -0.05037,-0.0994 -0.03938,-0.129226 0.05301,-0.144 0.03619,-0.0058 0.06285,-0.002 0.09188,0.01298 0.03536,0.01828 0.04968,0.01908 0.105765,0.0058 0.139509,-0.03295 0.141562,-0.02645 -0.04412,-0.139552 -0.192528,-0.11726 -0.629338,-0.332812 -0.787725,-0.388715 -0.146469,-0.0517 -1.091074,-0.285126 -1.245096,-0.307686 -0.214726,-0.03145 -0.531744,-0.04586 -1.176104,-0.05344 -0.643188,-0.0075 -0.783311,-0.0017 -1.025782,0.0434 -0.08849,0.01645 -0.174012,0.02032 -0.390306,0.01778 -0.369628,-0.0044 -0.484295,-0.01423 -0.502299,-0.04322 -0.01059,-0.01698 -0.0098,-0.02492 0.0028,-0.03287 0.0135,-0.0084 0.0129,-0.01199 -0.0032,-0.01814 -0.0435,-0.0167 -0.01409,-0.03154 0.115406,-0.0583 0.07444,-0.01537 0.217502,-0.05559 0.317911,-0.08936 0.458471,-0.154202 0.917351,-0.195832 2.030065,-0.184178 0.37137,0.0039 0.648007,0.01202 0.68947,0.0203 0.03808,0.0076 0.14161,0.01947 0.230058,0.02642 0.279714,0.02197 0.569248,0.07837 0.831888,0.162027 0.40808,0.129986 0.536963,0.188798 0.752758,0.343505 0.164451,0.117895 0.351426,0.240595 0.357454,0.234567 0.0025,-0.0025 -0.159771,-0.222565 -0.360664,-0.488973 -0.385151,-0.51076 -0.497918,-0.673294 -0.694209,-1.000586 -0.06645,-0.110797 -0.16528,-0.266603 -0.21962,-0.346237 -0.09664,-0.141625 -0.100861,-0.145798 -0.19292,-0.190904 -0.05176,-0.02537 -0.107348,-0.04998 -0.123519,-0.0547 -0.02734,-0.008 -0.02832,-0.0066 -0.01418,0.0199 0.03634,0.06789 -0.0047,0.389857 -0.05297,0.415692 -0.01656,0.0088 -0.02308,0.02679 -0.02308,0.06347 0,0.03025 -0.0099,0.06499 -0.02418,0.0851 -0.0133,0.01869 -0.03862,0.06658 -0.05624,0.10642 -0.04724,0.106802 -0.07715,0.142358 -0.139983,0.166354 l -0.05641,0.02155 -0.0553,-0.05097 c -0.03042,-0.02804 -0.07153,-0.05941 -0.09136,-0.06973 -0.05276,-0.02745 -0.08183,-0.0646 -0.149481,-0.191122 -0.03333,-0.06232 -0.07896,-0.147306 -0.101417,-0.188854 -0.07986,-0.147786 -0.08201,-0.281293 -0.0058,-0.356453 0.03518,-0.03468 0.214088,-0.08475 0.361389,-0.101156 0.04282,-0.0048 0.08133,-0.01217 0.08558,-0.01639 0.01997,-0.01996 -0.366109,-0.08965 -0.623055,-0.112459 -0.202005,-0.01792 -0.429143,-0.0097 -0.717589,0.02608 -0.114259,0.01415 -0.349385,0.04274 -0.522503,0.06349 -0.405069,0.04857 -0.540878,0.07359 -0.89392,0.164658 -0.159269,0.04109 -0.411392,0.10582 -0.560275,0.143859 -0.327229,0.08361 -0.322835,0.08222 -0.504618,0.158214 -0.08083,0.03379 -0.271568,0.09491 -0.428074,0.137167 -0.155257,0.04192 -0.309765,0.08522 -0.343354,0.09621 -0.05461,0.01787 -0.06309,0.01798 -0.08019,8.51e-4 -0.01048,-0.01049 -0.01556,-0.02484 -0.01126,-0.03184 0.0091,-0.01469 0.354518,-0.284568 0.466996,-0.36484 0.167239,-0.119355 0.377656,-0.215483 0.654959,-0.299209 0.09695,-0.02927 0.354737,-0.116727 0.572865,-0.194346 0.447335,-0.159183 0.731032,-0.235999 1.271635,-0.344317 0.556447,-0.111497 0.689487,-0.128095 1.013529,-0.126459 0.254035,0.0014 0.410603,0.01483 0.585458,0.05062 l 0.04407,0.0091 -0.0369,-0.04941 C 20.315783,10.206059 19.961742,9.7776731 19.819846,9.6245744 l -0.170654,-0.1841248 -0.0985,-0.014067 c -0.05418,-0.00775 -0.166495,-0.020041 -0.249592,-0.027359 -0.08309,-0.00732 -0.241737,-0.025546 -0.352531,-0.040541 -0.176516,-0.023875 -0.257556,-0.027129 -0.654706,-0.026452 -0.710852,0.00109 -0.956685,0.033497 -1.762664,0.2312448 -0.55583,0.1363712 -1.28744,0.3744256 -1.678084,0.5460216 -0.241657,0.106158 -0.28115,0.119907 -0.487469,0.169756 -0.102991,0.02489 -0.226593,0.06905 -0.388259,0.138738 -0.130445,0.05623 -0.24457,0.102237 -0.253609,0.102237 -0.02793,0 -0.0313,-0.03425 -0.0057,-0.05744 0.02404,-0.02175 0.02402,-0.02223 -8.51e-4,-0.03967 -0.01387,-0.0097 -0.02517,-0.02492 -0.02517,-0.03385 0,-0.02889 0.618383,-0.474771 0.787708,-0.5679725 0.04803,-0.026419 0.146818,-0.085112 0.219529,-0.1303829 0.341017,-0.2123384 0.546064,-0.3183804 0.83923,-0.4340083 0.438311,-0.1728744 0.67782,-0.2502603 1.153589,-0.3727295 0.577218,-0.1485793 0.843084,-0.1986417 1.204064,-0.2267254 0.09289,-0.00721 0.172161,-0.016415 0.176162,-0.020412 0.004,-0.00404 -0.0032,-0.013128 -0.01599,-0.020303 -0.07121,-0.039842 -0.171678,-0.1905805 -0.171678,-0.257556 0,-0.045794 0.04176,-0.077303 0.12533,-0.094559 0.0655,-0.013521 0.07516,-0.019058 0.06873,-0.039307 -0.01432,-0.045139 0.0054,-0.082054 0.05177,-0.097388 l 0.0444,-0.014657 -0.02986,-0.02347 C 18.070031,8.0305982 17.77684,7.8551987 17.6216,7.7764607 17.416009,7.6721814 17.293483,7.6171235 17.314969,7.6386664 c 0.02968,0.029772 0.01721,0.082185 -0.03547,0.1488087 -0.08765,0.1108846 -0.166252,0.1399207 -0.238846,0.088224 -0.05009,-0.03567 -0.112841,-0.1498605 -0.112841,-0.2053465 0,-0.051561 0.0154,-0.063389 0.124843,-0.095957 l 0.06818,-0.020303 -0.15632,-0.047694 C 16.574054,7.3872549 16.511238,7.3667529 16.395605,7.3206856 l -0.123011,-0.049005 h -0.20148 c -0.203266,0 -0.589889,0.033464 -0.798953,0.069144 -0.185381,0.03164 -0.410689,0.091621 -0.643915,0.1713924 -0.688065,0.2353557 -1.201599,0.5474278 -1.893057,1.1503984 -0.230289,0.2008162 -0.271377,0.2267844 -0.726979,0.4594403 -0.169796,0.086706 -0.207704,0.1017454 -0.223481,0.088639 -0.01049,-0.00863 -0.01899,-0.022706 -0.01899,-0.031181 0,-0.0205 0.394395,-0.6124341 0.478395,-0.7179999 0.09229,-0.1159763 0.473824,-0.4725113 0.696107,-0.6504839 0.222888,-0.1784608 0.496013,-0.3615764 0.680044,-0.4559344 0.154889,-0.079411 0.523881,-0.2269374 0.707607,-0.2829028 0.280515,-0.085451 0.634961,-0.1632886 0.842936,-0.1851175 l 0.08751,-0.00917 -0.131577,-0.048623 c -0.166325,-0.061467 -0.492497,-0.16404 -0.499469,-0.1570709 -0.0028,0.00284 0.0017,0.01624 0.0099,0.029652 0.01092,0.017442 0.01148,0.031072 0.002,0.04788 -0.01059,0.018993 -0.008,0.026081 0.01398,0.036948 0.02018,0.010048 0.02812,0.027053 0.03101,0.066665 0.002,0.02927 -0.0017,0.05321 -0.0085,0.05321 -0.01897,0 -0.06459,-0.063378 -0.06459,-0.089743 0,-0.019451 -0.014,-0.013805 -0.08263,0.033169 -0.06336,0.043381 -0.09415,0.056574 -0.132022,0.056574 -0.02716,0 -0.0744,0.00666 -0.104957,0.014853 -0.07294,0.019506 -0.10666,-0.00175 -0.153169,-0.096885 -0.03129,-0.063957 -0.03307,-0.0749 -0.01951,-0.1201243 0.01775,-0.059271 0.05213,-0.084227 0.154652,-0.1122935 l 0.07609,-0.020838 -0.231197,-0.071023 c -0.552412,-0.169705 -0.694311,-0.207735 -1.062165,-0.284647 -0.13157,-0.0275 -0.30111,-0.065267 -0.376755,-0.08391 -0.156811,-0.03864 -0.194072,-0.037319 -0.390499,0.013838 -0.168704,0.043927 -0.558829,0.1830784 -0.739855,0.2638981 -0.167394,0.074736 -0.466302,0.266053 -0.623441,0.399033 -0.208418,0.1763759 -0.503601,0.5074953 -0.777725,0.872406 C 9.9408266,7.9565138 9.8308409,8.1303297 9.6823948,8.4165188 9.5498745,8.6720084 9.4883554,8.7689407 9.2583349,9.084701 9.0802607,9.3291522 9.1001271,9.307783 9.0746329,9.2822877 9.0542204,9.2618753 9.0546682,9.2525264 9.0827148,9.1128896 9.1322114,8.8663404 9.2468935,8.4184049 9.2880362,8.3109169 9.3430372,8.1672086 9.531322,7.7668748 9.626485,7.5912776 9.6708375,7.5094422 9.761384,7.3601409 9.8277009,7.259503 9.9526372,7.069912 10.203734,6.727409 10.229438,6.7115192 c 0.01038,-0.00644 0.0075,-0.016896 -0.0099,-0.036063 -0.04867,-0.053472 -0.04514,-0.1817264 0.0083,-0.3007989 0.01322,-0.029456 0.02826,-0.067714 0.03345,-0.085025 0.0052,-0.017322 0.02524,-0.062985 0.04455,-0.1015052 0.01931,-0.038509 0.0389,-0.090212 0.04353,-0.1148928 l 0.0084,-0.044866 -0.104978,0.016928 c -0.05774,0.00928 -0.161633,0.023023 -0.230883,0.030449 -0.2155129,0.023165 -0.5246941,0.074212 -0.6197064,0.1023133 l -0.090911,0.026878 0.024803,0.03484 c 0.013641,0.019167 0.024803,0.044407 0.024803,0.056093 0,0.011686 0.011337,0.035659 0.025174,0.053265 0.037079,0.047138 0.033202,0.1235013 -0.0095,0.1872101 -0.1079925,0.1611053 -0.3040032,0.3484148 -0.3940593,0.376563 -0.01695,0.00535 -0.049431,0.025862 -0.07217,0.045707 -0.022739,0.019845 -0.04918,0.036074 -0.058736,0.036074 -0.0095,0 -0.061598,0.023416 -0.1156361,0.052063 -0.06091,0.032273 -0.1247234,0.055645 -0.1678931,0.061489 -0.038302,0.00524 -0.088508,0.017158 -0.1115705,0.026627 -0.038389,0.015738 -0.04349,0.015083 -0.060364,-0.00797 -0.01316,-0.017977 -0.01588,-0.039602 -0.0095,-0.075545 0.011795,-0.066709 0.010048,-0.085188 -0.015618,-0.1668184 -0.019135,-0.060899 -0.019844,-0.080339 -0.00601,-0.1631411 0.00863,-0.051703 0.013783,-0.096033 0.011282,-0.098513 -0.00251,-0.00251 -0.056421,0.018348 -0.1198643,0.046253 C 8.1469008,6.7173175 8.1331669,6.727977 7.9857321,6.8793206 7.7528272,7.1184049 7.6262549,7.2825846 7.4524587,7.571041 7.3815339,7.6887615 7.3591228,7.7431422 7.2773693,7.9958271 7.2258086,8.155209 7.1605336,8.3817204 7.1323231,8.4991886 c -0.02821,0.1174681 -0.068183,0.2675197 -0.088814,0.3334445 -0.045019,0.1438362 -0.053778,0.196524 -0.086881,0.5227582 -0.015541,0.153173 -0.037647,0.2961976 -0.056432,0.3651237 -0.048819,0.1791685 -0.1756103,0.53939 -0.1916192,0.544419 -0.0224,0.007 -0.039012,-0.06229 -0.061139,-0.25484 C 6.6112764,9.6953571 6.6046688,9.5555609 6.6165952,9.3577416 6.6344847,9.0608953 6.6533791,8.9163361 6.6982886,8.7321655 6.7210819,8.6386768 6.757429,8.4699351 6.7790537,8.3571731 6.8163072,8.1629492 6.9364369,7.7320906 6.9943617,7.5849737 7.0310473,7.4918017 7.1121018,7.3327376 7.1651665,7.2497806 7.1894342,7.211839 7.2070398,7.1785282 7.2042658,7.175765 7.193781,7.1652803 6.8175446,7.3311125 6.8175446,7.3461307 c 0,0.00415 0.017606,0.015312 0.039132,0.024836 0.041174,0.018228 0.085986,0.09587 0.086499,0.1498954 2.828e-4,0.035397 -0.1068896,0.1536918 -0.1393168,0.1536918 -0.01256,0 -0.027359,0.0071 -0.032896,0.01588 -0.00557,0.00874 -0.039962,0.029597 -0.076506,0.046384 -0.1182195,0.05428 -0.1597619,0.011937 -0.1568645,-0.1598297 8.508e-4,-0.043282 -0.00197,-0.07869 -0.00623,-0.07869 -0.011282,0 -0.3170458,0.1941169 -0.3173035,0.2014486 -1.245e-4,0.00349 0.026572,0.0192 0.059293,0.034971 0.1845791,0.088934 0.2168873,0.1157043 0.2168873,0.1796764 0,0.018687 0.013521,0.045488 0.031476,0.06234 0.041611,0.039099 0.04006,0.08509 -0.00502,0.1472808 -0.045172,0.062351 -0.1401217,0.141381 -0.1788234,0.1488349 -0.015935,0.00306 -0.033038,0.012877 -0.038029,0.021778 -0.01327,0.0237 -0.1665749,0.091468 -0.275486,0.1217636 -0.056781,0.015793 -0.1315963,0.026255 -0.18766,0.026223 -0.089524,-3.71e-5 -0.092408,8.508e-4 -0.072399,0.02299 0.011457,0.012669 0.020838,0.031727 0.020838,0.042365 0,0.048525 -0.1197311,0.1453586 -0.2592401,0.2096594 l -0.064088,0.029543 0.031684,0.059424 0.031683,0.059424 -0.030766,0.055755 c -0.035517,0.064383 -0.074136,0.086564 -0.1674846,0.096208 -0.06103,0.00633 -0.070291,0.00371 -0.1087899,-0.030712 -0.039689,-0.035473 -0.042026,-0.042168 -0.041043,-0.1180241 5.669e-4,-0.044232 0.00939,-0.1042901 0.019615,-0.1334595 0.017038,-0.048612 0.016754,-0.054706 -0.00349,-0.072978 -0.026769,-0.024213 -0.026223,-0.025917 -0.057775,0.1826733 -0.024923,0.1646472 -0.030362,0.5239038 -0.012898,0.849854 0.011621,0.2169867 0.010485,0.2304912 -0.056585,0.6484064 -0.021657,0.135032 -0.046144,0.252772 -0.054411,0.261644 C 4.98472,10.634154 4.9610966,10.58753 4.8471125,10.281038 4.7146009,9.9247333 4.6864091,9.8178634 4.6573457,9.5616224 L 4.6350327,9.3649542 4.5818337,9.4357152 C 4.5250847,9.5112052 4.4483862,9.5792991 4.404369,9.5932678 4.380494,9.6008078 4.37902,9.6058818 4.391208,9.6381558 4.404084,9.6722418 4.400378,9.6796688 4.332221,9.75732 4.248594,9.852567 4.218144,9.8617631 4.2057164,9.795513 4.2011264,9.770983 4.2006964,9.740326 4.2048667,9.727395 4.2114167,9.706644 4.2068367,9.704602 4.1646207,9.710019 4.0999317,9.718319 4.0766697,9.69723 4.0540003,9.609737 4.0319713,9.524713 4.0302463,9.4728164 4.0474503,9.4128024 c 0.00677,-0.023733 0.010266,-0.045292 0.00765,-0.047913 -0.00251,-0.00251 -0.038761,0.046067 -0.080306,0.1081892 C 3.9114053,9.5678346 3.8949353,9.6043833 3.87247,9.700065 l -0.026769,0.1140399 0.026288,0.079105 c 0.01446,0.043512 0.065595,0.1449681 0.1136401,0.2254631 0.048044,0.08049 0.1057537,0.185311 0.1282281,0.232924 0.04041,0.08559 0.041458,0.0866 0.093139,0.08882 0.069385,0.0031 0.1532233,0.04685 0.1690213,0.0884 0.00688,0.01815 0.013182,0.06182 0.013947,0.09706 0.00175,0.0721 -0.012451,0.3044 -0.022629,0.374437 -0.00655,0.04551 -0.00612,0.04604 0.045292,0.05474 0.085833,0.01451 0.3859478,0.172682 0.4912133,0.258902 0.051932,0.04254 0.1363679,0.100413 0.1876262,0.128614 0.1047052,0.05759 0.1904789,0.137235 0.3325916,0.3088 0.1253273,0.151295 0.2027045,0.307499 0.228877,0.462035 0.017212,0.101549 0.018228,0.102608 0.054608,0.05531 0.1325257,-0.172318 0.3789384,-0.375387 0.5749436,-0.473801 0.041546,-0.02087 0.1322003,-0.05867 0.2014486,-0.08402 0.069243,-0.02535 0.1740627,-0.06557 0.2329223,-0.08939 0.1407377,-0.05694 0.2167792,-0.08286 0.4658469,-0.158795 0.1142583,-0.03483 0.2728965,-0.08915 0.3525312,-0.120718 0.3184481,-0.126214 0.554624,-0.173004 0.8750348,-0.173362 0.2271382,-2.55e-4 0.2228854,-0.0014 0.5838486,0.148952 l 0.1683671,0.07009 0.046766,-0.02384 c 0.059009,-0.0301 0.2146385,-0.0696 0.3515733,-0.08924 0.1725064,-0.02473 0.616271,-0.0087 0.882805,0.03177 0.327335,0.04978 0.573396,0.102728 0.805787,0.173371 0.114258,0.03473 0.270064,0.07986 0.346237,0.100271 0.07617,0.02041 0.291469,0.08439 0.478437,0.142167 0.186969,0.05778 0.524077,0.15996 0.749131,0.227074 0.565251,0.168568 0.857437,0.266027 1.077505,0.359404 0.208417,0.08843 1.248869,0.609239 1.412907,0.707243 0.128109,0.07654 0.351326,0.24357 0.650903,0.487065 0.124645,0.101309 0.32414,0.262044 0.443322,0.357187 0.239008,0.190797 0.280528,0.235104 0.280828,0.299682 1.97e-4,0.03984 0.01194,0.05225 0.16602,0.175078 0.09119,0.07272 0.228522,0.191689 0.30516,0.2644 0.07664,0.07272 0.189758,0.177524 0.251374,0.232923 0.06162,0.05539 0.174074,0.168712 0.249898,0.251808 0.07583,0.08309 0.26814,0.27769 0.427359,0.432432 0.257899,0.250635 0.308954,0.294063 0.467718,0.397831 0.359161,0.234752 0.400794,0.246986 0.685116,0.201361 z m 3.661209,-0.78672 c -0.04709,-0.0235 -0.0693,-0.04435 -0.06973,-0.06549 -2.84e-4,-0.01914 0.02747,-0.0084 0.08168,0.03148 0.08258,0.06073 0.07646,0.07812 -0.01197,0.03401 z m -0.05061,-0.112006 c -0.01217,-0.01968 0.0038,-0.03847 0.03271,-0.03847 0.01732,0 0.02402,0.007 0.02116,0.02189 -0.0048,0.0251 -0.0416,0.03641 -0.05385,0.01659 z M 22.126301,14.34801 c -0.01121,-0.0068 -0.02778,-0.0301 -0.03685,-0.05197 -0.01469,-0.03547 -0.01395,-0.04161 0.0071,-0.05696 0.01293,-0.0095 0.05094,-0.01721 0.08446,-0.01721 0.07511,0 0.08843,0.02271 0.05117,0.08722 -0.02713,0.04695 -0.06756,0.06182 -0.10583,0.03889 z m -4.737837,-0.271545 c -0.07587,-0.187136 -0.104257,-0.339016 -0.06182,-0.330785 0.02509,0.0049 0.03244,0.02812 0.06118,0.194026 0.02149,0.124075 0.0218,0.188981 5.67e-4,0.136759 z m 0.148837,-0.04853 c -0.0037,-0.0097 -0.0049,-0.03664 -0.0028,-0.05981 0.0036,-0.03731 0.0087,-0.04256 0.04495,-0.04607 0.04942,-0.0048 0.05415,0.01985 0.01588,0.08263 -0.02665,0.04372 -0.04708,0.05189 -0.05807,0.02322 z M 21.898,13.694149 c -0.05167,-0.04537 -0.1156,-0.179056 -0.105284,-0.22017 0.0156,-0.06213 0.159962,-0.07998 0.235639,-0.02913 0.05875,0.03948 0.06367,0.111569 0.01435,0.210471 -0.04318,0.08661 -0.07927,0.09628 -0.144715,0.03883 z m -0.332326,-0.09872 c -0.03767,-0.03058 -0.08284,-0.125329 -0.07361,-0.154417 0.0049,-0.01565 0.02382,-0.02674 0.05413,-0.03179 0.02558,-0.0043 0.05217,-0.0094 0.0591,-0.01131 0.0069,-0.002 0.02818,0.0044 0.04721,0.01395 0.04313,0.02178 0.04481,0.06321 0.0058,0.142739 -0.03113,0.06341 -0.05294,0.07302 -0.0926,0.04082 z m -0.149948,-1.044273 c -0.02611,-0.02611 -0.02242,-0.07816 0.01016,-0.142759 0.02544,-0.05041 0.03285,-0.05618 0.0724,-0.05618 0.04273,0 0.04418,0.0017 0.0479,0.05267 0.0076,0.104596 -0.07712,0.199597 -0.130445,0.146266 z m -0.16474,-0.19579 c -0.03761,-0.04253 -0.06187,-0.08568 -0.07965,-0.141641 -0.009,-0.02816 -0.03722,-0.0698 -0.06412,-0.09443 -0.05651,-0.05175 -0.125152,-0.177017 -0.125152,-0.228401 0,-0.05279 0.03415,-0.07851 0.129349,-0.09744 0.0795,-0.01579 0.08826,-0.0152 0.141378,0.0098 0.05244,0.02464 0.05663,0.03014 0.05663,0.07426 0,0.04473 -0.03619,0.168891 -0.0546,0.187299 -0.01489,0.01489 -0.0088,0.02933 0.01219,0.02933 0.01131,0 0.03962,0.02025 0.06295,0.04496 0.05031,0.05335 0.05339,0.08892 0.01554,0.179986 -0.02995,0.07207 -0.05454,0.08152 -0.09453,0.0363 z M 5.7476448,11.308094 c 0,-0.01358 -0.011904,-0.01974 -0.038171,-0.01974 -0.048961,0 -0.1296457,-0.03346 -0.1196569,-0.04963 0.019506,-0.03154 0.1858799,-0.05182 0.2026445,-0.02469 0.00524,0.0085 0.030766,-0.0078 0.06684,-0.04272 0.061204,-0.05931 0.1234138,-0.09678 0.1615596,-0.0973 0.015083,-2.1e-4 0.057928,-0.05494 0.1281451,-0.163672 0.058015,-0.08984 0.1263343,-0.182191 0.1518122,-0.205208 0.057906,-0.05232 0.360909,-0.241338 0.4500837,-0.280777 0.2209163,-0.09769 0.9084822,-0.222588 0.9404704,-0.170828 0.00568,0.0092 0.041327,-2.83e-4 0.1078178,-0.02876 0.2376918,-0.101735 0.4047461,-0.141412 0.7712438,-0.183167 0.2848169,-0.03245 0.5332315,-0.03841 0.5795455,-0.01389 0.028036,0.01483 0.05345,0.01412 0.1800106,-0.005 0.2539071,-0.038379 0.7853019,-0.0044 0.9049049,0.05793 0.02839,0.01478 0.07928,0.04082 0.11309,0.05787 0.09774,0.04927 0.06637,0.05978 -0.194332,0.0652 -0.3380578,0.007 -0.6056135,-0.01528 -0.811956,-0.06772 l -0.1692201,-0.043 -0.041032,0.02382 c -0.1491516,0.08657 -0.7735084,0.199191 -1.2608031,0.227437 -0.234091,0.01357 -0.2384148,0.01435 -0.2832861,0.0502 -0.2565884,0.205087 -0.3277709,0.258858 -0.4362789,0.329575 -0.069024,0.04499 -0.1864303,0.124613 -0.2609078,0.176955 -0.074474,0.05234 -0.1939575,0.124775 -0.2655135,0.160961 L 6.49455,11.12774 6.2753353,11.14197 6.0561185,11.1562 5.9679815,11.21444 c -0.1445504,0.09552 -0.2203319,0.127749 -0.2203319,0.0937 z m 14.0598622,-0.04429 c -0.05429,-0.04767 -0.127778,-0.190008 -0.116478,-0.225611 0.01491,-0.04698 0.131588,-0.06626 0.196841,-0.03252 0.06577,0.03401 0.08139,0.134147 0.03706,0.237569 -0.02977,0.06945 -0.05642,0.07411 -0.117415,0.02055 z M 5.4499302,11.225189 c -0.047094,-0.01846 -0.1104958,-0.09263 -0.1618906,-0.189385 -0.048284,-0.09089 -0.04977,-0.09742 -0.050032,-0.219316 -2.632e-4,-0.108757 0.00251,-0.126207 0.021319,-0.129889 0.025939,-0.0051 0.217394,0.174522 0.2454974,0.230342 0.010485,0.02078 0.034742,0.05477 0.053964,0.07554 0.025775,0.02784 0.037122,0.05605 0.043217,0.107381 0.00786,0.06596 0.00644,0.07097 -0.026911,0.0955 -0.044189,0.03252 -0.090256,0.0435 -0.1251548,0.02982 z m 0.011544,-0.456676 c -0.066021,-0.06958 -0.078952,-0.109107 -0.078952,-0.24125 0,-0.06613 0.00502,-0.120236 0.011227,-0.120236 0.017016,0 0.046449,0.08398 0.064022,0.182563 0.00863,0.04847 0.026397,0.106868 0.039481,0.12977 0.045445,0.07961 0.022739,0.110817 -0.035779,0.04915 z M 18.482106,10.196138 c -0.106824,-0.08282 -0.148563,-0.133554 -0.224789,-0.2732243 -0.111791,-0.2048451 -0.127383,-0.3137333 -0.0546,-0.3813575 0.02663,-0.024726 0.192549,-0.072148 0.299041,-0.085451 0.02425,-0.00306 0.0724,-0.011424 0.10702,-0.018654 0.125299,-0.026168 0.174761,-0.02773 0.223261,-0.0071 0.05549,0.023591 0.06667,0.054379 0.04843,0.1335448 -0.0071,0.030941 -0.01309,0.078089 -0.01327,0.1047925 -5.67e-4,0.068992 -0.03566,0.1962095 -0.06445,0.2328099 -0.01421,0.018064 -0.02135,0.040792 -0.01707,0.05428 0.0041,0.013095 -0.0032,0.038269 -0.01673,0.05783 -0.01327,0.01903 -0.03043,0.05327 -0.03816,0.07609 -0.02166,0.06392 -0.06485,0.116986 -0.11087,0.136215 -0.05983,0.02501 -0.07002,0.02279 -0.137797,-0.02975 z m 0.806384,0.03435 c -0.0044,-0.0071 -0.038,-0.03506 -0.07471,-0.06219 -0.06496,-0.04799 -0.08102,-0.07107 -0.192467,-0.2766232 -0.04115,-0.075894 -0.05009,-0.160711 -0.02294,-0.2178953 0.01906,-0.040148 0.02979,-0.046886 0.105393,-0.066141 0.101243,-0.025775 0.200232,-0.043927 0.286461,-0.052489 0.05645,-0.00557 0.06731,-0.00251 0.09443,0.025939 0.01684,0.017748 0.04212,0.032382 0.05617,0.032514 0.0473,2.839e-4 0.0815,0.035692 0.0815,0.084118 0,0.035364 0.0042,0.043129 0.01968,0.037144 0.01081,-0.00415 0.03633,0.00109 0.05666,0.011566 0.031,0.016022 0.03698,0.026791 0.03698,0.066643 0,0.026146 -0.0049,0.052904 -0.01098,0.059479 -0.006,0.00655 -0.0146,0.027446 -0.01908,0.046373 -0.0081,0.034239 -0.0079,0.03437 0.04685,0.026878 0.07633,-0.010485 0.109085,0.00928 0.109085,0.065846 0,0.06536 -0.05759,0.179513 -0.09533,0.188989 -0.08211,0.02061 -0.126492,-0.03545 -0.11584,-0.14629 0.0043,-0.0446 0.0014,-0.06281 -0.0095,-0.06281 -0.0085,0 -0.02254,-0.00852 -0.03117,-0.018883 -0.02297,-0.027675 -0.05036,-0.023023 -0.05036,0.00852 0,0.044254 -0.08841,0.2103115 -0.126363,0.2373355 -0.03729,0.02654 -0.130714,0.03429 -0.144505,0.01199 z M 7.211284,9.3662768 c -0.036358,-0.014657 -0.013663,-0.053964 0.05665,-0.098141 0.077926,-0.04894 0.1146526,-0.05072 0.1585224,-0.00765 0.019593,0.019222 0.020729,0.026681 0.00721,0.048306 -0.031531,0.050491 -0.1584601,0.083332 -0.2223819,0.057535 z M 7.2530918,9.0408105 C 7.1947815,9.0055228 7.1875514,8.994219 7.1623444,8.899115 7.1418773,8.8218994 7.1439415,8.775143 7.1752209,8.6065979 7.2241714,8.3427107 7.3224362,8.2149512 7.4453116,8.2554353 7.5729717,8.2974943 7.6252654,8.3510533 7.640976,8.4558299 7.652029,8.5294849 7.627936,8.6999458 7.598229,8.7581338 7.568206,8.8169788 7.389653,9.0174219 7.3403552,9.0476212 c -0.037254,0.022826 -0.038444,0.022739 -0.087242,-0.00677 z m 10.0382242,-0.61882 c -0.07657,-0.082294 -0.122971,-0.2298436 -0.09959,-0.3166658 0.02521,-0.093587 0.052,-0.110581 0.220289,-0.1396815 0.05215,-0.00906 0.07056,-0.00655 0.113311,0.015399 0.02807,0.014373 0.0552,0.032131 0.06029,0.039427 0.0406,0.058256 -0.058,0.3541792 -0.134774,0.4044818 -0.01698,0.01114 -0.05236,0.023055 -0.07859,0.026507 -0.04047,0.00535 -0.05272,8.508e-4 -0.08093,-0.029466 z m -0.337425,-0.028374 c -0.03893,-0.054673 -0.04673,-0.1091066 -0.01783,-0.1245213 0.03226,-0.017212 0.08087,-0.021548 0.114656,-0.010266 0.03414,0.011424 0.03622,0.042955 0.0078,0.1175413 -0.02546,0.066643 -0.06475,0.07312 -0.104552,0.017212 z m 0.824371,-0.090955 c -0.06005,-0.071351 -0.01531,-0.1416616 0.07563,-0.118841 0.03656,0.00917 0.0408,0.047443 0.0127,0.1147093 -0.0226,0.054062 -0.04541,0.055132 -0.08832,0.00415 z M 16.323186,8.2301965 C 16.285636,8.2153975 16.098641,8.0650961 16.07506,8.0307674 16.0619,8.0116324 16.02321,7.9477964 15.98908,7.8889353 15.92966,7.7864582 15.92694,7.7776401 15.92528,7.6811927 c -8.51e-4,-0.055394 -0.0058,-0.1186138 -0.01081,-0.1404821 -0.0074,-0.032819 -0.0045,-0.042223 0.01735,-0.053887 0.04231,-0.022629 0.108867,-0.019331 0.15463,0.00765 0.03829,0.022597 0.05262,0.023875 0.148265,0.013161 l 0.105874,-0.011883 0.104443,0.05345 c 0.138493,0.07087 0.147034,0.085298 0.140731,0.2375498 -0.0034,0.080634 -0.01222,0.1353817 -0.02656,0.1639209 -0.01185,0.023558 -0.02158,0.051026 -0.02158,0.061008 0,0.00994 -0.01038,0.033202 -0.02299,0.051583 -0.01265,0.01837 -0.03016,0.051419 -0.03893,0.073426 -0.0087,0.022007 -0.02597,0.049093 -0.03824,0.060189 -0.02821,0.025513 -0.0891,0.043271 -0.114326,0.033322 z M 7.4011382,8.1963288 c -0.013586,-0.035419 0.00765,-0.2074445 0.032514,-0.26373 0.026965,-0.060964 0.1085933,-0.1139721 0.1568579,-0.1018655 0.024803,0.00623 0.026594,0.00251 0.022629,-0.047367 -0.00535,-0.067659 0.041983,-0.3564957 0.070051,-0.4271758 0.027075,-0.068205 0.063902,-0.1331756 0.096809,-0.1708332 0.027501,-0.031454 0.1635015,-0.1021932 0.1965295,-0.1022041 0.010594,-6.6e-6 0.060626,0.019823 0.1111937,0.044058 0.050578,0.024246 0.098786,0.044069 0.1071407,0.044069 0.00841,0 0.034807,0.016754 0.05878,0.037254 0.023984,0.0205 0.053767,0.037494 0.066196,0.037767 0.033857,8.507e-4 0.084413,0.057775 0.084413,0.095203 0,0.018086 0.014176,0.051462 0.031476,0.074158 0.017322,0.022684 0.031476,0.052631 0.031476,0.066523 0,0.064896 -0.2158978,0.2876745 -0.323056,0.3333485 -0.019681,0.00841 -0.047105,0.024923 -0.060953,0.036718 -0.04302,0.036675 -0.277513,0.1374033 -0.3198636,0.1374033 -0.022116,0 -0.056934,-0.00863 -0.077358,-0.019222 -0.034032,-0.017606 -0.037144,-0.017442 -0.037144,0.00197 0,0.046744 -0.1820103,0.2438526 -0.2251713,0.2438526 -0.00819,0 -0.018283,-0.00896 -0.022488,-0.019965 z M 15.410292,8.149224 c -0.03712,-0.014318 -0.08879,-0.051146 -0.17822,-0.1269612 -0.02375,-0.020161 -0.0577,-0.065475 -0.07539,-0.1007297 -0.01769,-0.035244 -0.03389,-0.065999 -0.03598,-0.068336 -0.002,-0.00229 -0.02115,0.00863 -0.04236,0.024268 -0.03509,0.025939 -0.04158,0.026911 -0.07185,0.010703 -0.01832,-0.00983 -0.04486,-0.041633 -0.059,-0.070739 -0.03136,-0.064547 -0.01954,-0.085396 0.05839,-0.1028922 0.04992,-0.011195 0.05048,-0.011828 0.01176,-0.013095 -0.04307,-0.00142 -0.197745,-0.055296 -0.225923,-0.078679 -0.03226,-0.026769 -0.01695,-0.046438 0.04684,-0.060123 0.03496,-0.00754 0.09497,-0.013641 0.13336,-0.013641 0.05041,0 0.07856,-0.00688 0.101385,-0.024836 0.01738,-0.013663 0.05227,-0.028298 0.07753,-0.032524 0.02526,-0.00426 0.07143,-0.015509 0.102598,-0.025065 0.03116,-0.0095 0.09915,-0.02098 0.151086,-0.025371 0.08654,-0.00732 0.09817,-0.00546 0.139336,0.022793 0.02469,0.016929 0.06083,0.034774 0.08031,0.039656 0.01947,0.00491 0.05166,0.025152 0.07155,0.045041 0.03201,0.032011 0.03616,0.045084 0.03616,0.1138793 0,0.078996 -0.02978,0.2073768 -0.05119,0.2206028 -0.0064,0.00404 -0.0118,0.019681 -0.01182,0.034862 -1.33e-4,0.038116 -0.08374,0.1990523 -0.11726,0.2256027 -0.03144,0.02489 -0.08576,0.027053 -0.141299,0.00557 z M 8.6213517,7.8857824 c -0.023984,-0.02998 -0.028429,-0.068074 -0.015902,-0.1361779 0.00972,-0.052784 0.021799,-0.076287 0.052959,-0.1028813 0.085079,-0.072629 0.1608832,-0.071842 0.2787423,0.00284 0.050851,0.032251 0.059053,0.042736 0.051932,0.066403 -0.024159,0.08023 -0.1918408,0.1854943 -0.2954949,0.1854943 -0.032808,0 -0.065311,-0.0071 -0.072235,-0.015738 z M 12.231722,7.428533 c -0.05734,-0.040126 -0.137763,-0.1841968 -0.138183,-0.2475245 -2.83e-4,-0.058409 0.02425,-0.075348 0.141361,-0.097278 0.07901,-0.014799 0.08902,-0.014034 0.141641,0.010703 0.05406,0.025404 0.05663,0.02904 0.05655,0.080066 -4e-5,0.02939 -0.0085,0.069669 -0.01888,0.089502 -0.01038,0.019845 -0.0188,0.043741 -0.0188,0.053123 0,0.01659 -0.04441,0.1041591 -0.061,0.1202859 -0.02356,0.022914 -0.06202,0.019593 -0.102684,-0.00885 z m 0.546421,-0.090627 c -0.02047,-0.013663 -0.0428,-0.060593 -0.0428,-0.089939 0,-0.033507 0.067,-0.068981 0.109949,-0.058201 0.02888,0.00721 0.03109,0.012451 0.02489,0.05866 -0.0098,0.073579 -0.05301,0.1155306 -0.09204,0.089481 z M 13.46493,7.1220429 c -0.01027,-0.00404 -0.0498,-0.031127 -0.08777,-0.060102 -0.05886,-0.04491 -0.07971,-0.073251 -0.141388,-0.1922657 -0.0768,-0.14816 -0.0861,-0.1937652 -0.05144,-0.2524239 0.01792,-0.030329 0.03705,-0.039165 0.133529,-0.061663 0.06194,-0.01446 0.117293,-0.023361 0.123006,-0.019845 0.0057,0.00349 0.01395,5.68e-4 0.01828,-0.00633 0.01393,-0.022542 0.05322,-0.013892 0.144098,0.031716 0.06646,0.033354 0.09071,0.052576 0.09677,0.076669 0.01279,0.05096 -0.0028,0.1728941 -0.02827,0.2198689 -0.01276,0.023623 -0.02368,0.051451 -0.02425,0.061849 -5.67e-4,0.010376 -0.01863,0.05605 -0.04016,0.1014615 -0.0327,0.069002 -0.04609,0.084708 -0.08142,0.095553 -0.02325,0.0071 -0.05072,0.00961 -0.06102,0.00557 z M 12.349345,6.8089321 c -0.02187,-0.018851 -0.05418,-0.044232 -0.0718,-0.056432 -0.01764,-0.012189 -0.04627,-0.050501 -0.06366,-0.085123 -0.01738,-0.034621 -0.04653,-0.088377 -0.06473,-0.1194635 -0.02137,-0.036478 -0.03552,-0.082917 -0.03988,-0.1309869 -0.0061,-0.067146 -0.0037,-0.077532 0.02432,-0.105568 0.02107,-0.021068 0.05203,-0.033977 0.09607,-0.040028 0.03574,-0.00491 0.06772,-0.013412 0.0711,-0.018851 0.0034,-0.00546 0.04729,-0.013696 0.09758,-0.018315 0.08742,-0.00797 0.09547,-0.00644 0.181787,0.036336 0.108145,0.053548 0.125299,0.086543 0.111581,0.2146352 -0.0085,0.079083 -0.08056,0.2450355 -0.130422,0.3002517 -0.05969,0.066097 -0.150819,0.076211 -0.211965,0.023536 z m -0.547442,-0.018971 c -0.0394,-0.03306 -0.11157,-0.164692 -0.11157,-0.2035073 0,-0.015028 0.0071,-0.036423 0.01574,-0.047585 0.01786,-0.023055 0.09741,-0.047301 0.155447,-0.0474 0.05093,-8.51e-5 0.11802,0.033879 0.11979,0.060658 0.0039,0.060232 -0.0073,0.1102839 -0.04304,0.1910829 -0.03552,0.080274 -0.07876,0.095105 -0.136365,0.046755 z m 1.212301,-0.047454 c -0.04003,-0.024322 -0.102597,-0.1306155 -0.102597,-0.1742494 0,-0.036402 0.03067,-0.060855 0.08861,-0.070641 0.06396,-0.010812 0.123383,0.011937 0.139081,0.053232 0.01519,0.039995 0.01474,0.1376643 -8.49e-4,0.1666884 -0.0068,0.012669 -0.0288,0.028767 -0.04893,0.03579 -0.0293,0.010157 -0.04434,0.00808 -0.07537,-0.010812 z M 9.5079935,6.4181754 c -0.046307,-0.051168 -0.0365,-0.168852 0.01469,-0.1763398 0.03342,-0.00491 0.1094648,0.039918 0.1357018,0.079968 0.024017,0.036653 0.00786,0.066021 -0.053505,0.097202 -0.054706,0.027785 -0.0711,0.027675 -0.096874,-8.508e-4 z m 7.9029855,9.6613216 c 0.06043,-0.05601 0.07948,-0.158267 0.03401,-0.1826 -0.05578,-0.02985 -0.183281,-0.0031 -0.204213,0.04285 -0.01798,0.03945 0.01616,0.110878 0.06925,0.144885 0.05108,0.03272 0.06062,0.03224 0.100948,-0.0051 z m -6.929327,-0.06709 c 0.08225,-0.04049 0.148972,-0.08968 0.18408,-0.135708 l 0.035,-0.04589 -0.02455,-0.04582 c -0.02967,-0.05537 -0.130207,-0.11444 -0.19548,-0.114866 -0.06225,-2.83e-4 -0.09629,0.03933 -0.113657,0.132711 -0.01522,0.08189 -0.0079,0.187 0.015,0.214564 0.01902,0.02294 0.0456,0.0216 0.09962,-0.005 z M 6.3393978,15.98236 c 0.061609,-0.02243 0.1996028,-0.126592 0.2141253,-0.161647 0.043523,-0.105065 -0.022629,-0.127324 -0.1658038,-0.0558 -0.1169636,0.05843 -0.1601584,0.09101 -0.2033653,0.153354 -0.050982,0.07357 -0.037363,0.09528 0.052795,0.08423 0.038924,-0.0048 0.084937,-0.01384 0.1022588,-0.02013 z m 0.7264096,-0.06203 c 0.058551,-0.114457 0.023645,-0.181108 -0.08118,-0.155069 -0.075403,0.01874 -0.087351,0.10702 -0.02773,0.204779 0.024017,0.03938 0.027446,0.04092 0.053134,0.02388 0.015115,-0.01005 0.040202,-0.04314 0.055766,-0.07358 z m 4.7441376,0.04565 c 0.0277,-0.01695 0.06255,-0.03632 0.07744,-0.04307 0.03346,-0.01517 0.09252,-0.09081 0.09252,-0.118516 0,-0.01126 -0.01224,-0.04395 -0.02722,-0.07267 -0.02246,-0.04307 -0.04278,-0.05968 -0.116106,-0.09482 -0.105667,-0.05063 -0.120599,-0.05183 -0.157423,-0.01265 -0.04218,0.0449 -0.06755,0.215696 -0.04377,0.294704 0.0096,0.03192 0.0245,0.06249 0.03306,0.06794 0.02968,0.01885 0.09136,0.0097 0.141493,-0.02093 z M 9.8206554,15.95339 c 0.027697,-0.01695 0.062198,-0.03618 0.076659,-0.04278 0.034403,-0.01568 0.093314,-0.08613 0.093314,-0.111606 0,-0.011 -0.00939,-0.04129 -0.020893,-0.06734 -0.017464,-0.03957 -0.035353,-0.05402 -0.1088008,-0.08787 -0.1361124,-0.06273 -0.1699114,-0.03996 -0.1978106,0.133312 -0.014427,0.08966 -8.508e-4,0.175239 0.031094,0.197865 0.025174,0.01775 0.07644,0.009 0.1264325,-0.02158 z m 5.4465066,-0.01984 c 0.07443,-0.04447 0.136478,-0.107436 0.137011,-0.139022 5.67e-4,-0.03414 -0.03724,-0.09766 -0.07355,-0.123507 -0.01902,-0.01355 -0.06481,-0.03611 -0.101767,-0.05015 -0.07612,-0.02892 -0.102674,-0.02212 -0.131218,0.03361 -0.02302,0.04493 -0.0377,0.177342 -0.02682,0.241789 0.01709,0.101188 0.07195,0.111604 0.196332,0.03729 z M 6.1672235,15.81837 c 0.132245,-0.133158 0.203255,-0.250001 0.1951064,-0.321029 -0.0036,-0.03139 -0.0095,-0.03561 -0.054411,-0.03851 -0.1136969,-0.0074 -0.1683584,0.05899 -0.2834249,0.344086 -0.085101,0.210855 -0.054619,0.214156 0.1427243,0.01545 z m 7.2937085,0.08394 c 0.17791,-0.0995 0.190148,-0.21558 0.03024,-0.286924 -0.04152,-0.01851 -0.0831,-0.03368 -0.09241,-0.03368 -0.06444,0 -0.128088,0.200537 -0.09545,0.300713 0.02569,0.0788 0.04738,0.08154 0.157618,0.0199 z m 3.857072,-0.08089 c 0.01398,-0.02741 0.02544,-0.0611 0.02544,-0.07482 0,-0.01373 0.01168,-0.04478 0.02599,-0.069 0.01713,-0.02904 0.02464,-0.06038 0.02203,-0.092 -0.0035,-0.04209 -0.0083,-0.04846 -0.03938,-0.05202 -0.01951,-0.0023 -0.0498,0.0054 -0.06737,0.01687 -0.03199,0.02096 -0.03542,0.05302 -0.0116,0.108244 0.007,0.01616 -0.0014,0.02194 -0.04145,0.02835 -0.06281,0.01005 -0.07461,0.03957 -0.0409,0.102444 0.02592,0.04833 0.06028,0.08074 0.08634,0.08142 0.0085,1.96e-4 0.02693,-0.02203 0.04092,-0.04946 z m 0.276371,-0.03617 c 0.01863,-0.04496 0.01276,-0.193419 -0.008,-0.200241 -0.01894,-0.0062 -0.07932,0.110731 -0.07932,0.153651 0,0.03068 0.03852,0.08226 0.06142,0.08226 0.0061,0 0.01772,-0.01604 0.02583,-0.03567 z m -9.26473,-0.176271 c 0.040279,-0.02555 0.06779,-0.05733 0.096896,-0.111929 0.022346,-0.04194 0.04065,-0.08708 0.04065,-0.100304 0,-0.01322 0.00623,-0.03032 0.013947,-0.038 0.00765,-0.0076 0.016929,-0.05121 0.020587,-0.09674 0.00699,-0.08773 -0.00579,-0.120971 -0.046722,-0.120971 -0.011937,0 -0.032383,-0.01183 -0.045456,-0.02626 -0.020751,-0.02294 -0.032579,-0.02521 -0.093227,-0.0178 -0.078712,0.0096 -0.2234479,0.04723 -0.26309,0.06845 -0.034938,0.01871 -0.064426,0.07764 -0.064667,0.129242 -2.6e-4,0.06266 0.085003,0.220862 0.1563883,0.290099 0.073306,0.0711 0.1043775,0.07518 0.1847003,0.02425 z m 6.289604,-0.08439 c 0.04378,-0.0245 0.09412,-0.06355 0.111863,-0.08682 l 0.03226,-0.0423 -0.02645,-0.05075 c -0.03033,-0.05819 -0.05719,-0.07847 -0.145469,-0.109822 -0.07927,-0.02816 -0.124084,-0.01809 -0.156433,0.0351 -0.06954,0.114338 -0.02555,0.299093 0.07121,0.299093 0.01837,0 0.06923,-0.02004 0.113017,-0.04452 z m -5.3103734,-0.02169 c 0.078679,-0.04684 0.10571,-0.07972 0.07916,-0.09628 -0.055252,-0.03448 -0.2889817,-0.04581 -0.3625538,-0.01757 -0.042714,0.01638 0.00819,0.130402 0.068555,0.153654 0.05392,0.02075 0.1398672,0.0048 0.2148428,-0.03981 z m -3.821385,0.02923 c 0.033879,-0.01288 0.096481,-0.07464 0.096481,-0.09518 0,-0.0071 0.014176,-0.03943 0.031476,-0.07195 0.017322,-0.03252 0.031476,-0.07169 0.031476,-0.08704 0,-0.01533 0.00786,-0.03686 0.017409,-0.04779 0.02761,-0.03151 0.058125,-0.155485 0.058125,-0.236197 0,-0.08963 -0.02192,-0.125801 -0.083222,-0.137301 -0.024606,-0.0046 -0.058867,-0.02254 -0.076134,-0.03981 -0.027053,-0.02702 -0.038739,-0.03029 -0.083965,-0.02331 -0.028899,0.0045 -0.069549,0.01049 -0.090321,0.01338 -0.020784,0.0028 -0.090769,0.01835 -0.1555484,0.03429 -0.1140486,0.0281 -0.1185767,0.03057 -0.1430083,0.07846 -0.041174,0.08071 -0.024071,0.140247 0.1118545,0.389342 0.025862,0.04738 0.062985,0.09837 0.082523,0.113314 0.019539,0.01494 0.061237,0.04843 0.092648,0.0744 0.062603,0.05173 0.065114,0.05254 0.1101955,0.03541 z m 1.7923689,-0.16013 c 0.037712,-0.02446 0.061237,-0.05406 0.087504,-0.110167 0.019757,-0.0422 0.036008,-0.0831 0.036118,-0.0909 9.72e-5,-0.0078 0.00677,-0.02764 0.01469,-0.04407 0.064317,-0.132433 0.051681,-0.262812 -0.025458,-0.262812 -0.014067,0 -0.038127,-0.01179 -0.053494,-0.02622 -0.025491,-0.02396 -0.034337,-0.0251 -0.101538,-0.0133 -0.2596933,0.04565 -0.3135574,0.08056 -0.303906,0.196908 0.00732,0.08834 0.1176833,0.286379 0.1906263,0.342076 0.064787,0.04948 0.090125,0.05085 0.1554578,0.0085 z m 5.4590465,-0.150723 c 0.03613,-0.01821 0.06757,-0.03803 0.06988,-0.04407 0.0023,-0.006 0.01176,-0.01098 0.02103,-0.01098 0.02228,0 0.128339,-0.106671 0.138792,-0.13961 0.0049,-0.01551 8.5e-4,-0.03434 -0.01049,-0.04701 -0.01027,-0.01162 -0.02078,-0.03243 -0.02334,-0.04622 -0.005,-0.02736 -0.172296,-0.118012 -0.219778,-0.119092 -0.03817,-8.51e-4 -0.089,0.04344 -0.104246,0.09087 -0.02974,0.09255 -0.04132,0.215339 -0.02523,0.267352 0.01619,0.05229 0.04174,0.08183 0.07079,0.08183 0.0093,0 0.04645,-0.01489 0.08258,-0.03308 z m -1.73373,-0.149095 c 0.07911,-0.03305 0.189195,-0.111409 0.223416,-0.159019 l 0.03343,-0.04651 -0.02821,-0.05888 c -0.02517,-0.05255 -0.03835,-0.06365 -0.122617,-0.103351 -0.104694,-0.04932 -0.136686,-0.04778 -0.177811,0.0085 -0.02985,0.04089 -0.05454,0.195115 -0.04326,0.270282 0.0075,0.05029 0.04162,0.107436 0.06408,0.107436 0.0037,0 0.02663,-0.0083 0.05098,-0.01851 z m 5.046791,-0.08355 c 0.0213,-0.01295 0.05056,-0.02879 0.06502,-0.03521 0.02705,-0.01199 0.09331,-0.08371 0.09331,-0.100992 0,-0.0054 -0.0088,-0.02741 -0.01965,-0.04908 -0.0218,-0.04369 -0.06094,-0.07396 -0.140096,-0.108364 -0.09803,-0.04261 -0.140153,-0.0075 -0.166717,0.13899 -0.01503,0.08295 -0.002,0.148687 0.0351,0.178372 0.02419,0.01931 0.07807,0.0097 0.133028,-0.02373 z m 3.003773,0.01393 c -0.04305,-0.01378 -0.07615,-0.01378 -0.04407,0 0.01384,0.006 0.03651,0.0107 0.05036,0.01049 0.02025,-2.84e-4 0.01899,-0.0023 -0.0063,-0.01049 z m -2.305158,-0.05837 c 0.07442,-0.04275 0.11442,-0.07936 0.11442,-0.104705 0,-0.03565 -0.03712,-0.07468 -0.09563,-0.100566 -0.04657,-0.02061 -0.06145,-0.02242 -0.08143,-0.0099 -0.05188,0.0324 -0.07376,0.199558 -0.0303,0.231345 0.02988,0.02187 0.02549,0.0226 0.09293,-0.01613 z M 9.7091614,14.7622 c 0.023416,-0.01446 0.047487,-0.03571 0.053505,-0.04721 0.039099,-0.0747 -0.1365067,-0.191788 -0.2006207,-0.133764 -0.048306,0.04372 -0.021013,0.144916 0.049093,0.181952 0.056836,0.03003 0.047716,0.03012 0.098021,-8.49e-4 z m 2.8910566,-0.106343 c 0.05119,-0.03478 0.05615,-0.05234 0.02939,-0.104072 -0.02506,-0.04848 -0.05751,-0.07455 -0.120297,-0.09671 -0.05044,-0.0178 -0.05835,-0.01757 -0.09923,0.0028 -0.06205,0.03094 -0.07287,0.0534 -0.05481,0.113681 0.03447,0.115049 0.144139,0.152786 0.244947,0.08428 z m 2.722455,-0.01148 c 0.0277,-0.01673 0.06883,-0.03997 0.0914,-0.05165 0.02256,-0.01169 0.05828,-0.043 0.07935,-0.06959 l 0.03829,-0.04835 -0.03003,-0.05402 c -0.02342,-0.04211 -0.04775,-0.06304 -0.110396,-0.09494 -0.0442,-0.02251 -0.09205,-0.04092 -0.106311,-0.04092 -0.0744,0 -0.123192,0.09797 -0.124891,0.250754 -8.5e-4,0.0658 0.0046,0.104673 0.01619,0.118696 0.02464,0.02973 0.08778,0.02544 0.146396,-0.0099 z m 7.619521,0.0033 c -0.004,-0.01005 -0.007,-0.0071 -0.0076,0.0076 -5.67e-4,0.01327 0.0025,0.0207 0.0066,0.01652 0.0041,-0.0042 0.0046,-0.01505 0.0011,-0.02413 z m 0.09252,-0.100468 c 0.04133,-0.0085 0.07515,-0.01984 0.07515,-0.02512 0,-0.0052 -0.01197,-0.04158 -0.02659,-0.08068 l -0.02659,-0.07108 -0.02325,0.05191 c -0.02954,0.06598 -0.05429,0.07563 -0.09589,0.03737 -0.03194,-0.02936 -0.03227,-0.0294 -0.01798,-0.002 0.008,0.0154 0.01568,0.05356 0.01704,0.08484 0.0017,0.03687 0.0061,0.05041 0.01273,0.03853 0.0057,-0.01005 0.04407,-0.02529 0.08541,-0.03385 z m -16.9554357,-0.0286 c 0.034141,-0.03164 0.096449,-0.157588 0.096449,-0.194968 0,-0.0116 0.00677,-0.02793 0.015137,-0.03626 0.020816,-0.02081 0.04657,-0.123387 0.047247,-0.18818 5.669e-4,-0.05935 -0.031531,-0.103864 -0.074987,-0.103864 -0.013838,0 -0.036915,-0.01174 -0.051266,-0.02608 -0.023252,-0.02325 -0.035233,-0.02515 -0.1101649,-0.01735 -0.046242,0.0048 -0.089743,0.01318 -0.096667,0.0186 -0.00688,0.0055 -0.040563,0.01407 -0.074747,0.01914 -0.09765,0.01455 -0.1457277,0.07938 -0.1280009,0.172597 0.00426,0.02246 0.040311,0.0985 0.080077,0.168973 0.1107765,0.1963 0.2157951,0.262577 0.2969206,0.187392 z m 2.6895173,-0.409677 c 0.040847,-0.02061 0.077849,-0.04328 0.082229,-0.05036 0.00437,-0.0071 0.017518,-0.0129 0.029248,-0.01293 0.011708,-3.9e-5 0.048208,-0.02796 0.081093,-0.06205 0.062603,-0.06489 0.075938,-0.110272 0.040923,-0.13933 -0.010376,-0.0086 -0.018883,-0.02563 -0.018883,-0.03777 0,-0.02951 -0.022848,-0.0469 -0.1359802,-0.103395 -0.1094829,-0.05468 -0.1377021,-0.05807 -0.1771782,-0.0213 -0.035768,0.03333 -0.048852,0.06804 -0.073011,0.193817 -0.016022,0.08344 -0.016699,0.111721 -0.00393,0.163801 0.017606,0.07159 0.043304,0.107021 0.077609,0.107021 0.012986,0 0.057011,-0.01687 0.097857,-0.03749 z m 4.8631054,-0.07689 c 0.01876,-0.01327 0.03895,-0.02412 0.04486,-0.02412 0.01466,0 0.07841,-0.06761 0.07841,-0.08317 0,-0.06563 -0.136475,-0.159898 -0.193728,-0.133813 -0.06081,0.0277 -0.08232,0.234819 -0.02804,0.270198 0.0184,0.01199 0.05616,8.5e-4 0.09851,-0.02911 z M 4.5676096,13.891441 c 0.029827,-0.02249 0.084675,-0.153743 0.084675,-0.202622 0,-0.03497 -0.00688,-0.04466 -0.044494,-0.06259 -0.054695,-0.02608 -0.066654,-0.0262 -0.1512443,-0.0017 -0.04622,0.01343 -0.069964,0.02764 -0.075523,0.04515 -0.012309,0.0388 0.06163,0.179339 0.1109982,0.210958 0.048142,0.03083 0.048809,0.03093 0.075599,0.0107 z m 2.813221,-0.06925 c 0.026201,-0.01211 0.049529,-0.02629 0.051834,-0.03148 0.00229,-0.0052 0.011992,-0.0094 0.021494,-0.0094 0.0095,0 0.040202,-0.02178 0.068205,-0.04842 0.048798,-0.04642 0.064983,-0.09247 0.038302,-0.108965 -0.00688,-0.0043 -0.012593,-0.01809 -0.012593,-0.03066 0,-0.01554 -0.028538,-0.03788 -0.089011,-0.06965 -0.1010464,-0.0531 -0.1390022,-0.05231 -0.1678395,0.0035 -0.026561,0.0514 -0.047716,0.184306 -0.037953,0.238545 0.015116,0.08394 0.042343,0.09602 0.1275477,0.05661 z m 7.0326854,-0.0552 c 0.02915,-0.01478 0.05584,-0.03102 0.0593,-0.03607 0.0035,-0.005 0.01851,-0.01302 0.03346,-0.01766 0.03294,-0.01027 0.130213,-0.113283 0.130213,-0.137891 0,-0.0097 -0.0085,-0.02466 -0.01888,-0.0333 -0.01037,-0.0086 -0.01888,-0.02903 -0.01888,-0.04536 0,-0.03108 -0.03593,-0.05515 -0.169757,-0.11368 -0.05586,-0.02444 -0.06642,-0.02555 -0.09643,-0.01005 -0.03949,0.02041 -0.06573,0.08474 -0.08731,0.214057 -0.01109,0.06641 -0.01126,0.09583 -5.67e-4,0.115634 0.0079,0.0146 0.01421,0.03779 0.01421,0.05152 0,0.04637 0.07607,0.05265 0.154735,0.01279 z m -4.5669022,-0.05588 c 0.037658,-0.0178 0.068467,-0.03703 0.068467,-0.0427 0,-0.0057 0.014569,-0.01398 0.032404,-0.01843 0.040202,-0.01005 0.1438612,-0.114786 0.1438612,-0.145296 0,-0.01236 -0.0085,-0.02954 -0.01888,-0.03816 -0.01038,-0.0086 -0.01888,-0.02544 -0.01888,-0.03736 0,-0.03013 -0.02879,-0.05203 -0.1418744,-0.107883 -0.080536,-0.03978 -0.1036676,-0.04623 -0.131012,-0.03651 -0.045041,0.01599 -0.07656,0.08198 -0.098338,0.205826 -0.015115,0.08596 -0.015454,0.114009 -0.00197,0.166566 0.024672,0.09642 0.055427,0.106398 0.1662604,0.05396 z m -3.603979,-0.05773 c 0.03591,-0.01494 0.070979,-0.03395 0.077926,-0.04223 0.00699,-0.0083 0.0256,-0.01917 0.041426,-0.02421 0.036707,-0.01165 0.1285022,-0.106584 0.1285022,-0.132901 0,-0.03681 -0.049781,-0.119509 -0.084882,-0.141015 -0.053527,-0.0328 -0.1681454,-0.08573 -0.1856396,-0.08573 -0.02572,0 -0.082993,0.05131 -0.096285,0.08626 -0.00677,0.01792 -0.020467,0.07484 -0.030351,0.126492 -0.015738,0.08223 -0.015618,0.101746 8.508e-4,0.15704 0.027533,0.09275 0.045019,0.09937 0.148528,0.05629 z m 6.3212112,-0.143725 c 0.03893,-0.0178 0.07077,-0.03703 0.07077,-0.0427 0,-0.0057 0.01452,-0.01395 0.03224,-0.0184 0.04164,-0.01049 0.144026,-0.112708 0.144026,-0.143851 0,-0.01318 -0.0085,-0.03103 -0.01888,-0.03965 -0.01037,-0.0086 -0.01888,-0.02622 -0.01888,-0.03915 0,-0.0273 -0.0648,-0.07124 -0.171321,-0.116162 -0.06588,-0.02778 -0.07738,-0.02928 -0.107064,-0.01393 -0.04025,0.02081 -0.06592,0.08165 -0.08653,0.204984 -0.02187,0.130854 0.01016,0.241257 0.06993,0.241257 0.0082,0 0.0468,-0.01457 0.08572,-0.0324 z m -1.622643,-0.12433 c 0.0277,-0.01673 0.06909,-0.04009 0.09199,-0.05193 0.02291,-0.01183 0.05585,-0.04016 0.07324,-0.06295 l 0.03161,-0.04144 -0.02994,-0.05437 c -0.02242,-0.04075 -0.04867,-0.06442 -0.104717,-0.09448 -0.09038,-0.04849 -0.118559,-0.05074 -0.154617,-0.01236 -0.04115,0.04381 -0.06876,0.200528 -0.04783,0.271435 0.02489,0.0843 0.05863,0.09539 0.140264,0.0461 z M 5.5536644,13.284872 c 0.022455,-0.01574 0.037767,-0.04436 0.081268,-0.152001 0.016077,-0.03982 0.023558,-0.111274 0.014122,-0.135146 -0.0047,-0.01203 -0.030438,-0.03295 -0.057087,-0.04654 -0.042299,-0.02158 -0.057491,-0.02305 -0.1195127,-0.0116 -0.1103909,0.02036 -0.1486077,0.04099 -0.1755032,0.09477 -0.026627,0.05325 -0.022651,0.08427 0.019681,0.153598 0.031334,0.05131 0.08604,0.08946 0.1288233,0.08983 0.017322,1.31e-4 0.039973,0.0058 0.050359,0.01247 0.024781,0.01602 0.027675,0.01574 0.05783,-0.0054 z M 4.650476,13.079366 c -0.00142,-0.06752 0.00175,-0.138268 0.00732,-0.157225 0.011599,-0.04003 -0.010594,-0.05514 -0.062024,-0.04223 -0.037297,0.0094 -0.081967,0.08897 -0.081967,0.146071 0,0.04923 0.03117,0.1114 0.073895,0.147361 0.059534,0.05011 0.065759,0.04079 0.062799,-0.09397 z m 4.6929686,0.01551 c 0.078996,-0.04418 0.1309694,-0.0948 0.1309694,-0.127553 0,-0.04751 -0.044014,-0.09364 -0.1243575,-0.130337 -0.1141851,-0.05216 -0.1917578,-0.02025 -0.2463231,0.101341 -0.029412,0.06553 -0.032273,0.08183 -0.020358,0.115971 0.00765,0.02183 0.026485,0.05324 0.041917,0.06978 0.024126,0.02583 0.035877,0.02901 0.083583,0.02254 0.030526,-0.0042 0.091086,-0.02741 0.1345822,-0.05175 z m -1.2703388,-0.03139 c 0.042725,-0.02084 0.08924,-0.05259 0.1033509,-0.07052 0.023252,-0.02956 0.023984,-0.03587 0.00775,-0.0673 -0.011085,-0.02144 -0.041022,-0.04459 -0.078351,-0.06062 -0.06755,-0.029 -0.1272441,-0.0245 -0.2052111,0.01545 -0.062122,0.03182 -0.1510858,0.10607 -0.1510858,0.12609 0,0.0093 0.02975,0.03405 0.066097,0.0551 0.088836,0.05145 0.1547664,0.0519 0.2574817,0.0017 z m -1.3347645,-0.06176 c 0.028986,-0.01432 0.056235,-0.03176 0.060549,-0.03874 0.00426,-0.007 0.017606,-0.01268 0.029521,-0.01268 0.027839,0 0.1405017,-0.120668 0.1405017,-0.150504 0,-0.01247 -0.00852,-0.02973 -0.018883,-0.03836 -0.010375,-0.0086 -0.018883,-0.02563 -0.018883,-0.03777 0,-0.02972 -0.04338,-0.0645 -0.1259061,-0.100959 -0.017289,-0.0076 -0.047924,-0.02206 -0.068031,-0.03201 -0.046843,-0.02322 -0.070695,-0.02285 -0.1056116,0.0017 -0.038051,0.02665 -0.058529,0.08021 -0.077565,0.20284 -0.020522,0.132277 -0.00197,0.223766 0.048929,0.241191 0.034021,0.01165 0.050064,0.0075 0.1353861,-0.03463 z m 6.2999787,-0.09074 c 0.03417,-0.01471 0.06213,-0.03169 0.06213,-0.03777 0,-0.0061 0.0107,-0.01103 0.02373,-0.01103 0.0239,0 0.114778,-0.08987 0.114778,-0.113522 0,-0.007 -0.0052,-0.02256 -0.01168,-0.03459 -0.0064,-0.01202 -0.0148,-0.03195 -0.01863,-0.04426 -0.0038,-0.01233 -0.04787,-0.042 -0.09786,-0.06597 -0.105,-0.05032 -0.124928,-0.04573 -0.166819,0.0384 -0.03544,0.07118 -0.0365,0.252058 -0.0017,0.27759 0.03026,0.02214 0.0222,0.02291 0.09599,-0.0088 z m -2.457397,-0.07434 c 0.0458,-0.02141 0.09546,-0.05412 0.110354,-0.07271 0.02432,-0.03038 0.02532,-0.03718 0.0098,-0.06721 -0.02103,-0.04069 -0.133016,-0.09896 -0.190164,-0.09896 -0.07042,0 -0.140561,0.03665 -0.187312,0.09788 -0.05617,0.07356 -0.05541,0.104247 0.0038,0.153966 0.04264,0.0358 0.05317,0.03897 0.108713,0.03279 0.03382,-0.0038 0.09898,-0.02435 0.144789,-0.04575 z m 1.206981,-0.124723 c 0.02943,-0.01464 0.05351,-0.03213 0.05351,-0.03889 0,-0.0068 0.01106,-0.01231 0.02458,-0.01231 0.01352,0 0.05318,-0.0286 0.08814,-0.06355 0.06609,-0.06609 0.07988,-0.10867 0.04466,-0.137893 -0.01038,-0.0086 -0.01888,-0.0285 -0.01888,-0.04418 0,-0.0194 -0.01307,-0.03531 -0.04092,-0.0498 -0.02251,-0.01171 -0.07208,-0.03749 -0.110165,-0.05729 -0.151111,-0.07854 -0.201173,-0.03373 -0.239355,0.214221 -0.01174,0.07629 -0.01123,0.105284 0.0028,0.150973 0.02821,0.09216 0.0711,0.100642 0.195673,0.03872 z m -6.727338,-0.0959 c 0.025797,-0.0258 0.025578,-0.02716 -0.013925,-0.08417 -0.020696,-0.02986 -0.047017,-0.05131 -0.068129,-0.05554 -0.019364,-0.0039 -0.037133,-0.0173 -0.04065,-0.03071 -0.00688,-0.02645 -0.046351,-0.03145 -0.084959,-0.01081 -0.020216,0.01081 -0.024355,0.02685 -0.024355,0.09443 0,0.08883 0.018632,0.106704 0.055798,0.05361 0.017835,-0.02546 0.020784,-0.02603 0.035342,-0.0069 0.017376,0.02291 0.082655,0.0596 0.106256,0.05972 0.00819,3.9e-5 0.023733,-0.0088 0.034621,-0.0197 z m 4.3959181,-0.07587 c 0.03069,-0.01798 0.06696,-0.04689 0.080601,-0.06422 0.022826,-0.02902 0.023307,-0.03444 0.0059,-0.06814 -0.023023,-0.04454 -0.1181344,-0.09282 -0.1614232,-0.08196 -0.033114,0.0083 -0.043359,0.03285 -0.053832,0.128907 -0.012811,0.117696 0.027784,0.144616 0.1287916,0.08542 z m 0.4759591,-0.07524 c 0.038925,-0.0178 0.070772,-0.03703 0.070772,-0.0427 0,-0.0057 0.01457,-0.01395 0.0324,-0.01843 0.04468,-0.01119 0.143863,-0.115729 0.143863,-0.15159 0,-0.01583 -0.0085,-0.03583 -0.01888,-0.04445 -0.01037,-0.0086 -0.01888,-0.02563 -0.01888,-0.03777 0,-0.01217 -0.0071,-0.02801 -0.01585,-0.03527 -0.03353,-0.02782 -0.2143012,-0.11582 -0.2379387,-0.11582 -0.069418,0 -0.099889,0.05026 -0.1315002,0.216904 -0.022062,0.116305 -0.00961,0.1995 0.035735,0.239497 0.033562,0.02958 0.056814,0.02787 0.1403008,-0.01038 z m -1.6946225,-0.08751 c 0.1178625,-0.06307 0.1480836,-0.08341 0.1821436,-0.122594 0.041338,-0.04755 0.041764,-0.05274 0.0095,-0.116805 -0.025797,-0.05134 -0.054379,-0.07397 -0.1496453,-0.118528 -0.089011,-0.04163 -0.1253983,-0.03035 -0.1570196,0.04868 -0.063072,0.157632 -0.042267,0.341034 0.038695,0.341034 0.00928,0 0.043621,-0.01429 0.076287,-0.03178 z M 4.5018453,11.798537 c 0.0442,-0.120462 0.04575,-0.153984 0.00797,-0.171214 -0.040858,-0.01863 -0.1158091,-0.0048 -0.1477941,0.02713 -0.013499,0.0135 -0.024464,0.04163 -0.024464,0.06275 0,0.04685 0.043348,0.136666 0.07999,0.165722 0.034949,0.02773 0.048,0.01466 0.084336,-0.08439 z M 20.780625,11.132715 c 0,-0.0025 -0.01134,-0.0078 -0.02521,-0.01142 -0.01386,-0.0036 -0.02203,-0.0014 -0.01814,0.0048 0.0068,0.01098 0.04335,0.01653 0.04335,0.0066 z M 4.6595114,9.0391602 c 0.010812,-0.084238 0.027053,-0.1846555 0.035987,-0.2231552 0.011369,-0.048896 0.012047,-0.067506 0.00229,-0.06174 -0.025545,0.015061 -0.2015621,0.1501368 -0.287587,0.2207066 l -0.084719,0.069494 0.072126,0.033813 c 0.1536317,0.072028 0.1917371,0.099179 0.1917371,0.1366203 0,0.014176 0.00994,0.036817 0.022029,0.050294 0.021439,0.023842 0.022116,0.023198 0.025229,-0.02418 0.00175,-0.026791 0.012079,-0.1176156 0.022913,-0.2018538 z M 18.739819,8.5905836 c -0.06643,-0.06376 -0.171957,-0.1596363 -0.234522,-0.2130702 l -0.113759,-0.097147 -0.02212,0.059381 c -0.02933,0.078745 -0.06609,0.1181256 -0.105863,0.1134359 -0.02617,-0.00306 -0.03444,0.00437 -0.05014,0.045565 -0.01832,0.047946 -0.01798,0.049802 0.01199,0.069243 0.01695,0.010998 0.04499,0.034862 0.0623,0.053046 0.02922,0.03069 0.04552,0.034556 0.226629,0.053669 0.107337,0.011337 0.212149,0.022509 0.232923,0.024836 0.123224,0.013859 0.123411,0.016644 -0.0074,-0.1089755 z M 5.4503987,8.2855264 c 0.032972,-0.01387 0.046843,-0.012735 0.099998,0.00819 l 0.061729,0.024322 -0.00699,-0.035025 c -0.016306,-0.082174 -0.038815,-0.155021 -0.046919,-0.1518056 -0.037472,0.014853 -0.2751626,0.1823325 -0.2722029,0.1917796 0.00197,0.00666 0.02038,0.021374 0.040672,0.032798 0.036412,0.020467 0.037221,0.020238 0.06115,-0.016732 0.013324,-0.020609 0.041469,-0.044735 0.062526,-0.053581 z"
       id="path847" />
  </g>
</svg>
