<?xml version="1.0" encoding="UTF-8" standalone="no"?>
<svg
   xmlns:dc="http://purl.org/dc/elements/1.1/"
   xmlns:cc="http://creativecommons.org/ns#"
   xmlns:rdf="http://www.w3.org/1999/02/22-rdf-syntax-ns#"
   xmlns:svg="http://www.w3.org/2000/svg"
   xmlns="http://www.w3.org/2000/svg"
   xmlns:sodipodi="http://sodipodi.sourceforge.net/DTD/sodipodi-0.dtd"
   xmlns:inkscape="http://www.inkscape.org/namespaces/inkscape"
   width="100"
   height="100"
   viewBox="0 0 26.458333 26.458334"
   version="1.1"
   id="svg8"
   inkscape:version="1.0.2-2 (e86c870879, 2021-01-15)"
   sodipodi:docname="The-knife.svg">
  <defs
     id="defs2" />
  <sodipodi:namedview
     id="base"
     pagecolor="#ffffff"
     bordercolor="#666666"
     borderopacity="1.0"
     inkscape:pageopacity="0.0"
     inkscape:pageshadow="2"
     inkscape:zoom="4.9214632"
     inkscape:cx="-26.422764"
     inkscape:cy="20.560901"
     inkscape:document-units="px"
     inkscape:current-layer="g1512"
     inkscape:document-rotation="0"
     showgrid="false"
     units="px"
     inkscape:window-width="3840"
     inkscape:window-height="2066"
     inkscape:window-x="-11"
     inkscape:window-y="-11"
     inkscape:window-maximized="1" />
  <metadata
     id="metadata5">
    <rdf:RDF>
      <cc:Work
         rdf:about="">
        <dc:format>image/svg+xml</dc:format>
        <dc:type
           rdf:resource="http://purl.org/dc/dcmitype/StillImage" />
        <dc:title></dc:title>
      </cc:Work>
    </rdf:RDF>
  </metadata>
  <g
     inkscape:label="Capa 1"
     inkscape:groupmode="layer"
     id="layer1">
    <g
       inkscape:label="Capa 1"
       id="layer1-6"
       transform="translate(-0.48951378,0.27892645)">
      <g
         id="g1436"
         transform="translate(5.2358086,19.55553)">
        <g
           id="g1490"
           transform="translate(0.69539431,-0.69539431)">
          <g
             id="g1512"
             transform="translate(-59.688547,10.213961)">
            <g
               id="g915"
               transform="matrix(1.254338,0,0,1.254338,-16.710872,4.7214724)"
               style="stroke-width:0.797233;fill:#000000">
              <path
                 style="fill:#000000;fill-opacity:1;stroke-width:0.797233"
                 d="m 64.135218,-10.42637 c 0,-0.0024 0.009,-0.01142 0.02008,-0.02008 0.0182,-0.01427 0.01861,-0.01387 0.0043,0.0043 -0.01499,0.01912 -0.02442,0.0252 -0.02442,0.01575 z m 0.395934,-4.012392 c 0.01142,-0.01262 0.02335,-0.02295 0.02651,-0.02295 0.0032,0 -0.0036,0.01033 -0.01503,0.02295 -0.01143,0.01262 -0.02336,0.02295 -0.02651,0.02295 -0.0032,0 0.0036,-0.01033 0.01503,-0.02295 z"
                 id="path923" />
              <path
                 style="fill:#000000;fill-opacity:1;stroke-width:0.797233"
                 d="m 65.593622,-10.233633 c 5.5e-4,-0.01337 0.0033,-0.01609 0.0069,-0.0069 0.0033,0.0083 0.0029,0.01818 -9.05e-4,0.022 -0.0038,0.0038 -0.0065,-0.003 -0.006,-0.01506 z m 3.807093,-10.433156 c 0.0083,-0.0033 0.01818,-0.0029 0.022,9.06e-4 0.0038,0.0038 -0.003,0.0065 -0.01506,0.006 -0.01337,-5.51e-4 -0.01609,-0.0033 -0.0069,-0.0069 z"
                 id="path921" />
              <path
                 style="fill:#000000;fill-opacity:1;stroke-width:0.797233"
                 d="m 65.593622,-10.348396 c 5.5e-4,-0.01337 0.0033,-0.01609 0.0069,-0.0069 0.0033,0.0083 0.0029,0.01818 -9.05e-4,0.022 -0.0038,0.0038 -0.0065,-0.003 -0.006,-0.01506 z m 1.36478,-0.525552 c 0,-0.0024 0.009,-0.01142 0.02008,-0.02008 0.0182,-0.01427 0.01861,-0.01387 0.0043,0.0043 -0.01499,0.01912 -0.02442,0.0252 -0.02442,0.01575 z m 1.59612,-7.852191 c 5.51e-4,-0.01337 0.0033,-0.01609 0.0069,-0.0069 0.0033,0.0083 0.0029,0.01818 -9.07e-4,0.022 -0.0038,0.0038 -0.0065,-0.003 -0.006,-0.01506 z"
                 id="path919" />
              <path
                 style="fill:#000000;fill-opacity:1;stroke-width:0.797233"
                 d="m 66.388318,-7.3929136 c -0.04791,-0.022371 -0.08508,-0.050452 -0.114763,-0.086681 -0.02415,-0.029475 -0.06743,-0.080936 -0.09619,-0.1143584 -0.07249,-0.084253 -0.162519,-0.2538365 -0.203644,-0.3836192 -0.04247,-0.1340381 -0.141546,-0.4877395 -0.173587,-0.6197234 -0.01302,-0.053652 -0.03605,-0.1440283 -0.05116,-0.2008363 -0.02395,-0.09001 -0.04408,-0.2287433 -0.09824,-0.6771052 -0.0069,-0.056808 -0.02062,-0.1368555 -0.03057,-0.1778835 -0.01525,-0.062855 -0.01897,-0.1965304 -0.02361,-0.8492504 -0.0046,-0.649121 -0.0082,-0.77759 -0.02189,-0.792772 -0.0208,-0.02302 -0.02109,-0.07904 -5.61e-4,-0.108438 0.01207,-0.01729 0.01753,-0.09995 0.02308,-0.349713 0.004,-0.179892 0.0097,-0.409706 0.01264,-0.510698 0.0031,-0.10468 0.0013,-0.171287 -0.0042,-0.154931 -0.0052,0.01578 -0.03653,0.07001 -0.06955,0.120502 -0.03301,0.0505 -0.08821,0.151096 -0.122666,0.223557 -0.08697,0.182904 -0.147536,0.275992 -0.293637,0.451288 -0.06943,0.0833 -0.165243,0.210843 -0.212926,0.283431 -0.04768,0.07259 -0.113393,0.168128 -0.146022,0.212312 -0.03263,0.04418 -0.09137,0.124232 -0.130532,0.177884 -0.06647,0.09106 -0.370846,0.413624 -0.759064,0.804417 -0.09739,0.09803 -0.202622,0.1917388 -0.253721,0.2259246 -0.04802,0.032128 -0.117445,0.092733 -0.154271,0.1346796 -0.06613,0.075319 -0.353401,0.3435621 -0.499123,0.4660573 -0.04129,0.034711 -0.139417,0.1114917 -0.218051,0.1706225 -0.07863,0.059132 -0.220437,0.1700027 -0.315117,0.2463813 -0.342739,0.2764862 -0.472445,0.3625727 -0.54409,0.361114 -0.04716,-9.64e-4 -0.104643,-0.030799 -0.121685,-0.063162 -0.0064,-0.01214 -0.02654,-0.0471 -0.04478,-0.07769 l -0.03315,-0.055619 0.007,-0.16817 c 0.0078,-0.1872609 0.05089,-0.5263311 0.09354,-0.7361683 0.01538,-0.075648 0.05965,-0.2525051 0.09838,-0.393018 0.03874,-0.140513 0.103672,-0.384587 0.144305,-0.542387 0.04063,-0.157799 0.09483,-0.354045 0.120444,-0.436101 0.098,-0.31399 0.187919,-0.579813 0.248442,-0.734487 0.03458,-0.08837 0.09516,-0.25621 0.134622,-0.372982 0.09699,-0.286985 0.254179,-0.627531 0.44232,-0.958276 0.05984,-0.105203 0.08803,-0.170847 0.119389,-0.278047 0.04178,-0.142824 0.05681,-0.177246 0.19688,-0.451006 0.04369,-0.08538 0.09962,-0.203548 0.124287,-0.262596 0.02467,-0.05905 0.07983,-0.165431 0.122567,-0.236404 0.04274,-0.07097 0.108762,-0.190987 0.146715,-0.266699 0.03795,-0.07571 0.0984,-0.186095 0.134325,-0.245299 0.07068,-0.116469 0.193762,-0.343089 0.312114,-0.57465 0.04408,-0.08624 0.112464,-0.195427 0.167635,-0.267643 0.131953,-0.172722 0.214217,-0.289727 0.311528,-0.44309 0.07347,-0.115794 0.08861,-0.149049 0.11472,-0.252059 0.04546,-0.179349 0.12294,-0.383235 0.235119,-0.618731 0.05563,-0.116772 0.120289,-0.258792 0.143699,-0.3156 0.05857,-0.142127 0.09688,-0.21677 0.200292,-0.390196 0.04893,-0.08206 0.108656,-0.188911 0.132729,-0.237454 0.02407,-0.04854 0.07341,-0.129645 0.109641,-0.180224 0.03623,-0.05058 0.09656,-0.155463 0.134071,-0.233076 l 0.0682,-0.141115 0.01906,-0.263956 c 0.01048,-0.145176 0.01893,-0.272646 0.01878,-0.283267 -1.53e-4,-0.01062 0.01005,-0.02259 0.02268,-0.02659 0.01905,-0.006 0.02296,-0.0174 0.02302,-0.06676 3.5e-5,-0.03271 0.005,-0.07755 0.01112,-0.09965 0.0061,-0.02209 0.02163,-0.127961 0.03456,-0.235265 0.03755,-0.311666 0.06499,-0.446049 0.119514,-0.585295 0.03917,-0.100038 0.12207,-0.409102 0.151401,-0.564445 0.0026,-0.01378 0.01382,-0.02794 0.02492,-0.03147 0.01755,-0.0056 0.02285,-0.03829 0.04049,-0.250376 0.01116,-0.134182 0.03782,-0.380822 0.05923,-0.54809 0.04736,-0.369932 0.05983,-0.475813 0.07412,-0.62915 0.0061,-0.06515 0.01692,-0.125546 0.02412,-0.134218 0.01862,-0.02243 0.121413,-0.05448 0.14784,-0.0461 0.01222,0.0039 0.02554,0.0017 0.0296,-0.0049 0.0094,-0.01528 0.128164,-0.01523 0.22264,1.03e-4 0.04024,0.0065 0.07531,0.0097 0.07793,0.0071 0.0026,-0.0026 -0.0063,-0.02362 -0.01993,-0.04665 -0.01724,-0.02922 -0.02244,-0.05133 -0.01719,-0.07317 0.0041,-0.01721 0.01246,-0.05454 0.01851,-0.08294 0.006,-0.0284 0.01731,-0.06712 0.02503,-0.08604 0.0077,-0.01892 0.01259,-0.04546 0.01082,-0.05898 -0.0056,-0.04262 0.04419,-0.128291 0.108901,-0.18743 0.118822,-0.108597 0.306451,-0.173634 0.445791,-0.154523 0.0646,0.0089 0.29428,0.08544 0.366006,0.122027 0.115066,0.0587 0.356817,0.209911 0.433601,0.271205 0.04624,0.03691 0.133134,0.11329 0.193098,0.169729 0.05996,0.05644 0.122354,0.11104 0.138645,0.121334 0.02871,0.01814 0.03088,0.01756 0.07053,-0.01876 0.03165,-0.02899 0.04363,-0.0515 0.05294,-0.09941 0.0066,-0.03406 0.01778,-0.09128 0.0248,-0.12715 0.0081,-0.04139 0.03009,-0.0917 0.0602,-0.137717 0.07359,-0.112482 0.241822,-0.461514 0.283867,-0.588937 0.02083,-0.06312 0.05168,-0.143168 0.06856,-0.177884 0.05443,-0.111942 0.198348,-0.371101 0.243001,-0.43758 0.02386,-0.03553 0.08407,-0.149145 0.133782,-0.25248 0.04972,-0.103334 0.111066,-0.221449 0.136335,-0.262477 0.02527,-0.04103 0.08109,-0.136569 0.124038,-0.212313 0.04295,-0.07574 0.09732,-0.16612 0.120828,-0.200836 0.04096,-0.0605 0.148553,-0.25871 0.199346,-0.367244 0.104626,-0.223559 0.257993,-0.484299 0.392727,-0.667674 0.03097,-0.04215 0.07051,-0.09773 0.08786,-0.123504 0.05566,-0.08269 0.181305,-0.146698 0.456199,-0.232412 0.06318,-0.0197 0.108859,-0.02351 0.298385,-0.02488 l 0.223789,-0.0016 0.06582,0.0373 c 0.0362,0.02051 0.110958,0.05038 0.166132,0.06637 0.05518,0.01599 0.112537,0.03708 0.127472,0.04686 0.06662,0.04365 0.223056,0.170105 0.235312,0.190212 0.0074,0.0122 0.0445,0.04088 0.08237,0.06373 0.159172,0.09606 0.288789,0.216747 0.325554,0.303132 0.03336,0.07837 0.03828,0.136033 0.0258,0.302314 -0.0089,0.118131 -0.01984,0.17667 -0.05271,0.281171 -0.06237,0.198252 -0.07357,0.225944 -0.139265,0.344291 -0.03329,0.05996 -0.07465,0.145176 -0.09192,0.189359 -0.05452,0.139515 -0.233877,0.440667 -0.309285,0.519319 -0.03115,0.03249 -0.04977,0.0608 -0.220763,0.33567 -0.07657,0.123084 -0.182909,0.282809 -0.236308,0.354944 -0.0534,0.07213 -0.12409,0.183168 -0.157088,0.246741 -0.09498,0.182984 -0.154577,0.268037 -0.274002,0.39102 -0.149713,0.154172 -0.164297,0.176857 -0.167833,0.261045 -0.0025,0.05958 -0.01564,0.09477 -0.101138,0.270958 -0.130563,0.269044 -0.14771,0.334521 -0.149196,0.569728 l -0.0012,0.183622 0.04324,0.06852 c 0.06104,0.09672 0.107099,0.140851 0.186286,0.178467 0.03787,0.01799 0.08177,0.04061 0.09755,0.05026 0.01578,0.0097 0.06742,0.03322 0.114764,0.05236 0.08337,0.03372 0.293713,0.179492 0.333256,0.230956 0.01035,0.01347 0.0507,0.03189 0.09755,0.04453 0.172632,0.04657 0.170936,0.04548 0.267249,0.171889 0.0342,0.04489 0.07141,0.150742 0.07908,0.224943 0.0047,0.04533 -0.0015,0.0795 -0.02822,0.157157 -0.08722,0.25303 -0.26869,0.443678 -0.511436,0.537291 -0.07993,0.03083 -0.101648,0.03474 -0.155472,0.02801 -0.09974,-0.01246 -0.109226,-0.0206 -0.1653,-0.141904 -0.05931,-0.128296 -0.10327,-0.185269 -0.283952,-0.368006 -0.171636,-0.173587 -0.24074,-0.225474 -0.406369,-0.30512 -0.133283,-0.06409 -0.138601,-0.06558 -0.214344,-0.06017 -0.06655,0.0048 -0.08577,0.0115 -0.134266,0.0471 -0.05244,0.0385 -0.05713,0.04598 -0.06386,0.102011 -0.004,0.03326 -0.0075,0.08887 -0.0078,0.123585 -2.76e-4,0.03472 -0.0074,0.09538 -0.01589,0.134816 -0.01103,0.05143 -0.01275,0.100085 -0.0061,0.172146 0.01797,0.193639 0.03701,0.667367 0.02972,0.739322 -0.0073,0.07196 -0.007,0.07285 0.02744,0.09246 0.04186,0.02381 0.08754,0.112693 0.06531,0.127084 -0.0078,0.005 -0.09937,0.05854 -0.203518,0.118878 -0.290721,0.16844 -0.39615,0.242372 -0.616109,0.432049 -0.07624,0.06574 -0.100931,0.0998 -0.07236,0.0998 0.0064,0 0.109953,-0.04923 0.230174,-0.109407 0.205792,-0.103004 0.406563,-0.225524 0.590271,-0.36021 0.07406,-0.0543 0.08063,-0.05698 0.08418,-0.03429 0.0053,0.03412 -0.06603,0.135205 -0.173453,0.245684 l -0.08927,0.09182 0.02948,-0.05709 c 0.01621,-0.0314 0.02798,-0.0675 0.02615,-0.08022 -0.007,-0.04843 -0.0406,-0.03085 -0.113337,0.05924 -0.03977,0.04925 -0.129406,0.148984 -0.199199,0.22163 -0.119119,0.123987 -0.258873,0.310298 -0.258873,0.345108 0,0.0086 -0.02694,0.04284 -0.05986,0.07618 -0.03292,0.03334 -0.05338,0.06061 -0.04546,0.06061 0.02186,0 0.203311,-0.125138 0.315408,-0.217522 0.102629,-0.08458 0.132067,-0.119643 0.111254,-0.132507 -0.0077,-0.0048 -0.0075,-0.01459 4.24e-4,-0.02949 0.0088,-0.01646 0.01933,-0.02051 0.03984,-0.01536 0.02262,0.0057 0.04039,-0.0046 0.09422,-0.05463 0.102987,-0.09566 0.255707,-0.229959 0.255707,-0.224867 0,0.0025 -0.0072,0.03005 -0.01602,0.06118 -0.03402,0.120178 -0.03403,0.119716 0.0029,0.119716 0.01828,0 0.03995,0.0081 0.04814,0.01795 0.0093,0.01116 0.0247,0.01549 0.04077,0.01146 0.04457,-0.01119 0.08137,0.01123 0.09659,0.05882 0.0077,0.02406 0.01853,0.04865 0.02408,0.05465 0.0055,0.006 0.01009,0.02013 0.01009,0.0314 0,0.06379 0.166854,0.44044 0.3354,0.757127 0.08432,0.158425 0.107423,0.213491 0.134849,0.321338 0.02697,0.106043 0.05516,0.174029 0.15219,0.367025 0.118549,0.23579 0.134401,0.259318 0.291465,0.432611 0.09952,0.109809 0.118978,0.145584 0.118902,0.218665 -1.15e-4,0.08748 -0.01745,0.187005 -0.04173,0.239199 -0.04424,0.09511 -0.199352,0.256766 -0.277412,0.289098 l -0.03503,0.01451 0.03402,0.05529 c 0.01871,0.03041 0.05402,0.104456 0.07848,0.164547 0.04871,0.119718 0.09088,0.187075 0.155593,0.248546 0.05508,0.05232 0.09324,0.128456 0.109965,0.219437 0.01636,0.08895 -0.0016,0.173195 -0.06625,0.311503 -0.04589,0.09812 -0.06831,0.12534 -0.08328,0.10112 -0.0067,-0.01082 -0.02241,-5.39e-4 -0.0577,0.03774 -0.0574,0.06227 -0.108394,0.07755 -0.166425,0.04988 -0.03385,-0.01614 -0.04275,-0.01614 -0.0934,0 -0.03079,0.0098 -0.07808,0.02751 -0.105073,0.03928 -0.07999,0.03486 -0.156549,0.02176 -0.189623,-0.03243 -0.01231,-0.02017 -0.0646,-0.019 -0.116266,0.0026 -0.05475,0.02288 -0.103515,0.0134 -0.185702,-0.03609 -0.04853,-0.02922 -0.07784,-0.03894 -0.11774,-0.03902 -0.115627,-2.41e-4 -0.221771,-0.08349 -0.303274,-0.237846 -0.03314,-0.06276 -0.04237,-0.07324 -0.04819,-0.05469 -0.01356,0.04327 -0.107124,0.27546 -0.175732,0.436102 -0.114268,0.267548 -0.133183,0.303603 -0.29368,0.559782 -0.02461,0.03928 -0.0743,0.125643 -0.110423,0.191919 -0.05678,0.104178 -0.06828,0.136048 -0.08488,0.235265 -0.04107,0.245549 -0.10408,0.462002 -0.258918,0.889418 -0.0263,0.07259 -0.05787,0.18104 -0.07017,0.241004 -0.03506,0.170913 -0.07538,0.309306 -0.124569,0.427485 -0.06351,0.1526 -0.191542,0.59183 -0.20657,0.708674 -0.0069,0.05365 -0.02794,0.156792 -0.04675,0.229197 -0.01881,0.07241 -0.0342,0.143315 -0.0342,0.157573 0,0.02568 -0.140242,0.466803 -0.232774,0.7321753 -0.02641,0.075744 -0.0796,0.1997827 -0.118207,0.2756426 -0.0386,0.07586 -0.09793,0.2073824 -0.131828,0.2922719 -0.0339,0.084889 -0.139608,0.3120273 -0.234901,0.5047498 -0.230694,0.4665565 -0.228808,0.4630126 -0.269878,0.5070887 -0.08042,0.086302 -0.09387,0.1102247 -0.08924,0.158733 0.0046,0.048397 -0.0072,0.05897 -0.03044,0.027206 -0.01183,-0.016174 -0.02061,-0.00506 -0.06126,0.077465 -0.08408,0.1707269 -0.323703,0.4131513 -0.500044,0.5058998 -0.07592,0.03993 -0.131328,0.039234 -0.221294,-0.00278 z m 0.128244,-0.1141278 c -0.0039,-0.00631 -0.01423,-0.011476 -0.02295,-0.011476 -0.0087,0 -0.01905,0.00516 -0.02295,0.011476 -0.004,0.00653 0.0058,0.011476 0.02295,0.011476 0.01711,0 0.02699,-0.00494 0.02295,-0.011476 z m 0.0621,-0.2254485 c 0.0939,-0.1024736 0.09421,-0.1144239 0.0018,-0.067579 -0.06399,0.032424 -0.104038,0.077347 -0.104038,0.1166917 0,0.045094 0.02848,0.031418 0.102271,-0.049113 z m -0.228237,-0.360492 c -0.04427,-0.1290402 -0.08052,-0.2488212 -0.08055,-0.2661792 -3.4e-5,-0.021491 -0.006,-0.03156 -0.01876,-0.03156 -0.04133,0 0.0097,0.2587609 0.07759,0.3931881 0.04481,0.088775 0.09408,0.1635553 0.09867,0.1497745 0.0019,-0.00583 -0.03269,-0.1161832 -0.07696,-0.2452234 z m 0.775034,-0.1890902 c 0.01501,-0.025455 0.0356,-0.069352 0.04574,-0.097549 0.03651,-0.1014636 0.06008,-0.1832453 0.05282,-0.1832338 -0.01168,0 -0.06453,0.1022394 -0.09223,0.178392 -0.01388,0.038159 -0.04579,0.096537 -0.07092,0.1297299 -0.02512,0.033193 -0.0424,0.06566 -0.03839,0.072148 0.0097,0.01577 0.06845,-0.040942 0.102975,-0.099487 z m -0.91389,-0.4365332 c -0.03056,-0.1195561 -0.03409,-0.1490584 -0.02785,-0.2327761 0.0055,-0.074305 0.0039,-0.094788 -0.0073,-0.091064 -0.0395,0.013167 -0.05064,0.246487 -0.01578,0.330386 0.02493,0.059995 0.0742,0.1420544 0.08113,0.1351238 0.0026,-0.00262 -0.01099,-0.06637 -0.03024,-0.1416699 z m 0.735353,0.00816 c 0.04971,-0.023309 0.08029,-0.081082 0.08032,-0.1517404 1.1e-5,-0.044412 -0.0045,-0.054969 -0.02882,-0.068005 -0.01586,-0.00849 -0.05043,-0.044029 -0.07682,-0.078983 l -0.04798,-0.063551 -0.01035,-0.1494095 c -0.0073,-0.1057168 -0.0066,-0.1553429 0.0023,-0.1696975 0.01601,-0.025643 -0.0024,-0.026672 -0.02342,-0.00131 -0.01126,0.013565 -0.01628,0.060087 -0.01759,0.1631376 -0.0021,0.1635703 0.0043,0.1839029 0.09254,0.2921732 0.0447,0.054885 0.04959,0.06644 0.04258,0.1007303 -0.0084,0.040832 -0.04342,0.067179 -0.08983,0.067489 -0.03361,2.181e-4 -0.05425,0.038115 -0.03765,0.06913 0.01382,0.025826 0.04396,0.02321 0.114708,-0.00996 z m -4.894667,-0.3167314 c 0.466001,-0.3737954 0.910225,-0.8177434 1.372762,-1.3719113 0.126341,-0.15137 0.55067,-0.686102 0.851496,-1.07304 0.112868,-0.145176 0.256064,-0.323346 0.318213,-0.395934 0.128031,-0.149536 0.236076,-0.29636 0.259711,-0.352928 0.0088,-0.02105 0.0233,-0.04107 0.03224,-0.0445 0.02145,-0.0082 0.07905,-0.08418 0.0704,-0.09283 -0.0037,-0.0037 -0.04293,0.0099 -0.08714,0.0303 -0.04421,0.02038 -0.110249,0.04128 -0.146742,0.04643 -0.116462,0.01646 -0.163032,0.03532 -0.183112,0.07415 -0.02438,0.04715 -0.0628,0.09837 -0.07377,0.09837 -0.0049,0 -0.0336,0.02403 -0.06382,0.0534 -0.03022,0.02937 -0.06829,0.05907 -0.0846,0.06599 -0.04323,0.01835 -0.148244,0.116227 -0.148244,0.13817 0,0.03695 -0.04731,0.110555 -0.09174,0.14274 -0.02486,0.01801 -0.0425,0.03546 -0.03918,0.03877 0.02201,0.02201 -0.09046,0.181112 -0.2126,0.300721 -0.03198,0.03132 -0.05827,0.06747 -0.05841,0.08033 -3.49e-4,0.03237 -0.03988,0.116484 -0.06032,0.12836 -0.0093,0.0054 -0.03109,0.03819 -0.04849,0.07291 -0.03422,0.06825 -0.09345,0.149193 -0.109184,0.149193 -0.0054,0 -0.01138,-0.01286 -0.01338,-0.02857 -0.0033,-0.02625 -0.008,-0.02304 -0.05796,0.03954 -0.02988,0.03746 -0.09092,0.126493 -0.135644,0.197846 -0.04472,0.07135 -0.105484,0.154604 -0.135027,0.185 -0.05892,0.06063 -0.18091,0.14557 -0.209049,0.14557 -0.01091,0 -0.05456,0.06438 -0.112634,0.166127 -0.05215,0.09137 -0.0997,0.169141 -0.105658,0.172824 -0.02606,0.01611 -0.004,-0.03273 0.09787,-0.216992 0.100679,-0.182048 0.110449,-0.205449 0.132375,-0.317057 0.04431,-0.225539 0.150591,-0.408716 0.385727,-0.664795 0.04319,-0.04704 0.122407,-0.179428 0.299547,-0.500629 0.238439,-0.43235 0.241003,-0.437734 0.258865,-0.543669 0.02371,-0.14063 0.05732,-0.206145 0.227324,-0.44318 0.07678,-0.107054 0.148992,-0.216316 0.160468,-0.242804 0.0288,-0.06647 0.1891,-0.331975 0.234225,-0.38794 0.02036,-0.02525 0.34844,-0.608821 0.729072,-1.296829 1.276549,-2.307415 1.345526,-2.430388 2.039759,-3.636531 0.242949,-0.422093 0.44651,-0.784768 0.452357,-0.805945 0.0058,-0.02118 0.0295,-0.06315 0.05255,-0.09329 0.05305,-0.06932 0.239231,-0.392575 0.268285,-0.465795 0.01206,-0.03038 0.04253,-0.08461 0.06773,-0.120502 0.02519,-0.03589 0.05602,-0.09452 0.0685,-0.130276 0.06996,-0.200471 0.157745,-0.632973 0.218567,-1.076878 0.0134,-0.09784 0.0315,-0.20887 0.04021,-0.246742 l 0.01584,-0.06886 -0.0405,-0.03443 c -0.02228,-0.01894 -0.105966,-0.06351 -0.185974,-0.09906 -0.141956,-0.06307 -0.145702,-0.06404 -0.155038,-0.04017 -0.0053,0.01346 -0.0115,0.03885 -0.01385,0.05643 -0.0054,0.04007 -0.04717,0.100015 -0.06974,0.100015 -0.01725,0 -0.06106,0.08244 -0.06152,0.115768 -3.44e-4,0.02522 -0.143051,0.299698 -0.235163,0.452311 -0.08738,0.144777 -0.332446,0.639182 -0.351021,0.708165 -0.0092,0.03403 -0.0088,0.06661 0.0014,0.123583 0.01835,0.102697 0.0072,0.166532 -0.04228,0.242167 -0.07236,0.110606 -0.145994,0.174526 -0.336437,0.292073 -0.130713,0.08068 -0.218797,0.161713 -0.21881,0.201295 -1.2e-5,0.05228 -0.06762,0.171018 -0.272376,0.478396 -0.112467,0.168836 -0.216648,0.335379 -0.231513,0.370095 -0.01487,0.03472 -0.09145,0.192229 -0.170199,0.350029 -0.07874,0.1578 -0.170048,0.346299 -0.202898,0.418887 -0.06832,0.150958 -0.445465,0.885773 -0.603758,1.176327 -0.05846,0.107304 -0.183503,0.328449 -0.277877,0.491433 -0.09437,0.162982 -0.169319,0.298602 -0.166545,0.301376 0.01244,0.01244 0.09912,-0.03061 0.136105,-0.0676 0.03491,-0.03491 0.05106,-0.04195 0.112073,-0.04885 0.06654,-0.0075 0.07232,-0.01054 0.08684,-0.04529 0.02008,-0.04806 0.03332,-0.05539 0.09847,-0.05454 0.05988,7.81e-4 0.119329,0.0265 0.136838,0.05922 0.0063,0.01183 0.02456,0.02479 0.04051,0.02879 0.01595,0.004 0.02899,0.01208 0.02899,0.01794 0,0.0059 0.01239,0.02404 0.02754,0.04038 0.02289,0.0247 0.0265,0.03788 0.02137,0.07806 -0.0098,0.07699 -0.07382,0.183583 -0.118789,0.197856 -0.01206,0.0038 -0.02193,0.01418 -0.02193,0.023 0,0.0088 -0.01132,0.0221 -0.02517,0.02951 -0.01384,0.0074 -0.03837,0.02572 -0.05451,0.0407 -0.01614,0.01497 -0.03838,0.0301 -0.04943,0.03361 -0.02694,0.0086 -0.02536,0.01875 0.0086,0.0554 0.01578,0.01703 0.02869,0.03606 0.02869,0.0423 0,0.03729 -0.08753,0.15962 -0.114216,0.15962 -0.0066,0 -0.01202,0.005 -0.01202,0.01114 0,0.01297 -0.111374,0.123795 -0.139788,0.139095 -0.04498,0.02422 -0.07407,-0.05037 -0.09437,-0.242049 l -0.01276,-0.120501 -0.03371,0.04224 c -0.02818,0.03532 -0.03327,0.05131 -0.03102,0.09755 0.0033,0.06695 -0.04973,0.185325 -0.135013,0.301614 -0.03026,0.04127 -0.07467,0.112841 -0.09868,0.159055 -0.04283,0.08244 -0.101849,0.15287 -0.304613,0.363553 -0.107625,0.111829 -0.140809,0.163175 -0.131588,0.203606 0.0047,0.02053 -0.0037,0.03249 -0.04008,0.05748 -0.02529,0.01736 -0.0509,0.03156 -0.05691,0.03156 -0.01937,0 -0.03466,-0.04298 -0.03546,-0.09966 -7.13e-4,-0.05077 -0.0018,-0.05293 -0.01387,-0.02658 -0.0072,0.01578 -0.120471,0.247677 -0.251703,0.515327 -0.131233,0.267651 -0.238605,0.488185 -0.238605,0.490075 0,0.0019 0.01937,0.0088 0.04304,0.01542 0.05181,0.01442 0.08022,-0.0025 0.135986,-0.08085 0.03391,-0.04766 0.03886,-0.05041 0.08627,-0.0481 0.09074,0.0044 0.146489,0.02795 0.188904,0.07971 0.02161,0.02637 0.03928,0.05797 0.03928,0.07023 0,0.06344 -0.169104,0.23189 -0.23293,0.232023 -0.01134,0 -0.02942,-0.01542 -0.04017,-0.03431 -0.01164,-0.02045 -0.02884,-0.03424 -0.0425,-0.03408 -0.02109,2.52e-4 -0.02133,0.0012 -0.0029,0.01197 0.04551,0.02651 0.0088,0.162826 -0.05169,0.191804 -0.01733,0.0083 -0.03152,0.01998 -0.03152,0.02595 0,0.01334 -0.102727,0.119348 -0.170362,0.175809 -0.03583,0.02991 -0.06084,0.04162 -0.08888,0.04162 -0.035,0 -0.04152,-0.0053 -0.0633,-0.05164 -0.01335,-0.0284 -0.02774,-0.05164 -0.03196,-0.05164 -0.0042,0 -0.05107,0.09425 -0.104081,0.209444 -0.05302,0.115194 -0.09888,0.214608 -0.101922,0.22092 -0.003,0.0063 0.0079,-7.69e-4 0.02437,-0.01574 0.02612,-0.02378 0.03674,-0.02619 0.08405,-0.0191 0.03699,0.0055 0.06447,0.01844 0.08671,0.04068 0.02807,0.02807 0.03256,0.04149 0.03256,0.09732 0,0.03562 -0.005,0.07417 -0.01119,0.08567 -0.01,0.01864 -0.0047,0.02175 0.04877,0.02861 0.03298,0.0042 0.07146,0.01396 0.0855,0.02162 0.03316,0.01808 0.08349,0.08655 0.08349,0.113584 0,0.02462 -0.04768,0.118913 -0.07719,0.152646 -0.04239,0.04846 -0.176426,0.154615 -0.195532,0.154859 -0.01096,1.38e-4 -0.03284,0.01036 -0.04862,0.0227 -0.03928,0.03073 -0.06468,0.02853 -0.08838,-0.0077 -0.02783,-0.04247 -0.02816,-0.171236 -5.58e-4,-0.213367 0.03007,-0.0459 0.02472,-0.04774 -0.02429,-0.0084 -0.04572,0.03674 -0.16992,0.07748 -0.185576,0.06086 -0.0049,-0.0052 -0.01062,-0.01929 -0.01281,-0.03142 -0.0054,-0.02984 -0.120064,0.262214 -0.348878,0.888517 -0.350662,0.9598192 -0.392574,1.0813366 -0.412017,1.1945566 -0.0319,0.1857805 -0.07581,0.3699209 -0.100687,0.4223094 -0.01315,0.02769 -0.04635,0.071459 -0.07377,0.097264 -0.02742,0.025806 -0.04986,0.056719 -0.04986,0.068694 0,0.024438 -0.0056,0.027626 0.09755,-0.055146 z m 0.746698,-1.8835133 c -0.0099,-0.0099 -0.01835,-0.02662 -0.01883,-0.03721 -4.83e-4,-0.01059 -0.0026,-0.02838 -0.0047,-0.03952 -0.0051,-0.02659 0.02318,-0.05384 0.06439,-0.06208 0.02709,-0.0054 0.03305,-0.01248 0.03305,-0.03918 0,-0.01791 0.01067,-0.05987 0.02371,-0.09325 0.04282,-0.109564 0.08567,-0.123775 0.05218,-0.01731 -0.01204,0.03828 -0.01802,0.08947 -0.016,0.137049 0.0029,0.06756 5.7e-5,0.07934 -0.02547,0.106654 -0.01578,0.01689 -0.04256,0.03793 -0.05952,0.04675 -0.02689,0.01399 -0.03312,0.01375 -0.04877,-0.0019 z m 0.468978,-1.341001 c -0.01029,-0.04101 0.0043,-0.07442 0.03599,-0.08237 0.06484,-0.01628 0.08005,0.01861 0.03267,0.07493 -0.03577,0.04251 -0.05922,0.04505 -0.06866,0.0074 z m 0.310094,-0.02341 c -0.01866,-0.04466 -0.02132,-0.09569 -0.0062,-0.119514 0.0071,-0.01128 0.02191,-0.01363 0.05114,-0.0081 0.0731,0.01371 0.101106,0.09414 0.04962,0.142508 -0.04036,0.03792 -0.07474,0.03252 -0.09453,-0.01484 z m 0.490322,-1.277114 c -0.01871,-0.03651 -0.02433,-0.07807 -0.01521,-0.112427 0.01085,-0.04084 0.07986,-0.07072 0.117179,-0.05075 0.05043,0.02699 0.03818,0.09363 -0.0279,0.151674 -0.0417,0.03663 -0.05976,0.03943 -0.07407,0.0115 z m 3.449077,4.3362724 c 0.05742,-0.125797 0.11194,-0.3453685 0.08575,-0.3453685 -0.01433,0 -0.104029,0.1521949 -0.152231,0.258295 -0.03951,0.086963 -0.04782,0.1524485 -0.02313,0.1822033 0.02295,0.027658 0.04353,0.00582 0.08961,-0.09513 z m -1.450187,-0.5570556 c 0.01167,-0.097966 0.01495,-0.164159 0.0085,-0.1706524 -0.0186,-0.018598 -0.03683,0.072299 -0.04331,0.2159323 -0.0083,0.1845674 0.01037,0.16028 0.03485,-0.04528 z m 0.826761,0.1067852 c 0.04992,-0.058319 0.07018,-0.1179093 0.0931,-0.2738179 0.0097,-0.066276 0.02356,-0.1384721 0.0307,-0.1604371 0.01804,-0.0555 0.01413,-0.101529 -0.01314,-0.15472 -0.01282,-0.025 -0.02331,-0.05236 -0.02331,-0.06079 0,-0.0084 -0.02006,-0.05253 -0.04458,-0.09799 -0.05762,-0.106831 -0.06233,-0.130738 -0.04153,-0.210601 0.0095,-0.03643 0.01726,-0.09662 0.01726,-0.133753 0,-0.06705 4.66e-4,-0.06798 0.06803,-0.136178 0.119056,-0.120168 0.183727,-0.271404 0.256822,-0.600578 0.03859,-0.173784 0.04375,-0.252932 0.0159,-0.243646 -0.02602,0.0087 -0.05881,0.09819 -0.106689,0.291194 -0.06664,0.268635 -0.118319,0.378416 -0.238802,0.507248 -0.06377,0.06819 -0.08684,0.100593 -0.08147,0.114454 0.01762,0.04553 0.01894,0.08531 0.0055,0.16458 -0.0213,0.125232 -0.01705,0.154425 0.03899,0.267904 0.02805,0.05681 0.05449,0.118781 0.05876,0.137717 0.0043,0.01894 0.0158,0.04337 0.02565,0.05429 0.01622,0.018 0.01616,0.02608 -5.65e-4,0.08607 -0.01015,0.03642 -0.02641,0.1194537 -0.03612,0.1845258 -0.01736,0.1163484 -0.0441,0.1899911 -0.07971,0.2195439 -0.02743,0.02277 -0.02297,0.092507 0.0059,0.092507 0.0048,0 0.02697,-0.021384 0.04935,-0.04752 z m 0.818544,-0.2078288 c 0.04053,-0.044232 0.07018,-0.1159354 0.123156,-0.2977642 0.05624,-0.193044 0.07502,-0.2907 0.07515,-0.390817 1.15e-4,-0.0824 -0.01564,-0.08516 -0.06537,-0.01146 -0.06817,0.101019 -0.10604,0.194947 -0.154581,0.383368 -0.0506,0.1964189 -0.06056,0.2914167 -0.0339,0.3235195 0.02061,0.024821 0.02729,0.023997 0.05555,-0.00685 z M 66.014478,-11.05607 c -0.003,-0.26297 -0.0081,-0.284707 -0.05138,-0.218486 -0.0169,0.02588 -0.01986,0.05262 -0.01746,0.1578 0.0028,0.12461 0.031,0.385599 0.04524,0.419287 0.01589,0.03758 0.02634,-0.121254 0.02361,-0.358601 z m -2.370393,-0.375886 c 0.04928,-0.154873 0.07892,-0.194904 0.144513,-0.195181 0.01075,0 0.05311,-0.03103 0.09414,-0.06886 0.04103,-0.03783 0.08273,-0.07142 0.09268,-0.07465 0.01937,-0.0063 0.04471,-0.114925 0.03878,-0.166269 -0.0018,-0.01578 -0.0037,-0.0534 -0.0043,-0.08361 -8.96e-4,-0.05143 -0.0024,-0.05413 -0.02415,-0.04251 -0.01275,0.0068 -0.02696,0.01015 -0.03156,0.0074 -0.0065,-0.0039 -0.407616,0.673093 -0.425599,0.718253 -0.0022,0.0056 0.01583,0.0086 0.04017,0.0066 l 0.04425,-0.0036 z m 4.383585,0.08429 c 0.01154,-0.01045 0.02099,-0.02778 0.02099,-0.03852 0,-0.01074 0.0285,-0.09782 0.06334,-0.193503 0.05135,-0.141045 0.131764,-0.423673 0.131764,-0.463094 0,-0.02308 -0.02556,-0.0043 -0.05272,0.03872 -0.10543,0.167013 -0.234187,0.487264 -0.234187,0.582481 0,0.08299 0.02824,0.112463 0.07082,0.07393 z m -0.809811,-0.604582 c -0.0037,-0.01366 -0.0067,-0.06073 -0.0068,-0.1046 -1.88e-4,-0.09573 -0.01391,-0.08972 -0.0423,0.01855 -0.01623,0.06187 -0.01738,0.0818 -0.0062,0.1064 0.01196,0.02625 0.01699,0.02856 0.03787,0.01738 0.01726,-0.0092 0.0222,-0.01993 0.01742,-0.03773 z m -1.175718,-0.372944 c 0.0042,-0.11783 0.0047,-0.315784 0.0011,-0.439898 -0.0064,-0.223467 -0.0068,-0.225709 -0.03267,-0.230662 -0.01439,-0.0028 -0.03149,-0.0017 -0.03799,0.0023 -0.0528,0.03263 -0.04175,0.427414 0.02234,0.798314 0.02734,0.158174 0.03806,0.128639 0.04722,-0.130054 z m -1.280675,-0.310194 c 0.07436,-0.04367 0.08336,-0.05313 0.107978,-0.113558 0.08661,-0.212579 0.171479,-0.334897 0.245197,-0.353399 0.02337,-0.0059 0.02841,-0.01575 0.03382,-0.06628 0.01023,-0.09554 0.03259,-0.1475 0.07607,-0.17676 0.02158,-0.01452 0.048,-0.02362 0.05872,-0.02022 0.0154,0.0049 0.02683,-0.01183 0.05446,-0.07969 l 0.03498,-0.08588 -0.03393,0.0068 c -0.04664,0.0093 -0.06656,-0.01991 -0.06703,-0.09834 -3.65e-4,-0.06187 -3.22e-4,-0.06194 0.09073,-0.156783 l 0.09109,-0.09488 v -0.07542 c 0,-0.09141 0.01788,-0.13279 0.06823,-0.157945 0.07201,-0.03598 0.106552,-0.08814 0.122333,-0.18477 0.0104,-0.06367 0.04348,-0.0814 0.120889,-0.0648 0.04597,0.0099 0.07022,0.02325 0.09915,0.05475 0.02106,0.02293 0.03832,0.04833 0.03835,0.05642 6.9e-5,0.01979 -0.04946,0.116467 -0.07726,0.150799 -0.02063,0.02548 -0.02101,0.0303 -0.005,0.06301 0.0095,0.01948 0.02415,0.03951 0.03247,0.04452 0.06126,0.03683 0.0224,0.129945 -0.106438,0.255078 l -0.08529,0.08283 0.03184,0.01244 c 0.07725,0.03017 0.07194,0.03491 0.219305,-0.195398 0.192281,-0.30049 0.330006,-0.500025 0.384314,-0.556791 0.04277,-0.04471 0.04497,-0.05003 0.02845,-0.06886 -0.03095,-0.03528 -0.05059,-0.08507 -0.08931,-0.226458 -0.04159,-0.151838 -0.04281,-0.234293 -0.0051,-0.343154 0.02326,-0.06709 0.05414,-0.08337 0.194474,-0.102505 l 0.0938,-0.01279 0.02228,-0.04623 c 0.01738,-0.03605 0.03164,-0.04885 0.06479,-0.05816 0.05469,-0.01534 0.06577,-0.03233 0.140364,-0.215143 0.04391,-0.107619 0.07256,-0.161573 0.09792,-0.184402 0.02717,-0.02446 0.0441,-0.05865 0.06992,-0.141254 l 0.03407,-0.108984 -0.03931,-0.07106 c -0.02162,-0.03908 -0.04227,-0.08913 -0.04588,-0.111226 -0.0091,-0.05552 0.0563,-0.236733 0.0957,-0.265189 0.06982,-0.05043 0.321004,-0.06903 0.35639,-0.02639 0.0074,0.0089 0.02247,0.01615 0.03354,0.01615 0.02652,0 0.04298,0.02116 0.04776,0.06141 0.0035,0.02988 0.0076,0.02572 0.04722,-0.04783 l 0.04333,-0.08055 -0.02899,-0.04272 c -0.03479,-0.05126 -0.03623,-0.06926 -0.0068,-0.08501 0.03111,-0.01665 0.05356,-0.01481 0.07448,0.0061 0.01632,0.01632 0.03585,-0.01833 0.211802,-0.375851 0.207531,-0.421688 0.214847,-0.433726 0.57064,-0.938958 0.294974,-0.418868 0.285838,-0.404503 0.320695,-0.504272 l 0.02968,-0.08494 -0.02805,-0.05256 c -0.05569,-0.104349 -0.06858,-0.165748 -0.06251,-0.297907 0.0068,-0.14733 0.03446,-0.22953 0.09839,-0.291958 0.04145,-0.04048 0.139078,-0.0877 0.183005,-0.08853 0.0143,-2.69e-4 0.04659,-0.05481 0.1138,-0.192229 0.09637,-0.19703 0.31132,-0.563362 0.479574,-0.817317 0.05227,-0.0789 0.124303,-0.195098 0.160065,-0.258218 0.08037,-0.141854 0.116641,-0.177883 0.179074,-0.177883 0.02515,0 0.04572,-0.0051 0.04572,-0.01137 0,-0.0063 -0.05164,-0.03729 -0.114757,-0.06896 l -0.114756,-0.05759 -0.121097,0.04888 -0.121095,0.04888 0.08,0.0057 c 0.09336,0.0067 0.112244,0.01705 0.05082,0.02787 -0.158361,0.02789 -0.27404,0.08585 -0.4965,0.248767 -0.171503,0.125602 -0.176313,0.130233 -0.142453,0.137158 0.04184,0.0086 0.06173,0.01972 0.06173,0.03463 0,0.01821 -0.07305,0.05749 -0.09625,0.05175 -0.04479,-0.01109 -0.09022,0.07165 -0.0886,0.161383 5.85e-4,0.03248 -0.0066,0.07737 -0.01595,0.09978 -0.0094,0.0224 -0.01411,0.0483 -0.01056,0.05755 0.01041,0.02713 -0.02805,0.08886 -0.09759,0.156608 -0.03563,0.03472 -0.08773,0.09152 -0.115779,0.12624 -0.02804,0.03472 -0.0801,0.09669 -0.115671,0.137717 -0.05841,0.06736 -0.06417,0.0787 -0.05935,0.11689 0.0086,0.06802 -0.06273,0.24889 -0.146216,0.370855 -0.01728,0.02525 -0.04326,0.07431 -0.05772,0.109025 -0.05267,0.126438 -0.16451,0.249622 -0.470179,0.517877 -0.09784,0.08586 -0.186319,0.165851 -0.196631,0.177754 -0.01031,0.0119 -0.123287,0.210141 -0.251055,0.440529 -0.316961,0.571532 -0.647558,1.148795 -1.61612,2.821942 -0.699413,1.208204 -0.824413,1.430743 -0.813481,1.448248 0.01023,0.01638 0.0085,0.02553 -0.0082,0.04396 -0.02568,0.02838 -0.07996,0.279885 -0.0618,0.286387 0.0071,0.0025 0.0057,0.0081 -0.0035,0.01376 -0.0085,0.0052 -0.02417,0.05933 -0.03496,0.120485 -0.01347,0.07633 -0.03395,0.140933 -0.0656,0.20689 -0.02531,0.05275 -0.04244,0.09793 -0.03807,0.100407 0.0044,0.0025 0.02743,0.008 0.05124,0.01231 0.02381,0.0043 0.04938,0.01755 0.05681,0.02946 0.0074,0.0119 0.01636,0.02014 0.01983,0.01831 0.0035,-0.0018 0.04281,-0.02477 0.08743,-0.05097 z m 0.229979,-0.891922 c -0.0063,-0.0165 -0.003,-0.04401 0.01214,-0.0997 0.0067,-0.02454 0.08383,-0.0658 0.123062,-0.0658 0.0386,0 0.06756,0.03004 0.05377,0.05579 -0.0058,0.01087 -0.03657,0.04408 -0.06834,0.0738 -0.05978,0.05592 -0.1075,0.07012 -0.12063,0.0359 z m 0.215511,-0.287096 c -0.0092,-0.03673 0.0027,-0.158651 0.01832,-0.187895 0.03179,-0.05941 0.09516,-0.07608 0.148137,-0.03897 0.05192,0.03637 0.01246,0.141983 -0.08196,0.219358 -0.05501,0.04508 -0.07463,0.04683 -0.0845,0.0075 z m 0.282472,-0.499005 c 0,-0.02456 0.06709,-0.07945 0.09711,-0.07945 0.0298,0 0.02969,3.33e-4 -0.01543,0.0459 -0.04357,0.04401 -0.08168,0.05966 -0.08168,0.03355 z m 2.145084,-2.561604 c -0.02264,-0.01736 -0.04491,-0.05816 -0.04491,-0.08231 0,-0.02458 0.04883,-0.04531 0.08523,-0.03618 0.02277,0.0057 0.0295,0.01459 0.02937,0.03876 -1.95e-4,0.03498 -0.02239,0.0851 -0.04,0.0903 -0.0063,0.0019 -0.01967,-0.0029 -0.02969,-0.01057 z m 0.05968,-0.313288 c -0.03611,-0.04591 -0.03875,-0.06865 -0.01368,-0.117793 0.02589,-0.05074 0.09883,-0.116526 0.129215,-0.116526 0.0444,0 0.04772,0.110165 0.0058,0.191142 -0.04058,0.0783 -0.08205,0.09306 -0.121285,0.04318 z m 0.733474,4.399261 c 0.007,-0.02683 0.01746,-0.06685 0.02333,-0.08894 0.01861,-0.06999 0.01018,-0.229527 -0.01212,-0.229527 -0.01527,0 -0.06793,0.306086 -0.05973,0.34716 0.0075,0.0375 0.03567,0.02083 0.04852,-0.02869 z m -1.092456,-0.404541 c 0.02606,-0.0505 0.06545,-0.130544 0.08754,-0.177884 0.02209,-0.04734 0.05571,-0.114477 0.07472,-0.149193 0.01901,-0.03472 0.04336,-0.09042 0.0541,-0.123788 0.0182,-0.05652 0.01824,-0.06286 5.62e-4,-0.09278 -0.0166,-0.02809 -0.01744,-0.04617 -0.0067,-0.144642 0.0093,-0.08558 0.0088,-0.128642 -0.002,-0.179786 -0.0079,-0.03699 -0.0183,-0.06725 -0.02323,-0.06725 -0.01535,0 -0.03269,0.106402 -0.04084,0.250638 -0.0067,0.118105 -0.005,0.142664 0.01108,0.167273 0.01775,0.02709 0.01745,0.03254 -0.0048,0.08951 -0.01305,0.03336 -0.03364,0.07763 -0.04575,0.09836 -0.01211,0.02074 -0.05566,0.120191 -0.09677,0.221012 -0.06633,0.162663 -0.07458,0.191379 -0.07324,0.254946 l 0.0015,0.07164 0.0083,-0.06312 c 0.0051,-0.03856 0.02671,-0.09884 0.05566,-0.15493 z m 1.188484,-0.127179 c 0.0038,-0.01 0.007,-0.03869 0.007,-0.06379 0,-0.0251 0.01573,-0.107934 0.03495,-0.184075 0.01922,-0.07614 0.03277,-0.140613 0.03011,-0.143273 -0.007,-0.007 -0.0527,0.07337 -0.07777,0.136982 -0.03602,0.09138 -0.0435,0.272311 -0.01125,0.272311 0.0055,0 0.01317,-0.0082 0.01699,-0.01815 z m 0.705919,-0.727176 c 0.06376,-0.09939 0.06565,-0.103922 0.04342,-0.103922 -0.0235,0 -0.07423,-0.05942 -0.08328,-0.09755 -0.0045,-0.01894 -0.01743,-0.04334 -0.02874,-0.05424 -0.01973,-0.01901 -0.02039,-0.01392 -0.01633,0.12624 0.0023,0.08033 0.0046,0.162833 0.005,0.183347 4.01e-4,0.02051 0.0054,0.0373 0.0111,0.0373 0.0057,0 0.03669,-0.04103 0.06886,-0.09118 z m -0.124381,-0.253518 c 0.01221,-0.0065 0.0222,-0.01686 0.0222,-0.02295 0,-0.01961 -0.02846,-0.01179 -0.04324,0.01188 -0.01612,0.02581 -0.01127,0.02837 0.02104,0.01107 z m 1.519201,-0.02621 c -0.0037,-0.0075 0.0013,-0.0036 0.01117,0.0086 0.0307,0.03784 0.03122,0.01296 0.0011,-0.05505 -0.01585,-0.03584 -0.03588,-0.09731 -0.04452,-0.136611 -0.03088,-0.140504 -0.07925,-0.301904 -0.106781,-0.356341 -0.02023,-0.04001 -0.03918,-0.06003 -0.06833,-0.07221 -0.02728,-0.0114 -0.0457,-0.0297 -0.05691,-0.05654 -0.01102,-0.02638 -0.02423,-0.03968 -0.03938,-0.03968 -0.0463,0 -0.02229,0.127775 0.03559,0.18936 0.02499,0.02659 0.04168,0.06945 0.07331,0.188263 0.02252,0.08461 0.05462,0.178939 0.07132,0.209622 0.03832,0.0704 0.105427,0.14948 0.119484,0.140792 0.0059,-0.0036 0.0076,-0.01271 0.0039,-0.02017 z m -2.17524,-0.05504 c 0.03509,-0.01223 0.03585,-0.01376 0.01715,-0.03443 -0.02625,-0.029 -0.03172,-0.02751 -0.04693,0.0128 -0.0071,0.01894 -0.01163,0.03443 -0.01,0.03443 0.0017,0 0.01955,-0.0058 0.03975,-0.0128 z m 1.025439,-0.123619 c 0.01809,-0.05222 0.04041,-0.152207 0.04961,-0.222195 0.01653,-0.125802 0.01644,-0.127548 -0.008,-0.153568 -0.01932,-0.02056 -0.0294,-0.02382 -0.0461,-0.01488 -0.01866,0.01 -0.02137,0.007 -0.02137,-0.0234 0,-0.05876 -0.01596,-0.03925 -0.05131,0.06272 -0.0186,0.05365 -0.03825,0.09755 -0.04367,0.09755 -0.0054,0 -0.0072,-0.009 -0.004,-0.02008 0.0032,-0.01105 0.01465,-0.06554 0.02542,-0.121107 0.01439,-0.07427 0.01618,-0.104409 0.0068,-0.113813 -0.0169,-0.0169 -0.01726,-0.01544 -0.05023,0.200112 l -0.02759,0.180374 0.03274,0.07211 c 0.01801,0.03966 0.03567,0.09344 0.03925,0.11952 0.0061,0.04434 0.0084,0.0469 0.03605,0.03951 0.02471,-0.0066 0.03492,-0.02343 0.06243,-0.102847 z m 1.264082,0.05009 c 0.05867,-0.02451 0.132895,-0.09465 0.157618,-0.148932 0.02375,-0.05215 0.02591,-0.116975 0.0061,-0.182702 -0.02018,-0.06689 -0.03838,-0.06375 -0.07189,0.01241 -0.05723,0.130058 -0.06492,0.141575 -0.121902,0.182511 -0.05412,0.03888 -0.05713,0.0437 -0.05099,0.08157 0.0055,0.03359 0.02498,0.07262 0.03634,0.07262 0.0016,0 0.02175,-0.0079 0.04476,-0.01748 z m -0.768839,-0.06573 c -0.01929,-0.03391 -0.04241,-0.05252 -0.05787,-0.04659 -0.01209,0.0046 -0.0063,0.01366 0.02116,0.03309 0.04434,0.03136 0.04754,0.03253 0.03671,0.01349 z m 0.139113,-0.160284 c 0.01708,-0.0203 0.04203,-0.04238 0.05543,-0.04906 0.02881,-0.01436 0.03974,-0.05174 0.01514,-0.05174 -0.0093,0 -0.04968,-0.04904 -0.08978,-0.108982 -0.04011,-0.05994 -0.0791,-0.109003 -0.08665,-0.109025 -0.02728,-1.15e-4 0.04915,0.211244 0.08966,0.247904 0.01701,0.01539 0.01877,0.02221 0.0075,0.02933 -0.008,0.0051 -0.01837,0.0094 -0.02296,0.0095 -0.02016,4.25e-4 -0.05178,-0.07388 -0.130126,-0.305786 -0.04607,-0.136362 -0.08991,-0.253706 -0.09743,-0.260763 -0.01055,-0.0099 -0.01188,0.0081 -0.0058,0.07879 0.02348,0.273097 0.132586,0.556794 0.214136,0.556794 0.01088,0 0.03376,-0.01661 0.05085,-0.03691 z m -1.03664,0.0069 c 0.04166,-0.0213 0.168241,-0.02086 0.192033,6.77e-4 0.01659,0.01502 0.01841,0.0028 0.01997,-0.134847 9.41e-4,-0.08325 0.0065,-0.178121 0.01237,-0.210821 0.01016,-0.05669 0.0092,-0.0605 -0.01977,-0.08195 l -0.03043,-0.0225 -0.01364,0.122645 c -0.0075,0.06745 -0.01364,0.139191 -0.01364,0.159415 0,0.02022 -0.0048,0.03677 -0.01065,0.03677 -0.01614,0 -0.02657,-0.110408 -0.02206,-0.233608 l 0.004,-0.110067 -0.0515,-0.01097 c -0.02832,-0.006 -0.05188,-0.01005 -0.05236,-0.0089 -4.71e-4,0.0011 -0.0096,0.04854 -0.0202,0.105346 -0.02612,0.13954 -0.04149,0.191248 -0.05445,0.183239 -0.006,-0.0037 -0.01086,-0.04138 -0.01086,-0.08375 0,-0.06868 -0.03189,-0.22128 -0.05003,-0.239423 -0.0038,-0.0038 -0.02768,-0.009 -0.05304,-0.01153 l -0.04612,-0.0046 -0.0012,0.09525 c -6.65e-4,0.05239 -0.005,0.141733 -0.0097,0.198541 -0.0091,0.111206 -0.0093,0.109828 -0.022,-0.148404 l -0.0073,-0.148404 -0.03103,-0.0083 c -0.02984,-0.0079 -0.0313,-0.0062 -0.03817,0.04512 -0.0039,0.02936 -0.01708,0.09327 -0.02922,0.142015 -0.01214,0.04875 -0.02208,0.09136 -0.02208,0.09468 0,0.0033 -0.0052,0.006 -0.01148,0.006 -0.01349,0 -0.01443,-0.18611 -0.0013,-0.265484 l 0.0088,-0.05317 -0.07696,-0.01042 -0.07696,-0.01042 -0.0054,0.0808 c -0.003,0.04444 -0.01427,0.101461 -0.02506,0.126709 -0.01849,0.04327 -0.02054,0.04465 -0.03579,0.02403 -0.01848,-0.025 -0.05119,-0.130833 -0.05119,-0.165634 0,-0.01282 -0.005,-0.03656 -0.01119,-0.05275 -0.0099,-0.02603 -0.01765,-0.02944 -0.06702,-0.02944 h -0.05583 l -0.01472,0.0832 c -0.01675,0.0947 -0.05427,0.203706 -0.07012,0.203706 -0.006,0 -0.01065,-0.06472 -0.01065,-0.148242 v -0.148242 l -0.05795,-0.01243 c -0.03187,-0.0068 -0.06207,-0.01243 -0.06712,-0.01243 -0.005,0 -0.01521,0.04261 -0.02258,0.09468 -0.01341,0.09469 -0.05412,0.271583 -0.06501,0.282472 -0.01449,0.01449 -0.0284,-0.02503 -0.04996,-0.141886 -0.01281,-0.06943 -0.02681,-0.158958 -0.03112,-0.198945 l -0.0078,-0.07271 -0.03749,0.007 c -0.02202,0.0041 -0.05807,-1.38e-4 -0.08735,-0.01033 -0.06393,-0.02227 -0.06408,-0.02225 -0.07342,0.0072 l -0.0079,0.02486 -0.0187,-0.02343 c -0.01476,-0.01849 -0.03685,-0.02481 -0.104777,-0.02998 -0.04734,-0.0036 -0.103723,-0.0028 -0.125297,0.0017 l -0.03922,0.0083 -0.02075,0.12325 c -0.0179,0.106323 -0.04151,0.213933 -0.06285,0.286475 -0.0051,0.01738 0.0024,0.02008 0.05608,0.02008 h 0.06198 l 0.08963,-0.120501 c 0.103457,-0.139097 0.126374,-0.149969 0.139108,-0.06599 0.0045,0.02998 0.0087,0.09429 0.0093,0.142917 9.87e-4,0.08375 0.0025,0.08878 0.02903,0.09544 0.0154,0.0039 0.04162,0.01675 0.05829,0.02861 l 0.0303,0.02157 0.03288,-0.102885 c 0.01808,-0.05659 0.03833,-0.101104 0.045,-0.09892 0.02625,0.0086 0.04466,0.09635 0.04559,0.21736 5.28e-4,0.06784 0.0026,0.123357 0.0046,0.12337 0.01907,1.38e-4 0.05453,-0.03408 0.08656,-0.0835 0.02135,-0.03296 0.0537,-0.07344 0.07187,-0.08996 0.04026,-0.0366 0.129254,-0.06751 0.194353,-0.06751 0.05744,0 0.06537,-0.0084 0.09047,-0.09591 0.0106,-0.03697 0.02275,-0.06376 0.02698,-0.05952 0.0042,0.0042 0.0061,0.04295 0.0041,0.08603 -0.002,0.04308 0.0011,0.08122 0.0068,0.08477 0.0057,0.0035 0.02239,-0.01783 0.037,-0.0475 0.03115,-0.06327 0.04185,-0.04906 0.02439,0.03238 -0.01556,0.07258 -0.0054,0.09047 0.07312,0.128985 0.03245,0.01591 0.08715,0.05451 0.121544,0.08576 0.06037,0.05485 0.06374,0.05631 0.09697,0.04193 0.05436,-0.02351 0.112407,-0.01923 0.156103,0.0115 0.04498,0.03164 0.123551,0.03679 0.173272,0.01137 z m -2.096501,-0.253979 c 0.07765,-0.07902 0.120269,-0.10276 0.120269,-0.06701 0,0.0089 -0.0099,0.04785 -0.0219,0.08654 l -0.0219,0.07035 0.07641,-0.0427 c 0.04202,-0.02348 0.09223,-0.05016 0.111567,-0.05927 l 0.03516,-0.01658 0.02015,-0.209817 c 0.01108,-0.115398 0.02289,-0.220298 0.02624,-0.233109 0.0051,-0.01954 -0.001,-0.02465 -0.03809,-0.03172 -0.0243,-0.0046 -0.06393,-0.0088 -0.08806,-0.0093 -0.04302,-8.96e-4 -0.04442,4.13e-4 -0.07181,0.06724 -0.01537,0.03748 -0.02507,0.07719 -0.02156,0.08824 0.004,0.01267 -0.0018,0.02444 -0.01563,0.03187 -0.01211,0.0065 -0.0338,0.04165 -0.04821,0.07816 -0.05148,0.130444 -0.128741,0.268445 -0.167695,0.299527 -0.04174,0.03331 -0.04653,0.04697 -0.02428,0.06933 0.0115,0.01156 0.01764,0.0092 0.03096,-0.01205 0.0091,-0.01456 0.05341,-0.06391 0.09838,-0.109671 z m 3.861562,-0.03809 c 0,-0.07678 -0.03791,-0.189846 -0.09139,-0.272599 -0.0252,-0.039 -0.04893,-0.0709 -0.05272,-0.0709 -0.01239,0 0.0079,0.07208 0.05928,0.210234 0.05423,0.145942 0.05995,0.18071 0.03332,0.202811 -0.0094,0.0078 -0.01402,0.01915 -0.01027,0.02522 0.0038,0.0061 0.01918,-5.74e-4 0.0343,-0.01478 0.02146,-0.02016 0.02748,-0.03768 0.02748,-0.07999 z m -0.613821,-0.325127 c -0.02935,-0.09827 -0.05895,-0.212317 -0.06576,-0.253449 -0.0068,-0.04113 -0.0174,-0.07479 -0.02352,-0.07479 -0.0158,0 7.12e-4,0.159106 0.02741,0.263957 0.02273,0.08931 0.09749,0.260689 0.108792,0.24939 0.0035,-0.0035 -0.01757,-0.08685 -0.04692,-0.185113 z m -0.38504,-0.01213 c 0.01749,-0.02107 0.006,-0.04067 -0.0238,-0.04067 -0.03853,0 -0.05605,-0.06863 -0.09164,-0.358965 -0.01855,-0.151276 -0.03748,-0.280871 -0.04208,-0.287987 -0.02642,-0.04087 -0.03416,0.392753 -0.0091,0.510888 0.01835,0.08659 0.05403,0.163685 0.08378,0.181006 0.02914,0.01697 0.06685,0.01503 0.08287,-0.0043 z m -4.601778,-0.0034 c -4.58e-4,-0.02245 -0.01844,-0.03557 -0.03456,-0.02522 -0.01486,0.0096 -0.01482,0.01224 3.03e-4,0.02217 0.02067,0.01357 0.03449,0.0148 0.03425,0.003 z m -0.130024,-0.03533 c -0.01045,-0.01154 -0.01919,-0.03349 -0.01944,-0.04877 -4e-4,-0.02471 -0.0023,-0.02351 -0.01721,0.01083 -0.02116,0.04874 -0.02222,0.04511 0.01479,0.05071 0.01736,0.0026 0.03365,0.0056 0.03621,0.0065 0.0026,9.41e-4 -0.0039,-0.0077 -0.01435,-0.01927 z m 0.07282,-0.139682 c 0,-0.0063 -0.0049,-0.01148 -0.0108,-0.01148 -0.0059,0 -0.01399,0.0052 -0.01789,0.01148 -0.0039,0.0063 9.58e-4,0.01148 0.0108,0.01148 0.0098,0 0.01789,-0.0052 0.01789,-0.01148 z m 5.306079,-0.100477 c 0.0057,-0.0092 -0.0082,-0.05724 -0.09538,-0.329887 -0.03028,-0.09468 -0.05821,-0.201059 -0.06207,-0.236397 -0.0039,-0.03534 -0.01519,-0.08698 -0.02518,-0.114763 -0.01,-0.02778 -0.023,-0.100386 -0.0289,-0.161342 -0.0059,-0.06096 -0.02555,-0.159079 -0.04365,-0.218051 -0.0181,-0.05897 -0.03654,-0.130461 -0.04098,-0.158865 -0.0044,-0.0284 -0.02535,-0.08022 -0.04649,-0.115157 -0.0569,-0.09405 -0.07422,-0.185277 -0.06776,-0.356902 l 0.0054,-0.143588 -0.06986,-0.144522 c -0.08905,-0.184207 -0.115312,-0.198578 -0.131157,-0.07176 -0.0048,0.03811 7.11e-4,0.113209 0.01514,0.207681 0.01243,0.08139 0.02818,0.215118 0.03498,0.297174 0.01246,0.15021 0.0815,0.445993 0.136804,0.586163 0.01264,0.03204 0.03114,0.105527 0.04112,0.163308 0.01,0.05778 0.02796,0.129693 0.03997,0.159801 0.01202,0.03011 0.03731,0.09348 0.05622,0.140815 0.0189,0.04734 0.05608,0.132552 0.08262,0.18936 0.02654,0.05681 0.06366,0.14202 0.08248,0.18936 0.01883,0.04734 0.04235,0.09511 0.05228,0.106156 0.01846,0.02054 0.05478,0.02698 0.0644,0.01142 z m -1.062209,-0.140516 c -0.0023,-0.01934 -0.01146,-0.02986 -0.02819,-0.03224 -0.03484,-0.005 -0.04601,0.03595 -0.02045,0.07495 0.01911,0.02917 0.02024,0.02942 0.03587,0.0081 0.0089,-0.01214 0.01462,-0.03498 0.01278,-0.05076 z m -0.164025,-0.07989 c 0,-0.0092 -0.0179,-0.02882 -0.03977,-0.04356 -0.07093,-0.0478 -0.13664,-0.01281 -0.08081,0.04303 0.01857,0.01857 0.03562,0.02346 0.07243,0.02079 0.03296,-0.0024 0.04814,-0.0088 0.04814,-0.02025 z m -0.335683,-0.104348 c 0.05362,-0.01489 0.05467,-0.03624 0.0033,-0.06796 -0.0551,-0.03405 -0.118348,-0.04344 -0.127744,-0.01895 -0.0117,0.03049 0.0056,0.07627 0.03294,0.08729 0.03389,0.01364 0.04113,0.01361 0.09147,-3.79e-4 z m -0.858747,-0.110126 c 0.03738,-0.01191 0.06984,-0.02727 0.07213,-0.03414 0.0106,-0.03182 -0.296595,-0.05949 -0.389712,-0.0351 -0.03436,0.009 -0.04115,0.03731 -0.01893,0.07884 0.01189,0.02222 0.02013,0.02326 0.140585,0.01783 0.07864,-0.0035 0.154149,-0.01412 0.195925,-0.02742 z m 0.141552,0.01284 c 0.0088,-0.01576 0.01413,-0.01576 0.05185,0 0.05898,0.02464 0.19195,0.02121 0.19195,-0.005 0,-0.0046 -0.0474,-0.02259 -0.105338,-0.03998 -0.05793,-0.01739 -0.111903,-0.03413 -0.119927,-0.03721 -0.013,-0.005 -0.05017,0.06142 -0.05017,0.08963 0,0.01644 0.02103,0.01147 0.03164,-0.0075 z m 1.820934,-0.03696 c -0.02081,-0.09392 -0.10957,-0.578943 -0.119241,-0.651568 -0.01477,-0.110939 -0.01744,-0.28122 -0.0061,-0.387042 0.0071,-0.0663 0.0057,-0.07747 -0.0097,-0.07747 -0.02875,0 -0.03629,0.06677 -0.03629,0.321338 0,0.181307 0.0049,0.261587 0.02147,0.350029 0.02374,0.12689 0.128667,0.464793 0.14433,0.464793 0.0055,0 0.0079,-0.009 0.0055,-0.02008 z m -0.4729,-0.482007 c 0.0096,-0.01105 0.02314,-0.03816 0.02999,-0.06025 0.02319,-0.07484 0.0708,-0.371688 0.06987,-0.435639 -0.0012,-0.08559 -0.02315,-0.16687 -0.04498,-0.16687 -0.0095,0 -0.03856,0.03763 -0.06466,0.08361 -0.05427,0.09564 -0.07137,0.178323 -0.08135,0.39323 -0.0051,0.109411 -0.0028,0.138965 0.01284,0.169277 0.02118,0.04095 0.05143,0.04739 0.07829,0.01664 z m -0.590672,-0.381662 c 0.03587,-0.05486 0.04724,-0.09174 0.02828,-0.09174 -0.005,0 -0.02557,0.03357 -0.0458,0.0746 -0.04364,0.08849 -0.0348,0.09714 0.01751,0.01714 z m -0.636938,-0.05615 c 0.04975,-0.04652 0.05676,-0.08149 0.01635,-0.08149 -0.04178,0 -0.09955,0.07364 -0.09955,0.126891 0,0.02897 0.0088,0.02415 0.0832,-0.0454 z m 0.924288,-0.141745 c 0.01821,-0.02683 0.04749,-0.07554 0.06508,-0.108265 0.02749,-0.05115 0.04069,-0.06302 0.09407,-0.08469 0.07502,-0.03045 0.12455,-0.08493 0.180918,-0.199011 0.0343,-0.06943 0.0406,-0.09374 0.03906,-0.150954 -0.0019,-0.07221 0.01825,-0.125578 0.0475,-0.125578 0.02464,0 0.04364,-0.07348 0.02246,-0.08689 -0.02516,-0.01593 -0.04293,-0.01271 -0.06793,0.01229 -0.01262,0.01262 -0.03104,0.02295 -0.04092,0.02295 -0.0218,0 -0.0652,0.02192 -0.07587,0.03833 -0.0043,0.0066 0.0017,0.03032 0.01322,0.05279 l 0.02098,0.04086 -0.04743,0.02295 c -0.03648,0.01765 -0.05676,0.03951 -0.08782,0.09466 -0.02221,0.03944 -0.06708,0.09499 -0.0997,0.123441 -0.05349,0.04665 -0.06448,0.06501 -0.111895,0.186896 -0.05801,0.149118 -0.06082,0.164674 -0.03455,0.19095 0.02854,0.02854 0.04732,0.02157 0.08282,-0.03074 z m -0.0454,-0.25664 c 0.05221,-0.06334 0.05566,-0.126822 0.0064,-0.11733 -0.02581,0.005 -0.0507,0.05327 -0.05888,0.114232 -0.0076,0.05634 0.0079,0.05724 0.0525,0.0031 z m -0.428231,-0.01174 c 0.06333,-0.04191 0.127502,-0.104023 0.168706,-0.163283 0.0277,-0.03984 0.03161,-0.05205 0.01914,-0.05976 -0.02755,-0.01703 -0.09336,0.04117 -0.204755,0.181073 -0.06569,0.0825 -0.06119,0.09366 0.01691,0.04197 z m -1.075778,-1.222352 c -0.0032,-0.0094 -0.01328,3.83e-4 -0.02552,0.02463 l -0.02028,0.04017 0.02552,-0.02463 c 0.01404,-0.01354 0.02316,-0.03162 0.02028,-0.04017 z m -1.655801,-0.227854 c 0.0039,-0.0063 0.0016,-0.01148 -0.0051,-0.01148 -0.0067,0 -0.01215,0.0052 -0.01215,0.01148 0,0.0063 0.0023,0.01148 0.0051,0.01148 0.0028,0 0.0083,-0.0052 0.01215,-0.01148 z m 0.142476,-0.256984 c 0.05792,-0.180816 0.05827,-0.297647 9.88e-4,-0.328305 -0.03751,-0.02008 -0.09182,0.06432 -0.09182,0.142693 0,0.02085 -0.0077,0.08193 -0.01706,0.135716 -0.01853,0.106291 -0.0096,0.163965 0.02655,0.17218 0.03262,0.0074 0.04645,-0.01339 0.08134,-0.122284 z m 3.550796,-0.147557 c 0.01731,-0.05719 0.02472,-0.09924 0.01969,-0.111895 -0.0013,-0.0032 -0.0047,-0.02967 -0.0077,-0.05893 -0.0092,-0.09063 -0.02046,-0.118597 -0.04928,-0.122793 -0.0145,-0.0021 -0.0313,0.0011 -0.03732,0.0071 -0.01922,0.01921 0.02557,0.34676 0.04741,0.34676 0.0049,0 0.01716,-0.02711 0.0272,-0.06025 z m -3.504794,-0.48684 c 4.85e-4,-0.02633 0.01139,-0.09209 0.02422,-0.146143 0.02167,-0.09123 0.02203,-0.100808 0.0051,-0.133598 -0.01131,-0.02187 -0.02551,-0.03393 -0.03728,-0.03166 -0.03277,0.0063 -0.06893,0.07535 -0.08293,0.158324 -0.01517,0.08995 -0.0075,0.145388 0.02427,0.175572 0.01264,0.01201 0.02162,0.03623 0.02162,0.05834 0,0.09579 0.0432,0.01824 0.04502,-0.08083 z m 0.0996,-0.526072 c 0.05129,-0.05129 0.04669,-0.166284 -0.0067,-0.166284 -0.01276,0 -0.03424,0.01104 -0.04774,0.02454 -0.02262,0.02262 -0.02405,0.03292 -0.01816,0.131543 0.0076,0.127282 0.02043,0.158239 0.03581,0.08638 0.0059,-0.0276 0.02245,-0.06188 0.03675,-0.07618 z m 4.764976,-0.07641 c 0.0032,-0.03681 -0.0019,-0.04433 -0.05738,-0.08621 -0.03346,-0.02524 -0.08924,-0.05518 -0.123955,-0.06654 -0.09311,-0.03047 -0.187585,-0.08023 -0.307842,-0.162156 -0.119812,-0.08162 -0.331811,-0.249787 -0.448022,-0.355385 -0.156012,-0.141766 -0.474077,-0.361093 -0.656838,-0.452935 -0.06057,-0.03044 -0.161278,-0.07332 -0.223789,-0.09528 -0.157888,-0.05548 -0.180317,-0.06582 -0.324417,-0.149575 -0.16674,-0.09691 -0.256926,-0.127278 -0.36558,-0.123098 -0.104613,0.004 -0.189038,-0.03123 -0.273278,-0.114137 -0.06239,-0.0614 -0.182963,-0.120169 -0.332444,-0.162035 -0.04418,-0.01237 -0.103574,-0.03563 -0.131978,-0.05168 -0.0284,-0.01605 -0.162677,-0.08561 -0.298385,-0.154572 -0.266659,-0.135516 -0.295317,-0.143135 -0.335414,-0.08918 -0.01642,0.02209 -0.0202,0.03979 -0.01472,0.06896 0.007,0.0374 0.0116,0.04059 0.09775,0.068 0.08349,0.02657 0.0889,0.02707 0.07097,0.0066 -0.01555,-0.01778 -0.01599,-0.02096 -0.0022,-0.01597 0.06065,0.02193 0.602953,0.283652 0.906633,0.437554 0.474618,0.240532 0.616872,0.320082 0.946799,0.529459 0.374164,0.237451 0.452883,0.282334 0.751702,0.428603 0.14202,0.06952 0.309007,0.155772 0.371082,0.191677 0.06207,0.0359 0.155033,0.0806 0.206575,0.09933 0.05154,0.01873 0.126241,0.053 0.166001,0.07615 0.06103,0.03555 0.07131,0.04602 0.06597,0.06727 -0.0055,0.02208 0.0011,0.02736 0.05395,0.04311 0.03315,0.0099 0.099,0.03777 0.146337,0.06199 0.04734,0.02422 0.09124,0.04322 0.09755,0.04223 0.0063,-9.94e-4 0.01303,-0.01995 0.01493,-0.04214 z m -2.41556,-0.117098 c 0.119986,-0.09346 0.230404,-0.164356 0.347241,-0.22294 0.101711,-0.051 0.302429,-0.121287 0.383579,-0.134322 0.0284,-0.0046 0.05803,-0.01176 0.06584,-0.01598 0.008,-0.0043 -0.04983,-0.03448 -0.131978,-0.06886 -0.197545,-0.08267 -0.519271,-0.248477 -0.656071,-0.338111 l -0.111976,-0.07337 -0.0073,0.271128 c -0.0066,0.247865 -0.02196,0.503824 -0.03668,0.61255 -0.0054,0.04012 -0.0038,0.04304 0.0238,0.04304 0.01893,0 0.06353,-0.02641 0.123506,-0.07313 z m -2.343683,-0.221955 c -0.01102,-0.01894 -0.01197,-0.01868 -0.01229,0.0034 -3.88e-4,0.02657 0.01418,0.04728 0.02031,0.02888 0.0022,-0.0065 -0.0015,-0.02099 -0.008,-0.03228 z m 0.05418,-0.0018 c 0.0083,-0.0053 0.01677,-0.02199 0.01873,-0.03712 0.002,-0.01513 0.01708,-0.07327 0.0336,-0.129205 0.03037,-0.102793 0.03988,-0.213898 0.01832,-0.213898 -0.02268,0 -0.07807,0.105168 -0.101901,0.193471 -0.02684,0.09947 -0.02979,0.141669 -0.01221,0.174527 0.01308,0.02443 0.02079,0.0266 0.04346,0.01223 z m 0.07559,-0.551149 c 0.0088,-0.07767 -5.2e-5,-0.127461 -0.02263,-0.127461 -0.0087,0 -0.01887,0.01822 -0.02324,0.0415 -0.0084,0.04489 0.01413,0.168953 0.02904,0.15974 0.005,-0.0031 0.01258,-0.0363 0.01682,-0.07378 z m 3.434401,-0.197306 c 0.0039,-0.01948 0.0141,-0.03811 0.02267,-0.04139 0.0086,-0.0033 0.01558,-0.01221 0.01558,-0.01982 0,-0.01875 0.106399,-0.172978 0.256788,-0.372224 0.164185,-0.217524 0.309708,-0.442051 0.454818,-0.701739 0.06525,-0.116772 0.186971,-0.332368 0.270489,-0.479101 0.102468,-0.180025 0.142442,-0.259387 0.122919,-0.244029 -0.01591,0.01252 -0.03317,0.02014 -0.03835,0.01694 -0.0052,-0.0032 -0.02471,0.01624 -0.04341,0.04319 -0.04479,0.06457 -0.105148,0.121818 -0.105148,0.09973 0,-0.0181 0.04665,-0.09259 0.08368,-0.133608 l 0.02303,-0.02551 -0.03079,-0.0686 c -0.02909,-0.06483 -0.02985,-0.07085 -0.01374,-0.109411 0.02254,-0.05395 0.112535,-0.08845 0.183944,-0.07053 0.02424,0.0061 0.02931,0.01411 0.02931,0.04635 0,0.02145 -0.0102,0.06396 -0.02266,0.09446 -0.02777,0.06799 -0.03647,0.08088 0.17555,-0.260135 0.09615,-0.154644 0.192234,-0.306473 0.213526,-0.337397 0.03125,-0.04538 0.03616,-0.05977 0.02548,-0.0746 -0.02591,-0.03598 -0.03927,-0.0766 -0.04486,-0.136473 -0.0031,-0.0334 -0.0089,-0.05899 -0.01282,-0.05687 -0.0039,0.0021 -0.0419,0.02084 -0.08437,0.04161 -0.06823,0.03335 -0.0816,0.0363 -0.114764,0.02526 -0.02065,-0.0069 -0.04891,-0.02925 -0.06281,-0.04974 -0.0306,-0.04512 -0.06081,-0.156027 -0.06081,-0.223289 0,-0.02708 -0.0039,-0.04915 -0.0086,-0.04904 -0.0047,1.03e-4 -0.04992,0.02068 -0.100418,0.04571 -0.09853,0.04885 -0.157642,0.0574 -0.190621,0.02755 -0.0189,-0.01711 -0.02248,-0.01504 -0.05255,0.0304 -0.01775,0.02681 -0.05034,0.06735 -0.07243,0.09008 l -0.04017,0.04133 -0.0035,-0.04271 c -0.0037,-0.04499 0.03343,-0.124214 0.08493,-0.181076 0.02486,-0.02744 0.02546,-0.03268 0.01397,-0.120502 -0.0066,-0.0505 -0.01382,-0.09827 -0.01602,-0.106156 -0.0028,-0.0099 -0.03171,-0.01436 -0.09331,-0.01441 -0.111604,-8e-5 -0.165201,-0.01466 -0.215156,-0.05852 -0.04122,-0.03619 -0.07093,-0.103056 -0.05674,-0.127685 0.0046,-0.008 0.0043,-0.01089 -6.66e-4,-0.0064 -0.005,0.0045 -0.0665,0.108697 -0.136687,0.231549 l -0.127622,0.223367 0.0037,0.09119 c 0.0034,0.0837 0.006,0.09224 0.03156,0.103889 0.04055,0.01848 0.03579,0.05692 -0.02223,0.179399 -0.05057,0.10675 -0.08369,0.14365 -0.128939,0.14365 -0.03362,0 -0.05166,-0.02481 -0.06328,-0.08702 -0.0072,-0.03864 -0.0053,-0.06302 0.0072,-0.09309 0.02523,-0.06039 0.02049,-0.06169 -0.01282,-0.0035 -0.0713,0.124554 -0.419257,0.816001 -0.415812,0.826286 0.0021,0.0063 0.02189,0.03407 0.04398,0.0618 l 0.04017,0.05042 0.109026,-0.0589 c 0.101511,-0.05484 0.114561,-0.0589 0.18936,-0.05897 0.06256,-5.7e-5 0.08711,0.005 0.110953,0.02288 0.03564,0.02672 0.06693,0.08602 0.06693,0.126862 v 0.02853 l 0.04545,-0.02319 c 0.06229,-0.03178 0.142967,-0.03067 0.191933,0.0026 0.04337,0.0295 0.05448,0.05801 0.07269,0.186491 0.02133,0.150538 0.01319,0.139412 0.09797,0.134014 0.05493,-0.0035 0.0812,5.7e-5 0.102233,0.01384 0.02691,0.01763 0.02899,0.01727 0.04202,-0.0073 0.0075,-0.0142 0.0437,-0.05964 0.08035,-0.100967 0.05237,-0.05905 0.06611,-0.0823 0.06416,-0.108576 -0.0033,-0.04395 0.0285,-0.05118 0.0665,-0.01515 0.03336,0.03163 0.03582,0.0616 0.0084,0.102636 -0.07475,0.112026 -0.111002,0.159357 -0.122066,0.159381 -0.01916,4.5e-5 -0.07584,0.11596 -0.07583,0.155085 5e-6,0.04748 -0.06893,0.179372 -0.09148,0.17503 -0.02046,-0.0039 -0.04495,-0.07143 -0.05442,-0.149978 -0.0054,-0.04471 -0.01011,-0.05368 -0.02505,-0.04758 -0.122853,0.05017 -0.181565,0.01282 -0.218393,-0.138932 -0.01217,-0.05016 -0.02541,-0.115734 -0.02941,-0.145716 -0.004,-0.02998 -0.01147,-0.05451 -0.01659,-0.05451 -0.0051,0 -0.04224,0.02633 -0.0825,0.05851 -0.09085,0.07263 -0.108637,0.08225 -0.135976,0.07357 -0.03233,-0.01026 -0.06715,-0.09312 -0.07601,-0.180859 -0.0052,-0.05122 -0.0128,-0.07747 -0.02252,-0.07747 -0.03027,0 -0.051,0.01464 -0.051,0.03602 0,0.03617 -0.032,0.101691 -0.04967,0.101691 -0.009,0 -0.02282,-0.01549 -0.03067,-0.03443 -0.0078,-0.01894 -0.01559,-0.03443 -0.01721,-0.03443 -0.0016,0 -0.02148,0.0077 -0.04415,0.01722 -0.114606,0.04789 -0.171026,0.0041 -0.227231,-0.176158 -0.0027,-0.0085 -0.0418,0.06251 -0.08699,0.15785 -0.05936,0.12524 -0.07618,0.17014 -0.06062,0.161812 0.02658,-0.01422 0.07689,-0.01506 0.08532,-0.0014 0.0034,0.0056 -0.0097,0.03009 -0.02919,0.05451 -0.0522,0.06541 -0.09868,0.163684 -0.108051,0.228447 -0.01273,0.08794 -0.03768,0.152867 -0.09306,0.242169 -0.03505,0.05652 -0.05289,0.09952 -0.05753,0.138682 -0.0048,0.0402 -0.01366,0.06109 -0.0305,0.07161 -0.021,0.01312 -0.02687,0.01125 -0.05027,-0.01595 -0.01457,-0.01694 -0.02717,-0.04471 -0.028,-0.06172 -8.27e-4,-0.01701 -0.0053,-0.0012 -0.01,0.03509 -0.0102,0.07963 -0.05106,0.146252 -0.114089,0.186043 -0.04262,0.0269 -0.126933,0.131495 -0.107391,0.133216 0.005,4.43e-4 -0.0012,0.0052 -0.0138,0.01067 -0.01975,0.0085 -0.01816,0.01 0.01144,0.01067 0.06066,0.0014 0.594927,0.186028 0.720596,0.248986 0.08318,0.04167 0.335241,0.203739 0.347354,0.223337 0.01289,0.02086 0.0288,0.0098 0.03574,-0.02493 z m -0.106357,-0.156989 c -0.0069,-0.0046 -0.01873,-0.02001 -0.02618,-0.03417 -0.01162,-0.02206 -0.0029,-0.05548 0.06115,-0.234254 0.04108,-0.114685 0.08599,-0.220541 0.0998,-0.235235 0.02752,-0.0293 0.132545,-0.07286 0.175658,-0.07286 0.03883,0 0.08666,0.06064 0.08666,0.109861 0,0.09637 -0.09057,0.288965 -0.177884,0.378288 -0.07032,0.07193 -0.178499,0.115541 -0.219202,0.08836 z m -0.179601,-0.08395 c -0.02272,-0.01323 -0.05451,-0.06925 -0.05451,-0.09606 0,-0.02486 0.0269,-0.02217 0.05164,0.0052 0.01446,0.01598 0.03535,0.02295 0.06872,0.02295 0.06166,0 0.06774,0.0074 0.03918,0.04748 -0.0247,0.03468 -0.0666,0.04285 -0.105036,0.02046 z m -0.512057,-0.39793 c -0.01853,-0.03462 -0.01604,-0.07123 0.0054,-0.07945 0.035,-0.01343 0.05127,0.04399 0.0233,0.08224 -0.01521,0.0208 -0.01611,0.02071 -0.02869,-0.0028 z m 1.108121,-0.379152 c -0.01066,-0.01178 -0.01938,-0.03199 -0.01938,-0.04492 0,-0.02565 0.02766,-0.05481 0.043,-0.04533 0.0053,0.0033 0.0074,-0.01244 0.0048,-0.03487 -0.0058,-0.04934 0.01801,-0.04849 0.04237,0.0015 0.01327,0.02725 0.01307,0.03996 -0.0014,0.08523 -0.01878,0.05891 -0.04018,0.07073 -0.06946,0.03838 z m -0.274963,-0.169991 c -0.0043,-0.0043 -0.02405,-0.0092 -0.04378,-0.01072 -0.01974,-0.0016 -0.04347,-0.0104 -0.05273,-0.01967 -0.01481,-0.01481 -0.01252,-0.01771 0.01894,-0.02401 0.03122,-0.0062 0.03426,-0.01001 0.02383,-0.0295 -0.01562,-0.02919 0.01208,-0.05851 0.05481,-0.058 0.03493,4.14e-4 0.06175,0.01783 0.07898,0.05128 0.02234,0.04337 -0.04784,0.122818 -0.08003,0.09062 z m 0.517944,-0.497795 c -0.02318,-0.01944 -0.02461,-0.02443 -0.0099,-0.03455 0.02182,-0.01499 0.08293,-0.01005 0.08857,0.0072 0.0045,0.0137 -0.02618,0.05011 -0.04221,0.05011 -0.0052,0 -0.02158,-0.01022 -0.03648,-0.02272 z m -0.31723,-0.170595 c -0.0227,-0.01439 -0.0027,-0.05251 0.04913,-0.09371 0.03664,-0.02912 0.04665,-0.03281 0.0496,-0.01828 0.0039,0.01925 -0.05305,0.111697 -0.07255,0.117746 -0.0063,0.002 -0.01809,-6.32e-4 -0.02618,-0.0058 z m 0.102728,-0.02084 c -0.01687,-0.03014 0.0076,-0.08506 0.124881,-0.280398 0.138126,-0.230038 0.193536,-0.291943 0.176237,-0.196895 -0.0043,0.02367 -0.02331,0.07402 -0.04223,0.111894 -0.03758,0.07522 -0.222248,0.369056 -0.238108,0.378857 -0.0054,0.0033 -0.01476,-0.0027 -0.02078,-0.01346 z m -0.36805,-0.391221 c 0.0015,-0.085 0.01224,-0.122319 0.03666,-0.127021 0.01605,-0.0031 0.01954,0.0052 0.01933,0.04584 -2.3e-4,0.04503 -0.03551,0.147165 -0.05083,0.147165 -0.0035,0 -0.0058,-0.0297 -0.0052,-0.06599 z m 1.375526,-0.0092 c -0.01842,-0.0222 -0.02779,-0.16046 -0.01434,-0.211684 0.01384,-0.05273 0.05781,-0.07914 0.09984,-0.05999 0.02686,0.01224 0.02976,0.01981 0.02976,0.07767 0,0.112799 -0.0762,0.241068 -0.115256,0.19401 z m -3.506621,2.26893 c 0.01891,-0.0306 -0.119881,-0.105043 -0.195836,-0.105043 -0.03096,0 -0.03124,7.92e-4 -0.0138,0.03907 0.01147,0.02518 0.04387,0.04674 0.101696,0.06765 0.02776,0.01004 0.101404,0.0089 0.10794,-0.0017 z m -0.463707,-0.286518 c 0,-0.0051 -0.0142,-0.02238 -0.03156,-0.03832 -0.100349,-0.09218 -0.241792,-0.13486 -0.214926,-0.06485 0.0075,0.01945 0.03048,0.03172 0.148937,0.07938 0.08775,0.03531 0.09755,0.0377 0.09755,0.02379 z m -0.725674,-0.197245 c 0.01137,-0.01821 0.02678,-0.02296 0.07449,-0.02297 0.07235,-2.3e-5 0.140488,-0.03031 0.140488,-0.06246 0,-0.06136 -0.191239,-0.09664 -0.247772,-0.04572 -0.03684,0.03319 -0.04758,0.07097 -0.03285,0.115585 0.01447,0.04385 0.04366,0.05077 0.06565,0.01556 z m 1.298536,-0.03871 c -0.0026,-0.0024 -0.02286,-0.01299 -0.04495,-0.02364 l -0.04017,-0.01936 0.02869,0.02339 c 0.01578,0.01286 0.03601,0.0235 0.04495,0.02364 0.0089,1.4e-4 0.01411,-0.0017 0.01148,-0.004 z m 3.940327,-2.471746 c 0.114936,-0.179984 0.226548,-0.373536 0.226548,-0.392866 0,-0.0064 -0.0055,-0.01168 -0.01219,-0.01168 -0.0067,0 -0.05447,-0.04262 -0.106156,-0.0947 -0.112696,-0.113574 -0.157215,-0.194803 -0.156837,-0.286165 2.52e-4,-0.06105 0.03045,-0.147771 0.05721,-0.164314 0.01553,-0.0096 -0.150221,-0.10623 -0.404628,-0.235903 -0.09464,-0.04824 -0.157828,-0.07453 -0.157871,-0.06569 0,0.0081 -0.0069,0.02779 -0.01521,0.04374 -0.02871,0.055 -0.03066,0.08002 -0.0062,0.08002 0.03671,0 0.03644,0.02775 -0.0012,0.118083 -0.04029,0.09677 -0.07519,0.13868 -0.09244,0.110988 -0.0057,-0.0092 -0.01376,-0.03871 -0.01782,-0.06553 -0.0041,-0.02683 -0.01353,-0.04877 -0.02106,-0.04877 -0.02881,0 -0.220248,0.162942 -0.230914,0.196546 -0.01652,0.05206 -0.08599,0.0065 -0.130585,-0.0856 -0.02016,-0.04165 -0.02513,-0.06689 -0.0203,-0.103132 0.0051,-0.03836 0.0039,-0.04338 -0.0059,-0.02503 -0.0068,0.01262 -0.0743,0.128822 -0.150078,0.258218 -0.07578,0.129396 -0.140237,0.239635 -0.143242,0.244976 -0.003,0.0053 0.0042,0.0078 0.01598,0.0055 0.01179,-0.0023 0.02998,0.0061 0.04042,0.01887 0.02086,0.02542 0.05225,0.02706 0.223388,0.01172 0.111372,-0.01 0.157389,0.0023 0.209236,0.05577 0.0285,0.0294 0.03977,0.05459 0.04996,0.111678 0.0072,0.04054 0.01386,0.07488 0.0147,0.07631 8.5e-4,0.0014 0.0284,-0.0076 0.06123,-0.02008 0.06764,-0.0257 0.176956,-0.02978 0.219007,-0.0082 0.05013,0.02576 0.07171,0.06928 0.08456,0.170587 0.0067,0.05284 0.01314,0.09745 0.0143,0.09914 0.0012,0.0017 0.02483,-0.0072 0.05259,-0.01983 0.03127,-0.01419 0.07552,-0.023 0.116291,-0.02316 0.05643,-2.16e-4 0.07106,0.0044 0.102647,0.03266 0.03306,0.02953 0.03734,0.04074 0.04169,0.109026 0.0033,0.05243 0.0095,0.07611 0.01981,0.07611 0.0082,0 0.0636,-0.07617 0.12306,-0.169277 z m -0.01446,-0.150744 c 0,-0.02452 0.0073,-0.06186 0.01614,-0.08298 0.01398,-0.03326 0.01388,-0.04276 -7.81e-4,-0.07111 -0.01145,-0.02214 -0.02276,-0.03047 -0.03497,-0.02579 -0.04729,0.01815 -0.109476,-0.07353 -0.08553,-0.126087 0.01706,-0.03744 0.038,-0.03554 0.0689,0.0063 0.014,0.01894 0.03459,0.03443 0.04576,0.03443 0.01283,0 0.02571,0.01496 0.035,0.04064 0.0081,0.02235 0.02461,0.04684 0.03674,0.0544 0.03933,0.02456 0.01838,0.128937 -0.03789,0.188839 -0.03428,0.03649 -0.04336,0.0326 -0.04336,-0.01861 z m -0.834905,-0.319564 c -0.01863,-0.0065 -0.01845,-0.09185 2.64e-4,-0.128841 0.01713,-0.03385 0.09343,-0.08835 0.137923,-0.0985 0.04201,-0.0096 0.06926,0.01267 0.06012,0.04909 -0.01312,0.05226 -0.09819,0.163376 -0.130486,0.170416 -0.01679,0.0037 -0.03569,0.008 -0.042,0.0097 -0.0063,0.0017 -0.01793,8.36e-4 -0.02582,-0.0019 z m 0.652794,-0.0806 c -0.0071,-0.01335 -0.01299,-0.03494 -0.01299,-0.04797 0,-0.01548 -0.0074,-0.02371 -0.0214,-0.02371 -0.07523,0 -0.181966,-0.197024 -0.141365,-0.260951 0.01008,-0.01588 0.109002,-0.04859 0.147494,-0.04879 0.01369,-6.9e-5 0.04119,0.0089 0.06112,0.01996 0.03486,0.01933 0.03606,0.02246 0.03188,0.0832 -0.0024,0.03554 -0.01759,0.09195 -0.03466,0.129109 -0.02877,0.06262 -0.02918,0.06599 -0.008,0.06599 0.02708,0 0.03112,0.05244 0.0066,0.08595 -0.01521,0.0208 -0.01611,0.02071 -0.02869,-0.0028 z M 71.25096,-25.54786 c -4.24e-4,-0.02597 0.0517,-0.0867 0.06121,-0.07132 0.0044,0.0071 -0.0076,0.02986 -0.0265,0.05068 -0.02173,0.0239 -0.03453,0.03151 -0.03471,0.02064 z m -0.414443,-0.117633 c 0.01415,-0.02367 0.02117,-0.04304 0.0156,-0.04304 -0.0056,0 -0.02193,0.02453 -0.03635,0.05451 -0.02909,0.06046 -0.01887,0.05481 0.02075,-0.01148 z"
                 id="path917" />
            </g>
          </g>
        </g>
      </g>
      <path
         style="fill:#000000;stroke-width:0.999998"
         id="path1434"
         d="" />
      <path
         style="fill:#000000;stroke-width:0.999998"
         id="path1432"
         d="" />
    </g>
  </g>
</svg>
