<?xml version="1.0" encoding="UTF-8" standalone="no"?>
<svg
   xmlns:dc="http://purl.org/dc/elements/1.1/"
   xmlns:cc="http://creativecommons.org/ns#"
   xmlns:rdf="http://www.w3.org/1999/02/22-rdf-syntax-ns#"
   xmlns:svg="http://www.w3.org/2000/svg"
   xmlns="http://www.w3.org/2000/svg"
   xmlns:sodipodi="http://sodipodi.sourceforge.net/DTD/sodipodi-0.dtd"
   xmlns:inkscape="http://www.inkscape.org/namespaces/inkscape"
   width="100"
   height="100"
   viewBox="0 0 26.458333 26.458334"
   version="1.1"
   id="svg8"
   inkscape:version="1.0.2-2 (e86c870879, 2021-01-15)"
   sodipodi:docname="Vegetable-food.svg">
  <defs
     id="defs2" />
  <sodipodi:namedview
     id="base"
     pagecolor="#ffffff"
     bordercolor="#666666"
     borderopacity="1.0"
     inkscape:pageopacity="0.0"
     inkscape:pageshadow="2"
     inkscape:zoom="4.5391072"
     inkscape:cx="24.446757"
     inkscape:cy="89.226627"
     inkscape:document-units="px"
     inkscape:current-layer="g1190"
     inkscape:document-rotation="0"
     showgrid="false"
     units="px"
     inkscape:window-width="3840"
     inkscape:window-height="2066"
     inkscape:window-x="-11"
     inkscape:window-y="-11"
     inkscape:window-maximized="1" />
  <metadata
     id="metadata5">
    <rdf:RDF>
      <cc:Work
         rdf:about="">
        <dc:format>image/svg+xml</dc:format>
        <dc:type
           rdf:resource="http://purl.org/dc/dcmitype/StillImage" />
        <dc:title></dc:title>
      </cc:Work>
    </rdf:RDF>
  </metadata>
  <g
     inkscape:label="Capa 1"
     inkscape:groupmode="layer"
     id="layer1">
    <g
       inkscape:label="Capa 1"
       id="layer1-6"
       transform="translate(-0.48951378,0.27892645)">
      <g
         id="g1436"
         transform="translate(5.2358086,19.55553)">
        <g
           id="g1490"
           transform="translate(0.69539431,-0.69539431)">
          <g
             id="g1512"
             transform="translate(-59.688547,10.213961)">
            <g
               inkscape:label="Capa 1"
               id="layer1-6-2"
               transform="matrix(0.75680016,0,0,0.75680016,57.545207,-25.79511)"
               style="stroke-width:1.32135">
              <path
                 style="fill:#000000;stroke-width:1.32135"
                 id="path1434-2"
                 d="" />
              <path
                 style="fill:#000000;stroke-width:1.32135"
                 id="path1432-7"
                 d="" />
              <g
                 id="g1124"
                 transform="translate(6.5399083,14.112443)">
                <g
                   id="g1146"
                   transform="translate(-1.38297,0.322693)">
                  <g
                     id="g1168"
                     transform="translate(-40.336303,31.973901)">
                    <g
                       id="g1190"
                       transform="translate(-105.5816,8.0409823)">
                      <path
                         style="fill:#000000;stroke-width:1.32135"
                         d="m 147.29412,-29.474958 c -0.004,-0.0042 -0.0481,-0.01269 -0.0975,-0.01925 -0.0848,-0.01121 -0.1295,-0.02089 -0.27832,-0.06039 -0.10469,-0.02777 -0.22003,-0.07956 -0.30525,-0.137083 -0.077,-0.05194 -0.0882,-0.05427 -0.23741,-0.04887 -0.17255,0.0062 -0.39775,-0.02184 -0.4865,-0.06069 -0.12349,-0.05406 -0.20181,-0.15525 -0.35489,-0.458567 -0.0475,-0.09424 -0.11228,-0.549516 -0.0968,-0.680734 0.004,-0.03453 0.012,-0.103246 0.0175,-0.152621 0.0262,-0.23247 0.13878,-0.580805 0.24665,-0.763132 0.0545,-0.09204 0.23558,-0.366618 0.24873,-0.377079 0.006,-0.0048 0.0404,-0.0817 0.0759,-0.170581 0.0921,-0.230609 0.19853,-0.468949 0.26054,-0.583571 0.13063,-0.241492 0.22301,-0.433514 0.23906,-0.496936 0.01,-0.03776 0.0253,-0.09696 0.035,-0.131524 0.0174,-0.06226 0.0243,-0.09268 0.041,-0.179562 0.0132,-0.06873 0.0278,-0.132471 0.0661,-0.287298 0.011,-0.04443 0.0225,-0.09292 0.0256,-0.107736 0.0145,-0.06942 0.14683,-0.362894 0.21339,-0.473391 0.0408,-0.06779 0.0823,-0.136728 0.0922,-0.153203 0.0394,-0.06583 0.23212,-0.334065 0.27623,-0.384594 0.0259,-0.02962 0.14839,-0.155577 0.27234,-0.279957 0.21367,-0.214414 0.37616,-0.40872 0.37616,-0.449824 0,-0.01031 0.008,-0.01872 0.0168,-0.01872 0.009,0 0.0223,-0.01819 0.029,-0.04041 0.007,-0.02221 0.0229,-0.05252 0.0357,-0.06733 0.0129,-0.01481 0.0408,-0.07138 0.0621,-0.125691 0.0213,-0.05431 0.0488,-0.110878 0.061,-0.125692 0.0122,-0.01481 0.0453,-0.0835 0.0735,-0.152626 0.0589,-0.144397 0.1671,-0.342834 0.24431,-0.448217 0.0695,-0.09488 0.29325,-0.323784 0.37436,-0.382991 0.0351,-0.02565 0.0719,-0.05524 0.0818,-0.06581 0.0324,-0.03464 0.34679,-0.24319 0.36666,-0.24319 0.0107,0 0.0194,-0.0081 0.0194,-0.01798 0,-0.0099 0.008,-0.01798 0.0185,-0.01798 0.0407,0 0.37201,-0.232173 0.43757,-0.306601 0.083,-0.09427 0.20955,-0.285352 0.29632,-0.447551 0.0343,-0.06419 0.0811,-0.149035 0.10385,-0.188536 0.0228,-0.03951 0.0503,-0.09405 0.0612,-0.121206 0.0109,-0.02713 0.0263,-0.0494 0.0343,-0.0494 0.008,0 0.0233,-0.02221 0.0342,-0.0494 0.0108,-0.02718 0.0358,-0.07362 0.0554,-0.103251 0.0196,-0.02962 0.0457,-0.07407 0.0581,-0.09876 0.0123,-0.0247 0.0326,-0.05557 0.0451,-0.06862 0.0125,-0.01306 0.0226,-0.03364 0.0226,-0.04575 0,-0.01211 0.0122,-0.03776 0.027,-0.05707 0.0149,-0.0193 0.0785,-0.136078 0.14151,-0.259527 0.12205,-0.239255 0.17361,-0.336424 0.19476,-0.367046 0.11188,-0.162014 0.25005,-0.330644 0.33645,-0.410641 0.1284,-0.118874 0.47887,-0.375465 0.79056,-0.578805 0.25508,-0.166403 0.51685,-0.359848 0.79064,-0.584258 0.3263,-0.267454 1.3726,-0.986082 1.4357,-0.986082 0.0101,0 0.0182,-0.0081 0.0182,-0.01798 0,-0.0099 0.008,-0.01798 0.0188,-0.01798 0.0103,0 0.0791,-0.04072 0.15296,-0.09055 0.0965,-0.06512 0.153,-0.119323 0.20119,-0.193026 0.0369,-0.05636 0.0731,-0.105171 0.0805,-0.108466 0.007,-0.0032 0.0135,-0.01375 0.0135,-0.02322 0,-0.0095 0.0323,-0.06097 0.0718,-0.114447 0.0395,-0.05347 0.0718,-0.101374 0.0718,-0.106446 0,-0.009 0.108,-0.172136 0.12569,-0.189832 0.0133,-0.01333 0.0524,-0.0769 0.0661,-0.107736 0.007,-0.01481 0.0168,-0.03099 0.0225,-0.03591 0.01,-0.0085 0.096,-0.135713 0.13554,-0.200352 0.1168,-0.190715 0.21702,-0.350751 0.22874,-0.365263 0.008,-0.0099 0.0706,-0.102797 0.13926,-0.206492 0.28779,-0.434916 0.54072,-0.728697 0.86903,-1.009427 0.0899,-0.07687 0.17364,-0.139764 0.18608,-0.139764 0.0124,0 0.0226,-0.0081 0.0226,-0.01798 0,-0.0099 0.0114,-0.01793 0.0254,-0.01793 0.014,0 0.0281,-0.0069 0.0314,-0.01539 0.0136,-0.03501 0.49046,-0.265593 0.57577,-0.278445 0.0125,-0.0021 0.0672,-0.02041 0.12152,-0.04115 0.0543,-0.02073 0.15936,-0.05996 0.23343,-0.08713 0.0741,-0.02718 0.30031,-0.130276 0.50277,-0.229148 0.88316,-0.431288 1.15411,-0.528166 1.52626,-0.545709 0.1076,-0.0053 0.21167,-0.01989 0.24241,-0.03448 0.0918,-0.04363 0.49486,-0.07697 0.88882,-0.07355 l 0.3681,0.0032 -0.002,-0.116716 c -0.001,-0.06419 -0.004,-0.177314 -0.007,-0.251382 -0.008,-0.194593 0.0131,-0.603176 0.0373,-0.718242 0.0115,-0.05432 0.0501,-0.170687 0.0858,-0.258601 0.11484,-0.282565 0.25199,-0.389994 0.53321,-0.417659 0.17225,-0.01692 0.21909,-0.01423 0.25396,0.0147 0.0533,0.04427 0.12977,0.173389 0.16563,0.27984 0.0454,0.134619 0.0486,0.122714 -0.17809,0.66004 -0.23026,0.545862 -0.24351,0.602974 -0.15253,0.657739 0.0622,0.03744 0.16928,0.08744 0.18727,0.08744 0.007,0 0.0882,-0.07728 0.18102,-0.171729 0.0928,-0.09446 0.17777,-0.177277 0.18885,-0.184052 0.0111,-0.0068 0.0589,-0.07292 0.10633,-0.146989 0.10609,-0.165779 0.30795,-0.406378 0.40976,-0.488384 0.0418,-0.03364 0.15272,-0.114416 0.24654,-0.179472 0.0938,-0.06506 0.23926,-0.175532 0.32321,-0.245496 0.0839,-0.06996 0.19294,-0.149168 0.24222,-0.176008 0.0566,-0.03083 0.21216,-0.172036 0.42197,-0.383012 0.1828,-0.183819 0.40157,-0.387804 0.48615,-0.453305 0.33074,-0.256121 0.7548,-0.493287 1.22654,-0.685975 0.137,-0.05596 0.41981,-0.187214 0.62846,-0.291677 0.55385,-0.277291 0.68322,-0.319812 1.27717,-0.419758 0.3137,-0.05278 0.37062,-0.05717 0.70717,-0.05443 0.37711,0.0032 0.46095,-0.0082 0.52294,-0.07017 0.0185,-0.01846 0.0854,-0.04088 0.15881,-0.05329 0.19523,-0.03295 0.21701,6.8e-5 0.0661,0.100252 -0.0776,0.05151 -0.11047,0.06331 -0.15712,0.05631 -0.0435,-0.0065 -0.0919,0.0075 -0.18467,0.0535 -0.13568,0.0673 -0.49281,0.325693 -0.49077,0.355093 0.003,0.04654 -0.007,0.06259 -0.0645,0.09791 -0.0338,0.02089 -0.12067,0.05829 -0.19303,0.0831 -0.17367,0.05954 -0.62772,0.244586 -0.61974,0.252561 0.004,0.0037 0.0529,-0.0021 0.10982,-0.01285 0.13171,-0.02433 0.14656,-0.01111 0.0307,0.0274 -0.14601,0.0485 -0.2199,0.116521 -0.37474,0.344976 -0.18365,0.270956 -0.28909,0.395283 -0.47535,0.560422 -0.23937,0.212251 -0.48223,0.453553 -0.53168,0.528288 -0.0317,0.04786 -0.0557,0.125453 -0.0777,0.251139 -0.0176,0.100035 -0.0292,0.184559 -0.0259,0.187833 0.003,0.0032 0.0898,0.0184 0.1923,0.03364 0.10249,0.01523 0.26612,0.0458 0.36364,0.06794 0.13092,0.02972 0.19902,0.0367 0.26036,0.02655 0.15405,-0.02544 0.46269,-0.01634 0.70542,0.02073 0.13175,0.02015 0.40922,0.04411 0.61662,0.05325 0.2299,0.01015 0.44582,0.03004 0.5532,0.05093 0.14799,0.02882 0.17454,0.03014 0.16616,0.0083 -0.005,-0.01428 -4.2e-4,-0.04358 0.0113,-0.06509 0.0117,-0.02152 0.0192,-0.0648 0.0166,-0.09621 -0.006,-0.06877 0.0567,-0.119361 0.13589,-0.110285 0.0529,0.0061 0.0618,0.03522 0.0351,0.11606 -0.0105,0.03194 -0.003,0.04183 0.0447,0.05843 0.0925,0.03226 0.17725,0.106075 0.17725,0.154366 0,0.02359 -0.008,0.04792 -0.018,0.05401 -0.01,0.0061 -0.018,0.02644 -0.018,0.04527 0,0.01877 -0.0182,0.0513 -0.0404,0.07229 -0.0596,0.0563 -0.65434,0.453627 -0.75864,0.506863 -0.0494,0.02523 -0.11761,0.08087 -0.15162,0.123697 -0.034,0.04284 -0.12367,0.140722 -0.19924,0.217535 -0.15104,0.153525 -0.18073,0.160972 -0.21597,0.05417 -0.0336,-0.101765 -0.025,-0.200368 0.0208,-0.240139 0.0396,-0.03427 0.0384,-0.03448 -0.19192,-0.03448 -0.15071,0 -0.31013,-0.01306 -0.45613,-0.03734 -0.25713,-0.04279 -0.47829,-0.04829 -0.64642,-0.01602 -0.11986,0.02301 -0.19714,0.06775 -0.29628,0.171639 -0.0671,0.07032 -0.27855,0.206492 -0.38605,0.248611 -0.0822,0.03221 -0.28503,0.09966 -0.51174,0.170169 -0.0691,0.02147 -0.14994,0.0495 -0.17957,0.06218 -0.0523,0.02242 -0.0502,0.02343 0.073,0.03496 0.19193,0.01798 0.57053,0.0851 0.59551,0.105615 0.0541,0.04442 -0.0142,0.08437 -0.31121,0.182095 -0.18147,0.05971 -0.28501,0.101855 -0.26479,0.107789 0.18016,0.05283 0.25235,0.06923 0.30476,0.06923 0.0585,0 0.34688,-0.111306 0.50056,-0.193191 0.32917,-0.175394 0.39578,-0.212965 0.40101,-0.226208 0.003,-0.0084 0.014,-0.01512 0.0238,-0.01512 0.01,0 0.0283,-0.0101 0.0412,-0.02242 0.0129,-0.01232 0.0415,-0.03454 0.0636,-0.0494 0.0221,-0.01481 0.0736,-0.05199 0.11443,-0.08266 0.1232,-0.09246 0.2214,-0.13364 0.46827,-0.196369 0.31673,-0.08048 0.41892,-0.09361 0.43345,-0.05574 0.006,0.01592 -0.0149,0.09166 -0.0468,0.168366 -0.10994,0.265196 -0.2145,0.420435 -0.42044,0.624282 -0.34923,0.345664 -0.50891,0.461376 -0.742,0.537681 l -0.0944,0.03089 0.0358,0.04554 c 0.0333,0.04236 0.0339,0.04887 0.008,0.09334 -0.0291,0.04934 -0.0597,0.07031 -0.25857,0.177562 -0.0642,0.03464 -0.19801,0.10937 -0.29738,0.166113 -0.49825,0.284537 -0.60193,0.310092 -1.04933,0.258606 l -0.0987,-0.01137 0.13467,0.0951 c 0.15539,0.109735 0.16475,0.120281 0.14295,0.161014 -0.0112,0.02084 -0.0613,0.0375 -0.16202,0.05385 -0.11887,0.0193 -0.14057,0.02755 -0.11721,0.04464 0.0158,0.01153 0.0726,0.02613 0.12623,0.03242 0.0851,0.01 0.29017,0.08235 0.34223,0.120746 0.01,0.0073 0.0745,0.04305 0.14365,0.07947 0.0691,0.03644 0.15142,0.08561 0.18286,0.109301 0.0314,0.02369 0.0658,0.04305 0.0763,0.04305 0.0105,0 0.0191,0.0076 0.0191,0.01677 0,0.0092 0.0141,0.02142 0.0314,0.02708 0.0385,0.01264 0.16227,0.125574 0.21759,0.198585 0.0224,0.02962 0.11011,0.125062 0.1948,0.212071 l 0.15397,0.158196 0.0647,-0.06107 c 0.18996,-0.179282 0.22281,-0.194053 0.46538,-0.209348 0.10186,-0.0064 0.19075,-0.02047 0.19752,-0.0312 0.0213,-0.03374 0.18431,-0.07909 0.25244,-0.07025 0.0358,0.0048 0.1297,0.01375 0.20862,0.0202 0.0789,0.0065 0.15691,0.01893 0.17332,0.02771 0.0472,0.02528 0.158,0.186574 0.17028,0.247929 0.0286,0.143048 -0.16893,0.415543 -0.50724,0.69971 -0.13919,0.116917 -0.2197,0.153594 -0.38386,0.17487 -0.0868,0.01127 -0.11262,0.0219 -0.27832,0.115172 -0.21495,0.120968 -0.24685,0.132397 -0.38256,0.137062 -0.0984,0.0032 -0.15586,-0.0048 -0.22991,-0.03327 -0.095,-0.03639 -0.10116,-0.0366 -0.16357,-0.0069 -0.12199,0.05817 -0.36634,0.02909 -0.44887,-0.05346 -0.0141,-0.01407 -0.0364,-0.0256 -0.0498,-0.0256 -0.0133,0 -0.0269,-0.006 -0.0301,-0.01349 -0.007,-0.01676 -0.1343,-0.112226 -0.14916,-0.112226 -0.006,0 -0.0328,-0.01581 -0.0596,-0.03517 -0.0619,-0.04474 -0.29062,-0.122 -0.5604,-0.189245 -0.0543,-0.01354 -0.15531,-0.04025 -0.22444,-0.05938 -0.0691,-0.01915 -0.17099,-0.03961 -0.22634,-0.04548 l -0.10064,-0.01074 0.0317,0.09609 c 0.0466,0.141462 0.0823,0.325112 0.13257,0.683838 0.0293,0.209412 0.0425,0.288467 0.0553,0.332189 0.004,0.01481 0.0129,0.05925 0.019,0.09876 0.006,0.03951 0.0149,0.0778 0.0193,0.0851 0.0112,0.01825 0.009,0.369145 -0.003,0.435624 -0.0279,0.15755 -0.0682,0.331004 -0.0907,0.390544 -0.014,0.03702 -0.0219,0.06733 -0.0176,0.06733 0.004,0 -0.016,0.05767 -0.0451,0.128161 -0.0291,0.07049 -0.0528,0.137723 -0.0528,0.149406 0,0.01169 -0.0318,0.09575 -0.0708,0.186818 -0.081,0.18961 -0.10879,0.280803 -0.16194,0.532174 -0.0646,0.305692 -0.0929,0.407627 -0.15699,0.565616 -0.0649,0.160014 -0.2037,0.451474 -0.22234,0.466854 -0.006,0.0048 -0.0222,0.03073 -0.0361,0.0573 -0.0725,0.138854 -0.45383,0.698779 -0.54113,0.794515 -0.0175,0.01915 -0.0317,0.04078 -0.0317,0.04807 0,0.0073 -0.0105,0.02396 -0.0233,0.03702 -0.0128,0.01306 -0.083,0.108566 -0.15596,0.212267 -0.073,0.103695 -0.13728,0.192577 -0.14291,0.197511 -0.006,0.0048 -0.034,0.0413 -0.063,0.08081 -0.13935,0.18988 -0.43883,0.506271 -0.65449,0.691439 -0.14692,0.126151 -0.2802,0.222982 -0.46994,0.341427 -0.1322,0.08252 -0.54296,0.368696 -0.60416,0.420906 -0.14583,0.124427 -0.59878,0.442373 -0.68744,0.482557 -0.0148,0.0067 -0.0552,0.02967 -0.0898,0.05093 -0.0673,0.04152 -0.11598,0.06843 -0.36809,0.203694 -0.0889,0.0477 -0.22943,0.125696 -0.31232,0.173363 -0.0829,0.04765 -0.15764,0.08666 -0.16609,0.08666 -0.008,0 -0.0154,0.006 -0.0155,0.01349 0,0.0074 -0.0182,0.02221 -0.0404,0.03289 -0.0222,0.01068 -0.11164,0.05809 -0.19887,0.105341 -0.23532,0.127441 -0.25816,0.06986 -0.067,-0.169022 0.059,-0.07371 0.10507,-0.136184 0.10243,-0.138823 -0.003,-0.0026 -0.081,0.02438 -0.17422,0.06009 -0.0932,0.0357 -0.23407,0.08956 -0.31308,0.119731 -0.079,0.03015 -0.25614,0.111184 -0.39364,0.180043 -0.21313,0.106736 -0.26897,0.143969 -0.3787,0.252519 -0.0708,0.07003 -0.17106,0.163685 -0.22282,0.208126 -0.0518,0.04443 -0.11276,0.09777 -0.13555,0.118504 -0.0228,0.02073 -0.1009,0.07699 -0.17359,0.125014 -0.0727,0.04802 -0.13487,0.09368 -0.13816,0.101464 -0.003,0.0078 -0.0137,0.01412 -0.0231,0.01412 -0.009,0 -0.10365,0.06606 -0.20949,0.146809 -0.39002,0.297569 -0.5779,0.39103 -1.15307,0.573612 -0.27377,0.0869 -0.32936,0.113702 -0.46919,0.226182 -0.0728,0.05855 -0.18081,0.142176 -0.24007,0.185839 -0.0593,0.04363 -0.11178,0.08443 -0.11672,0.0906 -0.0219,0.02734 -0.45378,0.274224 -0.66093,0.377803 -0.12534,0.06268 -0.23193,0.118154 -0.23687,0.123295 -0.0153,0.01587 -0.28631,0.137236 -0.49379,0.221078 -0.45887,0.185432 -0.7068,0.28826 -0.80802,0.335129 -0.11,0.05093 -0.16558,0.07392 -0.19752,0.08168 -0.01,0.0026 -0.0609,0.02147 -0.11347,0.04242 -0.19203,0.07648 -0.45414,0.151584 -0.65808,0.188568 -0.0246,0.0042 -0.10761,0.02089 -0.1843,0.03655 -0.0767,0.0156 -0.15562,0.03168 -0.17538,0.03565 -0.0311,0.0063 -0.13747,0.03189 -0.22444,0.05404 -0.0148,0.0037 -0.22895,0.05691 -0.47584,0.118086 -0.4976,0.123295 -0.58323,0.149247 -0.84393,0.255708 -0.16107,0.06578 -0.27636,0.122613 -0.817,0.402782 -0.35681,0.184898 -0.77225,0.342908 -1.03247,0.39268 -0.0395,0.0076 -0.0839,0.01708 -0.0988,0.0211 -0.0379,0.01037 -0.51254,0.02491 -0.52196,0.01592 z m 1.1152,-1.021184 c 0.0251,-0.0032 0.0761,-0.02338 0.11326,-0.04532 0.0372,-0.02195 0.0711,-0.03993 0.0753,-0.03993 0.004,0 0.0518,-0.02829 0.10585,-0.06284 0.054,-0.03459 0.10671,-0.06285 0.11706,-0.06285 0.0104,0 0.0189,-0.0061 0.0189,-0.01349 7e-5,-0.0074 0.0182,-0.02237 0.0404,-0.03327 0.0222,-0.01089 0.11375,-0.0645 0.20357,-0.119117 0.53195,-0.323441 0.82152,-0.443954 1.4258,-0.593391 l 0.0808,-0.01999 -0.13467,-0.02031 c -0.18903,-0.02851 -0.24865,-0.02137 -0.50299,0.05994 -0.12332,0.03945 -0.27844,0.08865 -0.34469,0.109375 -0.0663,0.02073 -0.26423,0.103415 -0.43993,0.183777 -0.40857,0.18686 -0.53556,0.228197 -1.01974,0.331924 -0.15994,0.03427 -0.74517,0.226245 -0.74517,0.244449 0,0.0076 0.006,0.01238 0.0135,0.01079 0.0177,-0.0037 0.11037,0.01899 0.16234,0.04004 0.0226,0.0091 0.10343,0.02168 0.17956,0.02777 0.0761,0.0061 0.14042,0.01285 0.14285,0.01497 0.006,0.0053 0.45115,-0.0058 0.50802,-0.01253 z m 12.36432,-5.840172 c 0.0112,-0.0099 0.0384,-0.03009 0.0606,-0.0449 0.0222,-0.01481 0.0509,-0.03702 0.0638,-0.0494 0.0129,-0.01232 0.0314,-0.02242 0.0412,-0.02242 0.01,0 0.0204,-0.0064 0.0238,-0.01428 0.003,-0.0078 0.0827,-0.06239 0.17656,-0.121201 0.0938,-0.05882 0.17328,-0.112993 0.17657,-0.120402 0.003,-0.0074 0.0143,-0.01349 0.0245,-0.01349 0.0286,0 0.19131,-0.122824 0.30856,-0.232956 0.15538,-0.145936 0.31525,-0.344796 0.58505,-0.727692 0.13221,-0.187638 0.24704,-0.343855 0.25517,-0.34715 0.008,-0.0032 0.0147,-0.01676 0.0147,-0.02993 0,-0.01317 0.006,-0.02666 0.0137,-0.02993 0.008,-0.0032 0.0458,-0.0504 0.0849,-0.104743 0.0391,-0.05432 0.0814,-0.109439 0.094,-0.122486 0.0125,-0.01306 0.0228,-0.02972 0.0228,-0.03702 0,-0.0073 0.0141,-0.02941 0.0314,-0.04908 0.0354,-0.04035 0.0455,-0.05577 0.15173,-0.231343 0.0418,-0.06913 0.0803,-0.129769 0.0856,-0.134751 0.005,-0.0048 0.0355,-0.05843 0.0673,-0.118789 0.063,-0.119784 0.0682,-0.137337 0.15992,-0.545503 0.0344,-0.153076 0.0656,-0.290439 0.0692,-0.305252 0.0161,-0.06524 0.0774,-0.228985 0.19816,-0.529705 0.0714,-0.177764 0.13865,-0.355528 0.14946,-0.395034 0.0445,-0.162887 0.0428,-0.154874 0.0645,-0.300176 0.005,-0.0367 -0.002,-0.129636 -0.0171,-0.206497 -0.0149,-0.07686 -0.0474,-0.277106 -0.0722,-0.444996 -0.0532,-0.35897 -0.0876,-0.482064 -0.21604,-0.772107 -0.11361,-0.256586 -0.32124,-0.668041 -0.39414,-0.781087 -0.0594,-0.09218 -0.0832,-0.13117 -0.16724,-0.274573 -0.062,-0.105758 -0.0867,-0.132868 -0.0567,-0.06211 0.014,0.033 0.0664,0.229709 0.10051,0.377078 0.004,0.01729 0.0106,0.04559 0.0146,0.06285 0.013,0.05513 0.0813,0.406447 0.09,0.462369 0.005,0.02962 0.013,0.09023 0.0187,0.134672 0.006,0.04443 0.0142,0.109079 0.0188,0.143646 0.0544,0.403131 0.065,1.563105 0.0175,1.903337 -0.005,0.03459 -0.0125,0.09517 -0.017,0.134672 -0.007,0.06013 -0.0393,0.220147 -0.072,0.35541 -0.0152,0.06282 -0.0777,0.249558 -0.19068,0.569323 -0.0122,0.03459 -0.0418,0.119408 -0.0658,0.188542 -0.024,0.06913 -0.0672,0.186294 -0.096,0.260362 -0.0288,0.07407 -0.0524,0.144011 -0.0523,0.15543 3.5e-4,0.04844 -0.30411,0.742358 -0.34143,0.778231 -0.005,0.0048 -0.0239,0.03178 -0.0416,0.05959 -0.0658,0.103304 -0.20994,0.262848 -0.4069,0.450327 -0.28114,0.267618 -0.83512,0.827189 -0.88017,0.889056 -0.0245,0.03364 -0.053,0.07002 -0.0633,0.0808 -0.0325,0.03401 -0.18778,0.257042 -0.18778,0.269692 0,0.01074 0.10118,-0.05878 0.15492,-0.10644 z m -11.57228,-0.107736 c 0.0276,-0.02962 0.0504,-0.06034 0.0507,-0.06825 0.001,-0.02898 -0.11721,0.07655 -0.15061,0.134365 l -0.0344,0.05958 0.0421,-0.03591 c 0.0232,-0.01973 0.0647,-0.06015 0.0923,-0.08978 z m 2.02117,-2.411264 c 0.0333,-0.03321 0.32006,-0.291925 0.44359,-0.400126 0.14397,-0.126093 0.25931,-0.248934 0.46241,-0.492446 0.25929,-0.310886 0.42113,-0.425486 1.04742,-0.741687 0.0296,-0.01497 0.0741,-0.04093 0.0988,-0.05773 0.0587,-0.03993 0.23075,-0.135316 0.37707,-0.209062 l 0.11672,-0.05882 -0.093,-5.29e-4 c -0.12488,-5.29e-4 -0.16454,-0.04268 -0.17051,-0.180143 -0.003,-0.0744 0.002,-0.08978 0.0299,-0.08978 0.0619,0 0.3954,-0.19601 0.49395,-0.290333 0.0706,-0.06757 0.19924,-0.216699 0.19262,-0.223315 -0.011,-0.011 -0.34284,0.119 -0.37262,0.145946 -0.0426,0.03855 -0.0692,0.03263 -0.0819,-0.01819 l -0.0112,-0.04474 -0.0474,0.03422 c -0.0261,0.01883 -0.0732,0.05712 -0.10459,0.08515 -0.0314,0.02803 -0.10007,0.08732 -0.15259,0.131762 -0.11989,0.101453 -0.26226,0.233687 -0.4711,0.437545 -0.29657,0.289482 -0.60943,0.561765 -0.95184,0.828357 -0.0381,0.02962 -0.0782,0.06195 -0.0892,0.07183 -0.011,0.0099 -0.0604,0.05008 -0.10973,0.0893 -0.0827,0.06576 -0.24476,0.224542 -0.28733,0.281591 -0.01,0.01327 -0.0488,0.0845 -0.0864,0.15828 -0.0376,0.07378 -0.0747,0.142461 -0.0825,0.152626 -0.008,0.01015 -0.0404,0.08313 -0.0726,0.162136 -0.0322,0.07901 -0.0744,0.16991 -0.094,0.202001 -0.0393,0.06471 -0.0329,0.07523 0.0161,0.02628 z m 3.24846,-3.069816 c 0.0386,-0.03496 0.10272,-0.130229 0.0935,-0.138802 -0.003,-0.0032 -0.0499,0.03406 -0.10361,0.08235 -0.0761,0.06842 -0.0896,0.08787 -0.0611,0.08787 0.0201,0 0.0522,-0.01412 0.0712,-0.03141 z m 11.4291,-6.715552 c 0.0223,-0.02845 0.0217,-0.02909 -0.007,-0.0068 -0.0173,0.01354 -0.0314,0.02771 -0.0314,0.03142 0,0.01476 0.0148,0.0053 0.0382,-0.02464 z m 0.98529,-0.527034 c 0.0543,-0.03776 0.12704,-0.09367 0.1616,-0.124221 0.0472,-0.04178 0.025,-0.03242 -0.0898,0.03766 -0.1462,0.08925 -0.31214,0.201627 -0.35014,0.237108 -0.0372,0.03475 0.18367,-0.0847 0.27832,-0.150516 z m 0.52957,-0.464829 c 0.006,-0.01015 -0.001,-0.01317 -0.0169,-0.007 -0.0311,0.01195 -0.0368,0.0248 -0.0109,0.0248 0.009,0 0.0218,-0.008 0.0279,-0.01777 z m -24.35872,13.962554 c -0.004,-0.0037 -0.056,-0.01116 -0.11521,-0.01624 -0.2294,-0.01957 -0.45483,-0.05273 -0.59255,-0.08707 -0.1945,-0.04855 -0.57496,-0.175257 -0.77211,-0.257184 -0.0889,-0.03692 -0.2351,-0.0938 -0.32493,-0.126357 -0.18495,-0.06705 -0.28825,-0.116738 -0.39576,-0.190367 -0.0408,-0.02798 -0.11761,-0.06788 -0.17058,-0.08866 -0.0897,-0.03522 -0.3574,-0.187092 -0.42538,-0.24137 -0.30609,-0.244359 -0.47836,-0.401835 -0.57771,-0.528103 -0.2676,-0.340073 -0.36145,-0.485608 -0.63231,-0.980444 -0.12565,-0.229561 -0.30259,-0.651017 -0.40113,-0.955472 -0.18227,-0.563198 -0.2358,-1.259439 -0.13292,-1.728953 0.0842,-0.384234 0.16617,-0.661991 0.25248,-0.855499 0.0372,-0.08345 0.28354,-0.825253 0.37477,-1.128644 0.0701,-0.23301 0.25564,-0.721473 0.42467,-1.117792 0.14798,-0.346954 0.19634,-0.531688 0.22485,-0.859059 0.0251,-0.287837 0.0146,-0.361709 -0.10461,-0.743484 -0.0478,-0.152981 -0.0795,-0.222781 -0.1225,-0.269343 -0.1554,-0.168455 -0.2689,-0.415146 -0.28973,-0.629735 -0.008,-0.08656 -0.003,-0.106932 0.0448,-0.181767 0.0416,-0.0646 0.0682,-0.0869 0.11397,-0.09548 0.045,-0.0084 0.0697,-0.02861 0.10027,-0.08171 0.0223,-0.03877 0.0613,-0.08405 0.0865,-0.100601 0.047,-0.03083 0.05,-0.03041 0.19913,0.02501 0.0133,0.0048 0.007,-0.02544 -0.0155,-0.07975 l -0.0371,-0.08777 0.0562,-0.09136 c 0.0762,-0.12384 0.13541,-0.138495 0.31725,-0.0785 0.0581,0.01914 0.10839,0.03205 0.11178,0.02866 0.003,-0.0032 -0.0106,-0.03898 -0.031,-0.07902 -0.0205,-0.04003 -0.0372,-0.09039 -0.0372,-0.111845 0,-0.04887 0.0642,-0.154599 0.10815,-0.178134 0.0489,-0.02613 0.16279,-0.02137 0.2216,0.0093 0.067,0.03496 0.0653,0.03575 0.0653,-0.02909 0,-0.104975 0.0999,-0.231385 0.18295,-0.231385 0.0218,0 0.42549,0.305665 0.60711,0.459762 0.0642,0.05447 0.16116,0.12421 0.21547,0.15499 0.13729,0.07779 0.30223,0.188764 0.37836,0.254561 0.22974,0.198575 0.28741,0.235828 0.59691,0.385599 0.30624,0.148189 0.3701,0.169492 0.80238,0.267602 0.27717,0.0629 0.45078,0.08593 0.84393,0.111898 0.15308,0.0101 0.32277,0.02597 0.37708,0.03522 0.0543,0.0093 0.32097,0.02068 0.59255,0.02533 0.27159,0.0048 0.53823,0.01629 0.59255,0.02581 0.0543,0.0095 0.15936,0.02703 0.23343,0.03887 0.21623,0.03459 0.45993,0.115357 0.69131,0.22909 0.33114,0.16277 0.42909,0.216725 0.63743,0.351132 0.66008,0.425819 0.8602,0.633951 1.31533,1.368016 0.0551,0.08888 0.11635,0.202578 0.13608,0.252657 0.0197,0.05008 0.0802,0.179366 0.13433,0.287298 0.0541,0.107931 0.11163,0.228101 0.12775,0.267042 0.0403,0.09743 0.0958,0.333018 0.1164,0.494815 0.009,0.07407 0.0307,0.231634 0.0472,0.350143 0.0236,0.169582 0.0277,0.286219 0.0188,0.54766 -0.0174,0.512819 -0.0551,0.788359 -0.16578,1.212031 -0.0438,0.16789 -0.10041,0.394135 -0.12568,0.50277 -0.11047,0.475041 -0.25137,0.86898 -0.44279,1.238015 -0.12129,0.233818 -0.35117,0.537913 -0.60502,0.800338 -0.28024,0.289709 -0.91333,0.647288 -1.28332,0.724847 -0.0656,0.01375 -0.12121,0.02792 -0.12357,0.03147 -0.01,0.0147 -0.13773,0.213314 -0.21983,0.341157 -0.12448,0.193847 -0.39543,0.469287 -0.59982,0.609771 -0.0938,0.06448 -0.21099,0.146243 -0.26037,0.181688 -0.12515,0.08984 -0.50379,0.273684 -0.71824,0.348725 -0.2482,0.08685 -0.7833,0.214764 -1.03788,0.248098 -0.19112,0.02502 -0.56987,0.03834 -0.58864,0.02073 z m 0.12719,-0.711213 c 0.0155,-0.02893 0.0137,-0.03591 -0.009,-0.03591 -0.0157,0 -0.0746,-0.03099 -0.13081,-0.06886 -0.0562,-0.03787 -0.15478,-0.09974 -0.21898,-0.137469 -0.13923,-0.08184 -0.31818,-0.185818 -0.36809,-0.21389 -0.0197,-0.01111 -0.10992,-0.07029 -0.20037,-0.13153 -0.22595,-0.152981 -0.47399,-0.28266 -0.66254,-0.346394 -0.2633,-0.089 -0.28472,-0.07246 -0.0932,0.072 0.0716,0.05402 0.13422,0.102442 0.13916,0.107604 0.0131,0.01365 0.11807,0.08082 0.42196,0.269925 0.26754,0.166482 0.67199,0.377507 0.84393,0.44032 0.0494,0.01804 0.10573,0.04342 0.1252,0.05646 0.0535,0.03575 0.13074,0.02956 0.15313,-0.01227 z m 1.09132,-0.110772 c -0.004,-0.01153 -0.14415,-0.08255 -0.31178,-0.157788 -0.69214,-0.310648 -0.78642,-0.381844 -1.64143,-1.239485 -0.49799,-0.499533 -0.75984,-0.787539 -0.81765,-0.899332 -0.0341,-0.06589 -0.10357,-0.0683 -0.11273,-0.0037 -0.0102,0.07176 0.21485,0.411297 0.45455,0.685769 0.31695,0.362931 0.79387,0.840104 1.07245,1.073018 0.0943,0.07884 0.33205,0.23697 0.46279,0.307807 0.20131,0.109064 0.30682,0.145386 0.58357,0.200865 0.2913,0.0584 0.31968,0.06142 0.31023,0.03305 z m 0.90356,-1.16182 c 0.0558,-0.06893 0.0443,-0.09207 -0.0459,-0.09207 -0.0992,0 -0.21217,-0.04241 -0.65621,-0.246543 -0.40617,-0.186707 -0.53716,-0.251588 -0.70623,-0.349836 -0.13726,-0.07976 -0.57369,-0.424899 -0.79309,-0.627187 -0.079,-0.07284 -0.20715,-0.180201 -0.28475,-0.238578 -0.16002,-0.120365 -0.45804,-0.445303 -0.63741,-0.695008 -0.0664,-0.09248 -0.14874,-0.205096 -0.18289,-0.250251 -0.0342,-0.04517 -0.12594,-0.166356 -0.20397,-0.269342 -0.078,-0.102982 -0.17206,-0.251885 -0.20895,-0.330887 -0.0369,-0.07901 -0.13287,-0.285056 -0.21328,-0.45788 -0.24254,-0.521253 -0.24293,-0.48337 -0.002,0.143647 0.15426,0.400608 0.23166,0.532137 0.51253,0.870868 0.0409,0.0494 0.15693,0.21279 0.25776,0.363132 0.10083,0.150347 0.2447,0.352354 0.31972,0.448904 0.13401,0.172486 0.66132,0.710224 0.82736,0.843732 0.0465,0.03739 0.14388,0.119138 0.21635,0.181635 0.27358,0.235928 0.66741,0.462057 1.05346,0.604894 0.38731,0.143292 0.41808,0.151199 0.57187,0.146888 0.12366,-0.0037 0.1451,-0.0091 0.17507,-0.04612 z m 1.2302,0.0053 c 0.008,-0.03337 -1.5e-4,-0.06222 -0.0304,-0.103103 -0.0904,-0.122216 -0.21512,-0.31958 -0.33054,-0.522893 -0.19901,-0.350545 -0.73642,-1.175766 -0.86929,-1.33484 -0.0353,-0.04231 -0.14803,-0.151378 -0.25045,-0.242407 -0.17274,-0.153536 -0.23614,-0.197432 -0.23614,-0.163495 0,0.01328 0.13931,0.265567 0.26657,0.4828 0.1174,0.200404 0.48285,0.734552 0.70639,1.032475 0.12227,0.162949 0.24764,0.33314 0.27861,0.378189 0.031,0.04506 0.10563,0.140959 0.16592,0.213123 0.078,0.09333 0.10446,0.137417 0.0917,0.152733 -0.025,0.03015 0.0235,0.09469 0.0947,0.125865 0.0825,0.03618 0.0998,0.03332 0.11282,-0.01846 z m -5.76572,-0.761905 c 0.006,-0.01 -0.0247,-0.0605 -0.0687,-0.112226 -0.0799,-0.09394 -0.34384,-0.491494 -0.5358,-0.806917 -0.12303,-0.202155 -0.27118,-0.489024 -0.3224,-0.624256 -0.0896,-0.236474 -0.14143,-0.388629 -0.14151,-0.415179 -5e-5,-0.01571 -0.0408,-0.111887 -0.0907,-0.213769 -0.0637,-0.13026 -0.0962,-0.179604 -0.10958,-0.166244 -0.0122,0.01222 -0.0163,0.101394 -0.0114,0.249679 0.007,0.207909 0.0141,0.249536 0.0733,0.421667 0.0362,0.105044 0.10175,0.266646 0.14577,0.359124 0.13358,0.280555 0.20424,0.400428 0.44841,0.760683 0.0991,0.146254 0.32139,0.387085 0.43819,0.474824 0.1223,0.09186 0.15429,0.105182 0.17442,0.07261 z m 6.4027,-0.605793 c -0.10102,-0.254312 -0.24239,-0.537897 -0.35134,-0.704777 -0.10969,-0.168006 -0.23648,-0.404839 -0.3749,-0.700286 -0.11354,-0.242344 -0.39283,-0.577885 -0.89085,-1.070268 -0.18547,-0.18338 -0.34766,-0.352914 -0.36042,-0.376745 -0.0378,-0.07054 -0.071,-0.05409 -0.071,0.03512 0,0.06843 0.019,0.106858 0.14874,0.300762 0.26734,0.399572 0.55775,0.790274 0.70441,0.947708 0.17538,0.188251 0.2619,0.300784 0.46389,0.603345 0.40295,0.603566 0.72173,1.050429 0.74934,1.050429 0.009,0 5.3e-4,-0.0384 -0.0179,-0.08529 z m 0.72556,-0.300768 c -0.006,-0.01973 -0.027,-0.140954 -0.0469,-0.269337 -0.0376,-0.243598 -0.11436,-0.58466 -0.14556,-0.646416 -0.056,-0.110941 -0.20472,-0.350122 -0.21765,-0.350133 -0.0329,0 0.0769,0.508228 0.15911,0.736186 0.016,0.04443 0.0565,0.175151 0.0899,0.29046 0.0334,0.11531 0.0738,0.240551 0.0897,0.278318 0.0279,0.06623 0.0298,0.06739 0.0555,0.03274 0.0148,-0.01988 0.0218,-0.05194 0.0158,-0.07183 z m 0.50261,-0.224447 c 0.082,-0.315227 0.10005,-0.444002 0.11089,-0.790067 0.0107,-0.343015 -0.0146,-0.64438 -0.077,-0.913786 -0.0167,-0.07209 -0.0223,-0.148999 -0.0151,-0.206878 0.0147,-0.117557 -0.0246,-0.274113 -0.11993,-0.477421 -0.0394,-0.08395 -0.10029,-0.229387 -0.13544,-0.323208 -0.0737,-0.196697 -0.14986,-0.35384 -0.22371,-0.461502 -0.0284,-0.04152 -0.0676,-0.112512 -0.0871,-0.157815 -0.0381,-0.08898 -0.16094,-0.297261 -0.27246,-0.462136 -0.0429,-0.06341 -0.10963,-0.130049 -0.17404,-0.173792 -0.0935,-0.0635 -0.10869,-0.08285 -0.14483,-0.184443 -0.0222,-0.06243 -0.12234,-0.250875 -0.22254,-0.418764 -0.16447,-0.275568 -0.20345,-0.327079 -0.4009,-0.5297 -0.12029,-0.123449 -0.2253,-0.217878 -0.23335,-0.209845 -0.008,0.008 0.004,0.06459 0.0269,0.125691 0.0229,0.0611 0.0653,0.175728 0.0943,0.254736 0.0748,0.203604 0.25231,0.554107 0.39121,0.772556 0.0652,0.102574 0.17919,0.297299 0.25326,0.432721 0.12554,0.22954 0.22993,0.365877 0.28013,0.365877 0.0289,0 0.0464,-0.05098 0.0326,-0.09456 -0.007,-0.02052 -0.004,-0.03115 0.006,-0.02512 0.0265,0.0164 0.19258,0.294961 0.25462,0.427089 0.0307,0.06538 0.0961,0.193069 0.1454,0.283743 0.0493,0.09068 0.0896,0.172613 0.0896,0.182079 0,0.0095 0.015,0.05146 0.0334,0.09333 0.0652,0.148813 0.0768,0.182614 0.11115,0.326043 0.0191,0.07981 0.0349,0.151167 0.0349,0.158571 7e-5,0.0074 -0.0285,0.01349 -0.0635,0.01349 -0.0432,0 -0.0775,0.0138 -0.10666,0.043 l -0.043,0.043 0.0325,0.105134 c 0.0179,0.05783 0.0454,0.137459 0.0612,0.176965 0.0267,0.06662 0.0688,0.283257 0.1275,0.655391 0.0133,0.08395 0.038,0.208184 0.0551,0.27608 0.0179,0.07136 0.0266,0.150918 0.0205,0.188537 -0.0212,0.131038 -0.0208,0.136914 0.006,0.136914 0.0474,0 0.0554,0.03924 0.0666,0.324863 0.006,0.153985 0.0167,0.269131 0.0239,0.255877 0.007,-0.01327 0.035,-0.108947 0.0619,-0.212642 z m -0.17746,-1.680683 c -0.006,-0.01666 -0.008,-0.03432 -0.003,-0.03924 0.005,-0.0048 0.0142,0.0048 0.0206,0.02131 0.006,0.01666 0.008,0.03432 0.003,0.03924 -0.005,0.0048 -0.0142,-0.0048 -0.0206,-0.02131 z m -3.93691,0.440886 c 0.0134,-0.03808 0.002,-0.06652 -0.069,-0.176758 -0.0896,-0.138585 -0.31821,-0.394177 -0.32751,-0.366253 -0.0132,0.03961 0.25517,0.550675 0.30679,0.584221 0.0356,0.02316 0.0732,0.0059 0.0898,-0.0412 z m 2.96232,-0.275176 c 0.025,-0.03813 0.0251,-0.05365 0.001,-0.148136 -0.0397,-0.157106 -0.10976,-0.356992 -0.16189,-0.461724 -0.0958,-0.19245 -0.21042,-0.387339 -0.2232,-0.379443 -0.0204,0.01259 0.007,0.117266 0.14635,0.556048 0.0376,0.118509 0.0767,0.247791 0.087,0.287293 0.0209,0.08057 0.0819,0.188541 0.1065,0.188541 0.009,0 0.0287,-0.01915 0.044,-0.04257 z m -7.48219,-0.670823 c -0.0556,-0.116605 -0.10106,-0.225996 -0.10106,-0.243095 0,-0.01708 -0.0132,-0.0311 -0.0293,-0.0311 -0.0607,0 -0.0154,0.145693 0.10302,0.330712 0.0609,0.09524 0.11477,0.169186 0.11964,0.16432 0.005,-0.0048 -0.0367,-0.104251 -0.0922,-0.220851 z m 3.86972,0.09561 c 0.0331,-0.07269 -0.0688,-0.327201 -0.38911,-0.971316 -0.27406,-0.551161 -0.46339,-0.870868 -0.51576,-0.870868 -0.0268,0 -0.003,0.194497 0.0423,0.348165 0.053,0.179276 0.19325,0.445514 0.3846,0.730141 0.1752,0.260616 0.20887,0.323139 0.29447,0.546714 0.0614,0.160321 0.11718,0.260362 0.14521,0.260362 0.0102,0 0.0275,-0.01941 0.0383,-0.04321 z m 4.28627,-0.290191 c 0.0186,-0.04088 0.0139,-0.05666 -0.0417,-0.139156 -0.0345,-0.05119 -0.0908,-0.125389 -0.12519,-0.164896 l -0.0625,-0.07182 -2.9e-4,0.05386 c -4.9e-4,0.104515 0.13255,0.368098 0.18578,0.368098 0.0125,0 0.0323,-0.02073 0.0438,-0.04606 z m -3.83208,-0.12898 c -0.016,-0.11009 -0.0366,-0.148137 -0.0802,-0.148137 -0.0459,0 -0.0443,0.0248 0.009,0.139162 0.0561,0.120434 0.088,0.124459 0.0713,0.009 z m 2.72153,-0.139368 c 0,-0.06582 -0.1294,-0.287583 -0.41896,-0.71803 -0.30298,-0.450401 -0.39844,-0.563828 -0.69431,-0.825015 -0.17412,-0.1537 -0.3116,-0.288419 -0.41607,-0.4077 -0.0876,-0.100089 -0.1319,-0.131731 -0.31791,-0.227356 -0.21061,-0.108265 -0.27156,-0.129282 -0.27156,-0.09364 0,0.02327 0.14869,0.274086 0.22917,0.386571 0.10765,0.150464 0.23951,0.291751 0.39031,0.418214 0.25938,0.217524 0.47497,0.439158 0.71979,0.739947 0.29267,0.359573 0.39996,0.484074 0.58688,0.681009 0.13383,0.140991 0.14529,0.149014 0.16814,0.117769 0.0135,-0.01846 0.0245,-0.05072 0.0245,-0.07177 z m -2.45162,-0.09594 c -0.0441,-0.08745 -0.0802,-0.168249 -0.0802,-0.179557 0,-0.01132 -0.008,-0.02057 -0.018,-0.02057 -0.01,0 -0.018,0.0026 -0.018,0.0059 0,0.01867 0.088,0.212124 0.1259,0.276741 0.0792,0.135036 0.0728,0.08129 -0.01,-0.08255 z m 0.59185,0.01983 c -0.0278,-0.03702 -0.0994,-0.127674 -0.15925,-0.201425 -0.14177,-0.17477 -0.32754,-0.423883 -0.33801,-0.453272 -0.005,-0.01275 -0.0144,-0.01745 -0.0218,-0.01047 -0.0322,0.02993 0.15702,0.299456 0.39033,0.556032 0.16693,0.183576 0.21532,0.224584 0.12879,0.109148 z m -5.03911,-0.457593 c 0.0548,-0.167292 0.0808,-0.335436 0.0577,-0.3728 -0.0188,-0.03036 -0.1055,-0.0021 -0.12942,0.04241 -0.0237,0.04395 -0.0426,0.398535 -0.025,0.468785 0.006,0.02576 0.0186,0.04263 0.027,0.03744 0.008,-0.0053 0.0398,-0.0843 0.0697,-0.175807 z m 8.6635,-0.63623 c 0.003,-0.05317 -0.003,-0.0689 -0.0293,-0.07431 -0.061,-0.01259 -0.0734,0.02422 -0.0388,0.114812 0.0252,0.06599 0.0355,0.07792 0.0481,0.05551 0.009,-0.01571 0.0178,-0.05892 0.02,-0.09601 z m -8.46299,-0.03808 c 0.026,-0.09357 0.0233,-0.128901 -0.0108,-0.14199 -0.0435,-0.01671 -0.0816,0.04501 -0.0684,0.110866 0.0274,0.137126 0.0476,0.145048 0.0792,0.0311 z m 8.26687,-0.389464 c 0.0168,-0.04363 -0.0367,-0.190208 -0.0895,-0.245274 -0.0394,-0.04115 -0.0649,-0.05146 -0.12728,-0.05146 -0.0531,0 -0.0813,0.0087 -0.0884,0.02724 -0.0149,0.03882 0.10025,0.222929 0.16419,0.262515 0.0648,0.04014 0.12709,0.04321 0.141,0.007 z m -7.91115,-0.278751 c 0.0597,-0.130494 0.0777,-0.356337 0.0315,-0.394727 -0.0266,-0.02205 -0.0371,-0.0219 -0.0784,0.0011 -0.0483,0.02708 -0.083,0.106848 -0.12625,0.290498 -0.0223,0.09433 -0.0272,0.287482 -0.008,0.306807 0.0227,0.02274 0.13545,-0.104176 0.18106,-0.203821 z m 7.50979,-0.236934 c 0,-0.03797 -0.0952,-0.122185 -0.13803,-0.122185 -0.0516,0 -0.0531,0.03432 -0.004,0.09633 0.0388,0.04929 0.14235,0.06811 0.14235,0.02586 z m -0.67237,-0.706268 c 0.0242,-0.0546 0.0439,-0.114606 0.0439,-0.133354 0,-0.03824 -0.0951,-0.09432 -0.13435,-0.07924 -0.0137,0.0053 -0.0482,-0.0078 -0.0768,-0.02898 -0.0376,-0.02777 -0.0654,-0.03512 -0.10015,-0.02639 -0.0953,0.02391 -0.0768,0.171444 0.0372,0.297743 0.0497,0.05503 0.0756,0.06948 0.12452,0.06948 0.0576,0 0.0647,-0.0067 0.10564,-0.09927 z m -1.39581,0.03052 c 0.004,-0.02533 -0.004,-0.03898 -0.0214,-0.03898 -0.0349,0 -0.0533,0.03009 -0.0398,0.0652 0.0146,0.03813 0.0542,0.02116 0.0612,-0.02618 z m 1.62785,0.01555 c 0.0169,-0.0274 -0.0579,-0.09044 -0.10733,-0.09044 -0.0564,0 -0.059,0.04194 -0.005,0.07979 0.0451,0.03157 0.0964,0.03644 0.11232,0.01063 z m -4.92852,-0.826856 c 0,-0.02227 -0.15808,-0.124755 -0.27285,-0.176928 -0.0466,-0.02116 -0.12089,-0.03834 -0.16609,-0.03834 -0.045,0 -0.0818,-0.0069 -0.0818,-0.01528 0,-0.02168 -0.10898,-0.133096 -0.11971,-0.122365 -0.0166,0.01661 0.0297,0.0813 0.0666,0.093 0.0271,0.0086 0.0336,0.02116 0.0251,0.04823 -0.032,0.100987 0.10597,0.194 0.31537,0.212515 0.21063,0.01862 0.23342,0.01856 0.23342,-0.0011 z m -1.06936,-0.576748 c 0.0236,-0.02142 0.0133,-0.154641 -0.0163,-0.211204 -0.0134,-0.02576 -0.0911,-0.110158 -0.17252,-0.187622 -0.13477,-0.128187 -0.15306,-0.139859 -0.20361,-0.129938 -0.078,0.01529 -0.10528,0.05818 -0.0919,0.144308 0.0216,0.138918 0.15153,0.316147 0.29428,0.401353 0.0499,0.02978 0.0702,0.03279 0.11672,0.01729 0.031,-0.01031 0.064,-0.0257 0.0733,-0.03422 z m 11.58261,2.216116 c -0.13849,-0.0075 -0.53052,-0.08369 -0.58781,-0.114225 -0.0171,-0.0092 -0.0435,-0.01661 -0.0586,-0.01661 -0.0151,0 -0.0415,-0.0074 -0.0586,-0.01645 -0.0355,-0.01872 -0.12735,-0.05693 -0.21971,-0.0914 -0.0346,-0.0129 -0.10325,-0.0413 -0.15263,-0.06318 -0.0494,-0.02184 -0.13422,-0.05791 -0.18854,-0.08015 -0.13355,-0.05466 -0.21563,-0.08866 -0.26934,-0.111571 -0.0918,-0.03914 -0.11995,-0.0504 -0.26036,-0.104118 -0.079,-0.0302 -0.15981,-0.06196 -0.17956,-0.07051 -0.0198,-0.0086 -0.0804,-0.03364 -0.13467,-0.05569 -0.24208,-0.09837 -0.3696,-0.160692 -0.71824,-0.351069 -0.173,-0.09446 -0.57781,-0.293945 -0.70927,-0.349519 -0.0197,-0.0084 -0.0738,-0.03178 -0.12022,-0.05209 -0.0464,-0.02031 -0.0889,-0.03692 -0.0945,-0.03692 -0.006,0 -0.0444,-0.01587 -0.0863,-0.03527 -0.0419,-0.01941 -0.21752,-0.08312 -0.39035,-0.1416 -0.38085,-0.128875 -0.41019,-0.139769 -0.70926,-0.263382 -0.2472,-0.102178 -0.89216,-0.411878 -0.95167,-0.45698 -0.01,-0.0075 -0.0786,-0.04601 -0.15262,-0.0856 -0.62685,-0.335091 -1.1026,-0.670749 -1.4104,-0.995083 -0.1578,-0.166282 -0.5281,-0.625928 -0.64873,-0.805273 -0.16898,-0.251213 -0.31436,-0.586807 -0.40061,-0.924733 -0.0559,-0.219 -0.1157,-0.419827 -0.14436,-0.484815 -0.05,-0.113257 -0.12779,-0.370139 -0.15353,-0.506688 -0.0357,-0.189447 -0.0529,-1.01141 -0.0258,-1.235048 0.0483,-0.398857 0.22861,-1.332185 0.28469,-1.473393 0.0524,-0.131916 0.16488,-0.341327 0.26489,-0.493118 0.0487,-0.07389 0.14095,-0.222278 0.20504,-0.329755 0.0641,-0.107477 0.15107,-0.234135 0.19329,-0.281458 0.0422,-0.04732 0.0745,-0.09319 0.0718,-0.101917 -0.003,-0.0087 0.0368,-0.07314 0.0877,-0.143145 0.0823,-0.113045 0.10088,-0.128663 0.1664,-0.139732 0.0406,-0.0068 0.0918,-0.0276 0.11385,-0.0461 0.21274,-0.178484 0.40344,-0.285253 0.98769,-0.553004 0.17477,-0.08009 0.65194,-0.225491 0.8929,-0.27208 0.48149,-0.09309 0.69063,-0.100506 1.02058,-0.03619 0.20134,0.03925 0.23942,0.05047 0.42313,0.124685 0.0287,0.01158 0.12158,0.02481 0.20649,0.0294 0.21032,0.01138 0.51642,0.0549 0.68278,0.09708 0.0774,0.01961 0.31996,0.111842 0.38263,0.145462 0.0171,0.0092 0.0435,0.01673 0.0586,0.01673 0.0151,0 0.0415,0.0078 0.0586,0.01739 0.0171,0.0096 0.0675,0.02912 0.11198,0.04345 0.66698,0.215151 1.27335,0.585334 1.91449,1.168782 0.0111,0.0101 0.25358,0.2486 0.53891,0.530065 0.28533,0.281459 0.61064,0.596585 0.72292,0.700281 0.3305,0.305253 0.48447,0.460629 0.79229,0.799513 0.12461,0.137199 0.33741,0.400655 0.46412,0.574616 0.37459,0.514268 0.60299,0.922613 0.8735,1.561683 0.2559,0.604529 0.36523,1.003281 0.41358,1.508309 0.007,0.06913 0.0237,0.19437 0.038,0.278317 0.068,0.400143 0.0759,0.483614 0.0699,0.745172 -0.003,0.148142 -0.015,0.309743 -0.0258,0.359124 -0.0239,0.108984 -0.0729,0.292025 -0.0914,0.341163 -0.007,0.01978 -0.0364,0.108635 -0.0644,0.197516 -0.028,0.08888 -0.0819,0.229794 -0.11963,0.313139 -0.0639,0.140996 -0.25567,0.448423 -0.33116,0.530979 -0.0181,0.01983 -0.0649,0.07642 -0.10384,0.125697 -0.1081,0.136739 -0.41989,0.451855 -0.5307,0.536358 -0.13621,0.10387 -0.28852,0.194116 -0.47212,0.279735 -0.0856,0.03988 -0.15954,0.07254 -0.1644,0.07254 -0.005,0 -0.0515,0.0192 -0.10364,0.04263 -0.12072,0.05428 -0.29922,0.115056 -0.37624,0.128108 -0.0328,0.0056 -0.0718,0.01343 -0.0866,0.01756 -0.0939,0.02591 -0.52164,0.04448 -0.74518,0.03237 z m -0.71236,-2.555925 c 0.0359,-0.04548 0.0407,-0.06794 0.0339,-0.160353 -0.004,-0.0591 -0.0181,-0.119689 -0.0305,-0.134645 -0.031,-0.03734 -0.13573,-0.03422 -0.25731,0.0076 -0.11579,0.03982 -0.17985,0.09133 -0.17097,0.137426 0.008,0.03919 0.15553,0.147639 0.24518,0.179652 0.0978,0.03491 0.1334,0.02904 0.17979,-0.02967 z m -1.2446,-0.816823 c 0.12318,-0.0358 0.29666,-0.14838 0.40558,-0.263192 0.0735,-0.0775 0.0874,-0.103859 0.0961,-0.182608 0.018,-0.162606 -0.005,-0.231491 -0.10268,-0.304935 -0.0875,-0.06591 -0.20046,-0.09661 -0.39928,-0.10854 -0.0988,-0.0059 -0.23613,-0.02221 -0.30526,-0.03623 -0.15777,-0.03194 -0.43854,-0.0257 -0.70028,0.0155 -0.23341,0.03676 -0.32103,0.06403 -0.32837,0.102178 -0.003,0.01539 0.0123,0.07566 0.0339,0.133968 0.0535,0.144249 0.19719,0.28203 0.4384,0.420245 0.28398,0.162717 0.51285,0.244633 0.69724,0.249541 0.038,0.0011 0.11206,-0.01068 0.16461,-0.02591 z m 1.22974,-0.793738 c 0.0459,-0.02295 0.0644,-0.04495 0.0686,-0.08186 0.009,-0.0818 -0.0258,-0.107181 -0.136,-0.09805 -0.10134,0.0084 -0.16481,0.04411 -0.22746,0.128039 -0.0316,0.04226 -0.0329,0.05151 -0.0101,0.06595 0.0456,0.02882 0.23666,0.02004 0.30492,-0.01407 z m 1.85554,-0.05529 c 0.0647,-0.06748 0.0859,-0.201293 0.0659,-0.414771 -0.0202,-0.215599 -0.067,-0.316417 -0.15862,-0.341861 -0.0363,-0.01005 -0.0839,-0.01835 -0.10573,-0.01841 -0.0695,-2.11e-4 -0.20985,0.05564 -0.26098,0.10378 -0.0826,0.07775 -0.0673,0.123127 0.11919,0.353999 0.0558,0.06913 0.12328,0.170137 0.14986,0.224452 0.0758,0.154843 0.1134,0.173189 0.1904,0.09282 z m -4.54894,-0.06371 c 0,-0.02232 -0.0285,-0.07387 -0.0633,-0.114542 -0.0712,-0.08314 -0.2695,-0.219819 -0.31899,-0.219819 -0.0279,0 -0.0248,0.01116 0.0224,0.07976 0.0723,0.105065 0.24218,0.276757 0.29278,0.295886 0.0511,0.0193 0.0671,0.0095 0.0671,-0.0413 z m 3.0447,-0.964885 c 0.0204,-0.01862 0.0516,-0.03385 0.0693,-0.03385 0.0585,0 0.25275,-0.104669 0.29148,-0.157053 0.03,-0.04057 0.0374,-0.07452 0.0351,-0.160475 -0.003,-0.12182 -0.0198,-0.150347 -0.11285,-0.194497 -0.073,-0.03464 -0.1343,-0.0293 -0.31169,0.0274 -0.12539,0.04004 -0.17974,0.0699 -0.2553,0.140172 -0.0598,0.05566 -0.0619,0.09026 -0.009,0.157085 0.022,0.02798 0.0377,0.0691 0.0348,0.09135 -0.006,0.04696 0.0615,0.147311 0.11375,0.168572 0.0454,0.01851 0.0974,0.0048 0.14481,-0.03871 z m 0.74402,-0.03358 c 0,-0.03623 -0.0792,-0.107979 -0.11914,-0.107979 -0.0439,0 -0.0258,0.06752 0.0309,0.115235 0.059,0.04966 0.0883,0.04723 0.0883,-0.0072 z m -4.35604,-0.0048 c 0.0204,-0.03163 0.0222,-0.05792 0.008,-0.121201 -0.01,-0.04443 -0.0157,-0.101003 -0.0132,-0.125696 0.003,-0.0247 0.004,-0.147872 0.004,-0.273738 -4e-5,-0.226668 -5e-4,-0.22936 -0.0508,-0.281818 -0.0757,-0.07903 -0.19614,-0.08945 -0.3701,-0.032 -0.0735,0.02428 -0.15505,0.04919 -0.18114,0.05535 -0.0261,0.0062 -0.0971,0.0532 -0.1578,0.104531 -0.10134,0.0857 -0.10942,0.09781 -0.0989,0.148284 0.0191,0.09217 0.054,0.129155 0.28202,0.299488 0.33574,0.250774 0.51595,0.3216 0.57708,0.226811 z m 0.97348,-0.325931 c 0.006,-0.02073 0.0309,-0.05547 0.0542,-0.07722 0.0324,-0.0302 0.0429,-0.05991 0.0444,-0.125691 0.004,-0.173189 -0.006,-0.338302 -0.0224,-0.368897 -0.029,-0.05425 -0.15872,-0.108069 -0.25732,-0.106762 -0.11001,0.0016 -0.41063,0.09831 -0.46445,0.149627 -0.0214,0.02041 -0.058,0.04993 -0.0813,0.06552 -0.0359,0.02406 -0.0409,0.03908 -0.0329,0.09867 0.005,0.03866 0.0243,0.08362 0.0425,0.09992 0.0972,0.08708 0.2034,0.164309 0.22597,0.164309 0.0141,0 0.0408,0.01682 0.0595,0.03739 0.0405,0.04469 0.1277,0.08445 0.25004,0.113923 0.10302,0.0248 0.16328,0.008 0.18171,-0.05077 z m 0.4455,-0.617577 c 0.0422,-0.05592 0.0546,-0.178916 0.024,-0.237097 -0.0415,-0.07876 -0.15665,-0.07055 -0.24682,0.01761 -0.0643,0.06283 -0.0756,0.172935 -0.0227,0.220776 0.0998,0.09028 0.17684,0.08988 0.2456,-0.0011 z m -1.16124,-0.159951 c 0.036,-0.04189 0.041,-0.06465 0.0365,-0.165727 -0.005,-0.10744 -0.009,-0.118519 -0.0512,-0.133285 -0.10587,-0.03707 -0.34944,0.08342 -0.32873,0.162638 0.01,0.0385 0.17068,0.151801 0.24003,0.169328 0.0247,0.0062 0.0487,0.01232 0.0533,0.01349 0.005,0.0011 0.0272,-0.01973 0.0501,-0.04643 z m 2.81155,-0.295718 c 0.0293,-0.04659 -0.0124,-0.122597 -0.0674,-0.122597 -0.0666,0 -0.13622,0.03168 -0.13622,0.06197 0,0.02972 0.12002,0.100808 0.15968,0.09458 0.0137,-0.0021 0.0335,-0.01745 0.0439,-0.03395 z m -4.77396,-0.09135 c 0.0305,-0.04353 0.0362,-0.149765 0.0115,-0.214716 -0.009,-0.02348 -0.0573,-0.06465 -0.10934,-0.09294 -0.0743,-0.04046 -0.11628,-0.05077 -0.20595,-0.05077 -0.13163,0 -0.26155,0.01904 -0.2908,0.04257 -0.0253,0.02036 -0.0118,0.08029 0.0321,0.143446 0.10901,0.156609 0.49149,0.273838 0.56253,0.172411 z m 3.39111,-0.239757 c 0.0215,-0.02581 0.0603,-0.0704 0.0862,-0.09913 0.0454,-0.05024 0.047,-0.05947 0.0432,-0.244883 -0.006,-0.280565 -0.004,-0.270257 -0.068,-0.309568 -0.0794,-0.04844 -0.15299,-0.04469 -0.36246,0.01846 -0.18688,0.05634 -0.20913,0.06777 -0.32211,0.165494 -0.0622,0.05377 -0.0682,0.06629 -0.057,0.117536 0.007,0.03152 0.0342,0.07405 0.0606,0.09445 0.14972,0.115716 0.1899,0.142911 0.21118,0.142911 0.013,0 0.03,0.01105 0.0379,0.02459 0.0259,0.04427 0.20768,0.121968 0.31648,0.135206 0.008,0.0011 0.0324,-0.0193 0.0539,-0.04511 z m 1.50553,-0.413761 c 0.0413,-0.03734 0.0449,-0.171164 0.006,-0.210332 -0.0406,-0.04056 -0.19456,-0.0021 -0.2535,0.06317 -0.0332,0.03681 -0.0327,0.03803 0.0472,0.107011 0.0874,0.07544 0.14816,0.08761 0.2006,0.04014 z m -4.13178,-0.0966 c 0.0191,-0.01021 0.0348,-0.02904 0.0348,-0.04178 0,-0.01275 0.0202,-0.04215 0.0449,-0.06535 0.0425,-0.03993 0.0449,-0.05246 0.0449,-0.235828 0,-0.188023 -0.002,-0.194988 -0.0492,-0.239276 -0.0271,-0.02507 -0.063,-0.04564 -0.0799,-0.04564 -0.0474,0 -0.21885,0.03845 -0.23899,0.05363 -0.01,0.0074 -0.0464,0.01862 -0.0812,0.02486 -0.0384,0.0069 -0.10033,0.04384 -0.15787,0.09418 -0.0839,0.07344 -0.0937,0.08919 -0.0861,0.139119 0.006,0.03855 0.0357,0.0804 0.0945,0.132619 0.0473,0.04199 0.0953,0.07631 0.10672,0.07631 0.0114,0 0.0315,0.01296 0.0446,0.02882 0.0254,0.03062 0.0811,0.05675 0.16903,0.07936 0.0783,0.0201 0.11468,0.01988 0.15381,-0.0011 z m 0.88453,-0.240392 c -0.004,-0.09704 -0.0261,-0.128912 -0.10815,-0.152447 -0.12129,-0.0348 -0.13417,0.088 -0.0195,0.186141 0.10122,0.08664 0.13168,0.0786 0.12766,-0.03369 z m -2.51923,-0.03856 c 0.0443,-0.116568 -0.0404,-0.187293 -0.22435,-0.187293 -0.0839,0 -0.0993,0.0053 -0.0993,0.03252 0,0.05968 0.17881,0.199421 0.25631,0.200304 0.0372,4.28e-4 0.0542,-0.01105 0.0674,-0.04559 z m 3.26414,-0.653423 c 0.0316,-0.04268 0.0393,-0.07772 0.0393,-0.178277 0,-0.1876 -0.0379,-0.211272 -0.24054,-0.150479 -0.0619,0.01856 -0.13137,0.05547 -0.16735,0.08893 -0.0738,0.06862 -0.0652,0.09784 0.0522,0.177499 0.0426,0.02888 0.0814,0.0568 0.0864,0.06204 0.0205,0.02168 0.10188,0.05109 0.14476,0.0522 0.031,0.0011 0.0588,-0.01608 0.0853,-0.05194 z m -2.00315,-0.645533 c 0.0442,-0.04686 0.0493,-0.06541 0.0493,-0.179149 0,-0.113405 -0.004,-0.129827 -0.0422,-0.154562 -0.10735,-0.07033 -0.43469,0.06939 -0.41463,0.176986 0.009,0.04802 0.0801,0.107625 0.1965,0.164606 0.11628,0.05692 0.15111,0.05562 0.21104,-0.0079 z m 21.83053,5.901432 c 10e-4,-0.10377 0.0654,-0.393791 0.0912,-0.41007 0.0464,-0.02935 0.0609,-0.0042 0.0594,0.103278 -0.001,0.08105 -0.016,0.138468 -0.061,0.236124 -0.0327,0.07096 -0.0664,0.129023 -0.0748,0.129023 -0.008,0 -0.0151,-0.02623 -0.0148,-0.05835 z m -2.55632,-0.410869 c -0.0382,-0.05894 -0.0491,-0.189689 -0.018,-0.215561 0.026,-0.02158 0.38236,-0.01254 0.4406,0.01116 0.0252,0.01026 0.0268,0.01846 0.009,0.04675 -0.0118,0.01888 -0.0316,0.03432 -0.044,0.03432 -0.0124,0 -0.0226,0.0081 -0.0226,0.01798 0,0.0099 -0.008,0.01793 -0.0171,0.01793 -0.009,0 -0.0542,0.02507 -0.0996,0.05568 -0.0454,0.03062 -0.11365,0.05986 -0.15172,0.06497 -0.0586,0.0079 -0.0734,0.0026 -0.0968,-0.03321 z m 0.57497,-0.155551 c -0.0325,-0.03586 -0.0578,-0.196453 -0.0414,-0.262028 0.0228,-0.09088 0.26088,-0.262663 0.32821,-0.236822 0.0233,0.0089 0.0269,0.03422 0.0202,0.142477 -0.009,0.142959 -0.0432,0.207618 -0.17577,0.329829 -0.0727,0.06699 -0.0913,0.07076 -0.13134,0.02655 z m 1.84164,-2.78667 c -0.0367,-0.02237 -0.0584,-0.04993 -0.0584,-0.0742 0,-0.03565 0.006,-0.03776 0.084,-0.02713 0.12693,0.0174 0.19978,0.101384 0.10905,0.125702 -0.0605,0.01624 -0.0712,0.01428 -0.13468,-0.02438 z"
                         id="path1448" />
                    </g>
                  </g>
                </g>
              </g>
            </g>
          </g>
        </g>
      </g>
      <path
         style="fill:#000000;stroke-width:0.999998"
         id="path1434"
         d="" />
      <path
         style="fill:#000000;stroke-width:0.999998"
         id="path1432"
         d="" />
    </g>
  </g>
</svg>
